o Sponza_Mesh_009
v 10.417768 5.163448 3.324243
v 7.201371 5.163448 3.324243
v 7.201371 2.414106 3.324243
v 10.417768 2.414106 3.324243
v 10.417768 -1.844139 3.324243
v -8.241399 2.414106 3.324243
v -8.241399 5.163448 3.324243
v 7.201371 -1.844139 3.324243
v -11.457795 5.163448 3.324243
v -11.457795 2.414106 3.324243
v 10.417768 -4.593482 3.324243
v 7.201371 -4.593482 3.324243
v -8.241399 -4.593482 3.324243
v -8.241399 -1.844139 3.324243
v -11.457795 -1.844139 3.324243
v -11.457795 -4.593482 3.324243
vt 6.718900 3.185200
vt 5.731000 3.185200
vt 5.731000 2.327400
vt 6.718900 2.327400
vt 6.718900 1.017300
vt 0.987900 2.327400
vt 0.987900 3.185200
vt 5.731000 1.017300
vt 0.000000 3.185200
vt 0.000000 2.327400
vt 6.718900 0.140900
vt 5.731000 0.140900
vt 0.987900 0.140900
vt 0.987900 1.017300
vt 0.000000 1.017300
vt 0.000000 0.140900
vn 0.000000 0.000000 1.000000
vn 0.000000 0.000000 1.000000
vn 0.000000 0.000000 1.000000
vn 0.000000 0.000000 1.000000
vn 0.000000 0.000000 1.000000
vn 0.000000 0.000000 1.000000
vn 0.000000 0.000000 1.000000
vn 0.000000 0.000000 1.000000
vn 0.000000 0.000000 1.000000
vn 0.000000 0.000000 1.000000
vn 0.000000 0.000000 1.000000
vn 0.000000 0.000000 1.000000
vn 0.000000 0.000000 1.000000
vn 0.000000 0.000000 1.000000
vn 0.000000 0.000000 1.000000
vn 0.000000 0.000000 1.000000
f 1/1/1 2/2/2 3/3/3
f 1/1/1 3/3/3 4/4/4
f 3/3/3 5/5/5 4/4/4
f 2/2/2 6/6/6 3/3/3
f 2/2/2 7/7/7 6/6/6
f 3/3/3 8/8/8 5/5/5
f 6/6/6 7/7/7 9/9/9
f 6/6/6 9/9/9 10/10/10
f 8/8/8 11/11/11 5/5/5
f 8/8/8 12/12/12 11/11/11
f 13/13/13 12/12/12 8/8/8
f 14/14/14 6/6/6 10/10/10
f 13/13/13 8/8/8 14/14/14
f 14/14/14 10/10/10 15/15/15
f 16/16/16 13/13/13 14/14/14
f 16/16/16 14/14/14 15/15/15
