o Sponza_Mesh_039
v -2.857021 -4.584831 0.958441
v -2.857021 -4.669377 0.958441
v -4.077467 -4.669377 0.958441
v -4.077467 -4.584831 0.958441
v -4.077467 -4.584831 0.958441
v -4.077467 -4.669377 0.958441
v -4.077468 -4.669377 2.218435
v -4.077467 -4.584831 2.218435
v -2.857021 -4.584832 2.227900
v -2.857021 -4.669377 2.227900
v -2.857021 -4.669377 0.958441
v -2.857021 -4.584831 0.958441
v -3.004804 -4.584832 2.225015
v -3.004804 -4.669377 2.225015
v -2.857021 -4.669377 2.227900
v -2.857021 -4.584832 2.227900
v -3.102767 -4.584832 2.260907
v -3.102767 -4.669377 2.260907
v -3.004804 -4.669377 2.225015
v -3.004804 -4.584832 2.225015
v -3.246534 -4.584832 2.294599
v -3.246534 -4.669377 2.294599
v -3.102767 -4.669377 2.260907
v -3.102767 -4.584832 2.260907
v -3.443731 -4.584832 2.314540
v -3.443731 -4.669377 2.314540
v -3.246534 -4.669377 2.294599
v -3.246534 -4.584832 2.294599
v -3.531527 -4.584832 2.314540
v -3.531527 -4.669377 2.314540
v -3.443731 -4.669377 2.314540
v -3.443731 -4.584832 2.314540
v -3.696914 -4.584831 2.294518
v -3.696914 -4.669377 2.294518
v -3.531527 -4.669377 2.314540
v -3.531527 -4.584832 2.314540
v -3.848313 -4.584831 2.258713
v -3.848313 -4.669377 2.258713
v -3.696914 -4.669377 2.294518
v -3.696914 -4.584831 2.294518
v -3.971723 -4.584831 2.217881
v -3.971723 -4.669377 2.217881
v -3.848313 -4.669377 2.258713
v -3.848313 -4.584831 2.258713
v -4.077467 -4.584831 2.218435
v -4.077468 -4.669377 2.218435
v -3.971723 -4.669377 2.217881
v -3.971723 -4.584831 2.217881
vt 0.493700 0.000000
vt 0.493700 0.000000
vt 0.848100 0.000000
vt 0.848100 0.000000
vt 0.848100 0.000000
vt 0.848100 0.000000
vt 0.848100 0.386100
vt 0.848100 0.386100
vt 0.493700 0.389000
vt 0.493700 0.389000
vt 0.493700 0.000000
vt 0.493700 0.000000
vt 0.536600 0.388100
vt 0.536600 0.388100
vt 0.493700 0.389000
vt 0.493700 0.389000
vt 0.565100 0.399100
vt 0.565100 0.399100
vt 0.536600 0.388100
vt 0.536600 0.388100
vt 0.606800 0.409400
vt 0.606800 0.409400
vt 0.565100 0.399100
vt 0.565100 0.399100
vt 0.664100 0.415500
vt 0.664100 0.415500
vt 0.606800 0.409400
vt 0.606800 0.409400
vt 0.689600 0.415500
vt 0.689600 0.415500
vt 0.664100 0.415500
vt 0.664100 0.415500
vt 0.737600 0.409400
vt 0.737600 0.409400
vt 0.689600 0.415500
vt 0.689600 0.415500
vt 0.781600 0.398400
vt 0.781600 0.398400
vt 0.737600 0.409400
vt 0.737600 0.409400
vt 0.817400 0.385900
vt 0.817400 0.385900
vt 0.781600 0.398400
vt 0.781600 0.398400
vt 0.848100 0.386100
vt 0.848100 0.386100
vt 0.817400 0.385900
vt 0.817400 0.385900
vn 0.000000 0.000000 -1.000000
vn 0.000000 0.000000 -1.000000
vn 0.000000 0.000000 -1.000000
vn 0.000000 0.000000 -1.000000
vn -1.000000 0.000000 -0.000000
vn -1.000000 0.000000 -0.000000
vn -1.000000 0.000000 -0.000000
vn -1.000000 0.000000 -0.000000
vn 1.000000 0.000000 0.000000
vn 1.000000 0.000000 0.000000
vn 1.000000 0.000000 0.000000
vn 1.000000 0.000000 0.000000
vn -0.019500 -0.000000 0.999810
vn -0.019500 -0.000000 0.999810
vn -0.019500 -0.000000 0.999810
vn -0.019500 -0.000000 0.999810
vn 0.343990 -0.000000 0.938973
vn 0.343990 -0.000000 0.938973
vn 0.343990 -0.000000 0.938973
vn 0.343990 -0.000000 0.938973
vn 0.228203 -0.000000 0.973614
vn 0.228203 -0.000000 0.973614
vn 0.228203 -0.000000 0.973614
vn 0.228203 -0.000000 0.973614
vn 0.100603 -0.000000 0.994927
vn 0.100603 -0.000000 0.994927
vn 0.100603 -0.000000 0.994927
vn 0.100603 -0.000000 0.994927
vn 0.000000 0.000000 1.000000
vn 0.000000 0.000000 1.000000
vn 0.000000 0.000000 1.000000
vn 0.000000 0.000000 1.000000
vn -0.120194 0.000000 0.992750
vn -0.120194 0.000000 0.992750
vn -0.120194 0.000000 0.992750
vn -0.120194 0.000000 0.992750
vn -0.230093 0.000000 0.973169
vn -0.230093 0.000000 0.973169
vn -0.230093 0.000000 0.973169
vn -0.230093 0.000000 0.973169
vn -0.314097 -0.000000 0.949391
vn -0.314097 -0.000000 0.949391
vn -0.314097 -0.000000 0.949391
vn -0.314097 -0.000000 0.949391
vn 0.005200 -0.000000 0.999987
vn 0.005200 -0.000000 0.999987
vn 0.005200 -0.000000 0.999987
vn 0.005200 -0.000000 0.999987
f 1/1/1 2/2/2 3/3/3
f 1/1/1 3/3/3 4/4/4
f 5/5/5 6/6/6 7/7/7
f 5/5/5 7/7/7 8/8/8
f 9/9/9 10/10/10 11/11/11
f 9/9/9 11/11/11 12/12/12
f 13/13/13 14/14/14 15/15/15
f 13/13/13 15/15/15 16/16/16
f 17/17/17 18/18/18 19/19/19
f 17/17/17 19/19/19 20/20/20
f 21/21/21 22/22/22 23/23/23
f 21/21/21 23/23/23 24/24/24
f 25/25/25 26/26/26 27/27/27
f 25/25/25 27/27/27 28/28/28
f 29/29/29 30/30/30 31/31/31
f 29/29/29 31/31/31 32/32/32
f 33/33/33 34/34/34 35/35/35
f 33/33/33 35/35/35 36/36/36
f 37/37/37 38/38/38 39/39/39
f 37/37/37 39/39/39 40/40/40
f 41/41/41 42/42/42 43/43/43
f 41/41/41 43/43/43 44/44/44
f 45/45/45 46/46/46 47/47/47
f 45/45/45 47/47/47 48/48/48
