o Sponza_Mesh_013
v 6.949178 -1.487738 5.551612
v 6.898635 -1.487738 5.550135
v 6.949178 -1.487738 7.373828
v 6.747395 -1.487738 6.109662
v 6.451260 -1.487738 6.373955
v 6.113752 -1.487738 7.373828
v 6.113752 -1.487738 6.550633
v 5.776244 -1.487738 6.373955
v 5.418165 -1.487738 7.373828
v 5.480110 -1.487738 6.109662
v 5.418165 -1.487738 5.880492
v 5.356221 -1.487738 6.109662
v 5.060087 -1.487738 6.373955
v 4.722579 -1.487738 7.373828
v 4.722579 -1.487738 6.550633
v 4.385070 -1.487738 6.403533
v 3.949393 -1.487738 7.373828
v 4.088935 -1.487738 6.118341
v 3.933487 -1.487738 5.740151
v 3.839470 -1.487738 5.957285
v 3.622059 -1.487738 6.279592
v 3.325391 -1.487738 6.480822
v 3.138137 -1.487738 7.373828
v 3.138137 -1.487738 6.565678
v 2.987084 -1.487738 6.517330
v 2.449753 -1.487738 7.373828
v 2.663543 -1.487738 6.292249
v 2.449753 -1.487738 6.019618
v 2.251570 -1.487738 6.212526
v 2.003439 -1.487738 6.422716
v 1.755308 -1.487738 7.373828
v 1.755308 -1.487738 6.526347
v 1.469463 -1.487738 6.396179
v 0.968941 -1.487738 7.373828
v 1.183618 -1.487738 6.130501
v 0.968941 -1.487738 5.692455
v 0.730255 -1.487738 6.210187
v 0.419143 -1.487738 6.427083
v 0.180458 -1.487738 7.373828
v 0.180458 -1.487738 6.546289
v -0.029282 -1.487738 6.440296
v -0.534886 -1.487738 7.373828
v -0.294514 -1.487738 6.249763
v -0.534866 -1.487738 6.013942
v 6.949178 -1.487738 5.551612
v 6.949178 -1.487738 7.373828
v 6.949178 -1.370547 5.552159
v 6.949178 -1.188706 5.985345
v 6.949178 -0.955371 6.287978
v 6.949178 -0.488701 7.373828
v 6.949178 -0.488701 6.511376
v 6.949178 0.288602 7.373828
v 6.949178 -0.022030 6.287978
v 6.949178 0.211306 5.985345
v 6.949178 0.288602 5.868671
v 6.949178 0.365898 5.985345
v 6.949178 0.599234 6.287978
v 6.949178 1.065904 6.511376
v 6.949178 1.065904 7.373828
v 6.949178 1.532575 6.287978
v 6.949178 2.074607 7.373828
v 6.949178 1.765910 5.985345
v 6.949178 1.926263 5.552159
v 6.949178 2.074607 5.551612
v 6.949178 2.074607 5.551612
v 6.949178 2.074607 7.373828
v 6.898635 2.074607 5.550135
v 6.747395 2.074607 6.109662
v 6.451260 2.074607 6.373955
v 6.113752 2.074607 7.373828
v 6.113752 2.074607 6.550633
v 5.776244 2.074607 6.373955
v 5.418165 2.074607 7.373828
v 5.480110 2.074607 6.109662
v 5.418165 2.074607 5.880492
v 5.356221 2.074607 6.109662
v 5.060087 2.074607 6.373955
v 4.722579 2.074607 7.373828
v 4.722579 2.074607 6.550633
v 4.385070 2.074607 6.403533
v 3.949393 2.074607 7.373828
v 4.088935 2.074607 6.118341
v 3.933487 2.074607 5.740151
v 3.839470 2.074607 5.957285
v 3.622059 2.074607 6.279592
v 3.325391 2.074607 6.480822
v 3.138137 2.074607 7.373828
v 3.138137 2.074607 6.565678
v 2.987084 2.074607 6.517330
v 2.449753 2.074607 7.373828
v 2.663543 2.074607 6.292249
v 2.449753 2.074607 6.019618
v 2.251570 2.074607 6.212526
v 2.003439 2.074607 6.422716
v 1.755308 2.074607 7.373828
v 1.755308 2.074607 6.526347
v 1.469463 2.074607 6.396179
v 0.968941 2.074607 7.373828
v 1.183618 2.074607 6.130501
v 0.968941 2.074607 5.692455
v 0.730255 2.074607 6.210187
v 0.419143 2.074607 6.427083
v 0.180458 2.074607 7.373828
v 0.180458 2.074607 6.546289
v -0.029282 2.074606 6.440296
v -0.534866 2.074607 7.373828
v -0.294514 2.074606 6.249763
v -0.504687 2.074606 6.013942
v -8.018909 -1.487738 5.551612
v -8.018909 -1.487738 7.373828
v -7.968366 -1.487738 5.550135
v -7.771871 -1.487738 6.109662
v -7.520993 -1.487738 6.373955
v -7.183484 -1.487738 7.373828
v -7.183484 -1.487738 6.550633
v -6.845975 -1.487738 6.373955
v -6.487897 -1.487738 7.373828
v -6.549841 -1.487738 6.109662
v -6.487897 -1.487738 5.880492
v -6.376133 -1.487738 6.109662
v -6.129819 -1.487738 6.373955
v -5.792310 -1.487738 7.373828
v -5.792310 -1.487738 6.550633
v -5.454801 -1.487738 6.403533
v -5.019124 -1.487738 7.373828
v -5.158667 -1.487738 6.118341
v -4.945893 -1.487738 5.740151
v -4.881576 -1.487738 5.957285
v -4.673264 -1.487738 6.279592
v -4.395123 -1.487738 6.480822
v -4.207869 -1.487738 7.373828
v -4.207869 -1.487738 6.565678
v -4.056815 -1.487738 6.517330
v -3.519484 -1.487738 7.373828
v -3.733274 -1.487738 6.292249
v -3.463360 -1.487738 6.019618
v -3.321302 -1.487738 6.212526
v -3.073170 -1.487738 6.422716
v -2.825039 -1.487738 7.373828
v -2.825039 -1.487738 6.526347
v -2.539194 -1.487738 6.396179
v -2.038672 -1.487738 7.373828
v -2.253350 -1.487738 6.130501
v -1.993806 -1.487738 5.692455
v -1.761382 -1.487738 6.210187
v -1.488875 -1.487738 6.427083
v -1.250190 -1.487738 7.373828
v -1.250190 -1.487738 6.546289
v -1.040450 -1.487738 6.440296
v -0.534886 -1.487738 7.373828
v -0.775218 -1.487738 6.249763
v -0.534866 -1.487738 6.013942
v -8.018909 -1.487738 5.551612
v -8.018909 -1.370547 5.552159
v -8.018909 -1.487738 7.373828
v -8.018909 -1.188706 5.985345
v -8.018909 -0.955371 6.287978
v -8.018909 -0.488701 7.373828
v -8.018909 -0.488701 6.511376
v -8.018909 0.288602 7.373828
v -8.018909 -0.022030 6.287978
v -8.018909 0.211306 5.985345
v -8.018909 0.288602 5.868671
v -8.018909 0.365898 5.985345
v -8.018909 0.599234 6.287978
v -8.018909 1.065904 6.511376
v -8.018909 1.065904 7.373828
v -8.018909 1.532575 6.287978
v -8.018909 2.074607 7.373828
v -8.018909 1.765910 5.985345
v -8.018909 1.926263 5.552159
v -8.018909 2.074607 5.551612
v -8.018909 2.074607 5.551612
v -7.968366 2.074607 5.550135
v -8.018909 2.074607 7.373828
v -7.779948 2.074607 6.109662
v -7.520993 2.074607 6.373955
v -7.183484 2.074607 7.373828
v -7.183484 2.074607 6.550633
v -6.845975 2.074607 6.373955
v -6.487897 2.074607 7.373828
v -6.549841 2.074607 6.109662
v -6.487897 2.074607 5.880492
v -6.366828 2.074607 6.109662
v -6.129819 2.074607 6.373955
v -5.792310 2.074607 7.373828
v -5.792310 2.074607 6.550633
v -5.454801 2.074607 6.403533
v -5.019124 2.074607 7.373828
v -5.158667 2.074607 6.118341
v -4.952910 2.074607 5.740151
v -4.884647 2.074607 5.957285
v -4.675053 2.074607 6.279592
v -4.395123 2.074607 6.480822
v -4.207869 2.074607 7.373828
v -4.207869 2.074607 6.565678
v -4.056815 2.074607 6.517330
v -3.519484 2.074607 7.373828
v -3.733274 2.074607 6.292249
v -3.462035 2.074607 6.019618
v -3.321302 2.074607 6.212526
v -3.073170 2.074607 6.422716
v -2.825039 2.074607 7.373828
v -2.825039 2.074607 6.526347
v -2.539194 2.074607 6.396179
v -2.038672 2.074607 7.373828
v -2.253350 2.074607 6.130501
v -2.004791 2.074607 5.692455
v -1.763067 2.074607 6.210187
v -1.488875 2.074607 6.427083
v -1.250190 2.074607 7.373828
v -1.250190 2.074607 6.546289
v -1.040450 2.074606 6.440296
v -0.534866 2.074607 7.373828
v -0.775218 2.074606 6.249763
v -0.504687 2.074606 6.013942
vt -0.088300 -0.445200
vt -0.057000 -0.446100
vt -0.088300 0.681400
vt 0.036500 -0.100200
vt 0.219600 0.063200
vt 0.428200 0.681400
vt 0.428200 0.172500
vt 0.636900 0.063200
vt 0.858300 0.681400
vt 0.820000 -0.100200
vt 0.858300 -0.241900
vt 0.896600 -0.100200
vt 1.079700 0.063200
vt 1.288300 0.681400
vt 1.288300 0.172500
vt 1.497000 0.081500
vt 1.766400 0.681400
vt 1.680100 -0.094800
vt 1.776200 -0.328600
vt 1.834300 -0.194400
vt 1.968800 0.004900
vt 2.152200 0.129300
vt 2.268000 0.681400
vt 2.268000 0.181800
vt 2.361300 0.151900
vt 2.693600 0.681400
vt 2.561400 0.012700
vt 2.693600 -0.155800
vt 2.816100 -0.036600
vt 2.969500 0.093400
vt 3.122900 0.681400
vt 3.122900 0.157500
vt 3.299600 0.077000
vt 3.609100 0.681400
vt 3.476400 -0.087300
vt 3.609100 -0.358100
vt 3.756700 -0.038000
vt 3.949000 0.096100
vt 4.096600 0.681400
vt 4.096600 0.169800
vt 4.226300 0.104200
vt 4.529300 0.681400
vt 4.390300 -0.013600
vt 4.529300 -0.155600
vt 22.723301 -0.445200
vt 22.723301 0.681400
vt 22.673401 -0.444900
vt 22.560900 -0.177000
vt 22.416700 0.010100
vt 22.128201 0.681400
vt 22.128201 0.148200
vt 21.647600 0.681400
vt 21.839600 0.010100
vt 21.695400 -0.177000
vt 21.647600 -0.249200
vt 21.599800 -0.177000
vt 21.455500 0.010100
vt 21.167000 0.148200
vt 21.167000 0.681400
vt 20.878500 0.010100
vt 20.571800 0.681400
vt 20.734200 -0.177000
vt 20.635099 -0.444900
vt 20.571800 -0.445200
vt 20.571800 -0.445200
vt 20.571800 0.681400
vt 20.540600 -0.446100
vt 20.447100 -0.100200
vt 20.264000 0.063200
vt 20.055300 0.681400
vt 20.055300 0.172500
vt 19.846600 0.063200
vt 19.625200 0.681400
vt 19.663500 -0.100200
vt 19.625200 -0.241900
vt 19.587000 -0.100200
vt 19.403900 0.063200
vt 19.195200 0.681400
vt 19.195200 0.172500
vt 18.986500 0.081500
vt 18.717199 0.681400
vt 18.803400 -0.094800
vt 18.707300 -0.328600
vt 18.649200 -0.194400
vt 18.514799 0.004900
vt 18.331400 0.129300
vt 18.215599 0.681400
vt 18.215599 0.181800
vt 18.122200 0.151900
vt 17.790001 0.681400
vt 17.922100 0.012700
vt 17.790001 -0.155800
vt 17.667400 -0.036600
vt 17.514000 0.093400
vt 17.360600 0.681400
vt 17.360600 0.157500
vt 17.183901 0.077000
vt 16.874399 0.681400
vt 17.007200 -0.087300
vt 16.874399 -0.358100
vt 16.726900 -0.038000
vt 16.534500 0.096100
vt 16.386900 0.681400
vt 16.386900 0.169800
vt 16.257299 0.104200
vt 15.954200 0.681400
vt 16.093300 -0.013600
vt 15.972200 -0.155400
vt -0.088300 -0.445200
vt -0.088300 0.681400
vt -0.057000 -0.446100
vt 0.064400 -0.100200
vt 0.219600 0.063200
vt 0.428200 0.681400
vt 0.428200 0.172500
vt 0.636900 0.063200
vt 0.858300 0.681400
vt 0.820000 -0.100200
vt 0.858300 -0.241900
vt 0.927400 -0.100200
vt 1.079700 0.063200
vt 1.288300 0.681400
vt 1.288300 0.172500
vt 1.497000 0.081500
vt 1.766400 0.681400
vt 1.680100 -0.094800
vt 1.811700 -0.328600
vt 1.851400 -0.194400
vt 1.980200 0.004900
vt 2.152200 0.129300
vt 2.268000 0.681400
vt 2.268000 0.181800
vt 2.361300 0.151900
vt 2.693600 0.681400
vt 2.561400 0.012700
vt 2.728300 -0.155800
vt 2.816100 -0.036600
vt 2.969500 0.093400
vt 3.122900 0.681400
vt 3.122900 0.157500
vt 3.299600 0.077000
vt 3.609100 0.681400
vt 3.476400 -0.087300
vt 3.636800 -0.358100
vt 3.780500 -0.038000
vt 3.949000 0.096100
vt 4.096600 0.681400
vt 4.096600 0.169800
vt 4.226300 0.104200
vt 4.529300 0.681400
vt 4.390300 -0.013600
vt 4.529300 -0.155600
vt 22.723301 -0.445200
vt 22.673401 -0.444900
vt 22.723301 0.681400
vt 22.560900 -0.177000
vt 22.416700 0.010100
vt 22.128201 0.681400
vt 22.128201 0.148200
vt 21.647600 0.681400
vt 21.839600 0.010100
vt 21.695400 -0.177000
vt 21.647600 -0.249200
vt 21.599800 -0.177000
vt 21.455500 0.010100
vt 21.167000 0.148200
vt 21.167000 0.681400
vt 20.878500 0.010100
vt 20.571800 0.681400
vt 20.734200 -0.177000
vt 20.635099 -0.444900
vt 20.571800 -0.445200
vt 20.571800 -0.445200
vt 20.540600 -0.446100
vt 20.571800 0.681400
vt 20.424101 -0.100200
vt 20.264000 0.063200
vt 20.055300 0.681400
vt 20.055300 0.172500
vt 19.846600 0.063200
vt 19.625200 0.681400
vt 19.663500 -0.100200
vt 19.625200 -0.241900
vt 19.550400 -0.100200
vt 19.403900 0.063200
vt 19.195200 0.681400
vt 19.195200 0.172500
vt 18.986500 0.081500
vt 18.717199 0.681400
vt 18.803400 -0.094800
vt 18.676201 -0.328600
vt 18.634001 -0.194400
vt 18.504400 0.004900
vt 18.331400 0.129300
vt 18.215599 0.681400
vt 18.215599 0.181800
vt 18.122200 0.151900
vt 17.790001 0.681400
vt 17.922100 0.012700
vt 17.754499 -0.155800
vt 17.667400 -0.036600
vt 17.514000 0.093400
vt 17.360600 0.681400
vt 17.360600 0.157500
vt 17.183901 0.077000
vt 16.874399 0.681400
vt 17.007200 -0.087300
vt 16.853500 -0.358100
vt 16.704000 -0.038000
vt 16.534500 0.096100
vt 16.386900 0.681400
vt 16.386900 0.169800
vt 16.257299 0.104200
vt 15.954200 0.681400
vt 16.093300 -0.013600
vt 15.936700 -0.155600
vn 0.000000 1.000000 0.000000
vn 0.000000 1.000000 0.000000
vn 0.000000 1.000000 0.000000
vn 0.000000 1.000000 0.000000
vn 0.000000 1.000000 0.000000
vn 0.000000 1.000000 0.000000
vn 0.000000 1.000000 0.000000
vn -0.000000 1.000000 0.000000
vn 0.000000 1.000000 0.000000
vn 0.000000 1.000000 0.000000
vn 0.000000 1.000000 0.000000
vn 0.000000 1.000000 0.000000
vn 0.000000 1.000000 0.000000
vn 0.000000 1.000000 0.000000
vn 0.000000 1.000000 0.000000
vn -0.000000 1.000000 0.000000
vn 0.000000 1.000000 0.000000
vn 0.000000 1.000000 0.000000
vn 0.000000 1.000000 0.000000
vn 0.000000 1.000000 0.000000
vn 0.000000 1.000000 0.000000
vn 0.000000 1.000000 0.000000
vn 0.000000 1.000000 0.000000
vn 0.000000 1.000000 0.000000
vn 0.000000 1.000000 0.000000
vn 0.000000 1.000000 0.000000
vn 0.000000 1.000000 0.000000
vn 0.000000 1.000000 0.000000
vn 0.000000 1.000000 0.000000
vn 0.000000 1.000000 0.000000
vn -0.000000 1.000000 0.000000
vn -0.000000 1.000000 0.000000
vn -0.000000 1.000000 0.000000
vn 0.000000 1.000000 0.000000
vn -0.000000 1.000000 0.000000
vn 0.000000 1.000000 0.000000
vn 0.000000 1.000000 0.000000
vn 0.000000 1.000000 0.000000
vn 0.000000 1.000000 0.000000
vn 0.000000 1.000000 0.000000
vn 0.000000 1.000000 0.000000
vn -0.000000 1.000000 0.000000
vn 0.000000 1.000000 0.000000
vn 0.000000 1.000000 0.000000
vn -1.000000 0.000000 0.000000
vn -1.000000 0.000000 0.000000
vn -1.000000 0.000000 0.000000
vn -1.000000 0.000000 0.000000
vn -1.000000 0.000000 0.000000
vn -1.000000 0.000000 0.000000
vn -1.000000 0.000000 0.000000
vn -1.000000 0.000000 0.000000
vn -1.000000 0.000000 0.000000
vn -1.000000 0.000000 0.000000
vn -1.000000 0.000000 0.000000
vn -1.000000 0.000000 0.000000
vn -1.000000 0.000000 0.000000
vn -1.000000 0.000000 0.000000
vn -1.000000 0.000000 0.000000
vn -1.000000 0.000000 0.000000
vn -1.000000 0.000000 0.000000
vn -1.000000 0.000000 0.000000
vn -1.000000 0.000000 0.000000
vn -1.000000 0.000000 0.000000
vn 0.000000 -1.000000 0.000000
vn 0.000000 -1.000000 0.000000
vn 0.000000 -1.000000 0.000000
vn 0.000000 -1.000000 0.000000
vn 0.000000 -1.000000 0.000000
vn -0.000000 -1.000000 0.000000
vn 0.000000 -1.000000 0.000000
vn -0.000000 -1.000000 0.000000
vn 0.000000 -1.000000 0.000000
vn 0.000000 -1.000000 0.000000
vn 0.000000 -1.000000 0.000000
vn 0.000000 -1.000000 0.000000
vn 0.000000 -1.000000 0.000000
vn 0.000000 -1.000000 0.000000
vn 0.000000 -1.000000 0.000000
vn -0.000000 -1.000000 0.000000
vn 0.000000 -1.000000 0.000000
vn 0.000000 -1.000000 0.000000
vn 0.000000 -1.000000 0.000000
vn 0.000000 -1.000000 0.000000
vn 0.000000 -1.000000 0.000000
vn 0.000000 -1.000000 0.000000
vn 0.000000 -1.000000 0.000000
vn 0.000000 -1.000000 0.000000
vn 0.000000 -1.000000 0.000000
vn 0.000000 -1.000000 0.000000
vn 0.000000 -1.000000 0.000000
vn 0.000000 -1.000000 0.000000
vn 0.000000 -1.000000 0.000000
vn 0.000000 -1.000000 0.000000
vn -0.000000 -1.000000 0.000000
vn -0.000000 -1.000000 0.000000
vn -0.000000 -1.000000 0.000000
vn 0.000000 -1.000000 0.000000
vn 0.000000 -1.000000 0.000000
vn 0.000000 -1.000000 0.000000
vn 0.000000 -1.000000 0.000000
vn 0.000000 -1.000000 0.000000
vn 0.000000 -1.000000 0.000000
vn 0.000000 -1.000000 0.000000
vn 0.000000 -1.000000 0.000000
vn 0.000000 -1.000000 0.000000
vn -0.000000 -1.000000 0.000000
vn -0.000000 -1.000000 0.000000
vn 0.000000 1.000000 0.000000
vn 0.000000 1.000000 0.000000
vn 0.000000 1.000000 0.000000
vn 0.000000 1.000000 0.000000
vn -0.000000 1.000000 0.000000
vn -0.000000 1.000000 0.000000
vn -0.000000 1.000000 0.000000
vn 0.000000 1.000000 0.000000
vn 0.000000 1.000000 0.000000
vn 0.000000 1.000000 0.000000
vn 0.000000 1.000000 0.000000
vn 0.000000 1.000000 0.000000
vn -0.000000 1.000000 0.000000
vn -0.000000 1.000000 0.000000
vn -0.000000 1.000000 0.000000
vn 0.000000 1.000000 0.000000
vn 0.000000 1.000000 0.000000
vn 0.000000 1.000000 0.000000
vn 0.000000 1.000000 0.000000
vn 0.000000 1.000000 0.000000
vn 0.000000 1.000000 0.000000
vn 0.000000 1.000000 0.000000
vn 0.000000 1.000000 0.000000
vn 0.000000 1.000000 0.000000
vn 0.000000 1.000000 0.000000
vn -0.000000 1.000000 0.000000
vn -0.000000 1.000000 0.000000
vn -0.000000 1.000000 0.000000
vn -0.000000 1.000000 0.000000
vn -0.000000 1.000000 0.000000
vn 0.000000 1.000000 0.000000
vn 0.000000 1.000000 0.000000
vn 0.000000 1.000000 0.000000
vn -0.000000 1.000000 0.000000
vn 0.000000 1.000000 0.000000
vn -0.000000 1.000000 0.000000
vn -0.000000 1.000000 0.000000
vn -0.000000 1.000000 0.000000
vn -0.000000 1.000000 0.000000
vn -0.000000 1.000000 0.000000
vn -0.000000 1.000000 0.000000
vn -0.000000 1.000000 0.000000
vn -0.000000 1.000000 0.000000
vn 0.000000 1.000000 0.000000
vn 1.000000 0.000000 0.000000
vn 1.000000 0.000000 0.000000
vn 1.000000 0.000000 0.000000
vn 1.000000 0.000000 0.000000
vn 1.000000 0.000000 0.000000
vn 1.000000 0.000000 0.000000
vn 1.000000 0.000000 0.000000
vn 1.000000 0.000000 0.000000
vn 1.000000 0.000000 0.000000
vn 1.000000 0.000000 0.000000
vn 1.000000 0.000000 0.000000
vn 1.000000 0.000000 0.000000
vn 1.000000 0.000000 0.000000
vn 1.000000 0.000000 0.000000
vn 1.000000 0.000000 0.000000
vn 1.000000 0.000000 0.000000
vn 1.000000 0.000000 0.000000
vn 1.000000 0.000000 0.000000
vn 1.000000 0.000000 0.000000
vn 1.000000 0.000000 0.000000
vn 0.000000 -1.000000 0.000000
vn 0.000000 -1.000000 0.000000
vn 0.000000 -1.000000 0.000000
vn 0.000000 -1.000000 0.000000
vn -0.000000 -1.000000 0.000000
vn -0.000000 -1.000000 0.000000
vn -0.000000 -1.000000 0.000000
vn 0.000000 -1.000000 0.000000
vn 0.000000 -1.000000 0.000000
vn 0.000000 -1.000000 0.000000
vn 0.000000 -1.000000 0.000000
vn 0.000000 -1.000000 0.000000
vn -0.000000 -1.000000 0.000000
vn -0.000000 -1.000000 0.000000
vn -0.000000 -1.000000 0.000000
vn 0.000000 -1.000000 0.000000
vn 0.000000 -1.000000 0.000000
vn 0.000000 -1.000000 0.000000
vn 0.000000 -1.000000 0.000000
vn 0.000000 -1.000000 0.000000
vn 0.000000 -1.000000 0.000000
vn 0.000000 -1.000000 0.000000
vn 0.000000 -1.000000 0.000000
vn 0.000000 -1.000000 0.000000
vn 0.000000 -1.000000 0.000000
vn -0.000000 -1.000000 0.000000
vn -0.000000 -1.000000 0.000000
vn -0.000000 -1.000000 0.000000
vn -0.000000 -1.000000 0.000000
vn -0.000000 -1.000000 0.000000
vn 0.000000 -1.000000 0.000000
vn 0.000000 -1.000000 0.000000
vn 0.000000 -1.000000 0.000000
vn -0.000000 -1.000000 0.000000
vn -0.000000 -1.000000 0.000000
vn -0.000000 -1.000000 0.000000
vn -0.000000 -1.000000 0.000000
vn -0.000000 -1.000000 0.000000
vn -0.000000 -1.000000 0.000000
vn -0.000000 -1.000000 0.000000
vn -0.000000 -1.000000 0.000000
vn 0.000000 -1.000000 0.000000
vn 0.000000 -1.000000 0.000000
vn -0.000000 -1.000000 0.000000
f 1/1/1 2/2/2 3/3/3
f 2/2/2 4/4/4 3/3/3
f 4/4/4 5/5/5 3/3/3
f 5/5/5 6/6/6 3/3/3
f 5/5/5 7/7/7 6/6/6
f 6/6/6 7/7/7 8/8/8
f 6/6/6 8/8/8 9/9/9
f 10/10/10 9/9/9 8/8/8
f 9/9/9 10/10/10 11/11/11
f 11/11/11 12/12/12 9/9/9
f 12/12/12 13/13/13 9/9/9
f 13/13/13 14/14/14 9/9/9
f 13/13/13 15/15/15 14/14/14
f 14/14/14 15/15/15 16/16/16
f 14/14/14 16/16/16 17/17/17
f 18/18/18 17/17/17 16/16/16
f 19/19/19 17/17/17 18/18/18
f 19/19/19 20/20/20 17/17/17
f 20/20/20 21/21/21 17/17/17
f 21/21/21 22/22/22 17/17/17
f 22/22/22 23/23/23 17/17/17
f 22/22/22 24/24/24 23/23/23
f 23/23/23 24/24/24 25/25/25
f 23/23/23 25/25/25 26/26/26
f 25/25/25 27/27/27 26/26/26
f 27/27/27 28/28/28 26/26/26
f 28/28/28 29/29/29 26/26/26
f 29/29/29 30/30/30 26/26/26
f 30/30/30 31/31/31 26/26/26
f 30/30/30 32/32/32 31/31/31
f 31/31/31 32/32/32 33/33/33
f 31/31/31 33/33/33 34/34/34
f 33/33/33 35/35/35 34/34/34
f 35/35/35 36/36/36 34/34/34
f 36/36/36 37/37/37 34/34/34
f 37/37/37 38/38/38 34/34/34
f 38/38/38 39/39/39 34/34/34
f 38/38/38 40/40/40 39/39/39
f 39/39/39 40/40/40 41/41/41
f 39/39/39 41/41/41 42/42/42
f 41/41/41 43/43/43 42/42/42
f 43/43/43 44/44/44 42/42/42
f 45/45/45 46/46/46 47/47/47
f 46/46/46 48/48/48 47/47/47
f 46/46/46 49/49/49 48/48/48
f 50/50/50 49/49/49 46/46/46
f 50/50/50 51/51/51 49/49/49
f 52/52/52 51/51/51 50/50/50
f 52/52/52 53/53/53 51/51/51
f 52/52/52 54/54/54 53/53/53
f 52/52/52 55/55/55 54/54/54
f 56/56/56 55/55/55 52/52/52
f 57/57/57 56/56/56 52/52/52
f 58/58/58 57/57/57 52/52/52
f 58/58/58 52/52/52 59/59/59
f 60/60/60 58/58/58 59/59/59
f 60/60/60 59/59/59 61/61/61
f 61/61/61 62/62/62 60/60/60
f 61/61/61 63/63/63 62/62/62
f 64/64/64 63/63/63 61/61/61
f 65/65/65 66/66/66 67/67/67
f 67/67/67 66/66/66 68/68/68
f 68/68/68 66/66/66 69/69/69
f 70/70/70 69/69/69 66/66/66
f 70/70/70 71/71/71 69/69/69
f 72/72/72 71/71/71 70/70/70
f 72/72/72 70/70/70 73/73/73
f 74/74/74 72/72/72 73/73/73
f 73/73/73 75/75/75 74/74/74
f 75/75/75 73/73/73 76/76/76
f 76/76/76 73/73/73 77/77/77
f 78/78/78 77/77/77 73/73/73
f 78/78/78 79/79/79 77/77/77
f 80/80/80 79/79/79 78/78/78
f 80/80/80 78/78/78 81/81/81
f 82/82/82 80/80/80 81/81/81
f 83/83/83 82/82/82 81/81/81
f 83/83/83 81/81/81 84/84/84
f 84/84/84 81/81/81 85/85/85
f 85/85/85 81/81/81 86/86/86
f 86/86/86 81/81/81 87/87/87
f 86/86/86 87/87/87 88/88/88
f 87/87/87 89/89/89 88/88/88
f 87/87/87 90/90/90 89/89/89
f 89/89/89 90/90/90 91/91/91
f 91/91/91 90/90/90 92/92/92
f 92/92/92 90/90/90 93/93/93
f 93/93/93 90/90/90 94/94/94
f 94/94/94 90/90/90 95/95/95
f 94/94/94 95/95/95 96/96/96
f 95/95/95 97/97/97 96/96/96
f 95/95/95 98/98/98 97/97/97
f 97/97/97 98/98/98 99/99/99
f 99/99/99 98/98/98 100/100/100
f 100/100/100 98/98/98 101/101/101
f 101/101/101 98/98/98 102/102/102
f 102/102/102 98/98/98 103/103/103
f 102/102/102 103/103/103 104/104/104
f 103/103/103 105/105/105 104/104/104
f 103/103/103 106/106/106 105/105/105
f 105/105/105 106/106/106 107/107/107
f 107/107/107 106/106/106 108/108/108
f 109/109/109 110/110/110 111/111/111
f 111/111/111 110/110/110 112/112/112
f 112/112/112 110/110/110 113/113/113
f 114/114/114 113/113/113 110/110/110
f 114/114/114 115/115/115 113/113/113
f 116/116/116 115/115/115 114/114/114
f 116/116/116 114/114/114 117/117/117
f 118/118/118 116/116/116 117/117/117
f 117/117/117 119/119/119 118/118/118
f 119/119/119 117/117/117 120/120/120
f 120/120/120 117/117/117 121/121/121
f 122/122/122 121/121/121 117/117/117
f 122/122/122 123/123/123 121/121/121
f 124/124/124 123/123/123 122/122/122
f 124/124/124 122/122/122 125/125/125
f 126/126/126 124/124/124 125/125/125
f 127/127/127 126/126/126 125/125/125
f 127/127/127 125/125/125 128/128/128
f 128/128/128 125/125/125 129/129/129
f 129/129/129 125/125/125 130/130/130
f 130/130/130 125/125/125 131/131/131
f 130/130/130 131/131/131 132/132/132
f 131/131/131 133/133/133 132/132/132
f 131/131/131 134/134/134 133/133/133
f 133/133/133 134/134/134 135/135/135
f 135/135/135 134/134/134 136/136/136
f 136/136/136 134/134/134 137/137/137
f 137/137/137 134/134/134 138/138/138
f 138/138/138 134/134/134 139/139/139
f 138/138/138 139/139/139 140/140/140
f 139/139/139 141/141/141 140/140/140
f 139/139/139 142/142/142 141/141/141
f 141/141/141 142/142/142 143/143/143
f 143/143/143 142/142/142 144/144/144
f 144/144/144 142/142/142 145/145/145
f 145/145/145 142/142/142 146/146/146
f 146/146/146 142/142/142 147/147/147
f 146/146/146 147/147/147 148/148/148
f 147/147/147 149/149/149 148/148/148
f 147/147/147 150/150/150 149/149/149
f 149/149/149 150/150/150 151/151/151
f 151/151/151 150/150/150 152/152/152
f 153/153/153 154/154/154 155/155/155
f 155/155/155 154/154/154 156/156/156
f 155/155/155 156/156/156 157/157/157
f 157/157/157 158/158/158 155/155/155
f 157/157/157 159/159/159 158/158/158
f 159/159/159 160/160/160 158/158/158
f 159/159/159 161/161/161 160/160/160
f 160/160/160 161/161/161 162/162/162
f 160/160/160 162/162/162 163/163/163
f 164/164/164 160/160/160 163/163/163
f 165/165/165 160/160/160 164/164/164
f 160/160/160 165/165/165 166/166/166
f 160/160/160 166/166/166 167/167/167
f 167/167/167 166/166/166 168/168/168
f 167/167/167 168/168/168 169/169/169
f 169/169/169 168/168/168 170/170/170
f 169/169/169 170/170/170 171/171/171
f 172/172/172 169/169/169 171/171/171
f 173/173/173 174/174/174 175/175/175
f 174/174/174 176/176/176 175/175/175
f 176/176/176 177/177/177 175/175/175
f 177/177/177 178/178/178 175/175/175
f 177/177/177 179/179/179 178/178/178
f 178/178/178 179/179/179 180/180/180
f 178/178/178 180/180/180 181/181/181
f 182/182/182 181/181/181 180/180/180
f 181/181/181 182/182/182 183/183/183
f 183/183/183 184/184/184 181/181/181
f 184/184/184 185/185/185 181/181/181
f 185/185/185 186/186/186 181/181/181
f 185/185/185 187/187/187 186/186/186
f 186/186/186 187/187/187 188/188/188
f 186/186/186 188/188/188 189/189/189
f 190/190/190 189/189/189 188/188/188
f 191/191/191 189/189/189 190/190/190
f 191/191/191 192/192/192 189/189/189
f 192/192/192 193/193/193 189/189/189
f 193/193/193 194/194/194 189/189/189
f 194/194/194 195/195/195 189/189/189
f 194/194/194 196/196/196 195/195/195
f 195/195/195 196/196/196 197/197/197
f 195/195/195 197/197/197 198/198/198
f 197/197/197 199/199/199 198/198/198
f 199/199/199 200/200/200 198/198/198
f 200/200/200 201/201/201 198/198/198
f 201/201/201 202/202/202 198/198/198
f 202/202/202 203/203/203 198/198/198
f 202/202/202 204/204/204 203/203/203
f 203/203/203 204/204/204 205/205/205
f 203/203/203 205/205/205 206/206/206
f 205/205/205 207/207/207 206/206/206
f 207/207/207 208/208/208 206/206/206
f 208/208/208 209/209/209 206/206/206
f 209/209/209 210/210/210 206/206/206
f 210/210/210 211/211/211 206/206/206
f 210/210/210 212/212/212 211/211/211
f 211/211/211 212/212/212 213/213/213
f 211/211/211 213/213/213 214/214/214
f 213/213/213 215/215/215 214/214/214
f 215/215/215 216/216/216 214/214/214
