o Sponza_Mesh_017
v 4.027591 2.171714 10.083829
v 4.057714 2.171714 10.091897
v 4.057715 2.047737 10.091897
v 4.027591 2.047737 10.083829
v 4.087835 2.047737 10.083829
v 4.005545 2.171714 10.061783
v 4.087835 2.171714 10.083829
v 4.005545 2.047737 10.061783
v 4.109882 2.047737 10.061783
v 3.997475 2.171714 10.031667
v 4.109882 2.171714 10.061783
v 3.997475 2.047737 10.031667
v 4.002769 2.171714 10.011912
v 4.002769 2.047737 10.011912
v 4.117950 2.047737 10.031667
v 4.117950 2.171714 10.031667
v 4.112657 2.047737 10.011912
v 4.112657 2.171714 10.011912
v 3.930853 2.171714 9.987090
v 3.952899 2.171714 10.009135
v 3.952899 2.047737 10.009135
v 3.930853 2.047737 9.987090
v 3.983014 2.047737 10.017206
v 3.923087 2.171714 9.958110
v 3.983014 2.171714 10.017206
v 4.002769 2.047737 10.011912
v 4.002769 2.171714 10.011912
v 3.923087 2.047737 9.958110
v 3.930853 2.171714 9.929130
v 3.930853 2.047737 9.929130
v 3.952899 2.171714 9.907084
v 3.952899 2.047737 9.907084
v 3.983014 2.171714 9.899015
v 3.983014 2.047737 9.899015
v 4.002769 2.171714 9.904309
v 4.002769 2.047737 9.904309
v 4.184574 2.171714 9.987090
v 4.192339 2.171714 9.958110
v 4.192339 2.047737 9.958110
v 4.184574 2.047737 9.987090
v 4.184574 2.047737 9.929130
v 4.162528 2.171714 10.009135
v 4.184574 2.171714 9.929130
v 4.162528 2.047737 10.009135
v 4.162528 2.047737 9.907084
v 4.132413 2.171714 10.017206
v 4.162528 2.171714 9.907084
v 4.132413 2.047737 10.017206
v 4.112657 2.171714 10.011912
v 4.112657 2.047737 10.011912
v 4.132413 2.047737 9.899015
v 4.132413 2.171714 9.899015
v 4.112657 2.047737 9.904309
v 4.112657 2.171714 9.904309
v 4.057714 2.171714 9.824324
v 4.027591 2.171714 9.832392
v 4.027591 2.047737 9.832392
v 4.057714 2.047737 9.824324
v 4.005545 2.047737 9.854438
v 4.087835 2.171714 9.832392
v 4.005545 2.171714 9.854438
v 3.997475 2.047737 9.884553
v 3.997475 2.171714 9.884553
v 4.087835 2.047737 9.832392
v 4.109882 2.171714 9.854438
v 4.109882 2.047737 9.854438
v 4.117950 2.171714 9.884553
v 4.117950 2.047737 9.884553
v 4.112657 2.171714 9.904309
v 4.112657 2.047737 9.904309
v 3.997475 2.171714 9.884553
v 4.002769 2.171714 9.904309
v 4.002769 2.047737 9.904309
v 3.997475 2.047737 9.884553
v 4.191178 2.047737 9.909708
v 4.184574 2.047737 9.929130
v 4.162528 2.047737 9.907084
v 4.161172 2.047737 9.860644
v 4.199210 2.047737 9.966655
v 4.192339 2.047737 9.958110
v 4.184574 2.047737 9.987090
v 4.185953 2.047737 10.018018
v 4.162528 2.047737 10.009135
v 4.154736 2.047737 10.060905
v 4.132413 2.047737 10.017206
v 4.132413 2.047737 9.899015
v 4.109931 2.047737 10.089305
v 4.114137 2.047737 9.827550
v 4.109882 2.047737 10.061783
v 4.117950 2.047737 10.031667
v 4.112657 2.047737 10.011912
v 4.087835 2.047737 10.083829
v 4.057823 2.047737 10.099235
v 4.057715 2.047737 10.091897
v 4.027591 2.047737 10.083829
v 4.005715 2.047737 10.089305
v 4.005545 2.047737 10.061783
v 3.960911 2.047737 10.060905
v 3.997475 2.047737 10.031667
v 3.929693 2.047737 10.018018
v 3.952899 2.047737 10.009135
v 3.983014 2.047737 10.017206
v 4.002769 2.047737 10.011912
v 3.930853 2.047737 9.987090
v 3.916436 2.047737 9.966655
v 3.923087 2.047737 9.958110
v 3.930853 2.047737 9.929130
v 3.924468 2.047737 9.909708
v 3.952899 2.047737 9.907084
v 3.954475 2.047737 9.860644
v 3.983014 2.047737 9.899015
v 4.001509 2.047737 9.827549
v 4.005545 2.047737 9.854438
v 3.997475 2.047737 9.884553
v 4.002769 2.047737 9.904309
v 4.027591 2.047737 9.832392
v 4.057823 2.047737 9.815877
v 4.057714 2.047737 9.824324
v 4.087835 2.047737 9.832392
v 4.109882 2.047737 9.854438
v 4.117950 2.047737 9.884553
v 4.112657 2.047737 9.904309
vt 0.815900 0.628600
vt 0.815900 0.594800
vt 0.955100 0.594800
vt 0.955100 0.628600
vt 0.955100 0.560900
vt 0.815900 0.653300
vt 0.815900 0.560900
vt 0.955100 0.653300
vt 0.955100 0.536200
vt 0.815900 0.687100
vt 0.815900 0.536200
vt 0.955100 0.687100
vt 0.815900 0.709300
vt 0.955100 0.709300
vt 0.955100 0.502400
vt 0.815900 0.502400
vt 0.955100 0.480200
vt 0.815900 0.480200
vt 0.815900 0.797600
vt 0.815900 0.762600
vt 0.955100 0.762600
vt 0.955100 0.797600
vt 0.955100 0.732300
vt 0.815900 0.826800
vt 0.815900 0.732300
vt 0.955100 0.709300
vt 0.815900 0.709300
vt 0.955100 0.826800
vt 0.815900 0.856000
vt 0.955100 0.856000
vt 0.815900 0.891000
vt 0.955100 0.891000
vt 0.815900 0.921300
vt 0.955100 0.921300
vt 0.815900 0.944200
vt 0.955100 0.944200
vt 0.815900 0.395000
vt 0.815900 0.361300
vt 0.955100 0.361300
vt 0.955100 0.395000
vt 0.955100 0.332100
vt 0.815900 0.425300
vt 0.815900 0.332100
vt 0.955100 0.425300
vt 0.955100 0.297100
vt 0.815900 0.460300
vt 0.815900 0.297100
vt 0.955100 0.460300
vt 0.815900 0.480200
vt 0.955100 0.480200
vt 0.955100 0.266800
vt 0.815900 0.266800
vt 0.955100 0.243800
vt 0.815900 0.243800
vt 0.815900 0.121700
vt 0.815900 0.087900
vt 0.955100 0.087900
vt 0.955100 0.121700
vt 0.955100 0.052900
vt 0.815900 0.155600
vt 0.815900 0.052900
vt 0.955100 0.022600
vt 0.815900 0.022600
vt 0.955100 0.155600
vt 0.815900 0.190600
vt 0.955100 0.190600
vt 0.815900 0.220900
vt 0.955100 0.220900
vt 0.815900 0.243800
vt 0.955100 0.243800
vt 0.815900 0.967200
vt 0.815900 0.944200
vt 0.955100 0.944200
vt 0.955100 0.967200
vt 0.552400 0.619700
vt 0.546000 0.597600
vt 0.580400 0.603600
vt 0.611700 0.645400
vt 0.508300 0.572600
vt 0.520100 0.576000
vt 0.508500 0.544300
vt 0.487300 0.516800
vt 0.514600 0.509800
vt 0.488300 0.457300
vt 0.537000 0.483000
vt 0.613300 0.591600
vt 0.511100 0.402200
vt 0.676200 0.645400
vt 0.528900 0.427500
vt 0.541000 0.460400
vt 0.558600 0.475100
vt 0.534900 0.393000
vt 0.552600 0.359500
vt 0.557400 0.366200
vt 0.590300 0.354100
vt 0.606800 0.335000
vt 0.624800 0.360100
vt 0.666300 0.332100
vt 0.651600 0.382600
vt 0.722700 0.351400
vt 0.707100 0.374500
vt 0.674200 0.386500
vt 0.659500 0.404200
vt 0.741600 0.380500
vt 0.768000 0.390000
vt 0.767400 0.402100
vt 0.779000 0.433800
vt 0.797400 0.447500
vt 0.773000 0.468200
vt 0.801500 0.511900
vt 0.750600 0.495100
vt 0.779700 0.572700
vt 0.758600 0.550600
vt 0.746600 0.517700
vt 0.729000 0.503000
vt 0.752600 0.585100
vt 0.735500 0.619800
vt 0.730200 0.611900
vt 0.697300 0.624000
vt 0.662800 0.618000
vt 0.635900 0.595500
vt 0.628000 0.573900
vn 0.499968 -0.000000 -0.866044
vn -0.000000 -0.000000 -1.000000
vn -0.000000 -0.000000 -1.000000
vn 0.499968 0.000000 -0.866044
vn -0.500011 -0.000000 -0.866019
vn 0.866019 0.000000 -0.500011
vn -0.499968 0.000000 -0.866044
vn 0.866019 0.000000 -0.500011
vn -0.866019 0.000000 -0.500011
vn 1.000000 0.000000 -0.000000
vn -0.866019 0.000000 -0.500011
vn 1.000000 0.000000 -0.000000
vn 0.965929 0.000000 0.258808
vn 0.965929 0.000000 0.258808
vn -1.000000 0.000000 0.000000
vn -1.000000 0.000000 0.000000
vn -0.965929 0.000000 0.258808
vn -0.965929 0.000000 0.258808
vn 0.866019 0.000000 -0.500011
vn 0.500011 0.000000 -0.866019
vn 0.500011 0.000000 -0.866019
vn 0.866019 0.000000 -0.500011
vn -0.000000 0.000000 -1.000000
vn 1.000000 0.000000 0.000000
vn -0.000000 0.000000 -1.000000
vn -0.258808 0.000000 -0.965929
vn -0.258808 0.000000 -0.965929
vn 1.000000 0.000000 0.000000
vn 0.866019 0.000000 0.500011
vn 0.866019 0.000000 0.500011
vn 0.500011 0.000000 0.866019
vn 0.500011 0.000000 0.866019
vn -0.000000 0.000000 1.000000
vn -0.000000 0.000000 1.000000
vn -0.258808 0.000000 0.965929
vn -0.258808 0.000000 0.965929
vn -0.866019 0.000000 -0.500011
vn -1.000000 0.000000 0.000000
vn -1.000000 0.000000 0.000000
vn -0.866019 0.000000 -0.500011
vn -0.866019 0.000000 0.500011
vn -0.500011 0.000000 -0.866019
vn -0.866019 0.000000 0.500011
vn -0.500011 0.000000 -0.866019
vn -0.500011 0.000000 0.866019
vn -0.000000 0.000000 -1.000000
vn -0.500011 0.000000 0.866019
vn -0.000000 0.000000 -1.000000
vn 0.258808 0.000000 -0.965929
vn 0.258808 0.000000 -0.965929
vn -0.000000 0.000000 1.000000
vn -0.000000 0.000000 1.000000
vn 0.258808 0.000000 0.965929
vn 0.258808 0.000000 0.965929
vn -0.000000 0.000000 1.000000
vn 0.500011 0.000000 0.866019
vn 0.500011 0.000000 0.866019
vn -0.000000 0.000000 1.000000
vn 0.866019 0.000000 0.500011
vn -0.500011 0.000000 0.866019
vn 0.866019 0.000000 0.500011
vn 1.000000 0.000000 -0.000000
vn 1.000000 0.000000 -0.000000
vn -0.500011 0.000000 0.866019
vn -0.866019 0.000000 0.500011
vn -0.866019 0.000000 0.500011
vn -1.000000 0.000000 -0.000000
vn -1.000000 0.000000 -0.000000
vn -0.965929 0.000000 -0.258808
vn -0.965929 0.000000 -0.258808
vn 1.000000 0.000000 -0.000000
vn 0.965929 0.000000 -0.258808
vn 0.965929 0.000000 -0.258808
vn 1.000000 0.000000 -0.000000
vn 0.000000 -1.000000 0.000000
vn 0.000000 -1.000000 0.000000
vn 0.000000 -1.000000 0.000000
vn 0.000000 -1.000000 0.000000
vn 0.000000 -1.000000 0.000000
vn 0.000000 -1.000000 0.000000
vn 0.000000 -1.000000 0.000000
vn 0.000000 -1.000000 0.000000
vn 0.000000 -1.000000 0.000000
vn 0.000000 -1.000000 0.000000
vn 0.000000 -1.000000 0.000000
vn 0.000000 -1.000000 0.000000
vn 0.000000 -1.000000 0.000000
vn 0.000000 -1.000000 0.000000
vn 0.000000 -1.000000 0.000000
vn 0.000000 -1.000000 0.000000
vn 0.000000 -1.000000 0.000000
vn 0.000000 -1.000000 0.000000
vn 0.000000 -1.000000 0.000000
vn 0.000000 -1.000000 0.000000
vn 0.000000 -1.000000 0.000000
vn 0.000000 -1.000000 0.000000
vn 0.000000 -1.000000 0.000000
vn 0.000000 -1.000000 0.000000
vn 0.000000 -1.000000 0.000000
vn 0.000000 -1.000000 0.000000
vn 0.000000 -1.000000 0.000000
vn 0.000000 -1.000000 0.000000
vn 0.000000 -1.000000 0.000000
vn 0.000000 -1.000000 0.000000
vn 0.000000 -1.000000 0.000000
vn 0.000000 -1.000000 0.000000
vn 0.000000 -1.000000 0.000000
vn 0.000000 -1.000000 0.000000
vn 0.000000 -1.000000 0.000000
vn 0.000000 -1.000000 0.000000
vn 0.000000 -1.000000 0.000000
vn 0.000000 -1.000000 0.000000
vn 0.000000 -1.000000 0.000000
vn 0.000000 -1.000000 0.000000
vn 0.000000 -1.000000 0.000000
vn 0.000000 -1.000000 0.000000
vn 0.000000 -1.000000 0.000000
vn 0.000000 -1.000000 0.000000
vn 0.000000 -1.000000 0.000000
vn 0.000000 -1.000000 0.000000
vn 0.000000 -1.000000 0.000000
vn 0.000000 -1.000000 0.000000
f 1/1/1 2/2/2 3/3/3
f 1/1/1 3/3/3 4/4/4
f 2/2/2 5/5/5 3/3/3
f 6/6/6 1/1/1 4/4/4
f 2/2/2 7/7/7 5/5/5
f 6/6/6 4/4/4 8/8/8
f 7/7/7 9/9/9 5/5/5
f 10/10/10 6/6/6 8/8/8
f 7/7/7 11/11/11 9/9/9
f 10/10/10 8/8/8 12/12/12
f 13/13/13 10/10/10 12/12/12
f 13/13/13 12/12/12 14/14/14
f 11/11/11 15/15/15 9/9/9
f 11/11/11 16/16/16 15/15/15
f 16/16/16 17/17/17 15/15/15
f 16/16/16 18/18/18 17/17/17
f 19/19/19 20/20/20 21/21/21
f 19/19/19 21/21/21 22/22/22
f 20/20/20 23/23/23 21/21/21
f 24/24/24 19/19/19 22/22/22
f 20/20/20 25/25/25 23/23/23
f 25/25/25 26/26/26 23/23/23
f 25/25/25 27/27/27 26/26/26
f 24/24/24 22/22/22 28/28/28
f 29/29/29 24/24/24 28/28/28
f 29/29/29 28/28/28 30/30/30
f 31/31/31 29/29/29 30/30/30
f 31/31/31 30/30/30 32/32/32
f 33/33/33 31/31/31 32/32/32
f 33/33/33 32/32/32 34/34/34
f 35/35/35 33/33/33 34/34/34
f 35/35/35 34/34/34 36/36/36
f 37/37/37 38/38/38 39/39/39
f 37/37/37 39/39/39 40/40/40
f 38/38/38 41/41/41 39/39/39
f 42/42/42 37/37/37 40/40/40
f 38/38/38 43/43/43 41/41/41
f 42/42/42 40/40/40 44/44/44
f 43/43/43 45/45/45 41/41/41
f 46/46/46 42/42/42 44/44/44
f 43/43/43 47/47/47 45/45/45
f 46/46/46 44/44/44 48/48/48
f 49/49/49 46/46/46 48/48/48
f 49/49/49 48/48/48 50/50/50
f 47/47/47 51/51/51 45/45/45
f 47/47/47 52/52/52 51/51/51
f 52/52/52 53/53/53 51/51/51
f 52/52/52 54/54/54 53/53/53
f 55/55/55 56/56/56 57/57/57
f 55/55/55 57/57/57 58/58/58
f 56/56/56 59/59/59 57/57/57
f 60/60/60 55/55/55 58/58/58
f 56/56/56 61/61/61 59/59/59
f 61/61/61 62/62/62 59/59/59
f 61/61/61 63/63/63 62/62/62
f 60/60/60 58/58/58 64/64/64
f 65/65/65 60/60/60 64/64/64
f 65/65/65 64/64/64 66/66/66
f 67/67/67 65/65/65 66/66/66
f 67/67/67 66/66/66 68/68/68
f 69/69/69 67/67/67 68/68/68
f 69/69/69 68/68/68 70/70/70
f 71/71/71 72/72/72 73/73/73
f 71/71/71 73/73/73 74/74/74
f 75/75/75 76/76/76 77/77/77
f 75/75/75 77/77/77 78/78/78
f 79/79/79 76/76/76 75/75/75
f 79/79/79 80/80/80 76/76/76
f 79/79/79 81/81/81 80/80/80
f 79/79/79 82/82/82 81/81/81
f 82/82/82 83/83/83 81/81/81
f 82/82/82 84/84/84 83/83/83
f 84/84/84 85/85/85 83/83/83
f 78/78/78 77/77/77 86/86/86
f 84/84/84 87/87/87 85/85/85
f 78/78/78 86/86/86 88/88/88
f 85/85/85 87/87/87 89/89/89
f 85/85/85 89/89/89 90/90/90
f 91/91/91 85/85/85 90/90/90
f 87/87/87 92/92/92 89/89/89
f 87/87/87 93/93/93 92/92/92
f 92/92/92 93/93/93 94/94/94
f 95/95/95 94/94/94 93/93/93
f 95/95/95 93/93/93 96/96/96
f 96/96/96 97/97/97 95/95/95
f 96/96/96 98/98/98 97/97/97
f 98/98/98 99/99/99 97/97/97
f 98/98/98 100/100/100 99/99/99
f 99/99/99 100/100/100 101/101/101
f 99/99/99 101/101/101 102/102/102
f 99/99/99 102/102/102 103/103/103
f 101/101/101 100/100/100 104/104/104
f 105/105/105 104/104/104 100/100/100
f 105/105/105 106/106/106 104/104/104
f 105/105/105 107/107/107 106/106/106
f 105/105/105 108/108/108 107/107/107
f 108/108/108 109/109/109 107/107/107
f 108/108/108 110/110/110 109/109/109
f 110/110/110 111/111/111 109/109/109
f 110/110/110 112/112/112 111/111/111
f 111/111/111 112/112/112 113/113/113
f 111/111/111 113/113/113 114/114/114
f 115/115/115 111/111/111 114/114/114
f 116/116/116 113/113/113 112/112/112
f 116/116/116 112/112/112 117/117/117
f 116/116/116 117/117/117 118/118/118
f 117/117/117 119/119/119 118/118/118
f 117/117/117 88/88/88 119/119/119
f 119/119/119 88/88/88 120/120/120
f 86/86/86 120/120/120 88/88/88
f 86/86/86 121/121/121 120/120/120
f 121/121/121 86/86/86 122/122/122
