o Sponza_Mesh_037
v 10.417767 -4.597650 3.324243
v 10.417767 -4.597650 6.939097
v 10.417767 -0.324958 5.042672
v 10.417767 -0.324958 3.324243
v 10.416818 -0.230480 5.339820
v 10.415869 -0.026036 5.602099
v 10.413970 0.272886 6.939097
v 10.413971 0.272886 5.727065
v 10.412073 0.571809 5.602099
v 10.410174 5.125066 6.939097
v 10.411124 0.776703 5.348229
v 10.410174 0.870731 5.042672
v 10.410174 5.125066 3.324243
v 10.410174 0.870731 3.324243
v -11.449600 -4.597650 3.324243
v -11.449600 -4.597650 6.939097
v 10.417767 -4.597650 6.939097
v 10.417767 -4.597650 3.324243
v -11.449600 5.125066 3.324243
v -11.449600 5.125066 6.939097
v -11.449600 -4.597650 6.939097
v -11.449600 -4.597650 3.324243
v 10.410174 5.125066 3.324243
v 10.410174 5.125066 6.939097
v -11.449600 5.125066 6.939097
v -11.449600 5.125066 3.324243
v -11.428157 5.154491 -0.020961
v -1.104581 5.154488 -0.020961
v -1.104581 5.154488 1.705446
v -11.428157 5.154491 3.227583
v -1.010102 5.153539 2.002594
v -0.805658 5.152590 2.264872
v -0.506736 5.150692 3.227583
v -0.506736 5.150692 2.389838
v -0.207814 5.148794 2.264872
v 10.417526 5.146894 3.227583
v -0.002919 5.147845 2.011003
v 0.091108 5.146895 1.705446
v 10.417526 5.146894 -0.020961
v 0.091108 5.146895 -0.020961
v -11.428157 5.154491 3.227583
v -11.428157 -4.592235 3.227583
v -11.428157 -4.592235 -0.020961
v -11.428157 5.154491 -0.020961
v -4.046079 -4.592236 2.195990
v -4.046079 -4.592236 0.976214
v -11.428157 -4.592235 -0.020961
v -11.428157 -4.592235 3.227583
v -1.144145 -4.592236 -0.020961
v -2.034853 -4.592236 3.227583
v -2.874513 -4.592236 0.976214
v -2.874513 -4.592236 2.195990
v -1.144145 -4.592236 1.895514
v 1.036918 -4.592236 3.227583
v 0.162439 -4.592236 1.895514
v 1.873422 -4.592236 2.197474
v 3.051619 -4.592236 2.197474
v 1.873422 -4.592236 0.972678
v 10.417526 -4.592238 3.227583
v 0.162439 -4.592236 -0.020961
v 3.051619 -4.592236 0.972678
v 10.417526 -4.592238 -0.020961
v 10.417526 -4.592238 3.227583
v 10.417526 5.146894 3.227583
v 10.417526 5.146894 -0.020961
v 10.417526 -4.592238 -0.020961
vt 11.303200 0.000000
vt 11.303200 1.293700
vt 9.774000 0.615000
vt 9.774000 0.000000
vt 9.740200 0.721400
vt 9.667000 0.815200
vt 9.560100 1.293700
vt 9.560100 0.860000
vt 9.453100 0.815200
vt 7.823500 1.293700
vt 9.379700 0.724400
vt 9.346100 0.615000
vt 7.823500 0.000000
vt 9.346100 0.000000
vt 19.129400 0.000000
vt 19.129400 1.293700
vt 11.303200 1.293700
vt 11.303200 0.000000
vt 22.609100 0.000000
vt 22.609100 1.293700
vt 19.129400 1.293700
vt 19.129400 0.000000
vt 7.823500 0.000000
vt 7.823500 1.293700
vt 0.000000 1.293700
vt 0.000000 0.000000
vt 0.000000 0.987700
vt 4.853800 0.987700
vt 4.853800 1.799400
vt 0.000000 2.515100
vt 4.898200 1.939100
vt 4.994300 2.062400
vt 5.134900 2.515100
vt 5.134900 2.121200
vt 5.275400 2.062400
vt 10.271000 2.515100
vt 5.371700 1.943100
vt 5.415900 1.799400
vt 10.271000 0.987700
vt 5.415900 0.987700
vt 29.703600 2.515100
vt 25.121099 2.515100
vt 25.121099 0.987700
vt 29.703600 0.987700
vt 21.650299 2.030000
vt 21.650299 1.456500
vt 25.121099 0.987700
vt 25.121099 2.515100
vt 20.285900 0.987700
vt 20.704700 2.515100
vt 21.099501 1.456500
vt 21.099501 2.030000
vt 20.285900 1.888800
vt 19.260401 2.515100
vt 19.671600 1.888800
vt 18.867201 2.030700
vt 18.313200 2.030700
vt 18.867201 1.454900
vt 14.850000 2.515100
vt 19.671600 0.987700
vt 18.313200 1.454900
vt 14.850000 0.987700
vt 14.850000 2.515100
vt 10.271000 2.515100
vt 10.271000 0.987700
vt 14.850000 0.987700
vn -1.000000 0.000000 0.000000
vn -1.000000 -0.000200 -0.000500
vn -0.999999 -0.000500 -0.001200
vn -1.000000 0.000000 0.000000
vn -0.999996 -0.001200 -0.002700
vn -0.999996 -0.002400 -0.001400
vn -0.999999 -0.001600 -0.000000
vn -0.999980 -0.006300 -0.000000
vn -0.999996 -0.002400 0.001400
vn -1.000000 -0.000200 0.000500
vn -0.999996 -0.001200 0.002700
vn -0.999999 -0.000500 0.001200
vn -1.000000 0.000000 0.000000
vn -1.000000 0.000000 0.000000
vn 0.000000 1.000000 0.000000
vn 0.000000 1.000000 0.000000
vn 0.000000 1.000000 0.000000
vn 0.000000 1.000000 0.000000
vn 1.000000 0.000000 0.000000
vn 1.000000 0.000000 0.000000
vn 1.000000 0.000000 0.000000
vn 1.000000 0.000000 0.000000
vn 0.000000 -1.000000 0.000000
vn 0.000000 -1.000000 0.000000
vn 0.000000 -1.000000 0.000000
vn 0.000000 -1.000000 0.000000
vn -0.000000 -1.000000 0.000000
vn -0.000000 -1.000000 0.000000
vn -0.000200 -0.999999 -0.001500
vn -0.000000 -1.000000 -0.000200
vn -0.000500 -0.999995 -0.003200
vn -0.001800 -0.999997 -0.001800
vn -0.001500 -0.999999 -0.000000
vn -0.006300 -0.999980 -0.000000
vn -0.001800 -0.999997 0.001800
vn -0.000000 -1.000000 0.000200
vn -0.000500 -0.999995 0.003200
vn -0.000200 -0.999999 0.001500
vn -0.000000 -1.000000 0.000000
vn -0.000000 -1.000000 0.000000
vn 1.000000 0.000000 0.000000
vn 1.000000 0.000000 0.000000
vn 1.000000 0.000000 0.000000
vn 1.000000 0.000000 0.000000
vn 0.000000 1.000000 0.000000
vn 0.000000 1.000000 -0.000000
vn 0.000000 1.000000 -0.000000
vn 0.000000 1.000000 0.000000
vn 0.000000 1.000000 -0.000000
vn 0.000000 1.000000 0.000000
vn 0.000000 1.000000 -0.000000
vn 0.000000 1.000000 0.000000
vn 0.000000 1.000000 0.000000
vn 0.000000 1.000000 0.000000
vn 0.000000 1.000000 -0.000000
vn 0.000000 1.000000 0.000000
vn 0.000000 1.000000 -0.000000
vn 0.000000 1.000000 -0.000000
vn 0.000000 1.000000 -0.000000
vn 0.000000 1.000000 -0.000000
vn 0.000000 1.000000 -0.000000
vn 0.000000 1.000000 0.000000
vn -1.000000 0.000000 0.000000
vn -1.000000 0.000000 0.000000
vn -1.000000 0.000000 0.000000
vn -1.000000 0.000000 0.000000
f 1/1/1 2/2/2 3/3/3
f 1/1/1 3/3/3 4/4/4
f 5/5/5 3/3/3 2/2/2
f 6/6/6 5/5/5 2/2/2
f 6/6/6 2/2/2 7/7/7
f 6/6/6 7/7/7 8/8/8
f 7/7/7 9/9/9 8/8/8
f 7/7/7 10/10/10 9/9/9
f 11/11/11 9/9/9 10/10/10
f 12/12/12 11/11/11 10/10/10
f 13/13/13 12/12/12 10/10/10
f 13/13/13 14/14/14 12/12/12
f 15/15/15 16/16/16 17/17/17
f 15/15/15 17/17/17 18/18/18
f 19/19/19 20/20/20 21/21/21
f 19/19/19 21/21/21 22/22/22
f 23/23/23 24/24/24 25/25/25
f 23/23/23 25/25/25 26/26/26
f 27/27/27 28/28/28 29/29/29
f 27/27/27 29/29/29 30/30/30
f 31/31/31 30/30/30 29/29/29
f 32/32/32 30/30/30 31/31/31
f 33/33/33 30/30/30 32/32/32
f 33/33/33 32/32/32 34/34/34
f 35/35/35 33/33/33 34/34/34
f 35/35/35 36/36/36 33/33/33
f 37/37/37 36/36/36 35/35/35
f 38/38/38 36/36/36 37/37/37
f 39/39/39 36/36/36 38/38/38
f 39/39/39 38/38/38 40/40/40
f 41/41/41 42/42/42 43/43/43
f 41/41/41 43/43/43 44/44/44
f 45/45/45 46/46/46 47/47/47
f 45/45/45 47/47/47 48/48/48
f 49/49/49 47/47/47 46/46/46
f 50/50/50 45/45/45 48/48/48
f 49/49/49 46/46/46 51/51/51
f 50/50/50 52/52/52 45/45/45
f 49/49/49 51/51/51 53/53/53
f 52/52/52 53/53/53 51/51/51
f 52/52/52 50/50/50 53/53/53
f 54/54/54 53/53/53 50/50/50
f 54/54/54 55/55/55 53/53/53
f 54/54/54 56/56/56 55/55/55
f 57/57/57 56/56/56 54/54/54
f 58/58/58 55/55/55 56/56/56
f 57/57/57 54/54/54 59/59/59
f 58/58/58 60/60/60 55/55/55
f 61/61/61 57/57/57 59/59/59
f 60/60/60 58/58/58 61/61/61
f 61/61/61 59/59/59 62/62/62
f 60/60/60 61/61/61 62/62/62
f 63/63/63 64/64/64 65/65/65
f 63/63/63 65/65/65 66/66/66
