o Sponza_Mesh_087
v 1.102306 -1.265334 0.443878
v 1.058590 -1.241890 0.415508
v 1.022311 -1.292993 0.442420
v 1.072819 -1.310542 0.467895
v 1.131258 -1.218064 0.422721
v 1.080669 -1.200208 0.397672
v 1.019998 -1.211454 0.444558
v 0.990818 -1.257841 0.466939
v 1.048601 -1.162850 0.425252
v 1.005413 -1.314805 0.441692
v 1.003776 -1.396089 0.457424
v 1.052445 -1.395258 0.481261
v 0.953935 -1.386818 0.484621
v 0.939888 -1.320763 0.479547
v 1.064773 -1.314294 0.459143
v 0.940288 -1.251645 0.478954
v 1.050862 -1.234866 0.476976
v 1.000890 -1.238407 0.453272
v 0.936504 -1.329946 0.457830
v 0.938916 -1.267254 0.448630
v 0.884885 -1.275351 0.447469
v 0.879704 -1.332834 0.461618
v 0.893202 -1.389325 0.483744
v 0.948931 -1.375815 0.494851
v 0.843221 -1.325205 0.493942
v 0.849810 -1.256594 0.491507
v 0.858903 -1.370468 0.536542
v 0.957338 -1.429026 0.438373
v 1.014538 -1.417732 0.461944
v 0.997709 -1.366624 0.452997
v 0.941403 -1.374340 0.435990
v 0.885111 -1.400449 0.427573
v 0.901050 -1.452524 0.447729
v 0.921897 -1.338570 0.464402
v 0.980934 -1.330414 0.496931
v 0.863576 -1.365373 0.479005
v 1.007803 -1.442310 0.419451
v 1.057101 -1.426035 0.424427
v 1.038462 -1.369263 0.447410
v 0.988658 -1.376083 0.420082
v 1.011556 -1.330506 0.438365
v 0.968808 -1.329333 0.422687
v 0.923946 -1.344143 0.442332
v 0.945046 -1.400103 0.453412
v 0.964539 -1.456594 0.446551
v 0.916804 -1.364610 0.457390
v 0.872129 -1.378164 0.424962
v 0.912078 -1.431841 0.409402
v 0.953150 -1.410145 0.444962
v 0.879201 -1.320957 0.472587
v 0.837942 -1.342933 0.437440
v 0.838818 -1.422242 0.441853
v 0.875883 -1.466700 0.427841
v 0.800402 -1.379807 0.458841
v 0.945896 -1.262890 0.464981
v 0.916042 -1.196095 0.475782
v 0.856309 -1.247554 0.492939
v 0.919324 -1.341643 0.493690
v 0.969315 -1.308900 0.492081
v 0.883790 -1.297128 0.465611
v 0.864851 -1.372331 0.498698
v 0.836075 -1.327085 0.468216
v 0.791552 -1.276957 0.528431
v 0.883587 -1.199284 0.461294
v 0.891769 -1.139530 0.479918
v 0.837866 -1.139629 0.471486
v 0.826667 -1.196758 0.459266
v 0.832964 -1.259038 0.455919
v 0.887620 -1.259038 0.475604
v 0.786826 -1.200838 0.488531
v 0.798674 -1.139530 0.515982
v 0.793384 -1.263086 0.508290
v 0.809336 -1.219386 0.457248
v 0.800637 -1.212946 0.430781
v 0.797081 -1.253066 0.420587
v 0.817586 -1.258577 0.451183
v 0.789170 -1.177268 0.433319
v 0.794373 -1.165674 0.462802
v 0.740962 -1.187555 0.412782
v 0.751444 -1.232853 0.409394
v 0.755386 -1.259010 0.414938
v 0.836735 -1.360190 0.437275
v 0.896057 -1.357945 0.458092
v 0.893354 -1.287064 0.437905
v 0.835371 -1.288979 0.424346
v 0.773462 -1.288614 0.459887
v 0.776258 -1.358620 0.468143
v 0.829184 -1.218682 0.438404
v 0.889948 -1.213673 0.459064
v 0.766342 -1.218594 0.465780
v 0.993124 -1.079131 0.475173
v 0.973094 -1.061099 0.528916
v 0.905684 -1.065412 0.500302
v 0.925530 -1.088589 0.452133
v 0.948364 -1.154346 0.432777
v 1.013986 -1.140584 0.453526
v 0.862495 -1.122463 0.443521
v 0.839378 -1.104185 0.497619
v 0.885260 -1.182114 0.418267
v 1.085423 -1.207318 0.469844
v 1.093614 -1.147564 0.488465
v 1.039707 -1.147662 0.480059
v 1.028502 -1.204792 0.467844
v 1.034798 -1.267072 0.464494
v 1.089463 -1.267072 0.484153
v 0.988678 -1.208872 0.497128
v 1.000539 -1.147564 0.524573
v 0.995245 -1.271120 0.516884
v 1.042203 -1.321458 0.433521
v 1.088962 -1.319212 0.473555
v 1.094490 -1.248331 0.453879
v 1.046084 -1.250247 0.421047
v 0.974493 -1.249882 0.432404
v 0.973802 -1.319887 0.441042
v 1.034747 -1.179949 0.431931
v 1.082907 -1.174941 0.472324
v 0.965540 -1.179862 0.435386
v 1.010479 -1.358108 0.458925
v 1.082862 -1.368763 0.469726
v 1.071497 -1.290745 0.486883
v 0.958287 -1.293424 0.487634
v 0.959088 -1.353178 0.486025
v 1.014918 -1.287330 0.459556
v 0.961625 -1.230991 0.492642
v 1.015247 -1.230991 0.462161
v 1.081438 -1.220323 0.522375
v 1.165339 -1.223209 0.417145
v 1.110969 -1.217586 0.428290
v 1.114146 -1.274336 0.448898
v 1.176017 -1.277103 0.448927
v 1.111579 -1.173348 0.445549
v 1.178675 -1.177223 0.458222
v 1.050243 -1.226914 0.441762
v 1.063327 -1.274285 0.487502
v 1.059948 -1.177978 0.478169
v 1.115664 -1.290600 0.427562
v 1.129830 -1.264908 0.429299
v 1.105970 -1.257471 0.438974
v 1.089354 -1.281070 0.430175
v 1.086320 -1.311529 0.434686
v 1.112906 -1.319872 0.430967
v 1.071849 -1.277634 0.453566
v 1.081886 -1.246654 0.457900
v 1.062514 -1.306099 0.451976
v 0.999692 -1.361967 0.448865
v 0.995689 -1.388679 0.428031
v 1.030654 -1.393186 0.437875
v 1.033455 -1.363731 0.450673
v 0.965409 -1.395272 0.441743
v 0.965858 -1.366227 0.460043
v 0.999454 -1.424330 0.425959
v 1.029435 -1.428039 0.437862
v 0.965885 -1.427366 0.432899
v 0.943784 -1.368493 0.447111
v 1.003538 -1.363470 0.466359
v 1.003439 -1.300151 0.430242
v 0.945176 -1.302984 0.417935
v 0.884030 -1.290367 0.452662
v 0.884030 -1.356018 0.477022
v 0.942230 -1.230958 0.415135
v 1.003538 -1.223370 0.433577
v 0.879982 -1.220742 0.442028
v 0.897360 -1.283634 0.458601
v 0.916530 -1.349822 0.457683
v 0.957420 -1.329633 0.430554
v 0.942725 -1.271724 0.430476
v 0.970148 -1.387984 0.428714
v 0.924490 -1.399961 0.456552
v 0.874927 -1.411940 0.443434
v 0.863472 -1.353302 0.446514
v 0.849902 -1.295141 0.447534
v 0.921966 -1.270420 0.433522
v 0.968726 -1.268174 0.473555
v 0.974253 -1.197294 0.453879
v 0.925847 -1.199209 0.421047
v 0.854256 -1.198844 0.432404
v 0.853565 -1.268849 0.441042
v 0.914510 -1.128911 0.431931
v 0.962670 -1.123903 0.472324
v 0.845303 -1.128824 0.435386
v 0.863996 -1.105280 0.459992
v 0.827883 -1.156375 0.469505
v 0.888101 -1.193834 0.449274
v 0.922838 -1.145248 0.446628
v 0.956074 -1.103578 0.492818
v 0.897870 -1.064640 0.501321
v 0.980730 -1.185629 0.460623
v 0.945966 -1.239496 0.469683
v 1.015245 -1.141637 0.498982
v 0.946446 -1.336858 0.420626
v 0.993205 -1.334613 0.460660
v 0.998732 -1.263732 0.440985
v 0.950326 -1.265647 0.408152
v 0.878735 -1.265282 0.419510
v 0.878045 -1.335287 0.428147
v 0.938990 -1.195349 0.419036
v 0.987150 -1.190341 0.459429
v 0.869782 -1.195263 0.422490
v 1.023458 -1.235666 0.442078
v 0.974026 -1.226530 0.414751
v 0.971444 -1.295421 0.414120
v 1.023359 -1.295421 0.442277
v 1.021983 -1.175913 0.445041
v 0.969833 -1.175913 0.417356
v 0.925082 -1.235666 0.442830
v 0.925884 -1.295421 0.441220
v 0.922590 -1.175913 0.447838
v 1.028781 -1.169034 0.426246
v 1.008098 -1.110504 0.438785
v 0.966092 -1.140242 0.455997
v 0.985826 -1.196228 0.450427
v 1.024789 -1.244961 0.444633
v 1.072169 -1.211555 0.436909
v 0.972162 -1.210855 0.494157
v 0.956950 -1.146566 0.512735
v 1.021103 -1.252512 0.508428
v 0.985333 -1.210268 0.475314
v 0.991355 -1.170487 0.481239
v 0.954054 -1.170552 0.478334
v 0.949096 -1.208586 0.461274
v 0.953761 -1.250050 0.471094
v 0.990622 -1.250050 0.483626
v 0.911586 -1.211302 0.480940
v 0.909059 -1.166251 0.486826
v 0.912175 -1.252745 0.478610
v 0.843987 -1.107327 0.497758
v 0.839475 -1.166454 0.497758
v 0.878423 -1.170987 0.469786
v 0.899666 -1.114315 0.476241
v 0.881766 -1.225582 0.469786
v 0.840178 -1.248198 0.497758
v 0.955346 -1.225582 0.494050
v 0.955346 -1.157936 0.497758
v 0.948598 -1.122023 0.511498
v 0.869639 -1.301181 0.463542
v 0.874958 -1.240369 0.435570
v 0.817499 -1.245502 0.469064
v 0.810512 -1.301181 0.463542
v 0.928766 -1.301181 0.463542
v 0.928766 -1.245502 0.435570
v 0.928766 -1.189822 0.438974
v 0.861121 -1.189822 0.463542
v 0.829727 -1.189822 0.490280
v 0.801196 -1.318951 0.427597
v 0.800572 -1.289478 0.425085
v 0.759758 -1.286370 0.421937
v 0.761630 -1.325250 0.421624
v 0.836026 -1.279085 0.431146
v 0.854898 -1.306012 0.436358
v 0.823727 -1.238623 0.441556
v 0.778939 -1.249645 0.435121
v 0.755294 -1.261731 0.433666
v 0.859388 -1.060462 0.454617
v 0.827627 -1.054581 0.493013
v 0.837563 -1.115286 0.511480
v 0.849348 -1.128461 0.459615
v 0.834070 -1.161123 0.498037
v 0.847782 -1.179290 0.460675
v 0.895194 -1.186226 0.442514
v 0.909562 -1.127442 0.449435
v 0.911354 -1.067685 0.442764
v 0.833942 -1.104534 0.486148
v 0.836452 -1.136437 0.472377
v 0.863027 -1.137794 0.496370
v 0.863432 -1.105682 0.501718
v 0.802000 -1.138630 0.474304
v 0.797722 -1.105251 0.483785
v 0.836328 -1.171263 0.480888
v 0.857560 -1.171234 0.504551
v 0.802429 -1.172083 0.474496
v 0.868206 -1.131394 0.441585
v 0.808063 -1.101757 0.471212
v 0.797254 -1.161002 0.489740
v 0.853280 -1.187629 0.454498
v 0.888718 -1.211416 0.400008
v 0.902056 -1.151740 0.379814
v 0.805446 -1.235458 0.429770
v 0.753925 -1.209097 0.467669
v 0.845802 -1.262133 0.381522
v 0.779128 -1.199929 0.417924
v 0.797271 -1.235686 0.463912
v 0.857573 -1.192570 0.463294
v 0.836270 -1.155697 0.423976
v 0.787466 -1.101933 0.423581
v 0.734456 -1.147602 0.414676
v 0.875494 -1.101684 0.449621
v 0.896370 -1.136710 0.496842
v 0.830584 -1.049526 0.442018
v 0.995762 -1.195218 0.453018
v 1.044430 -1.197985 0.476726
v 1.056758 -1.114499 0.465530
v 0.997399 -1.112377 0.448186
v 0.945922 -1.190135 0.481167
v 1.042847 -1.038552 0.493683
v 0.931874 -1.123978 0.484875
v 0.992876 -1.038487 0.469749
v 0.932274 -1.055462 0.493424
v 1.060932 -1.120809 0.478363
v 1.058729 -1.080810 0.483113
v 1.022698 -1.081761 0.480784
v 1.019805 -1.119373 0.467110
v 1.022446 -1.156424 0.474982
v 1.056526 -1.156424 0.485026
v 0.984735 -1.121693 0.482873
v 0.982577 -1.080294 0.487590
v 0.985238 -1.158726 0.481005
v 1.086987 -1.204994 0.481583
v 1.134238 -1.208992 0.461175
v 1.135194 -1.146327 0.446521
v 1.077114 -1.148400 0.445880
v 1.061455 -1.182846 0.520997
v 1.110914 -1.112748 0.423534
v 1.053471 -1.129611 0.495738
v 1.065698 -1.104734 0.423904
v 1.034941 -1.086777 0.458995
v 0.935890 -1.106534 0.453037
v 0.937034 -1.061362 0.422153
v 0.868885 -1.062581 0.431847
v 0.877074 -1.109549 0.462478
v 0.994885 -1.101901 0.444899
v 0.986722 -1.054692 0.414464
v 0.985236 -1.009230 0.417785
v 0.926126 -1.014910 0.425078
v 0.867207 -1.018851 0.433774
v 1.083365 -1.377036 0.422636
v 1.041244 -1.337224 0.418567
v 1.000106 -1.392359 0.422848
v 1.049545 -1.426159 0.426114
v 1.117401 -1.327799 0.422638
v 1.067995 -1.293983 0.419892
v 1.012786 -1.325251 0.464690
v 0.978842 -1.374439 0.466176
v 1.046962 -1.275941 0.466943
v 0.946698 -1.079852 0.439372
v 0.916316 -1.026505 0.454154
v 0.858054 -1.059172 0.424031
v 0.886165 -1.111281 0.416210
v 0.904187 -1.166810 0.456654
v 0.963975 -1.134692 0.474915
v 0.823114 -1.146098 0.420139
v 0.789704 -1.092606 0.434228
v 0.843373 -1.202541 0.452685
v 0.916202 -1.097558 0.434663
v 0.916162 -1.132679 0.484094
v 0.986806 -1.146140 0.467230
v 0.987219 -1.107582 0.424421
v 0.990766 -1.035265 0.419298
v 0.920826 -1.029372 0.426553
v 1.057910 -1.096799 0.433402
v 1.060565 -1.133303 0.483534
v 1.061105 -1.028815 0.421143
v 1.050905 -1.060542 0.416145
v 1.019299 -1.040370 0.464021
v 0.990914 -1.108854 0.464099
v 1.026170 -1.128382 0.422725
v 1.095894 -1.148169 0.418586
v 1.116204 -1.081260 0.409362
v 1.022914 -1.195280 0.447850
v 0.989450 -1.177190 0.497034
v 1.088076 -1.215677 0.436718
v 0.818326 -1.336130 0.451285
v 0.841117 -1.354056 0.455822
v 0.854606 -1.331335 0.450430
v 0.831948 -1.315654 0.438509
v 0.804990 -1.302346 0.445538
v 0.792107 -1.323956 0.457358
v 0.845007 -1.289910 0.448265
v 0.874202 -1.304532 0.451986
v 0.818944 -1.275133 0.446753
v 0.927161 -1.209321 0.403065
v 0.935342 -1.149567 0.421689
v 0.881439 -1.149666 0.413258
v 0.870241 -1.206795 0.401038
v 0.876538 -1.269075 0.397690
v 0.931193 -1.269075 0.417375
v 0.830400 -1.210875 0.430303
v 0.842247 -1.149567 0.457754
v 0.836957 -1.273122 0.450062
v 1.057058 -1.171910 0.444117
v 0.998227 -1.158623 0.462737
v 0.993700 -1.212340 0.454331
v 1.049658 -1.228406 0.442116
v 1.112247 -1.227477 0.438766
v 1.116938 -1.173013 0.458426
v 1.050305 -1.268433 0.471400
v 0.990242 -1.251354 0.498846
v 1.112886 -1.267230 0.491156
v 1.137472 -1.130101 0.436359
v 1.110742 -1.085282 0.436647
v 1.057162 -1.114456 0.448706
v 1.077002 -1.163058 0.434535
v 1.026017 -1.149574 0.442594
v 1.035439 -1.192378 0.434805
v 1.057380 -1.231818 0.449118
v 1.106292 -1.198524 0.457464
v 1.157827 -1.167680 0.455080
v 1.033226 -1.287779 0.465252
v 1.025096 -1.340214 0.447273
v 1.082720 -1.336603 0.435334
v 1.074418 -1.229978 0.465479
v 1.050218 -1.239475 0.496890
v 1.081214 -1.269838 0.423553
v 1.134468 -1.218883 0.428781
v 1.133654 -1.271491 0.411377
v 1.140344 -1.332994 0.423394
v 0.929994 -1.262804 0.514383
v 0.896498 -1.307285 0.505831
v 0.942157 -1.325654 0.475134
v 0.986588 -1.225376 0.494867
v 0.974914 -1.226105 0.533072
v 0.960971 -1.263026 0.457815
v 1.027276 -1.236760 0.439617
v 1.000172 -1.284242 0.429174
v 0.987815 -1.344023 0.444437
v 0.931946 -1.303022 0.441792
v 0.898450 -1.347502 0.433241
v 0.944108 -1.365870 0.402543
v 0.988539 -1.265593 0.422276
v 0.976865 -1.266322 0.460481
v 0.962922 -1.303242 0.385224
v 1.029227 -1.276977 0.367026
v 1.002122 -1.324458 0.356582
v 0.989766 -1.384240 0.371846
v 1.011666 -1.191139 0.465252
v 1.003536 -1.243574 0.447273
v 1.061160 -1.239963 0.435334
v 1.052858 -1.133338 0.465479
v 1.028658 -1.142835 0.496890
v 1.059654 -1.173198 0.423553
v 1.112908 -1.122243 0.428781
v 1.112094 -1.174851 0.411377
v 1.118784 -1.236354 0.423394
v 0.959390 -1.219417 0.436188
v 0.925894 -1.263898 0.427637
v 0.971554 -1.282266 0.396939
v 1.015984 -1.181989 0.416672
v 1.004310 -1.182717 0.454877
v 0.990367 -1.219638 0.379620
v 1.056672 -1.193373 0.361422
v 1.029568 -1.240854 0.350978
v 1.017211 -1.300635 0.366242
v 0.850466 -1.327672 0.441557
v 0.833755 -1.335977 0.420930
v 0.858339 -1.376798 0.420751
v 0.872775 -1.370793 0.443784
v 0.811713 -1.299134 0.450662
v 0.797778 -1.306912 0.427094
v 0.796602 -1.362622 0.412824
v 0.822966 -1.400745 0.411842
v 0.763369 -1.330798 0.416452
vt 0.116600 0.795600
vt 0.129800 0.890200
vt 0.000000 0.897800
vt 0.000000 0.795600
vt 0.233200 0.795600
vt 0.233200 0.897800
vt 0.116600 1.000000
vt 0.000000 1.000000
vt 0.233200 1.000000
vt 0.728500 0.398800
vt 0.546800 0.367300
vt 0.561500 0.273400
vt 0.554600 0.453400
vt 0.716400 0.503300
vt 0.728500 0.288000
vt 0.884300 0.473200
vt 0.908400 0.288000
vt 0.911000 0.388800
vt 0.017900 0.640800
vt 0.017900 0.503100
vt 0.175000 0.503100
vt 0.192800 0.630500
vt 0.175000 0.778600
vt 0.017900 0.778600
vt 0.332000 0.640800
vt 0.319100 0.510800
vt 0.332000 0.778600
vt 0.017900 0.640800
vt 0.017900 0.503100
vt 0.175000 0.503100
vt 0.192800 0.630500
vt 0.175000 0.778600
vt 0.017900 0.778600
vt 0.332000 0.640800
vt 0.319100 0.510800
vt 0.332000 0.778600
vt 0.320000 0.546600
vt 0.326800 0.429600
vt 0.464200 0.416000
vt 0.480500 0.537300
vt 0.583700 0.449500
vt 0.608400 0.546600
vt 0.608400 0.671300
vt 0.464200 0.671300
vt 0.320000 0.671300
vt 0.116600 0.795600
vt 0.129800 0.890200
vt 0.000000 0.897800
vt 0.000000 0.795600
vt 0.233200 0.795600
vt 0.233200 0.897800
vt 0.116600 1.000000
vt 0.000000 1.000000
vt 0.233200 1.000000
vt 0.660600 0.846900
vt 0.683900 0.615300
vt 0.819900 0.701100
vt 0.819900 0.992700
vt 0.660600 0.992700
vt 0.838000 0.836000
vt 0.979200 0.992700
vt 0.979200 0.846900
vt 0.979200 0.701100
vt 0.017900 0.640800
vt 0.017900 0.503100
vt 0.175000 0.503100
vt 0.192800 0.630500
vt 0.175000 0.778600
vt 0.017900 0.778600
vt 0.332000 0.640800
vt 0.319100 0.510800
vt 0.332000 0.778600
vt 0.872500 0.480100
vt 0.879500 0.580200
vt 0.741800 0.587100
vt 0.737900 0.509900
vt 0.996700 0.585400
vt 0.984700 0.486500
vt 0.996700 0.712600
vt 0.865200 0.707500
vt 0.769200 0.673700
vt 0.052800 0.384100
vt 0.052800 0.286400
vt 0.193100 0.286400
vt 0.195800 0.386100
vt 0.193100 0.481900
vt 0.052800 0.481900
vt 0.333500 0.384100
vt 0.333500 0.286400
vt 0.333500 0.481900
vt 0.052800 0.384100
vt 0.052800 0.286400
vt 0.193100 0.286400
vt 0.195800 0.386100
vt 0.193100 0.481900
vt 0.052800 0.481900
vt 0.333500 0.384100
vt 0.333500 0.286400
vt 0.333500 0.481900
vt 0.017900 0.640800
vt 0.017900 0.503100
vt 0.175000 0.503100
vt 0.192800 0.630500
vt 0.175000 0.778600
vt 0.017900 0.778600
vt 0.332000 0.640800
vt 0.319100 0.510800
vt 0.332000 0.778600
vt 0.052800 0.384100
vt 0.052800 0.286400
vt 0.193100 0.286400
vt 0.195800 0.386100
vt 0.193100 0.481900
vt 0.052800 0.481900
vt 0.333500 0.384100
vt 0.333500 0.286400
vt 0.333500 0.481900
vt 0.660600 0.846900
vt 0.683900 0.615300
vt 0.819900 0.701100
vt 0.819900 0.992700
vt 0.660600 0.992700
vt 0.838000 0.836000
vt 0.979200 0.992700
vt 0.979200 0.846900
vt 0.979200 0.701100
vt 0.116600 0.795600
vt 0.129800 0.890200
vt 0.000000 0.897800
vt 0.000000 0.795600
vt 0.233200 0.897800
vt 0.233200 0.795600
vt 0.116600 1.000000
vt 0.000000 1.000000
vt 0.233200 1.000000
vt 0.009200 0.132500
vt 0.009200 0.002800
vt 0.143700 0.002800
vt 0.141500 0.134500
vt 0.143700 0.262300
vt 0.009200 0.262300
vt 0.278200 0.132500
vt 0.278200 0.002800
vt 0.278200 0.262300
vt 0.828300 0.005600
vt 0.825800 0.156500
vt 0.671300 0.154300
vt 0.671300 0.005600
vt 0.985400 0.154300
vt 0.985400 0.005600
vt 0.828300 0.303000
vt 0.671300 0.303000
vt 0.985400 0.303000
vt 0.052800 0.384100
vt 0.052800 0.286400
vt 0.193100 0.286400
vt 0.195800 0.386100
vt 0.193100 0.481900
vt 0.052800 0.481900
vt 0.333500 0.384100
vt 0.333500 0.286400
vt 0.333500 0.481900
vt 0.000000 0.897800
vt 0.129800 0.890200
vt 0.116600 0.795600
vt 0.000000 0.795600
vt 0.233200 0.795600
vt 0.233200 0.897800
vt 0.233200 1.000000
vt 0.116600 1.000000
vt 0.000000 1.000000
vt 0.052800 0.384100
vt 0.052800 0.286400
vt 0.193100 0.286400
vt 0.195800 0.386100
vt 0.193100 0.481900
vt 0.052800 0.481900
vt 0.333500 0.384100
vt 0.333500 0.286400
vt 0.333500 0.481900
vt 0.052800 0.384100
vt 0.052800 0.286400
vt 0.193100 0.286400
vt 0.195800 0.386100
vt 0.193100 0.481900
vt 0.052800 0.481900
vt 0.333500 0.384100
vt 0.333500 0.286400
vt 0.333500 0.481900
vt 0.052800 0.384100
vt 0.052800 0.286400
vt 0.193100 0.286400
vt 0.195800 0.386100
vt 0.193100 0.481900
vt 0.052800 0.481900
vt 0.333500 0.384100
vt 0.333500 0.286400
vt 0.333500 0.481900
vt 0.116600 0.795600
vt 0.129800 0.890200
vt 0.000000 0.897800
vt 0.000000 0.795600
vt 0.233200 0.795600
vt 0.233200 0.897800
vt 0.116600 1.000000
vt 0.000000 1.000000
vt 0.233200 1.000000
vt 0.017900 0.640800
vt 0.017900 0.503100
vt 0.175000 0.503100
vt 0.192800 0.630500
vt 0.175000 0.778600
vt 0.017900 0.778600
vt 0.332000 0.640800
vt 0.319100 0.510800
vt 0.332000 0.778600
vt 0.009200 0.132500
vt 0.009200 0.002800
vt 0.143700 0.002800
vt 0.141500 0.134500
vt 0.143700 0.262300
vt 0.009200 0.262300
vt 0.278200 0.132500
vt 0.278200 0.002800
vt 0.278200 0.262300
vt 0.737900 0.509900
vt 0.872500 0.480100
vt 0.879500 0.580200
vt 0.741800 0.587100
vt 0.996700 0.585400
vt 0.984700 0.486500
vt 0.996700 0.712600
vt 0.865200 0.707500
vt 0.769200 0.673700
vt 0.464300 0.687400
vt 0.491100 0.878400
vt 0.301300 0.843700
vt 0.301300 0.687400
vt 0.627200 0.687400
vt 0.627200 0.843700
vt 0.627200 1.000100
vt 0.464300 1.000100
vt 0.301300 1.000100
vt 0.872500 0.480100
vt 0.879500 0.580200
vt 0.741800 0.587100
vt 0.737900 0.509900
vt 0.996700 0.585400
vt 0.984700 0.486500
vt 0.996700 0.712600
vt 0.865200 0.707500
vt 0.769200 0.673700
vt 0.320000 0.546600
vt 0.326800 0.429600
vt 0.464200 0.416000
vt 0.480500 0.537300
vt 0.583700 0.449500
vt 0.608400 0.546600
vt 0.608400 0.671300
vt 0.464200 0.671300
vt 0.320000 0.671300
vt 0.828300 0.005600
vt 0.825800 0.156500
vt 0.671300 0.154300
vt 0.671300 0.005600
vt 0.985400 0.154300
vt 0.985400 0.005600
vt 0.828300 0.303000
vt 0.671300 0.303000
vt 0.985400 0.303000
vt 0.193100 0.286400
vt 0.052800 0.286400
vt 0.052800 0.384100
vt 0.195800 0.386100
vt 0.333500 0.384100
vt 0.333500 0.286400
vt 0.193100 0.481900
vt 0.052800 0.481900
vt 0.333500 0.481900
vt 0.052800 0.384100
vt 0.052800 0.286400
vt 0.193100 0.286400
vt 0.195800 0.386100
vt 0.193100 0.481900
vt 0.052800 0.481900
vt 0.333500 0.384100
vt 0.333500 0.286400
vt 0.333500 0.481900
vt 0.546800 0.367300
vt 0.561500 0.273400
vt 0.728500 0.288000
vt 0.728500 0.398800
vt 0.554600 0.453400
vt 0.908400 0.288000
vt 0.716400 0.503300
vt 0.911000 0.388800
vt 0.884300 0.473200
vt 0.329100 0.148500
vt 0.329100 0.010000
vt 0.475300 0.012900
vt 0.465800 0.150500
vt 0.475300 0.291400
vt 0.329100 0.288500
vt 0.609800 0.148500
vt 0.609800 0.010000
vt 0.609800 0.288500
vt 0.320000 0.546600
vt 0.326800 0.429600
vt 0.464200 0.416000
vt 0.480500 0.537300
vt 0.320000 0.671300
vt 0.583700 0.449500
vt 0.464200 0.671300
vt 0.608400 0.546600
vt 0.608400 0.671300
vt 0.116600 0.795600
vt 0.129800 0.890200
vt 0.000000 0.897800
vt 0.000000 0.795600
vt 0.233200 0.795600
vt 0.233200 0.897800
vt 0.233200 1.000000
vt 0.116600 1.000000
vt 0.000000 1.000000
vt 0.116600 0.795600
vt 0.129800 0.890200
vt 0.000000 0.897800
vt 0.000000 0.795600
vt 0.233200 0.795600
vt 0.233200 0.897800
vt 0.116600 1.000000
vt 0.000000 1.000000
vt 0.233200 1.000000
vt 0.052800 0.384100
vt 0.052800 0.286400
vt 0.193100 0.286400
vt 0.195800 0.386100
vt 0.193100 0.481900
vt 0.052800 0.481900
vt 0.333500 0.384100
vt 0.333500 0.286400
vt 0.333500 0.481900
vt 0.052800 0.384100
vt 0.052800 0.286400
vt 0.193100 0.286400
vt 0.195800 0.386100
vt 0.193100 0.481900
vt 0.052800 0.481900
vt 0.333500 0.384100
vt 0.333500 0.286400
vt 0.333500 0.481900
vt 0.052800 0.384100
vt 0.052800 0.286400
vt 0.193100 0.286400
vt 0.195800 0.386100
vt 0.193100 0.481900
vt 0.052800 0.481900
vt 0.333500 0.384100
vt 0.333500 0.286400
vt 0.333500 0.481900
vt 0.009200 0.132500
vt 0.009200 0.002800
vt 0.143700 0.002800
vt 0.141500 0.134500
vt 0.143700 0.262300
vt 0.009200 0.262300
vt 0.278200 0.132500
vt 0.278200 0.002800
vt 0.278200 0.262300
vt 0.017900 0.640800
vt 0.017900 0.503100
vt 0.175000 0.503100
vt 0.192800 0.630500
vt 0.175000 0.778600
vt 0.017900 0.778600
vt 0.332000 0.640800
vt 0.319100 0.510800
vt 0.332000 0.778600
vt 0.017900 0.640800
vt 0.017900 0.503100
vt 0.175000 0.503100
vt 0.192800 0.630500
vt 0.175000 0.778600
vt 0.017900 0.778600
vt 0.332000 0.640800
vt 0.319100 0.510800
vt 0.332000 0.778600
vt 0.320000 0.546600
vt 0.326800 0.429600
vt 0.464200 0.416000
vt 0.480500 0.537300
vt 0.583700 0.449500
vt 0.608400 0.546600
vt 0.608400 0.671300
vt 0.464200 0.671300
vt 0.320000 0.671300
vt 0.301300 0.843700
vt 0.301300 0.687400
vt 0.464300 0.687400
vt 0.464300 1.000100
vt 0.301300 1.000100
vt 0.491100 0.878400
vt 0.627200 1.000100
vt 0.627200 0.843700
vt 0.627200 0.687400
vt 0.301300 0.843700
vt 0.301300 0.687400
vt 0.464300 0.687400
vt 0.464300 1.000100
vt 0.301300 1.000100
vt 0.491100 0.878400
vt 0.627200 1.000100
vt 0.627200 0.843700
vt 0.627200 0.687400
vt 0.301300 0.843700
vt 0.301300 0.687400
vt 0.464300 0.687400
vt 0.464300 1.000100
vt 0.301300 1.000100
vt 0.491100 0.878400
vt 0.627200 1.000100
vt 0.627200 0.843700
vt 0.627200 0.687400
vt 0.301300 0.843700
vt 0.301300 0.687400
vt 0.464300 0.687400
vt 0.464300 1.000100
vt 0.301300 1.000100
vt 0.491100 0.878400
vt 0.627200 1.000100
vt 0.627200 0.843700
vt 0.627200 0.687400
vt 0.301300 0.843700
vt 0.301300 0.687400
vt 0.464300 0.687400
vt 0.464300 1.000100
vt 0.301300 1.000100
vt 0.491100 0.878400
vt 0.627200 1.000100
vt 0.627200 0.843700
vt 0.627200 0.687400
vt 0.193100 0.286400
vt 0.195800 0.386100
vt 0.052800 0.384100
vt 0.052800 0.286400
vt 0.333500 0.286400
vt 0.333500 0.384100
vt 0.193100 0.481900
vt 0.052800 0.481900
vt 0.333500 0.481900
vn -0.229087 0.544670 0.806755
vn 0.198899 0.320898 0.925994
vn 0.237902 0.316702 0.918206
vn -0.208800 0.561500 0.800700
vn -0.247593 0.504785 0.826976
vn 0.236506 0.257006 0.937023
vn 0.608996 -0.011200 0.793094
vn 0.611976 -0.003400 0.790869
vn 0.616569 -0.050797 0.785661
vn 0.063002 0.034201 0.997427
vn 0.016900 0.189699 0.981697
vn -0.370687 0.226292 0.900768
vn 0.488875 0.161592 0.857257
vn 0.492311 0.087402 0.866020
vn -0.282209 0.020601 0.959132
vn 0.454910 -0.055301 0.888819
vn -0.353696 -0.201998 0.913289
vn -0.025799 -0.151293 0.988152
vn -0.057202 0.337109 0.939726
vn -0.043202 0.146705 0.988236
vn 0.385992 0.115998 0.915180
vn 0.403290 0.301493 0.863979
vn 0.319207 0.556313 0.767218
vn -0.289704 0.552408 0.781612
vn 0.750697 0.279099 0.598797
vn 0.770393 -0.051400 0.635494
vn 0.774105 0.554904 0.304702
vn -0.206595 0.086698 0.974578
vn -0.386485 0.034099 0.921665
vn -0.288201 -0.384001 0.877202
vn -0.106600 -0.361901 0.926102
vn 0.136899 -0.223699 0.964996
vn 0.003800 0.361990 0.932174
vn 0.080800 -0.690299 0.718999
vn -0.206802 -0.792307 0.574005
vn 0.449877 -0.638867 0.624068
vn 0.184804 -0.085802 0.979023
vn 0.027400 -0.367300 0.929699
vn -0.351194 -0.193997 0.915985
vn 0.009700 0.018800 0.999776
vn -0.408416 -0.155606 0.899435
vn 0.079003 -0.022001 0.996632
vn 0.416705 0.232103 0.878911
vn 0.498583 0.216493 0.839372
vn 0.512072 0.072796 0.855853
vn -0.379201 -0.540002 0.751402
vn 0.003900 -0.299013 0.954241
vn 0.018900 -0.263705 0.964418
vn -0.387295 -0.517393 0.763090
vn -0.345716 -0.574727 0.741734
vn 0.077398 -0.285091 0.955370
vn 0.416918 0.050502 0.907540
vn 0.410410 0.055301 0.910223
vn 0.453615 0.054502 0.889530
vn 0.033800 0.107800 0.993598
vn 0.294191 -0.022999 0.955470
vn 0.369390 -0.292392 0.882076
vn -0.192797 0.414295 0.889488
vn -0.234699 0.401898 0.885096
vn 0.026699 0.024099 0.999353
vn -0.192695 0.435389 0.879378
vn 0.138096 0.022299 0.990168
vn 0.570376 -0.372684 0.731969
vn -0.139197 -0.085398 0.986576
vn -0.148091 -0.275784 0.949743
vn 0.278390 -0.322888 0.904567
vn 0.316590 -0.140696 0.938070
vn 0.265693 0.136296 0.954374
vn -0.332113 0.198408 0.922136
vn 0.685981 -0.088798 0.722180
vn 0.686137 -0.403622 0.605232
vn 0.758428 0.268410 0.593922
vn -0.919279 -0.198495 0.339892
vn -0.754719 -0.193005 0.627016
vn -0.597106 -0.130301 0.791508
vn -0.824290 -0.251997 0.506994
vn -0.733714 -0.267205 0.624712
vn -0.918781 -0.284294 0.273894
vn -0.346797 -0.159999 0.924193
vn -0.284289 -0.061498 0.956764
vn -0.157403 0.182003 0.970618
vn 0.100700 0.193600 0.975899
vn -0.329195 0.246996 0.911386
vn -0.269604 -0.017400 0.962814
vn 0.132400 -0.000200 0.991196
vn 0.463820 0.026301 0.885539
vn 0.453715 0.122204 0.882728
vn 0.112898 -0.175497 0.977985
vn -0.288698 -0.277598 0.916293
vn 0.399093 -0.036499 0.916184
vn -0.152798 -0.708189 0.689290
vn -0.064600 -0.953095 0.295698
vn 0.181800 -0.878198 0.442399
vn 0.028800 -0.649994 0.759393
vn -0.117005 -0.355716 0.927241
vn -0.203495 -0.385991 0.899778
vn 0.207498 -0.599394 0.773092
vn 0.437216 -0.778728 0.449916
vn -0.034199 -0.400689 0.915576
vn -0.138706 -0.085404 0.986644
vn -0.147606 -0.275712 0.949840
vn 0.278809 -0.322911 0.904430
vn 0.317009 -0.140704 0.937927
vn 0.266208 0.136304 0.954230
vn -0.331696 0.198398 0.922289
vn 0.686391 -0.088799 0.721791
vn 0.686420 -0.403612 0.604918
vn 0.758735 0.268413 0.593528
vn -0.253297 0.195198 0.947491
vn -0.636310 0.252004 0.729112
vn -0.597311 -0.017700 0.801815
vn -0.231792 -0.000600 0.972765
vn 0.119105 0.026101 0.992539
vn 0.111206 0.120606 0.986452
vn -0.241992 -0.177694 0.953868
vn -0.598977 -0.282789 0.749171
vn 0.049800 -0.036100 0.998107
vn 0.072899 -0.086399 0.993590
vn -0.177294 -0.235892 0.955469
vn -0.444900 -0.154800 0.882100
vn 0.453083 -0.059698 0.889467
vn 0.465093 -0.017600 0.885087
vn 0.006000 -0.035498 0.999352
vn 0.470788 -0.071098 0.879377
vn -0.055298 -0.128496 0.990167
vn -0.620508 -0.281304 0.732010
vn 0.046000 -0.035500 0.998311
vn 0.208901 -0.035200 0.977303
vn 0.219802 0.494704 0.840806
vn 0.022501 0.511112 0.859220
vn 0.180091 -0.505775 0.843658
vn -0.179495 -0.625884 0.758980
vn 0.405710 0.068602 0.911424
vn 0.442124 0.683237 0.581131
vn 0.469989 -0.584987 0.660985
vn 0.145302 -0.084001 0.985815
vn 0.303292 -0.229794 0.924775
vn 0.357099 -0.373599 0.856098
vn 0.454997 -0.242299 0.856895
vn 0.426518 0.008500 0.904439
vn 0.167996 0.098297 0.980875
vn 0.635810 -0.283205 0.718012
vn 0.512496 -0.279598 0.811894
vn 0.539287 -0.222195 0.812280
vn 0.088601 -0.543207 0.834911
vn 0.100797 -0.356688 0.928770
vn -0.259500 -0.267700 0.927899
vn -0.069598 -0.391890 0.917376
vn 0.361709 -0.348708 0.864621
vn 0.327299 -0.507298 0.797197
vn -0.023401 -0.087003 0.995933
vn -0.367600 0.012500 0.929900
vn 0.217903 -0.256304 0.941715
vn 0.125698 0.414593 0.901284
vn -0.306113 0.471320 0.827135
vn -0.254691 0.221692 0.941268
vn 0.149897 0.228296 0.961983
vn 0.481108 0.211304 0.850815
vn 0.476491 0.305794 0.824285
vn 0.122896 0.053598 0.990971
vn -0.283100 -0.041300 0.958201
vn 0.413611 0.160904 0.896123
vn 0.149596 0.030699 0.988271
vn 0.174694 0.017499 0.984467
vn 0.509272 0.111494 0.853353
vn 0.498209 0.127602 0.857616
vn 0.514411 0.074302 0.854319
vn 0.123899 -0.002700 0.992291
vn -0.219893 -0.075897 0.972567
vn -0.202498 -0.078999 0.976091
vn -0.211292 -0.066398 0.975165
vn -0.253297 0.195198 0.947491
vn -0.636310 0.252004 0.729112
vn -0.597311 -0.017700 0.801815
vn -0.231792 -0.000600 0.972765
vn 0.119105 0.026101 0.992539
vn 0.111206 0.120606 0.986452
vn -0.241992 -0.177694 0.953868
vn -0.598977 -0.282789 0.749171
vn 0.049800 -0.036100 0.998107
vn -0.007100 -0.348911 0.937129
vn 0.299196 -0.033999 0.953586
vn 0.049902 0.072103 0.996148
vn -0.182705 -0.259408 0.948328
vn -0.350608 -0.518312 0.780017
vn -0.266800 -0.568800 0.778000
vn -0.307894 -0.133697 0.941980
vn -0.139602 0.251204 0.957814
vn -0.364386 -0.432983 0.824468
vn -0.253297 0.195198 0.947491
vn -0.636310 0.252004 0.729112
vn -0.597311 -0.017700 0.801815
vn -0.231792 -0.000600 0.972765
vn 0.119105 0.026101 0.992539
vn 0.111206 0.120606 0.986452
vn -0.241992 -0.177694 0.953868
vn -0.598977 -0.282789 0.749171
vn 0.049800 -0.036100 0.998107
vn -0.485027 -0.020901 0.874249
vn -0.008000 -0.027899 0.999579
vn 0.027200 -0.008700 0.999592
vn -0.476724 0.003700 0.879045
vn -0.479993 -0.068599 0.874586
vn 0.056898 -0.061897 0.996459
vn 0.512899 -0.024500 0.858099
vn 0.511203 -0.016300 0.859305
vn 0.541521 -0.047702 0.839333
vn 0.320595 0.119998 0.939585
vn 0.409095 -0.050599 0.911088
vn 0.743493 0.117199 0.658394
vn 0.677198 0.300599 0.671598
vn 0.484093 0.514892 0.707489
vn -0.007800 0.235699 0.971795
vn 0.832617 0.475010 0.284806
vn 0.968125 0.178305 0.175904
vn 0.621103 0.773304 0.127401
vn -0.289317 -0.038602 0.956455
vn -0.076700 -0.135501 0.987804
vn 0.042900 -0.262401 0.964005
vn 0.079604 -0.097505 0.992046
vn -0.026401 0.144605 0.989137
vn -0.318099 0.153200 0.935598
vn 0.318394 -0.083398 0.944283
vn 0.173199 -0.117999 0.977793
vn 0.180898 -0.052699 0.982089
vn 0.441313 -0.150005 0.884727
vn 0.576089 -0.013000 0.817284
vn 0.161608 -0.037402 0.986146
vn -0.107802 -0.168304 0.979823
vn 0.184506 -0.000500 0.982831
vn 0.556285 0.004800 0.830978
vn -0.325983 -0.039498 0.944550
vn -0.422393 -0.138398 0.895785
vn -0.578800 -0.384000 0.719399
vn 0.138500 0.278499 0.950398
vn 0.281386 0.042498 0.958653
vn 0.403100 -0.090200 0.910700
vn 0.000000 -0.098702 0.995117
vn 0.018500 0.431307 0.902015
vn 0.020600 0.215900 0.976198
vn 0.161007 -0.235911 0.958344
vn 0.467105 -0.371204 0.802509
vn 0.595078 -0.396985 0.698774
vn -0.141896 0.052799 0.988473
vn -0.113000 -0.080900 0.990296
vn -0.058497 -0.175490 0.982742
vn -0.146905 -0.015001 0.989037
vn -0.138800 -0.086900 0.986500
vn -0.176297 0.066599 0.982082
vn -0.075601 -0.275902 0.958208
vn -0.029101 -0.312311 0.949534
vn 0.150196 -0.402589 0.902975
vn 0.596700 0.105500 0.795499
vn 0.757030 0.300412 0.580223
vn 0.938929 -0.031001 0.342711
vn 0.693609 -0.074301 0.716509
vn 0.948768 -0.086197 0.303990
vn 0.651683 -0.004300 0.758480
vn 0.255091 -0.082797 0.963366
vn 0.183696 -0.031499 0.982478
vn 0.234587 0.100894 0.966845
vn -0.297285 -0.307385 0.903956
vn -0.315712 -0.093504 0.944237
vn -0.643197 -0.012700 0.765596
vn -0.466515 -0.139604 0.873427
vn -0.032402 -0.109605 0.993447
vn -0.057003 -0.279514 0.958448
vn -0.422602 0.190801 0.886004
vn -0.715972 0.274089 0.642075
vn -0.185392 0.003300 0.982659
vn 0.704037 0.024601 0.709737
vn 0.502597 0.173199 0.846994
vn 0.408905 -0.258803 0.875110
vn 0.550894 -0.356096 0.754792
vn 0.674196 -0.395397 0.623796
vn 0.872390 -0.029900 0.487895
vn 0.326809 -0.630518 0.704020
vn 0.262405 -0.587610 0.765414
vn 0.417191 -0.601387 0.681385
vn -0.296795 0.284795 0.911485
vn -0.435906 0.619009 0.653310
vn -0.628099 0.412500 0.659799
vn -0.433812 0.135704 0.890725
vn -0.191299 -0.114799 0.974795
vn -0.126399 -0.046400 0.990894
vn -0.560475 0.025999 0.827763
vn -0.809317 0.240205 0.536011
vn -0.281906 -0.103702 0.953821
vn 0.055298 0.098896 0.993560
vn -0.422307 0.181403 0.888116
vn -0.312389 -0.137395 0.939966
vn 0.077402 -0.117703 0.990028
vn 0.488078 0.046498 0.871561
vn -0.355115 -0.322214 0.877537
vn 0.492102 -0.027500 0.870103
vn -0.025900 -0.281503 0.959211
vn 0.455890 -0.172396 0.873180
vn -0.222107 -0.013500 0.974929
vn -0.060799 -0.120999 0.990789
vn 0.052998 -0.226493 0.972570
vn 0.088000 -0.073500 0.993405
vn 0.001600 0.149998 0.988685
vn -0.276402 0.209602 0.937907
vn 0.287294 -0.069999 0.955281
vn 0.162693 -0.103295 0.981255
vn 0.162494 -0.047498 0.985566
vn 0.588496 0.408697 0.697595
vn 0.402710 0.202605 0.892623
vn 0.081898 0.469589 0.879079
vn 0.478112 0.540213 0.692517
vn 0.880691 0.333397 0.336497
vn 0.026001 0.513115 0.857926
vn 0.876508 0.402604 0.263902
vn 0.539283 0.486785 0.687179
vn 0.812693 0.488596 0.317497
vn 0.089404 0.559727 0.823840
vn 0.116495 0.283189 0.951963
vn 0.132302 0.267204 0.954515
vn 0.103903 0.555914 0.824721
vn 0.062900 0.555101 0.829401
vn 0.116904 0.239908 0.963731
vn 0.144194 -0.050498 0.988260
vn 0.135604 -0.032601 0.990227
vn 0.148401 -0.037800 0.988205
vn -0.033399 0.064099 0.997385
vn 0.367395 -0.227197 0.901888
vn 0.403112 -0.229807 0.885827
vn -0.012000 0.078801 0.996818
vn -0.056198 0.022899 0.998157
vn 0.394692 -0.289894 0.871883
vn 0.697395 -0.475197 0.536496
vn 0.701428 -0.467819 0.537722
vn 0.697797 -0.506798 0.506198
vn -0.385304 0.029800 0.922309
vn -0.243898 -0.385496 0.889891
vn -0.040899 -0.218496 0.974980
vn -0.228100 0.141500 0.963301
vn -0.368106 0.430507 0.824113
vn -0.451103 0.380903 0.807105
vn -0.059501 0.196903 0.978616
vn 0.206603 -0.126502 0.970213
vn -0.290398 0.397597 0.870394
vn 0.205597 0.458494 0.864588
vn 0.281692 0.782077 0.555883
vn 0.006300 0.772809 0.634607
vn 0.006100 0.452717 0.891634
vn 0.016901 0.107704 0.994039
vn 0.111705 0.109905 0.987645
vn -0.172596 0.464890 0.868382
vn -0.262187 0.773463 0.577072
vn -0.042200 0.179201 0.982907
vn 0.449980 -0.095096 0.887961
vn 0.731825 -0.302611 0.610621
vn 0.786097 -0.025000 0.617598
vn 0.486288 0.104897 0.867479
vn 0.150904 0.188406 0.970428
vn 0.132802 0.095701 0.986512
vn 0.532105 0.266303 0.803708
vn 0.842292 0.219298 0.492395
vn 0.232597 0.227097 0.945688
vn 0.171209 0.358619 0.917649
vn -0.008200 0.235509 0.971838
vn -0.170198 0.198598 0.965190
vn -0.052602 0.094404 0.994143
vn 0.194905 0.061001 0.978923
vn 0.340609 0.286708 0.895424
vn -0.157504 -0.111303 0.981226
vn -0.113797 0.025499 0.993177
vn -0.064397 -0.011500 0.997858
vn -0.139197 -0.085398 0.986576
vn -0.148091 -0.275784 0.949743
vn 0.278390 -0.322888 0.904567
vn 0.316590 -0.140696 0.938070
vn 0.265693 0.136296 0.954374
vn -0.332113 0.198408 0.922136
vn 0.685981 -0.088798 0.722180
vn 0.686137 -0.403622 0.605232
vn 0.758428 0.268410 0.593922
vn 0.073203 -0.145507 0.986645
vn 0.262106 -0.170704 0.949821
vn 0.345612 0.250109 0.904432
vn 0.167402 0.303804 0.937912
vn -0.113003 0.276908 0.954229
vn -0.226197 -0.313396 0.922289
vn 0.147305 0.676221 0.721822
vn 0.460996 0.649295 0.604895
vn -0.202299 0.778997 0.593497
vn -0.034199 0.165697 0.985584
vn 0.169302 0.094601 0.981013
vn 0.114100 -0.161201 0.980304
vn -0.075499 0.045899 0.996089
vn 0.100900 -0.200900 0.974401
vn -0.054399 0.086299 0.994783
vn -0.261191 0.270991 0.926468
vn -0.275696 0.336595 0.900386
vn -0.174199 0.361899 0.915797
vn 0.593997 -0.291499 0.749797
vn 0.211100 -0.346201 0.914102
vn 0.342096 0.046999 0.938489
vn 0.636313 -0.540511 0.550412
vn 0.741607 -0.530105 0.411104
vn 0.487784 -0.193394 0.851273
vn 0.364594 -0.463893 0.807387
vn 0.214203 -0.047901 0.975614
vn 0.186001 0.207901 0.960303
vn 0.673709 -0.532307 0.512607
vn 0.373313 -0.438315 0.817629
vn 0.646790 -0.124798 0.752388
vn 0.538517 -0.773024 0.335311
vn 0.582697 -0.796196 0.162899
vn 0.654398 -0.402699 0.639998
vn 0.425015 -0.608521 0.670123
vn 0.512987 -0.162996 0.842779
vn 0.579687 0.086998 0.810182
vn 0.673709 -0.532307 0.512607
vn 0.373313 -0.438315 0.817629
vn 0.646790 -0.124798 0.752388
vn 0.538517 -0.773024 0.335311
vn 0.582697 -0.796196 0.162899
vn 0.654398 -0.402699 0.639998
vn 0.425015 -0.608521 0.670123
vn 0.512987 -0.162996 0.842779
vn 0.579687 0.086998 0.810182
vn 0.593997 -0.291499 0.749797
vn 0.211100 -0.346201 0.914102
vn 0.342096 0.046999 0.938489
vn 0.636313 -0.540511 0.550412
vn 0.741607 -0.530105 0.411104
vn 0.487784 -0.193394 0.851273
vn 0.364594 -0.463893 0.807387
vn 0.214203 -0.047901 0.975614
vn 0.186001 0.207901 0.960303
vn 0.673709 -0.532307 0.512607
vn 0.373313 -0.438315 0.817629
vn 0.646790 -0.124798 0.752388
vn 0.538517 -0.773024 0.335311
vn 0.582697 -0.796196 0.162899
vn 0.654398 -0.402699 0.639998
vn 0.425015 -0.608521 0.670123
vn 0.512987 -0.162996 0.842779
vn 0.579687 0.086998 0.810182
vn -0.551693 -0.544493 0.631792
vn -0.346587 -0.406485 0.845368
vn -0.466195 -0.259097 0.845891
vn -0.746634 -0.357316 0.561126
vn -0.449114 -0.708223 0.544717
vn -0.281806 -0.488310 0.825917
vn -0.114206 -0.182509 0.976549
vn -0.156296 -0.133297 0.978674
vn -0.128297 -0.243495 0.961379
f 1/1/1 2/2/2 3/3/3
f 1/1/1 3/3/3 4/4/4
f 5/5/5 2/2/2 1/1/1
f 5/5/5 6/6/6 2/2/2
f 3/3/3 2/2/2 7/7/7
f 6/6/6 7/7/7 2/2/2
f 3/3/3 7/7/7 8/8/8
f 6/6/6 9/9/9 7/7/7
f 10/10/10 11/11/11 12/12/12
f 13/13/13 11/11/11 10/10/10
f 13/13/13 10/10/10 14/14/14
f 10/10/10 12/12/12 15/15/15
f 16/16/16 14/14/14 10/10/10
f 10/10/10 15/15/15 17/17/17
f 16/16/16 10/10/10 18/18/18
f 10/10/10 17/17/17 18/18/18
f 19/19/19 20/20/20 21/21/21
f 19/19/19 21/21/21 22/22/22
f 23/23/23 19/19/19 22/22/22
f 23/23/23 24/24/24 19/19/19
f 25/25/25 22/22/22 21/21/21
f 23/23/23 22/22/22 25/25/25
f 25/25/25 21/21/21 26/26/26
f 23/23/23 25/25/25 27/27/27
f 28/28/28 29/29/29 30/30/30
f 28/28/28 30/30/30 31/31/31
f 32/32/32 28/28/28 31/31/31
f 32/32/32 33/33/33 28/28/28
f 34/34/34 31/31/31 30/30/30
f 32/32/32 31/31/31 34/34/34
f 34/34/34 30/30/30 35/35/35
f 32/32/32 34/34/34 36/36/36
f 37/37/37 38/38/38 39/39/39
f 37/37/37 39/39/39 40/40/40
f 40/40/40 39/39/39 41/41/41
f 40/40/40 41/41/41 42/42/42
f 43/43/43 40/40/40 42/42/42
f 43/43/43 44/44/44 40/40/40
f 44/44/44 37/37/37 40/40/40
f 44/44/44 45/45/45 37/37/37
f 46/46/46 47/47/47 48/48/48
f 46/46/46 48/48/48 49/49/49
f 50/50/50 47/47/47 46/46/46
f 50/50/50 51/51/51 47/47/47
f 48/48/48 47/47/47 52/52/52
f 51/51/51 52/52/52 47/47/47
f 48/48/48 52/52/52 53/53/53
f 51/51/51 54/54/54 52/52/52
f 55/55/55 56/56/56 57/57/57
f 58/58/58 59/59/59 55/55/55
f 58/58/58 55/55/55 60/60/60
f 55/55/55 57/57/57 60/60/60
f 61/61/61 58/58/58 60/60/60
f 61/61/61 60/60/60 62/62/62
f 62/62/62 60/60/60 57/57/57
f 62/62/62 57/57/57 63/63/63
f 64/64/64 65/65/65 66/66/66
f 64/64/64 66/66/66 67/67/67
f 68/68/68 64/64/64 67/67/67
f 68/68/68 69/69/69 64/64/64
f 70/70/70 67/67/67 66/66/66
f 68/68/68 67/67/67 70/70/70
f 70/70/70 66/66/66 71/71/71
f 68/68/68 70/70/70 72/72/72
f 73/73/73 74/74/74 75/75/75
f 73/73/73 75/75/75 76/76/76
f 73/73/73 77/77/77 74/74/74
f 73/73/73 78/78/78 77/77/77
f 74/74/74 77/77/77 79/79/79
f 74/74/74 79/79/79 80/80/80
f 75/75/75 74/74/74 80/80/80
f 75/75/75 80/80/80 81/81/81
f 82/82/82 83/83/83 84/84/84
f 82/82/82 84/84/84 85/85/85
f 86/86/86 82/82/82 85/85/85
f 86/86/86 87/87/87 82/82/82
f 88/88/88 85/85/85 84/84/84
f 86/86/86 85/85/85 88/88/88
f 88/88/88 84/84/84 89/89/89
f 86/86/86 88/88/88 90/90/90
f 91/91/91 92/92/92 93/93/93
f 91/91/91 93/93/93 94/94/94
f 95/95/95 91/91/91 94/94/94
f 95/95/95 96/96/96 91/91/91
f 97/97/97 94/94/94 93/93/93
f 95/95/95 94/94/94 97/97/97
f 97/97/97 93/93/93 98/98/98
f 95/95/95 97/97/97 99/99/99
f 100/100/100 101/101/101 102/102/102
f 100/100/100 102/102/102 103/103/103
f 104/104/104 100/100/100 103/103/103
f 104/104/104 105/105/105 100/100/100
f 106/106/106 103/103/103 102/102/102
f 104/104/104 103/103/103 106/106/106
f 106/106/106 102/102/102 107/107/107
f 104/104/104 106/106/106 108/108/108
f 109/109/109 110/110/110 111/111/111
f 109/109/109 111/111/111 112/112/112
f 113/113/113 109/109/109 112/112/112
f 113/113/113 114/114/114 109/109/109
f 115/115/115 112/112/112 111/111/111
f 113/113/113 112/112/112 115/115/115
f 115/115/115 111/111/111 116/116/116
f 113/113/113 115/115/115 117/117/117
f 118/118/118 119/119/119 120/120/120
f 121/121/121 122/122/122 118/118/118
f 121/121/121 118/118/118 123/123/123
f 118/118/118 120/120/120 123/123/123
f 124/124/124 121/121/121 123/123/123
f 124/124/124 123/123/123 125/125/125
f 125/125/125 123/123/123 120/120/120
f 125/125/125 120/120/120 126/126/126
f 127/127/127 128/128/128 129/129/129
f 127/127/127 129/129/129 130/130/130
f 127/127/127 131/131/131 128/128/128
f 127/127/127 132/132/132 131/131/131
f 129/129/129 128/128/128 133/133/133
f 131/131/131 133/133/133 128/128/128
f 129/129/129 133/133/133 134/134/134
f 131/131/131 135/135/135 133/133/133
f 136/136/136 137/137/137 138/138/138
f 136/136/136 138/138/138 139/139/139
f 140/140/140 136/136/136 139/139/139
f 140/140/140 141/141/141 136/136/136
f 142/142/142 139/139/139 138/138/138
f 140/140/140 139/139/139 142/142/142
f 142/142/142 138/138/138 143/143/143
f 140/140/140 142/142/142 144/144/144
f 145/145/145 146/146/146 147/147/147
f 145/145/145 147/147/147 148/148/148
f 145/145/145 149/149/149 146/146/146
f 145/145/145 150/150/150 149/149/149
f 147/147/147 146/146/146 151/151/151
f 149/149/149 151/151/151 146/146/146
f 147/147/147 151/151/151 152/152/152
f 149/149/149 153/153/153 151/151/151
f 154/154/154 155/155/155 156/156/156
f 154/154/154 156/156/156 157/157/157
f 158/158/158 154/154/154 157/157/157
f 158/158/158 159/159/159 154/154/154
f 160/160/160 157/157/157 156/156/156
f 158/158/158 157/157/157 160/160/160
f 160/160/160 156/156/156 161/161/161
f 158/158/158 160/160/160 162/162/162
f 163/163/163 164/164/164 165/165/165
f 163/163/163 165/165/165 166/166/166
f 164/164/164 167/167/167 165/165/165
f 164/164/164 168/168/168 167/167/167
f 164/164/164 169/169/169 168/168/168
f 164/164/164 170/170/170 169/169/169
f 163/163/163 170/170/170 164/164/164
f 163/163/163 171/171/171 170/170/170
f 172/172/172 173/173/173 174/174/174
f 172/172/172 174/174/174 175/175/175
f 176/176/176 172/172/172 175/175/175
f 176/176/176 177/177/177 172/172/172
f 178/178/178 175/175/175 174/174/174
f 176/176/176 175/175/175 178/178/178
f 178/178/178 174/174/174 179/179/179
f 176/176/176 178/178/178 180/180/180
f 181/181/181 182/182/182 183/183/183
f 181/181/181 183/183/183 184/184/184
f 185/185/185 181/181/181 184/184/184
f 185/185/185 186/186/186 181/181/181
f 187/187/187 184/184/184 183/183/183
f 185/185/185 184/184/184 187/187/187
f 187/187/187 183/183/183 188/188/188
f 185/185/185 187/187/187 189/189/189
f 190/190/190 191/191/191 192/192/192
f 190/190/190 192/192/192 193/193/193
f 194/194/194 190/190/190 193/193/193
f 194/194/194 195/195/195 190/190/190
f 196/196/196 193/193/193 192/192/192
f 194/194/194 193/193/193 196/196/196
f 196/196/196 192/192/192 197/197/197
f 194/194/194 196/196/196 198/198/198
f 199/199/199 200/200/200 201/201/201
f 199/199/199 201/201/201 202/202/202
f 203/203/203 200/200/200 199/199/199
f 203/203/203 204/204/204 200/200/200
f 201/201/201 200/200/200 205/205/205
f 204/204/204 205/205/205 200/200/200
f 201/201/201 205/205/205 206/206/206
f 204/204/204 207/207/207 205/205/205
f 208/208/208 209/209/209 210/210/210
f 208/208/208 210/210/210 211/211/211
f 212/212/212 208/208/208 211/211/211
f 212/212/212 213/213/213 208/208/208
f 214/214/214 211/211/211 210/210/210
f 212/212/212 211/211/211 214/214/214
f 214/214/214 210/210/210 215/215/215
f 212/212/212 214/214/214 216/216/216
f 217/217/217 218/218/218 219/219/219
f 217/217/217 219/219/219 220/220/220
f 221/221/221 217/217/217 220/220/220
f 221/221/221 222/222/222 217/217/217
f 223/223/223 220/220/220 219/219/219
f 221/221/221 220/220/220 223/223/223
f 223/223/223 219/219/219 224/224/224
f 221/221/221 223/223/223 225/225/225
f 226/226/226 227/227/227 228/228/228
f 226/226/226 228/228/228 229/229/229
f 227/227/227 230/230/230 228/228/228
f 227/227/227 231/231/231 230/230/230
f 228/228/228 230/230/230 232/232/232
f 228/228/228 232/232/232 233/233/233
f 229/229/229 228/228/228 233/233/233
f 229/229/229 233/233/233 234/234/234
f 235/235/235 236/236/236 237/237/237
f 235/235/235 237/237/237 238/238/238
f 239/239/239 236/236/236 235/235/235
f 239/239/239 240/240/240 236/236/236
f 236/236/236 240/240/240 241/241/241
f 236/236/236 241/241/241 242/242/242
f 237/237/237 236/236/236 242/242/242
f 237/237/237 242/242/242 243/243/243
f 244/244/244 245/245/245 246/246/246
f 244/244/244 246/246/246 247/247/247
f 244/244/244 248/248/248 245/245/245
f 244/244/244 249/249/249 248/248/248
f 245/245/245 248/248/248 250/250/250
f 245/245/245 250/250/250 251/251/251
f 246/246/246 245/245/245 251/251/251
f 246/246/246 251/251/251 252/252/252
f 253/253/253 254/254/254 255/255/255
f 253/253/253 255/255/255 256/256/256
f 256/256/256 255/255/255 257/257/257
f 256/256/256 257/257/257 258/258/258
f 259/259/259 256/256/256 258/258/258
f 259/259/259 260/260/260 256/256/256
f 260/260/260 253/253/253 256/256/256
f 260/260/260 261/261/261 253/253/253
f 262/262/262 263/263/263 264/264/264
f 262/262/262 264/264/264 265/265/265
f 262/262/262 266/266/266 263/263/263
f 262/262/262 267/267/267 266/266/266
f 264/264/264 263/263/263 268/268/268
f 266/266/266 268/268/268 263/263/263
f 264/264/264 268/268/268 269/269/269
f 266/266/266 270/270/270 268/268/268
f 271/271/271 272/272/272 273/273/273
f 271/271/271 273/273/273 274/274/274
f 275/275/275 271/271/271 274/274/274
f 275/275/275 276/276/276 271/271/271
f 277/277/277 274/274/274 273/273/273
f 275/275/275 274/274/274 277/277/277
f 277/277/277 273/273/273 278/278/278
f 275/275/275 277/277/277 279/279/279
f 280/280/280 281/281/281 282/282/282
f 280/280/280 282/282/282 283/283/283
f 284/284/284 280/280/280 283/283/283
f 284/284/284 285/285/285 280/280/280
f 286/286/286 283/283/283 282/282/282
f 284/284/284 283/283/283 286/286/286
f 286/286/286 282/282/282 287/287/287
f 284/284/284 286/286/286 288/288/288
f 289/289/289 290/290/290 291/291/291
f 289/289/289 291/291/291 292/292/292
f 293/293/293 289/289/289 292/292/292
f 292/292/292 291/291/291 294/294/294
f 293/293/293 292/292/292 295/295/295
f 292/292/292 294/294/294 296/296/296
f 297/297/297 295/295/295 292/292/292
f 297/297/297 292/292/292 296/296/296
f 298/298/298 299/299/299 300/300/300
f 298/298/298 300/300/300 301/301/301
f 302/302/302 298/298/298 301/301/301
f 302/302/302 303/303/303 298/298/298
f 304/304/304 301/301/301 300/300/300
f 302/302/302 301/301/301 304/304/304
f 304/304/304 300/300/300 305/305/305
f 302/302/302 304/304/304 306/306/306
f 307/307/307 308/308/308 309/309/309
f 307/307/307 309/309/309 310/310/310
f 311/311/311 307/307/307 310/310/310
f 310/310/310 309/309/309 312/312/312
f 311/311/311 310/310/310 313/313/313
f 310/310/310 312/312/312 314/314/314
f 315/315/315 313/313/313 310/310/310
f 315/315/315 310/310/310 314/314/314
f 316/316/316 317/317/317 318/318/318
f 316/316/316 318/318/318 319/319/319
f 320/320/320 317/317/317 316/316/316
f 320/320/320 321/321/321 317/317/317
f 317/317/317 321/321/321 322/322/322
f 317/317/317 322/322/322 323/323/323
f 318/318/318 317/317/317 323/323/323
f 318/318/318 323/323/323 324/324/324
f 325/325/325 326/326/326 327/327/327
f 325/325/325 327/327/327 328/328/328
f 329/329/329 326/326/326 325/325/325
f 329/329/329 330/330/330 326/326/326
f 327/327/327 326/326/326 331/331/331
f 330/330/330 331/331/331 326/326/326
f 327/327/327 331/331/331 332/332/332
f 330/330/330 333/333/333 331/331/331
f 334/334/334 335/335/335 336/336/336
f 334/334/334 336/336/336 337/337/337
f 338/338/338 334/334/334 337/337/337
f 338/338/338 339/339/339 334/334/334
f 340/340/340 337/337/337 336/336/336
f 338/338/338 337/337/337 340/340/340
f 340/340/340 336/336/336 341/341/341
f 338/338/338 340/340/340 342/342/342
f 343/343/343 344/344/344 345/345/345
f 343/343/343 345/345/345 346/346/346
f 347/347/347 343/343/343 346/346/346
f 347/347/347 348/348/348 343/343/343
f 349/349/349 346/346/346 345/345/345
f 347/347/347 346/346/346 349/349/349
f 349/349/349 345/345/345 350/350/350
f 347/347/347 349/349/349 351/351/351
f 352/352/352 353/353/353 354/354/354
f 352/352/352 354/354/354 355/355/355
f 356/356/356 352/352/352 355/355/355
f 356/356/356 357/357/357 352/352/352
f 358/358/358 355/355/355 354/354/354
f 356/356/356 355/355/355 358/358/358
f 358/358/358 354/354/354 359/359/359
f 356/356/356 358/358/358 360/360/360
f 361/361/361 362/362/362 363/363/363
f 361/361/361 363/363/363 364/364/364
f 365/365/365 361/361/361 364/364/364
f 365/365/365 366/366/366 361/361/361
f 367/367/367 364/364/364 363/363/363
f 365/365/365 364/364/364 367/367/367
f 367/367/367 363/363/363 368/368/368
f 365/365/365 367/367/367 369/369/369
f 370/370/370 371/371/371 372/372/372
f 370/370/370 372/372/372 373/373/373
f 374/374/374 370/370/370 373/373/373
f 374/374/374 375/375/375 370/370/370
f 376/376/376 373/373/373 372/372/372
f 374/374/374 373/373/373 376/376/376
f 376/376/376 372/372/372 377/377/377
f 374/374/374 376/376/376 378/378/378
f 379/379/379 380/380/380 381/381/381
f 379/379/379 381/381/381 382/382/382
f 383/383/383 379/379/379 382/382/382
f 383/383/383 384/384/384 379/379/379
f 385/385/385 382/382/382 381/381/381
f 383/383/383 382/382/382 385/385/385
f 385/385/385 381/381/381 386/386/386
f 383/383/383 385/385/385 387/387/387
f 388/388/388 389/389/389 390/390/390
f 388/388/388 390/390/390 391/391/391
f 391/391/391 390/390/390 392/392/392
f 391/391/391 392/392/392 393/393/393
f 394/394/394 391/391/391 393/393/393
f 394/394/394 395/395/395 391/391/391
f 395/395/395 388/388/388 391/391/391
f 395/395/395 396/396/396 388/388/388
f 397/397/397 398/398/398 399/399/399
f 397/397/397 400/400/400 401/401/401
f 397/397/397 402/402/402 400/400/400
f 397/397/397 399/399/399 402/402/402
f 402/402/402 403/403/403 400/400/400
f 402/402/402 404/404/404 403/403/403
f 399/399/399 404/404/404 402/402/402
f 399/399/399 405/405/405 404/404/404
f 406/406/406 407/407/407 408/408/408
f 406/406/406 409/409/409 410/410/410
f 406/406/406 411/411/411 409/409/409
f 406/406/406 408/408/408 411/411/411
f 411/411/411 412/412/412 409/409/409
f 411/411/411 413/413/413 412/412/412
f 408/408/408 413/413/413 411/411/411
f 408/408/408 414/414/414 413/413/413
f 415/415/415 416/416/416 417/417/417
f 415/415/415 418/418/418 419/419/419
f 415/415/415 420/420/420 418/418/418
f 415/415/415 417/417/417 420/420/420
f 420/420/420 421/421/421 418/418/418
f 420/420/420 422/422/422 421/421/421
f 417/417/417 422/422/422 420/420/420
f 417/417/417 423/423/423 422/422/422
f 424/424/424 425/425/425 426/426/426
f 424/424/424 427/427/427 428/428/428
f 424/424/424 429/429/429 427/427/427
f 424/424/424 426/426/426 429/429/429
f 429/429/429 430/430/430 427/427/427
f 429/429/429 431/431/431 430/430/430
f 426/426/426 431/431/431 429/429/429
f 426/426/426 432/432/432 431/431/431
f 433/433/433 434/434/434 435/435/435
f 433/433/433 436/436/436 437/437/437
f 433/433/433 438/438/438 436/436/436
f 433/433/433 435/435/435 438/438/438
f 438/438/438 439/439/439 436/436/436
f 438/438/438 440/440/440 439/439/439
f 435/435/435 440/440/440 438/438/438
f 435/435/435 441/441/441 440/440/440
f 442/442/442 443/443/443 444/444/444
f 442/442/442 444/444/444 445/445/445
f 446/446/446 443/443/443 442/442/442
f 446/446/446 447/447/447 443/443/443
f 444/444/444 443/443/443 448/448/448
f 447/447/447 448/448/448 443/443/443
f 444/444/444 448/448/448 449/449/449
f 447/447/447 450/450/450 448/448/448
