o Sponza_Mesh_051
v -8.658889 -2.518412 10.419592
v -8.357877 -2.005275 10.461138
v 7.476347 -2.004999 10.460943
v 7.948263 -2.518657 10.419344
v 7.948263 -2.518657 10.419344
v 7.476347 -2.004999 10.460943
v 7.476262 2.653558 10.460924
v 7.948329 3.232638 10.419260
v 7.476262 2.653558 10.460924
v -8.357766 2.653795 10.461129
v -8.658965 3.232422 10.419467
v 7.948329 3.232638 10.419260
v -8.357766 2.653795 10.461129
v -8.357877 -2.005275 10.461138
v -8.658889 -2.518412 10.419592
v -8.658965 3.232422 10.419467
v -8.659513 -2.519337 7.293823
v -8.659513 3.233305 7.293823
v -8.658965 3.232422 10.419467
v -8.658889 -2.518412 10.419592
v -8.659513 -2.519337 7.293823
v 7.948900 -2.519337 7.293823
v 6.979297 -1.465372 7.317153
v -8.036484 -1.465372 7.317153
v 7.948900 -2.519337 7.293823
v 7.948900 3.233305 7.293823
v 6.979297 2.047673 7.317153
v 6.979297 -1.465372 7.317153
v -8.659513 3.233305 7.293823
v -8.036484 2.047673 7.317153
v 6.979297 2.047673 7.317153
v 7.948900 3.233305 7.293823
v -8.659513 -2.519337 7.293823
v -8.036484 -1.465372 7.317153
v -8.036484 2.047673 7.317153
v -8.659513 3.233305 7.293823
v 7.948900 -2.519337 7.293823
v -8.659513 -2.519337 7.293823
v -8.658889 -2.518412 10.419592
v 7.948263 -2.518657 10.419344
v 7.948329 3.232638 10.419260
v 7.948900 3.233305 7.293823
v 7.948900 -2.519337 7.293823
v 7.948263 -2.518657 10.419344
v -8.658965 3.232422 10.419467
v -8.659513 3.233305 7.293823
v 7.948900 3.233305 7.293823
v 7.948329 3.232638 10.419260
v 7.480034 -2.008290 10.515921
v -8.363934 -2.008290 10.515921
v -8.691383 -2.551206 10.531108
v 7.980770 -2.551206 10.646155
v 7.480034 2.656423 10.515921
v 7.480034 -2.008290 10.515921
v 7.980770 -2.551206 10.646155
v 7.980770 3.265174 10.646155
v -8.691383 3.265174 10.531108
v -8.363934 2.656423 10.515921
v 7.480034 2.656423 10.515921
v 7.980770 3.265174 10.646155
v -8.691383 -2.551206 10.531108
v -8.363934 -2.008290 10.515921
v -8.363934 2.656423 10.515921
v -8.691383 3.265174 10.531108
v -8.691383 -2.551206 7.261953
v -8.691383 -2.551206 10.531108
v -8.691383 3.265174 10.531108
v -8.691383 3.265174 7.261953
v 6.979297 -1.465372 7.261953
v 7.980769 -2.551206 7.261953
v -8.691383 -2.551206 7.261953
v -8.036484 -1.465372 7.261953
v 6.979297 2.047673 7.261953
v -8.036484 2.047673 7.261953
v 7.980769 3.265174 7.261953
v -8.691383 3.265174 7.261953
v 7.980769 -2.551206 7.261953
v 7.980770 -2.551206 10.646155
v -8.691383 -2.551206 10.531108
v -8.691383 -2.551206 7.261953
v 7.980770 3.265174 10.646155
v 7.980770 -2.551206 10.646155
v 7.980769 -2.551206 7.261953
v 7.980769 3.265174 7.261953
v -8.691383 3.265174 10.531108
v 7.980770 3.265174 10.646155
v 7.980769 3.265174 7.261953
v -8.691383 3.265174 7.261953
v -8.357877 -2.005275 10.461138
v -8.363934 -2.008290 10.515921
v 7.480034 -2.008290 10.515921
v 7.476347 -2.004999 10.460943
v 7.476347 -2.004999 10.460943
v 7.480034 -2.008290 10.515921
v 7.480034 2.656423 10.515921
v 7.476262 2.653558 10.460924
v 7.476262 2.653558 10.460924
v 7.480034 2.656423 10.515921
v -8.363934 2.656423 10.515921
v -8.357766 2.653795 10.461129
v -8.357766 2.653795 10.461129
v -8.363934 2.656423 10.515921
v -8.363934 -2.008290 10.515921
v -8.357877 -2.005275 10.461138
v 6.979297 -1.465372 7.317153
v 6.979297 -1.465372 7.261953
v -8.036484 -1.465372 7.261953
v -8.036484 -1.465372 7.317153
v 6.979297 2.047673 7.317153
v 6.979297 2.047673 7.261953
v 6.979297 -1.465372 7.261953
v 6.979297 -1.465372 7.317153
v -8.036484 2.047673 7.317153
v -8.036484 2.047673 7.261953
v 6.979297 2.047673 7.261953
v 6.979297 2.047673 7.317153
v -8.036484 -1.465372 7.317153
v -8.036484 -1.465372 7.261953
v -8.036484 2.047673 7.261953
v -8.036484 2.047673 7.317153
vt 0.803300 2.341700
vt 0.889900 2.485300
vt 5.080500 2.485300
vt 5.213000 2.341700
vt 5.213000 2.341700
vt 5.080500 2.485300
vt 5.080500 3.719100
vt 5.213000 3.880100
vt 5.080500 3.719100
vt 0.889900 3.719100
vt 0.803300 3.880100
vt 5.213000 3.880100
vt 0.889900 3.719100
vt 0.889900 2.485300
vt 0.803300 2.341700
vt 0.803300 3.880100
vt 0.000000 2.341700
vt 0.000000 3.880100
vt 0.803300 3.880100
vt 0.803300 2.341700
vt 0.803300 1.538400
vt 5.213000 1.538400
vt 4.948100 1.251200
vt 0.976500 1.251200
vt 5.213000 1.538400
vt 5.213000 0.000000
vt 4.948100 0.322000
vt 4.948100 1.251200
vt 0.803300 0.000000
vt 0.976500 0.322000
vt 4.948100 0.322000
vt 5.213000 0.000000
vt 0.803300 1.538400
vt 0.976500 1.251200
vt 0.976500 0.322000
vt 0.803300 0.000000
vt 5.213000 1.538400
vt 0.803300 1.538400
vt 0.803300 2.341700
vt 5.213000 2.341700
vt 5.213000 3.880100
vt 6.016300 3.880100
vt 6.016300 2.341700
vt 5.213000 2.341700
vt 0.803300 3.880100
vt 0.803300 4.683400
vt 5.213000 4.683400
vt 5.213000 3.880100
vt 5.080500 2.485300
vt 0.889900 2.485300
vt 0.803300 2.341700
vt 5.213000 2.341700
vt 5.080500 3.719100
vt 5.080500 2.485300
vt 5.213000 2.341700
vt 5.213000 3.880100
vt 0.803300 3.880100
vt 0.889900 3.719100
vt 5.080500 3.719100
vt 5.213000 3.880100
vt 0.803300 2.341700
vt 0.889900 2.485300
vt 0.889900 3.719100
vt 0.803300 3.880100
vt 0.000000 2.341700
vt 0.803300 2.341700
vt 0.803300 3.880100
vt 0.000000 3.880100
vt 4.948100 1.251200
vt 5.213000 1.538400
vt 0.803300 1.538400
vt 0.976500 1.251200
vt 4.948100 0.322000
vt 0.976500 0.322000
vt 5.213000 0.000000
vt 0.803300 0.000000
vt 5.213000 1.538400
vt 5.213000 2.341700
vt 0.803300 2.341700
vt 0.803300 1.538400
vt 5.213000 3.880100
vt 5.213000 2.341700
vt 6.016300 2.341700
vt 6.016300 3.880100
vt 0.803300 3.880100
vt 5.213000 3.880100
vt 5.213000 4.683400
vt 0.803300 4.683400
vt 0.889900 2.485300
vt 0.889900 2.485300
vt 5.080500 2.485300
vt 5.080500 2.485300
vt 5.080500 2.485300
vt 5.080500 2.485300
vt 5.080500 3.719100
vt 5.080500 3.719100
vt 5.080500 3.719100
vt 5.080500 3.719100
vt 0.889900 3.719100
vt 0.889900 3.719100
vt 0.889900 3.719100
vt 0.889900 3.719100
vt 0.889900 2.485300
vt 0.889900 2.485300
vt 4.948100 1.251200
vt 4.948100 1.251200
vt 0.976500 1.251200
vt 0.976500 1.251200
vt 4.948100 0.322000
vt 4.948100 0.322000
vt 4.948100 1.251200
vt 4.948100 1.251200
vt 0.976500 0.322000
vt 0.976500 0.322000
vt 4.948100 0.322000
vt 4.948100 0.322000
vt 0.976500 1.251200
vt 0.976500 1.251200
vt 0.976500 0.322000
vt 0.976500 0.322000
vn -0.000000 0.080703 -0.996738
vn -0.000000 0.080703 -0.996738
vn -0.000000 0.080703 -0.996738
vn -0.000000 0.080703 -0.996738
vn -0.087903 -0.000000 -0.996129
vn -0.087903 -0.000000 -0.996129
vn -0.087903 -0.000000 -0.996129
vn -0.087903 -0.000000 -0.996129
vn -0.000000 -0.071801 -0.997419
vn -0.000000 -0.071801 -0.997419
vn -0.000000 -0.071801 -0.997419
vn -0.000000 -0.071801 -0.997419
vn 0.136898 -0.000000 -0.990585
vn 0.136898 -0.000000 -0.990585
vn 0.136898 -0.000000 -0.990585
vn 0.136898 -0.000000 -0.990585
vn 1.000000 0.000000 -0.000200
vn 1.000000 0.000000 -0.000200
vn 1.000000 0.000000 -0.000200
vn 1.000000 0.000000 -0.000200
vn 0.000000 -0.022099 0.999756
vn 0.000000 -0.022099 0.999756
vn 0.000000 -0.022099 0.999756
vn 0.000000 -0.022099 0.999756
vn 0.024100 0.000000 0.999710
vn 0.024100 0.000000 0.999710
vn 0.024100 0.000000 0.999710
vn 0.024100 0.000000 0.999710
vn 0.000000 0.019700 0.999806
vn 0.000000 0.019700 0.999806
vn 0.000000 0.019700 0.999806
vn 0.000000 0.019700 0.999806
vn -0.037400 0.000000 0.999300
vn -0.037400 0.000000 0.999300
vn -0.037400 0.000000 0.999300
vn -0.037400 0.000000 0.999300
vn 0.000000 1.000000 -0.000200
vn 0.000000 1.000000 -0.000300
vn 0.000000 1.000000 -0.000300
vn 0.000000 1.000000 -0.000200
vn -1.000000 0.000000 -0.000200
vn -1.000000 0.000000 -0.000200
vn -1.000000 0.000000 -0.000200
vn -1.000000 0.000000 -0.000200
vn 0.000000 -1.000000 -0.000300
vn 0.000000 -1.000000 -0.000300
vn 0.000000 -1.000000 -0.000200
vn 0.000000 -1.000000 -0.000200
vn -0.003500 0.132202 0.991217
vn -0.003500 0.132202 0.991217
vn -0.003500 0.132202 0.991217
vn -0.003500 0.132202 0.991217
vn -0.251701 0.000000 0.967805
vn -0.251701 0.000000 0.967805
vn -0.251701 0.000000 0.967805
vn -0.251701 0.000000 0.967805
vn -0.003500 -0.118099 0.992996
vn -0.003500 -0.118099 0.992996
vn -0.003500 -0.118099 0.992996
vn -0.003500 -0.118099 0.992996
vn 0.046301 0.000000 0.998928
vn 0.046301 0.000000 0.998928
vn 0.046301 0.000000 0.998928
vn 0.046301 0.000000 0.998928
vn -1.000000 0.000000 0.000000
vn -1.000000 0.000000 0.000000
vn -1.000000 0.000000 0.000000
vn -1.000000 0.000000 0.000000
vn 0.000000 0.000000 -1.000000
vn 0.000000 0.000000 -1.000000
vn 0.000000 0.000000 -1.000000
vn 0.000000 0.000000 -1.000000
vn 0.000000 0.000000 -1.000000
vn 0.000000 0.000000 -1.000000
vn 0.000000 0.000000 -1.000000
vn 0.000000 0.000000 -1.000000
vn 0.000000 -1.000000 0.000000
vn 0.000000 -1.000000 0.000000
vn 0.000000 -1.000000 0.000000
vn 0.000000 -1.000000 0.000000
vn 1.000000 0.000000 -0.000000
vn 1.000000 0.000000 -0.000000
vn 1.000000 0.000000 -0.000000
vn 1.000000 0.000000 -0.000000
vn 0.000000 1.000000 -0.000000
vn 0.000000 1.000000 -0.000000
vn 0.000000 1.000000 -0.000000
vn 0.000000 1.000000 -0.000000
vn -0.000000 0.998492 0.054900
vn 0.000000 0.998492 0.054900
vn -0.000000 0.998216 0.059701
vn -0.000000 0.998216 0.059701
vn -0.997760 -0.000000 0.066897
vn -0.997760 0.000000 0.066897
vn -0.997658 -0.000000 0.068397
vn -0.997658 -0.000000 0.068397
vn -0.000000 -0.998647 0.052002
vn 0.000000 -0.998647 0.052002
vn -0.000000 -0.998852 0.047898
vn -0.000000 -0.998852 0.047898
vn 0.993730 -0.000000 0.111803
vn 0.993719 0.000000 0.111902
vn 0.993942 -0.000000 0.109905
vn 0.993942 -0.000000 0.109905
vn 0.000000 1.000000 0.000000
vn 0.000000 1.000000 0.000000
vn 0.000000 1.000000 0.000000
vn 0.000000 1.000000 0.000000
vn -1.000000 0.000000 0.000000
vn -1.000000 0.000000 0.000000
vn -1.000000 0.000000 0.000000
vn -1.000000 0.000000 0.000000
vn 0.000000 -1.000000 0.000000
vn 0.000000 -1.000000 0.000000
vn 0.000000 -1.000000 0.000000
vn 0.000000 -1.000000 0.000000
vn 1.000000 0.000000 0.000000
vn 1.000000 0.000000 0.000000
vn 1.000000 0.000000 0.000000
vn 1.000000 0.000000 0.000000
f 1/1/1 2/2/2 3/3/3
f 1/1/1 3/3/3 4/4/4
f 5/5/5 6/6/6 7/7/7
f 5/5/5 7/7/7 8/8/8
f 9/9/9 10/10/10 11/11/11
f 9/9/9 11/11/11 12/12/12
f 13/13/13 14/14/14 15/15/15
f 13/13/13 15/15/15 16/16/16
f 17/17/17 18/18/18 19/19/19
f 17/17/17 19/19/19 20/20/20
f 21/21/21 22/22/22 23/23/23
f 21/21/21 23/23/23 24/24/24
f 25/25/25 26/26/26 27/27/27
f 25/25/25 27/27/27 28/28/28
f 29/29/29 30/30/30 31/31/31
f 29/29/29 31/31/31 32/32/32
f 33/33/33 34/34/34 35/35/35
f 33/33/33 35/35/35 36/36/36
f 37/37/37 38/38/38 39/39/39
f 37/37/37 39/39/39 40/40/40
f 41/41/41 42/42/42 43/43/43
f 41/41/41 43/43/43 44/44/44
f 45/45/45 46/46/46 47/47/47
f 45/45/45 47/47/47 48/48/48
f 49/49/49 50/50/50 51/51/51
f 49/49/49 51/51/51 52/52/52
f 53/53/53 54/54/54 55/55/55
f 53/53/53 55/55/55 56/56/56
f 57/57/57 58/58/58 59/59/59
f 57/57/57 59/59/59 60/60/60
f 61/61/61 62/62/62 63/63/63
f 61/61/61 63/63/63 64/64/64
f 65/65/65 66/66/66 67/67/67
f 65/65/65 67/67/67 68/68/68
f 69/69/69 70/70/70 71/71/71
f 69/69/69 71/71/71 72/72/72
f 73/73/73 70/70/70 69/69/69
f 71/71/71 74/74/74 72/72/72
f 73/73/73 75/75/75 70/70/70
f 71/71/71 76/76/76 74/74/74
f 76/76/76 75/75/75 73/73/73
f 76/76/76 73/73/73 74/74/74
f 77/77/77 78/78/78 79/79/79
f 77/77/77 79/79/79 80/80/80
f 81/81/81 82/82/82 83/83/83
f 81/81/81 83/83/83 84/84/84
f 85/85/85 86/86/86 87/87/87
f 85/85/85 87/87/87 88/88/88
f 89/89/89 90/90/90 91/91/91
f 89/89/89 91/91/91 92/92/92
f 93/93/93 94/94/94 95/95/95
f 93/93/93 95/95/95 96/96/96
f 97/97/97 98/98/98 99/99/99
f 97/97/97 99/99/99 100/100/100
f 101/101/101 102/102/102 103/103/103
f 101/101/101 103/103/103 104/104/104
f 105/105/105 106/106/106 107/107/107
f 105/105/105 107/107/107 108/108/108
f 109/109/109 110/110/110 111/111/111
f 109/109/109 111/111/111 112/112/112
f 113/113/113 114/114/114 115/115/115
f 113/113/113 115/115/115 116/116/116
f 117/117/117 118/118/118 119/119/119
f 117/117/117 119/119/119 120/120/120
