o Sponza_Mesh_073
v 4.094971 1.743311 1.074722
v 3.902111 1.743311 1.709578
v 3.897287 1.771898 1.708113
v 4.090147 1.771898 1.073256
v 3.723047 1.757604 1.070010
v 3.912576 1.757604 1.706559
v 3.884754 1.757604 1.714839
v 3.695224 1.757604 1.078290
v 4.106446 1.757604 1.078208
v 3.913586 1.757604 1.713064
v 3.885811 1.757604 1.704626
v 4.078671 1.757604 1.069770
v 3.707482 1.771898 1.075292
v 3.909383 1.771898 1.708026
v 3.904581 1.743311 1.709558
v 3.702680 1.743311 1.076824
vt 0.677000 0.000000
vt 0.677000 3.098200
vt 0.146700 3.098200
vt 0.146700 0.000000
vt 0.677000 0.000000
vt 0.678900 3.101300
vt 0.148500 3.103300
vt 0.146700 0.000000
vt 0.677000 0.000000
vt 0.677000 3.098200
vt 0.146700 3.098200
vt 0.146700 0.000000
vt 0.677000 0.000000
vt 0.677400 3.101200
vt 0.147100 3.101200
vt 0.146700 0.000000
vn -0.942268 -0.173694 -0.286290
vn -0.942268 -0.173694 -0.286290
vn -0.942268 -0.173694 -0.286290
vn -0.942268 -0.173694 -0.286290
vn -0.000000 -1.000000 0.000000
vn 0.000000 -1.000000 0.000000
vn -0.000000 -1.000000 0.000000
vn -0.000000 -1.000000 0.000000
vn -0.000000 -1.000000 0.000000
vn -0.000000 -1.000000 0.000000
vn -0.000000 -1.000000 0.000000
vn -0.000000 -1.000000 0.000000
vn 0.938202 -0.173600 -0.299401
vn 0.938202 -0.173600 -0.299401
vn 0.938202 -0.173600 -0.299401
vn 0.938202 -0.173600 -0.299401
f 1/1/1 2/2/2 3/3/3
f 1/1/1 3/3/3 4/4/4
f 5/5/5 6/6/6 7/7/7
f 5/5/5 7/7/7 8/8/8
f 9/9/9 10/10/10 11/11/11
f 9/9/9 11/11/11 12/12/12
f 13/13/13 14/14/14 15/15/15
f 13/13/13 15/15/15 16/16/16
