o Sponza_Mesh_038
v -1.242634 -4.537151 1.832107
v -1.325288 -4.434158 1.913947
v -0.518733 -4.434158 1.913947
v -0.518568 -4.537151 1.827838
v 0.211345 -4.537151 1.823534
v 0.296378 -4.434158 1.913947
v -1.030815 -4.537151 1.594525
v -1.024791 -4.537151 0.046400
v -1.233705 -4.537151 -0.017079
v -1.242634 -4.537151 1.832107
v -0.514106 -4.537151 -0.017079
v -0.518568 -4.537151 1.827838
v -0.515097 -4.537151 0.046400
v -0.520769 -4.537151 1.594525
v -0.005402 -4.537151 0.046400
v -0.005402 -4.537151 1.594525
v 0.205494 -4.537151 -0.017079
v 0.211345 -4.537151 1.823534
v -0.105984 -4.598070 1.506266
v -0.098894 -4.598070 1.523992
v -0.092690 -4.598070 1.532855
v -0.091804 -4.598070 1.486767
v -0.070532 -4.598070 1.498289
v -0.051034 -4.598070 1.493858
v -0.107757 -4.598070 1.545263
v -0.100667 -4.598070 1.575398
v -0.099780 -4.598070 1.594525
v -0.005402 -4.598070 1.594525
v -0.038626 -4.598070 1.472586
v -0.025331 -4.598070 1.409659
v -0.005402 -4.598070 1.401682
v -0.037739 -4.598070 1.431817
v -0.944328 -4.689450 1.526176
v -0.950758 -4.689450 1.532177
v -0.942614 -4.689450 1.543321
v -0.944757 -4.689450 1.505174
v -0.520769 -4.689450 1.594525
v -0.961474 -4.689450 1.497458
v -0.991906 -4.689450 1.494886
v -0.976475 -4.689450 1.504745
v -1.014194 -4.689450 1.421162
v -1.024791 -4.689450 0.046400
v -1.030049 -4.689450 1.397591
v -0.515097 -4.689450 0.046400
v -0.941757 -4.689450 1.584470
v -0.944328 -4.689450 1.563467
v -0.949044 -4.689450 1.572039
v -0.941757 -4.689450 1.594525
v -0.005402 -4.689450 0.046400
v -0.099780 -4.689450 1.594525
v -0.100667 -4.689450 1.575398
v -0.107757 -4.689450 1.545263
v -0.105984 -4.689450 1.506266
v -0.098894 -4.689450 1.523992
v -0.092690 -4.689450 1.532855
v -0.091804 -4.689450 1.486767
v -0.025331 -4.689450 1.409659
v -0.005402 -4.689450 1.401682
v -0.037739 -4.689450 1.431817
v -0.051034 -4.689450 1.493858
v -0.070532 -4.689450 1.498289
v -0.038626 -4.689450 1.472586
v -1.014194 -4.689450 1.421162
v -1.002194 -4.689450 1.461454
v -0.991906 -4.689450 1.494886
v -0.949044 -4.598070 1.572039
v -0.944328 -4.598070 1.563467
v -0.942614 -4.598070 1.543321
v -1.030815 -4.598070 1.594525
v -0.941757 -4.598070 1.584470
v -0.941757 -4.598070 1.594525
v -0.950758 -4.598070 1.532177
v -0.944328 -4.598070 1.526176
v -0.961474 -4.598070 1.497458
v -0.944757 -4.598070 1.505174
v -0.976475 -4.598070 1.504745
v -0.991906 -4.598070 1.494886
v -1.030049 -4.598070 1.397591
v -1.002194 -4.598070 1.461454
v -1.014194 -4.598070 1.421162
v -1.030815 -4.537151 1.594525
v -0.520769 -4.537151 1.594525
v -0.941757 -4.598070 1.594525
v -1.030815 -4.598070 1.594525
v -0.520769 -4.689450 1.594525
v -0.941757 -4.689450 1.594525
v -0.099780 -4.598070 1.594525
v -0.099780 -4.689450 1.594525
v -0.005402 -4.537151 1.594525
v -0.005402 -4.598070 1.594525
v -0.005402 -4.537151 1.594525
v -0.005402 -4.537151 0.046400
v -0.005402 -4.598070 1.401682
v -0.005402 -4.598070 1.594525
v -0.005402 -4.689450 1.401682
v -0.005402 -4.689450 0.046400
v -0.005402 -4.598070 1.401682
v -0.005402 -4.689450 1.401682
v -0.025331 -4.689450 1.409659
v -0.025331 -4.598070 1.409659
v -0.037739 -4.689450 1.431817
v -0.037739 -4.598070 1.431817
v -0.038626 -4.689450 1.472586
v -0.038626 -4.598070 1.472586
v -0.051034 -4.689450 1.493858
v -0.051034 -4.598070 1.493858
v -0.515097 -4.537151 0.046400
v -0.515097 -4.689450 0.046400
v -0.005402 -4.689450 0.046400
v -0.005402 -4.537151 0.046400
v -1.024791 -4.537151 0.046400
v -1.024791 -4.689450 0.046400
v -1.030049 -4.598070 1.397591
v -1.030049 -4.689450 1.397591
v -1.024791 -4.689450 0.046400
v -1.024791 -4.537151 0.046400
v -1.030815 -4.537151 1.594525
v -1.030815 -4.598070 1.594525
v -1.014194 -4.598070 1.421162
v -1.014194 -4.689450 1.421162
v -1.030049 -4.689450 1.397591
v -1.030049 -4.598070 1.397591
v -1.002194 -4.598070 1.461454
v -1.002194 -4.689450 1.461454
v -0.991906 -4.598070 1.494886
v -0.991906 -4.689450 1.494886
v -0.976475 -4.598070 1.504745
v -0.976475 -4.689450 1.504745
v -0.961474 -4.598070 1.497458
v -0.961474 -4.689450 1.497458
v -0.976475 -4.689450 1.504745
v -0.976475 -4.598070 1.504745
v -0.944757 -4.598070 1.505174
v -0.944757 -4.689450 1.505174
v -0.961474 -4.689450 1.497458
v -0.961474 -4.598070 1.497458
v -0.944328 -4.598070 1.526176
v -0.944328 -4.689450 1.526176
v -0.944757 -4.689450 1.505174
v -0.944757 -4.598070 1.505174
v -0.950758 -4.598070 1.532177
v -0.950758 -4.689450 1.532177
v -0.944328 -4.689450 1.526176
v -0.944328 -4.598070 1.526176
v -0.942614 -4.598070 1.543321
v -0.942614 -4.689450 1.543321
v -0.950758 -4.689450 1.532177
v -0.950758 -4.598070 1.532177
v -0.944328 -4.598070 1.563467
v -0.944328 -4.689450 1.563467
v -0.949044 -4.598070 1.572039
v -0.949044 -4.689450 1.572039
v -0.941757 -4.598070 1.584470
v -0.941757 -4.689450 1.584470
v -0.949044 -4.689450 1.572039
v -0.949044 -4.598070 1.572039
v -0.941757 -4.598070 1.594525
v -0.941757 -4.689450 1.594525
v -0.100667 -4.598070 1.575398
v -0.100667 -4.689450 1.575398
v -0.099780 -4.689450 1.594525
v -0.099780 -4.598070 1.594525
v -0.107757 -4.598070 1.545263
v -0.107757 -4.689450 1.545263
v -0.092690 -4.598070 1.532855
v -0.092690 -4.689450 1.532855
v -0.107757 -4.689450 1.545263
v -0.107757 -4.598070 1.545263
v -0.098894 -4.598070 1.523992
v -0.098894 -4.689450 1.523992
v -0.092690 -4.689450 1.532855
v -0.092690 -4.598070 1.532855
v -0.105984 -4.598070 1.506266
v -0.105984 -4.689450 1.506266
v -0.091804 -4.598070 1.486767
v -0.091804 -4.689450 1.486767
v -0.105984 -4.689450 1.506266
v -0.105984 -4.598070 1.506266
v -0.070532 -4.598070 1.498289
v -0.070532 -4.689450 1.498289
v -0.091804 -4.689450 1.486767
v -0.091804 -4.598070 1.486767
v -0.051034 -4.598070 1.493858
v -0.051034 -4.689450 1.493858
v -0.518798 -4.434158 1.948514
v 0.328889 -4.434158 1.948514
v 0.296378 -4.434158 1.913947
v -0.518733 -4.434158 1.913947
v -1.325288 -4.434158 1.913947
v -1.360199 -4.434158 1.948514
v 0.211345 -4.537151 1.823534
v 0.296378 -4.434158 1.913947
v 0.312634 -4.788531 1.913947
v 0.218621 -4.840108 1.825686
v 0.328889 -4.434158 1.948514
v 0.328889 -4.788499 1.948514
v -1.242634 -4.537151 1.832107
v -1.249910 -4.840109 1.834259
v -1.341543 -4.788531 1.913947
v -1.325288 -4.434158 1.913947
v -1.357799 -4.434158 1.948514
v -1.357799 -4.788499 1.948514
v -1.233705 -4.537151 -0.017079
v -1.226429 -4.840109 -0.014928
v -1.249910 -4.840109 1.834259
v -1.242634 -4.537151 1.832107
v -0.514106 -4.537151 -0.017079
v -0.506829 -4.840109 -0.014928
v -1.226429 -4.840109 -0.014928
v -1.233705 -4.537151 -0.017079
v 0.205494 -4.537151 -0.017079
v 0.212770 -4.840109 -0.014928
v 0.211345 -4.537151 1.823534
v 0.218621 -4.840108 1.825686
v 0.212770 -4.840109 -0.014928
v 0.205494 -4.537151 -0.017079
v -3.443731 -4.584832 2.314540
v -3.246534 -4.584832 2.294599
v -3.358492 -4.584831 2.146351
v -3.470451 -4.584831 2.154257
v -3.195642 -4.584831 2.119879
v -3.531527 -4.584832 2.314540
v -3.102767 -4.584832 2.260907
v -3.634575 -4.584831 2.144138
v -3.696914 -4.584831 2.294518
v -3.806329 -4.584831 2.112096
v -3.848313 -4.584831 2.258713
v -3.971723 -4.584831 2.217881
v -3.910654 -4.584831 2.072386
v -4.077467 -4.584831 2.218435
v -4.064887 -4.584831 2.047704
v -3.046788 -4.584831 2.077619
v -3.004804 -4.584832 2.225015
v -4.077467 -4.584831 0.958441
v -2.857021 -4.584832 2.227900
v -2.883747 -4.584832 2.047704
v -4.064887 -4.584831 0.984519
v -4.026625 -4.584831 2.011842
v -2.919817 -4.584831 2.011412
v -4.028145 -4.584831 1.017878
v -2.917918 -4.584831 1.020475
v -2.883747 -4.584831 0.984519
v -2.857021 -4.584831 0.958441
v -2.882621 -4.584831 0.984519
v -2.883747 -4.584831 0.985666
v -3.806329 -4.718022 2.112096
v -3.634574 -4.718022 2.144138
v -3.470451 -4.718022 2.154257
v -3.046788 -4.718022 2.077619
v -3.910654 -4.718022 2.072386
v -3.195642 -4.718022 2.119879
v -3.358492 -4.718022 2.146350
v -3.991402 -4.619663 1.051238
v -3.988363 -4.619663 1.975978
v -3.911840 -4.657103 1.904254
v -3.917916 -4.657103 1.117957
v -4.028145 -4.584831 1.017878
v -4.026625 -4.584831 2.011842
v -3.917916 -4.718022 1.117957
v -3.911840 -4.718022 1.904254
v -3.028025 -4.718021 1.902536
v -3.020432 -4.718023 1.124904
v -3.046788 -4.584831 2.077619
v -3.046788 -4.718022 2.077619
v -3.195642 -4.718022 2.119879
v -3.195642 -4.584831 2.119879
v -3.358492 -4.718022 2.146350
v -3.358492 -4.584831 2.146351
v -3.470451 -4.718022 2.154257
v -3.470451 -4.584831 2.154257
v -3.634574 -4.718022 2.144138
v -3.634575 -4.584831 2.144138
v -3.806329 -4.718022 2.112096
v -3.806329 -4.584831 2.112096
v -3.910654 -4.718022 2.072386
v -3.910654 -4.584831 2.072386
v -3.910654 -4.584831 2.072386
v -3.910654 -4.718022 2.072386
v -3.046788 -4.718022 2.077619
v -3.046788 -4.584831 2.077619
v -3.028025 -4.657103 1.902536
v -3.028025 -4.718021 1.902536
v -3.911840 -4.718022 1.904254
v -3.911840 -4.657103 1.904254
v -3.020432 -4.657103 1.124904
v -3.020432 -4.718023 1.124904
v -3.028025 -4.718021 1.902536
v -3.028025 -4.657103 1.902536
v -3.917916 -4.657103 1.117957
v -3.917916 -4.718022 1.117957
v -3.020432 -4.718023 1.124904
v -3.020432 -4.657103 1.124904
v -3.911840 -4.657103 1.904254
v -3.911840 -4.718022 1.904254
v -3.917916 -4.718022 1.117957
v -3.917916 -4.657103 1.117957
v -3.917916 -4.657103 1.117957
v -3.020432 -4.657103 1.124904
v -2.952090 -4.619663 1.055285
v -3.991402 -4.619663 1.051238
v -2.917918 -4.584831 1.020475
v -4.028145 -4.584831 1.017878
v -3.020432 -4.657103 1.124904
v -3.028025 -4.657103 1.902536
v -2.955886 -4.619663 1.975120
v -2.952090 -4.619663 1.055285
v -2.919817 -4.584831 2.011412
v -2.917918 -4.584831 1.020475
v -3.028025 -4.657103 1.902536
v -3.911840 -4.657103 1.904254
v -3.988363 -4.619663 1.975978
v -2.955886 -4.619663 1.975120
v -4.026625 -4.584831 2.011842
v -2.919817 -4.584831 2.011412
vt 0.906800 0.962800
vt 0.930000 0.986400
vt 0.703700 0.986400
vt 0.703600 0.961500
vt 0.498800 0.960300
vt 0.475000 0.986400
vt 0.847400 0.894200
vt 0.845700 0.447400
vt 0.904300 0.429000
vt 0.906800 0.962800
vt 0.702400 0.429000
vt 0.703600 0.961500
vt 0.702700 0.447400
vt 0.704300 0.894200
vt 0.559700 0.447400
vt 0.559700 0.894200
vt 0.500500 0.429000
vt 0.498800 0.960300
vt 0.587900 0.868700
vt 0.585900 0.873800
vt 0.584100 0.876400
vt 0.583900 0.863100
vt 0.577900 0.866400
vt 0.572500 0.865100
vt 0.588400 0.880000
vt 0.586400 0.888700
vt 0.586100 0.894200
vt 0.559700 0.894200
vt 0.569000 0.859000
vt 0.565200 0.840800
vt 0.559700 0.838500
vt 0.568700 0.847200
vt 0.823100 0.874500
vt 0.824900 0.876200
vt 0.822600 0.879400
vt 0.823200 0.868400
vt 0.704300 0.894200
vt 0.827900 0.866200
vt 0.836500 0.865400
vt 0.832100 0.868300
vt 0.842700 0.844200
vt 0.845700 0.447400
vt 0.847200 0.837300
vt 0.702700 0.447400
vt 0.822400 0.891300
vt 0.823100 0.885200
vt 0.824400 0.887700
vt 0.822400 0.894200
vt 0.559700 0.447400
vt 0.586100 0.894200
vt 0.586400 0.888700
vt 0.588400 0.880000
vt 0.587900 0.868700
vt 0.585900 0.873800
vt 0.584100 0.876400
vt 0.583900 0.863100
vt 0.565200 0.840800
vt 0.559700 0.838500
vt 0.568700 0.847200
vt 0.572500 0.865100
vt 0.577900 0.866400
vt 0.569000 0.859000
vt 0.842700 0.844200
vt 0.839300 0.855800
vt 0.836500 0.865400
vt 0.824400 0.887700
vt 0.823100 0.885200
vt 0.822600 0.879400
vt 0.847400 0.894200
vt 0.822400 0.891300
vt 0.822400 0.894200
vt 0.824900 0.876200
vt 0.823100 0.874500
vt 0.827900 0.866200
vt 0.823200 0.868400
vt 0.832100 0.868300
vt 0.836500 0.865400
vt 0.847200 0.837300
vt 0.839300 0.855800
vt 0.842700 0.844200
vt 0.505900 0.946700
vt 0.505900 0.777600
vt 0.526100 0.917100
vt 0.526100 0.946700
vt 0.556400 0.777600
vt 0.556400 0.917100
vt 0.526100 0.638100
vt 0.556400 0.638100
vt 0.505900 0.606800
vt 0.526100 0.606800
vt 0.505900 1.011400
vt 0.505900 0.498200
vt 0.526100 0.947500
vt 0.526100 1.011400
vt 0.556400 0.947500
vt 0.556400 0.498200
vt 0.559700 0.838500
vt 0.559700 0.838500
vt 0.565200 0.840800
vt 0.565200 0.840800
vt 0.568700 0.847200
vt 0.568700 0.847200
vt 0.569000 0.859000
vt 0.569000 0.859000
vt 0.572500 0.865100
vt 0.572500 0.865100
vt 0.505900 0.755200
vt 0.556400 0.755200
vt 0.556400 0.924100
vt 0.505900 0.924100
vt 0.505900 0.586300
vt 0.556400 0.586300
vt 0.536200 0.883000
vt 0.505900 0.883000
vt 0.505900 0.435100
vt 0.556400 0.435100
vt 0.556400 0.948300
vt 0.536200 0.948300
vt 0.842700 0.844200
vt 0.842700 0.844200
vt 0.847200 0.837300
vt 0.847200 0.837300
vt 0.839300 0.855800
vt 0.839300 0.855800
vt 0.836500 0.865400
vt 0.836500 0.865400
vt 0.832100 0.868300
vt 0.832100 0.868300
vt 0.827900 0.866200
vt 0.827900 0.866200
vt 0.832100 0.868300
vt 0.832100 0.868300
vt 0.823200 0.868400
vt 0.823200 0.868400
vt 0.827900 0.866200
vt 0.827900 0.866200
vt 0.823100 0.874500
vt 0.823100 0.874500
vt 0.823200 0.868400
vt 0.823200 0.868400
vt 0.824900 0.876200
vt 0.824900 0.876200
vt 0.823100 0.874500
vt 0.823100 0.874500
vt 0.822600 0.879400
vt 0.822600 0.879400
vt 0.824900 0.876200
vt 0.824900 0.876200
vt 0.823100 0.885200
vt 0.823100 0.885200
vt 0.824400 0.887700
vt 0.824400 0.887700
vt 0.822400 0.891300
vt 0.822400 0.891300
vt 0.824400 0.887700
vt 0.824400 0.887700
vt 0.822400 0.894200
vt 0.822400 0.894200
vt 0.586400 0.888700
vt 0.586400 0.888700
vt 0.586100 0.894200
vt 0.586100 0.894200
vt 0.588400 0.880000
vt 0.588400 0.880000
vt 0.584100 0.876400
vt 0.584100 0.876400
vt 0.588400 0.880000
vt 0.588400 0.880000
vt 0.585900 0.873800
vt 0.585900 0.873800
vt 0.584100 0.876400
vt 0.584100 0.876400
vt 0.587900 0.868700
vt 0.587900 0.868700
vt 0.583900 0.863100
vt 0.583900 0.863100
vt 0.587900 0.868700
vt 0.587900 0.868700
vt 0.577900 0.866400
vt 0.577900 0.866400
vt 0.583900 0.863100
vt 0.583900 0.863100
vt 0.572500 0.865100
vt 0.572500 0.865100
vt 0.703700 0.996400
vt 0.465900 0.996400
vt 0.475000 0.986400
vt 0.703700 0.986400
vt 0.930000 0.986400
vt 0.939800 0.996400
vt 0.906800 0.962800
vt 0.930000 0.986400
vt 0.816800 0.986400
vt 0.805200 0.962100
vt 0.928200 0.996400
vt 0.816000 0.996400
vt 0.906800 0.962800
vt 0.805200 0.962100
vt 0.816800 0.986400
vt 0.930000 0.986400
vt 0.928200 0.996400
vt 0.816000 0.996400
vt 0.018600 0.002200
vt 0.059200 0.002800
vt 0.059100 0.482700
vt 0.018600 0.482100
vt 0.021600 0.230700
vt 0.062100 0.231300
vt 0.059200 0.417900
vt 0.018600 0.417400
vt 0.024500 0.044100
vt 0.065100 0.044600
vt 0.028000 0.010100
vt 0.068600 0.010700
vt 0.065100 0.488300
vt 0.024500 0.487700
vt 0.664100 0.415500
vt 0.606800 0.409400
vt 0.639400 0.364000
vt 0.671900 0.366400
vt 0.592100 0.355900
vt 0.689600 0.415500
vt 0.565100 0.399100
vt 0.719500 0.363300
vt 0.737600 0.409400
vt 0.769400 0.353500
vt 0.781600 0.398400
vt 0.817400 0.385900
vt 0.799700 0.341300
vt 0.848100 0.386100
vt 0.844500 0.333800
vt 0.548800 0.342900
vt 0.536600 0.388100
vt 0.848100 0.000000
vt 0.493700 0.389000
vt 0.501500 0.333800
vt 0.844500 0.008000
vt 0.833400 0.322800
vt 0.512000 0.322700
vt 0.833800 0.018200
vt 0.511400 0.019000
vt 0.501500 0.008000
vt 0.493700 0.000000
vt 0.501200 0.008000
vt 0.501500 0.008300
vt 0.769400 0.353500
vt 0.719500 0.363300
vt 0.671900 0.366400
vt 0.548800 0.342900
vt 0.799700 0.341300
vt 0.592100 0.355900
vt 0.639400 0.364000
vt 0.823100 0.028400
vt 0.822300 0.311800
vt 0.800000 0.289800
vt 0.801800 0.048900
vt 0.833800 0.018200
vt 0.833400 0.322800
vt 0.801800 0.048900
vt 0.800000 0.289800
vt 0.543400 0.289300
vt 0.541200 0.051000
vt 0.440800 0.167200
vt 0.472600 0.167200
vt 0.472600 0.203700
vt 0.440800 0.203700
vt 0.472600 0.242600
vt 0.440800 0.242600
vt 0.472600 0.268900
vt 0.440800 0.268900
vt 0.472600 0.307600
vt 0.440800 0.307600
vt 0.472600 0.348700
vt 0.440800 0.348700
vt 0.472600 0.375100
vt 0.440800 0.375100
vt 0.440800 0.375100
vt 0.472600 0.375100
vt 0.472600 0.578100
vt 0.440800 0.578100
vt 0.440800 0.081700
vt 0.472600 0.081700
vt 0.472600 0.289300
vt 0.440800 0.289300
vt 0.440800 0.089100
vt 0.472600 0.089100
vt 0.472600 0.281900
vt 0.440800 0.281900
vt 0.440800 0.080100
vt 0.472600 0.080100
vt 0.472600 0.290900
vt 0.440800 0.290900
vt 0.440800 0.088000
vt 0.472600 0.088000
vt 0.472600 0.283000
vt 0.440800 0.283000
vt 0.801800 0.048900
vt 0.541200 0.051000
vt 0.521300 0.029700
vt 0.823100 0.028400
vt 0.511400 0.019000
vt 0.833800 0.018200
vt 0.541200 0.051000
vt 0.543400 0.289300
vt 0.522400 0.311500
vt 0.521300 0.029700
vt 0.512000 0.322700
vt 0.511400 0.019000
vt 0.543400 0.289300
vt 0.800000 0.289800
vt 0.822300 0.311800
vt 0.522400 0.311500
vt 0.833400 0.322800
vt 0.512000 0.322700
vn -0.000400 0.623792 -0.781590
vn 0.000000 0.622118 -0.782923
vn -0.004000 0.641398 -0.767198
vn -0.004500 0.641397 -0.767196
vn -0.000400 0.658172 -0.752868
vn -0.000000 0.659714 -0.751516
vn 0.000000 1.000000 0.000000
vn 0.000000 1.000000 0.000000
vn 0.000000 1.000000 0.000000
vn 0.000000 1.000000 0.000000
vn 0.000000 1.000000 0.000000
vn 0.000000 1.000000 0.000000
vn 0.000000 1.000000 0.000000
vn 0.000000 1.000000 0.000000
vn 0.000000 1.000000 0.000000
vn 0.000000 1.000000 0.000000
vn 0.000000 1.000000 0.000000
vn 0.000000 1.000000 0.000000
vn 0.000000 1.000000 0.000000
vn 0.000000 1.000000 0.000000
vn 0.000000 1.000000 0.000000
vn 0.000000 1.000000 0.000000
vn 0.000000 1.000000 0.000000
vn 0.000000 1.000000 0.000000
vn 0.000000 1.000000 0.000000
vn 0.000000 1.000000 0.000000
vn 0.000000 1.000000 0.000000
vn 0.000000 1.000000 0.000000
vn 0.000000 1.000000 0.000000
vn 0.000000 1.000000 0.000000
vn 0.000000 1.000000 0.000000
vn 0.000000 1.000000 0.000000
vn 0.000000 1.000000 0.000000
vn 0.000000 1.000000 0.000000
vn 0.000000 1.000000 0.000000
vn 0.000000 1.000000 0.000000
vn 0.000000 1.000000 0.000000
vn 0.000000 1.000000 0.000000
vn 0.000000 1.000000 0.000000
vn 0.000000 1.000000 0.000000
vn 0.000000 1.000000 0.000000
vn 0.000000 1.000000 0.000000
vn 0.000000 1.000000 0.000000
vn 0.000000 1.000000 0.000000
vn 0.000000 1.000000 0.000000
vn 0.000000 1.000000 0.000000
vn 0.000000 1.000000 0.000000
vn 0.000000 1.000000 0.000000
vn 0.000000 1.000000 0.000000
vn 0.000000 1.000000 0.000000
vn 0.000000 1.000000 0.000000
vn 0.000000 1.000000 0.000000
vn 0.000000 1.000000 0.000000
vn 0.000000 1.000000 0.000000
vn 0.000000 1.000000 0.000000
vn 0.000000 1.000000 0.000000
vn 0.000000 1.000000 0.000000
vn 0.000000 1.000000 0.000000
vn 0.000000 1.000000 0.000000
vn 0.000000 1.000000 0.000000
vn 0.000000 1.000000 0.000000
vn 0.000000 1.000000 0.000000
vn 0.000000 1.000000 0.000000
vn 0.000000 1.000000 0.000000
vn 0.000000 1.000000 0.000000
vn 0.000000 1.000000 0.000000
vn 0.000000 1.000000 0.000000
vn 0.000000 1.000000 0.000000
vn 0.000000 1.000000 0.000000
vn 0.000000 1.000000 0.000000
vn 0.000000 1.000000 0.000000
vn 0.000000 1.000000 0.000000
vn 0.000000 1.000000 0.000000
vn 0.000000 1.000000 0.000000
vn 0.000000 1.000000 0.000000
vn 0.000000 1.000000 0.000000
vn 0.000000 1.000000 0.000000
vn 0.000000 1.000000 0.000000
vn 0.000000 1.000000 0.000000
vn 0.000000 1.000000 0.000000
vn 0.000000 0.000000 -1.000000
vn 0.000000 0.000000 -1.000000
vn 0.000000 0.000000 -1.000000
vn 0.000000 0.000000 -1.000000
vn 0.000000 0.000000 -1.000000
vn 0.000000 0.000000 -1.000000
vn 0.000000 0.000000 -1.000000
vn 0.000000 0.000000 -1.000000
vn 0.000000 0.000000 -1.000000
vn 0.000000 0.000000 -1.000000
vn -1.000000 0.000000 0.000000
vn -1.000000 0.000000 0.000000
vn -1.000000 0.000000 0.000000
vn -1.000000 0.000000 0.000000
vn -1.000000 0.000000 0.000000
vn -1.000000 0.000000 0.000000
vn -0.371598 0.000000 -0.928394
vn -0.371598 0.000000 -0.928394
vn -0.659771 0.000000 -0.751467
vn -0.659771 0.000000 -0.751467
vn -0.964796 0.000000 -0.262999
vn -0.964796 0.000000 -0.262999
vn -0.962436 0.000000 -0.271510
vn -0.962436 0.000000 -0.271510
vn -0.863772 0.000000 -0.503883
vn -0.863772 0.000000 -0.503883
vn -0.000000 0.000000 1.000000
vn -0.000000 0.000000 1.000000
vn 0.000000 0.000000 1.000000
vn 0.000000 0.000000 1.000000
vn -0.000000 0.000000 1.000000
vn -0.000000 0.000000 1.000000
vn 0.989968 0.000000 -0.141295
vn 0.957061 0.000000 -0.289888
vn 0.999992 0.000000 0.003900
vn 0.999992 0.000000 0.003900
vn 0.999992 0.000000 0.003900
vn 0.999992 0.000000 0.003900
vn 0.904395 0.000000 -0.426697
vn 0.904395 0.000000 -0.426697
vn 0.957061 0.000000 -0.289888
vn 0.989968 0.000000 -0.141295
vn 0.957088 0.000000 -0.289796
vn 0.957088 0.000000 -0.289796
vn 0.795829 0.000000 -0.605522
vn 0.795829 0.000000 -0.605522
vn 0.538395 0.000000 -0.842692
vn 0.538395 0.000000 -0.842692
vn -0.436904 0.000000 -0.899508
vn -0.436904 0.000000 -0.899508
vn -0.436904 0.000000 -0.899508
vn -0.436904 0.000000 -0.899508
vn 0.419077 0.000000 -0.907951
vn 0.419077 0.000000 -0.907951
vn 0.419077 0.000000 -0.907951
vn 0.419077 0.000000 -0.907951
vn 0.999792 0.000000 -0.020400
vn 0.999792 0.000000 -0.020400
vn 0.999792 0.000000 -0.020400
vn 0.999792 0.000000 -0.020400
vn 0.682286 0.000000 0.731085
vn 0.682286 0.000000 0.731085
vn 0.682286 0.000000 0.731085
vn 0.682286 0.000000 0.731085
vn 0.962941 0.000000 -0.269712
vn 0.962941 0.000000 -0.269712
vn 0.807402 0.000000 -0.590002
vn 0.807402 0.000000 -0.590002
vn 0.957116 0.000000 0.289705
vn 0.957116 0.000000 0.289705
vn 0.876178 0.000000 0.481988
vn 0.876178 0.000000 0.481988
vn 0.965070 0.000000 -0.261992
vn 0.965070 0.000000 -0.261992
vn 0.862707 0.000000 -0.505704
vn 0.862707 0.000000 -0.505704
vn 1.000000 0.000000 0.000000
vn 1.000000 0.000000 0.000000
vn -0.990391 0.000000 0.138299
vn -0.990391 0.000000 0.138299
vn -0.998928 0.000000 0.046301
vn -0.998928 0.000000 0.046301
vn -0.973425 0.000000 0.229006
vn -0.973425 0.000000 0.229006
vn -0.635718 0.000000 -0.771922
vn -0.635718 0.000000 -0.771922
vn -0.635718 0.000000 -0.771922
vn -0.635718 0.000000 -0.771922
vn -0.879670 0.000000 0.475584
vn -0.879670 0.000000 0.475584
vn -0.819204 0.000000 0.573503
vn -0.819204 0.000000 0.573503
vn -0.928477 0.000000 0.371391
vn -0.928477 0.000000 0.371391
vn -0.808710 0.000000 -0.588207
vn -0.808710 0.000000 -0.588207
vn -0.808710 0.000000 -0.588207
vn -0.808710 0.000000 -0.588207
vn 0.136001 0.000000 -0.990709
vn 0.136001 0.000000 -0.990709
vn 0.476293 0.000000 -0.879287
vn 0.476293 0.000000 -0.879287
vn -0.221608 0.000000 -0.975136
vn -0.221608 0.000000 -0.975136
vn 0.000000 1.000000 0.000000
vn 0.000000 1.000000 0.000000
vn 0.000000 1.000000 0.000000
vn 0.000000 1.000000 0.000000
vn 0.000000 1.000000 0.000000
vn 0.000000 1.000000 0.000000
vn 0.703472 0.027999 -0.710172
vn 0.721120 0.033101 -0.692019
vn 0.792968 0.010300 -0.609176
vn 0.681156 0.011199 -0.732053
vn 0.742415 0.031201 -0.669213
vn 0.904948 0.000000 -0.425523
vn -0.677406 0.027200 -0.735106
vn -0.652887 0.010300 -0.757385
vn -0.779425 0.009700 -0.626420
vn -0.712108 0.032700 -0.701308
vn -0.742415 0.031201 -0.669213
vn -0.904909 0.000000 -0.425604
vn -0.999747 -0.019101 -0.011901
vn -0.999629 -0.024101 -0.012700
vn -0.999804 0.019000 -0.005600
vn -0.999700 0.024000 -0.004800
vn 0.000000 -0.007100 -0.999975
vn 0.000000 -0.007100 -0.999975
vn 0.000000 -0.007100 -0.999975
vn 0.000000 -0.007100 -0.999975
vn 0.000000 -0.007100 -0.999975
vn 0.000000 -0.007100 -0.999975
vn 0.999707 0.024000 -0.003200
vn 0.999707 0.024000 -0.003200
vn 0.999707 0.024000 -0.003200
vn 0.999707 0.024000 -0.003200
vn 0.000000 1.000000 0.000000
vn 0.000000 1.000000 0.000000
vn 0.000000 1.000000 0.000000
vn 0.000000 1.000000 0.000000
vn 0.000000 1.000000 0.000000
vn 0.000000 1.000000 0.000000
vn 0.000000 1.000000 0.000000
vn 0.000000 1.000000 0.000000
vn 0.000000 1.000000 0.000000
vn -0.000000 1.000000 0.000000
vn -0.000000 1.000000 0.000000
vn -0.000000 1.000000 0.000000
vn -0.000000 1.000000 -0.000000
vn -0.000000 1.000000 0.000000
vn 0.000000 1.000000 -0.000000
vn 0.000000 1.000000 -0.000000
vn 0.000000 1.000000 0.000000
vn 0.000000 1.000000 -0.000000
vn 0.000000 1.000000 0.000000
vn 0.000000 1.000000 0.000000
vn -0.000000 1.000000 0.000000
vn 0.000000 1.000000 0.000000
vn 0.000000 1.000000 0.000000
vn -0.000000 1.000000 0.000000
vn 0.000000 1.000000 0.000000
vn 0.000000 1.000000 0.000000
vn 0.000000 1.000000 0.000000
vn 0.000000 1.000000 0.000000
vn 0.000000 1.000000 0.000000
vn -0.000000 1.000000 0.000000
vn -0.000000 1.000000 0.000000
vn -0.000000 1.000000 -0.000000
vn -0.000000 1.000000 -0.000000
vn -0.000000 1.000000 0.000000
vn 0.000000 1.000000 0.000000
vn 0.000000 1.000000 0.000000
vn 0.626009 0.779811 -0.002600
vn 0.610792 0.791790 -0.001200
vn 0.439195 0.898390 -0.001500
vn 0.456507 0.889713 -0.003500
vn 0.688209 0.725509 -0.002200
vn 0.672657 0.739953 -0.001000
vn -0.000000 1.000000 -0.000000
vn -0.000000 1.000000 0.000000
vn -0.000000 1.000000 -0.000000
vn 0.000000 1.000000 -0.000000
vn -0.273096 0.000000 -0.961987
vn -0.273096 0.000000 -0.961987
vn -0.217110 0.000000 -0.976147
vn -0.217110 0.000000 -0.976147
vn -0.115600 0.000000 -0.993296
vn -0.115600 0.000000 -0.993296
vn -0.004500 0.000000 -0.999990
vn -0.004500 0.000000 -0.999990
vn 0.122705 0.000000 -0.992443
vn 0.122705 0.000000 -0.992443
vn 0.270691 0.000000 -0.962666
vn 0.270691 0.000000 -0.962666
vn 0.355700 0.000000 -0.934600
vn 0.355700 0.000000 -0.934600
vn -0.006100 -0.000000 0.999981
vn -0.006100 -0.000000 0.999981
vn -0.006100 -0.000000 0.999981
vn -0.006100 -0.000000 0.999981
vn -0.001900 0.000000 -0.999998
vn -0.001900 0.000000 -0.999998
vn -0.001900 0.000000 -0.999998
vn -0.001900 0.000000 -0.999998
vn -0.999952 0.000000 -0.009800
vn -0.999952 0.000000 -0.009800
vn -0.999952 0.000000 -0.009800
vn -0.999952 0.000000 -0.009800
vn -0.007700 0.000000 0.999970
vn -0.007700 0.000000 0.999970
vn -0.007700 0.000000 0.999970
vn -0.007700 0.000000 0.999970
vn 0.999970 0.000000 -0.007700
vn 0.999970 0.000000 -0.007700
vn 0.999970 0.000000 -0.007700
vn 0.999970 0.000000 -0.007700
vn -0.002000 0.871563 0.490279
vn -0.003600 0.882184 0.470891
vn -0.003000 0.763864 0.645370
vn -0.001800 0.745125 0.666922
vn -0.002700 0.707404 0.706804
vn -0.001700 0.690720 0.723121
vn -0.481008 0.876714 -0.002100
vn -0.457102 0.889403 -0.004500
vn -0.633518 0.773721 -0.003300
vn -0.655497 0.755196 -0.001600
vn -0.694290 0.719690 -0.002800
vn -0.714517 0.699617 -0.001400
vn -0.000400 0.888798 -0.458299
vn -0.000900 0.886097 -0.463499
vn -0.000700 0.768655 -0.639663
vn -0.000300 0.774714 -0.632312
vn -0.000600 0.717282 -0.696783
vn -0.000300 0.721605 -0.692305
f 1/1/1 2/2/2 3/3/3
f 1/1/1 3/3/3 4/4/4
f 5/5/5 4/4/4 3/3/3
f 5/5/5 3/3/3 6/6/6
f 7/7/7 8/8/8 9/9/9
f 7/7/7 9/9/9 10/10/10
f 11/11/11 9/9/9 8/8/8
f 12/12/12 7/7/7 10/10/10
f 11/11/11 8/8/8 13/13/13
f 12/12/12 14/14/14 7/7/7
f 11/11/11 13/13/13 15/15/15
f 12/12/12 16/16/16 14/14/14
f 11/11/11 15/15/15 17/17/17
f 17/17/17 15/15/15 16/16/16
f 12/12/12 18/18/18 16/16/16
f 17/17/17 16/16/16 18/18/18
f 19/19/19 20/20/20 21/21/21
f 22/22/22 19/19/19 23/23/23
f 19/19/19 21/21/21 23/23/23
f 21/21/21 24/24/24 23/23/23
f 21/21/21 25/25/25 26/26/26
f 21/21/21 26/26/26 27/27/27
f 21/21/21 27/27/27 28/28/28
f 28/28/28 24/24/24 21/21/21
f 28/28/28 29/29/29 24/24/24
f 28/28/28 30/30/30 29/29/29
f 28/28/28 31/31/31 30/30/30
f 30/30/30 32/32/32 29/29/29
f 33/33/33 34/34/34 35/35/35
f 33/33/33 35/35/35 36/36/36
f 36/36/36 35/35/35 37/37/37
f 36/36/36 37/37/37 38/38/38
f 39/39/39 40/40/40 38/38/38
f 41/41/41 39/39/39 38/38/38
f 37/37/37 41/41/41 38/38/38
f 42/42/42 43/43/43 41/41/41
f 37/37/37 42/42/42 41/41/41
f 37/37/37 44/44/44 42/42/42
f 45/45/45 37/37/37 35/35/35
f 46/46/46 45/45/45 35/35/35
f 46/46/46 47/47/47 45/45/45
f 45/45/45 48/48/48 37/37/37
f 37/37/37 49/49/49 44/44/44
f 37/37/37 50/50/50 51/51/51
f 37/37/37 51/51/51 52/52/52
f 37/37/37 52/52/52 53/53/53
f 37/37/37 53/53/53 49/49/49
f 52/52/52 54/54/54 53/53/53
f 52/52/52 55/55/55 54/54/54
f 56/56/56 49/49/49 53/53/53
f 57/57/57 58/58/58 49/49/49
f 57/57/57 49/49/49 59/59/59
f 56/56/56 59/59/59 49/49/49
f 56/56/56 60/60/60 59/59/59
f 56/56/56 61/61/61 60/60/60
f 60/60/60 62/62/62 59/59/59
f 63/63/63 64/64/64 65/65/65
f 66/66/66 67/67/67 68/68/68
f 66/66/66 68/68/68 69/69/69
f 70/70/70 66/66/66 69/69/69
f 70/70/70 69/69/69 71/71/71
f 68/68/68 72/72/72 69/69/69
f 72/72/72 73/73/73 69/69/69
f 73/73/73 74/74/74 69/69/69
f 73/73/73 75/75/75 74/74/74
f 74/74/74 76/76/76 69/69/69
f 77/77/77 69/69/69 76/76/76
f 77/77/77 78/78/78 69/69/69
f 79/79/79 78/78/78 77/77/77
f 79/79/79 80/80/80 78/78/78
f 81/81/81 82/82/82 83/83/83
f 81/81/81 83/83/83 84/84/84
f 83/83/83 82/82/82 85/85/85
f 83/83/83 85/85/85 86/86/86
f 87/87/87 85/85/85 82/82/82
f 87/87/87 88/88/88 85/85/85
f 89/89/89 87/87/87 82/82/82
f 89/89/89 90/90/90 87/87/87
f 91/91/91 92/92/92 93/93/93
f 91/91/91 93/93/93 94/94/94
f 92/92/92 95/95/95 93/93/93
f 92/92/92 96/96/96 95/95/95
f 97/97/97 98/98/98 99/99/99
f 97/97/97 99/99/99 100/100/100
f 100/100/100 99/99/99 101/101/101
f 100/100/100 101/101/101 102/102/102
f 102/102/102 101/101/101 103/103/103
f 102/102/102 103/103/103 104/104/104
f 104/104/104 103/103/103 105/105/105
f 104/104/104 105/105/105 106/106/106
f 107/107/107 108/108/108 109/109/109
f 107/107/107 109/109/109 110/110/110
f 111/111/111 108/108/108 107/107/107
f 111/111/111 112/112/112 108/108/108
f 113/113/113 114/114/114 115/115/115
f 113/113/113 115/115/115 116/116/116
f 117/117/117 113/113/113 116/116/116
f 117/117/117 118/118/118 113/113/113
f 119/119/119 120/120/120 121/121/121
f 119/119/119 121/121/121 122/122/122
f 123/123/123 120/120/120 119/119/119
f 123/123/123 124/124/124 120/120/120
f 125/125/125 124/124/124 123/123/123
f 125/125/125 126/126/126 124/124/124
f 127/127/127 126/126/126 125/125/125
f 127/127/127 128/128/128 126/126/126
f 129/129/129 130/130/130 131/131/131
f 129/129/129 131/131/131 132/132/132
f 133/133/133 134/134/134 135/135/135
f 133/133/133 135/135/135 136/136/136
f 137/137/137 138/138/138 139/139/139
f 137/137/137 139/139/139 140/140/140
f 141/141/141 142/142/142 143/143/143
f 141/141/141 143/143/143 144/144/144
f 145/145/145 146/146/146 147/147/147
f 145/145/145 147/147/147 148/148/148
f 149/149/149 146/146/146 145/145/145
f 149/149/149 150/150/150 146/146/146
f 151/151/151 150/150/150 149/149/149
f 151/151/151 152/152/152 150/150/150
f 153/153/153 154/154/154 155/155/155
f 153/153/153 155/155/155 156/156/156
f 157/157/157 154/154/154 153/153/153
f 157/157/157 158/158/158 154/154/154
f 159/159/159 160/160/160 161/161/161
f 159/159/159 161/161/161 162/162/162
f 163/163/163 160/160/160 159/159/159
f 163/163/163 164/164/164 160/160/160
f 165/165/165 166/166/166 167/167/167
f 165/165/165 167/167/167 168/168/168
f 169/169/169 170/170/170 171/171/171
f 169/169/169 171/171/171 172/172/172
f 173/173/173 170/170/170 169/169/169
f 173/173/173 174/174/174 170/170/170
f 175/175/175 176/176/176 177/177/177
f 175/175/175 177/177/177 178/178/178
f 179/179/179 180/180/180 181/181/181
f 179/179/179 181/181/181 182/182/182
f 183/183/183 180/180/180 179/179/179
f 183/183/183 184/184/184 180/180/180
f 185/185/185 186/186/186 187/187/187
f 185/185/185 187/187/187 188/188/188
f 189/189/189 185/185/185 188/188/188
f 189/189/189 190/190/190 185/185/185
f 191/191/191 192/192/192 193/193/193
f 191/191/191 193/193/193 194/194/194
f 195/195/195 193/193/193 192/192/192
f 195/195/195 196/196/196 193/193/193
f 197/197/197 198/198/198 199/199/199
f 197/197/197 199/199/199 200/200/200
f 199/199/199 201/201/201 200/200/200
f 199/199/199 202/202/202 201/201/201
f 203/203/203 204/204/204 205/205/205
f 203/203/203 205/205/205 206/206/206
f 207/207/207 208/208/208 209/209/209
f 207/207/207 209/209/209 210/210/210
f 211/211/211 208/208/208 207/207/207
f 211/211/211 212/212/212 208/208/208
f 213/213/213 214/214/214 215/215/215
f 213/213/213 215/215/215 216/216/216
f 217/217/217 218/218/218 219/219/219
f 217/217/217 219/219/219 220/220/220
f 218/218/218 221/221/221 219/219/219
f 220/220/220 222/222/222 217/217/217
f 218/218/218 223/223/223 221/221/221
f 224/224/224 222/222/222 220/220/220
f 224/224/224 225/225/225 222/222/222
f 224/224/224 226/226/226 225/225/225
f 226/226/226 227/227/227 225/225/225
f 226/226/226 228/228/228 227/227/227
f 229/229/229 228/228/228 226/226/226
f 229/229/229 230/230/230 228/228/228
f 230/230/230 229/229/229 231/231/231
f 223/223/223 232/232/232 221/221/221
f 232/232/232 231/231/231 229/229/229
f 223/223/223 233/233/233 232/232/232
f 234/234/234 230/230/230 231/231/231
f 233/233/233 235/235/235 232/232/232
f 232/232/232 235/235/235 236/236/236
f 232/232/232 236/236/236 231/231/231
f 234/234/234 231/231/231 237/237/237
f 237/237/237 231/231/231 238/238/238
f 236/236/236 238/238/238 231/231/231
f 236/236/236 239/239/239 238/238/238
f 237/237/237 238/238/238 240/240/240
f 241/241/241 239/239/239 236/236/236
f 242/242/242 234/234/234 237/237/237
f 242/242/242 237/237/237 240/240/240
f 242/242/242 243/243/243 234/234/234
f 242/242/242 244/244/244 243/243/243
f 235/235/235 243/243/243 244/244/244
f 242/242/242 240/240/240 245/245/245
f 241/241/241 245/245/245 240/240/240
f 245/245/245 244/244/244 242/242/242
f 241/241/241 236/236/236 245/245/245
f 235/235/235 244/244/244 245/245/245
f 235/235/235 245/245/245 236/236/236
f 246/246/246 247/247/247 248/248/248
f 246/246/246 248/248/248 249/249/249
f 250/250/250 246/246/246 249/249/249
f 248/248/248 251/251/251 249/249/249
f 248/248/248 252/252/252 251/251/251
f 253/253/253 254/254/254 255/255/255
f 253/253/253 255/255/255 256/256/256
f 257/257/257 254/254/254 253/253/253
f 257/257/257 258/258/258 254/254/254
f 259/259/259 260/260/260 261/261/261
f 259/259/259 261/261/261 262/262/262
f 263/263/263 264/264/264 265/265/265
f 263/263/263 265/265/265 266/266/266
f 266/266/266 265/265/265 267/267/267
f 266/266/266 267/267/267 268/268/268
f 268/268/268 267/267/267 269/269/269
f 268/268/268 269/269/269 270/270/270
f 270/270/270 269/269/269 271/271/271
f 270/270/270 271/271/271 272/272/272
f 272/272/272 271/271/271 273/273/273
f 272/272/272 273/273/273 274/274/274
f 274/274/274 273/273/273 275/275/275
f 274/274/274 275/275/275 276/276/276
f 277/277/277 278/278/278 279/279/279
f 277/277/277 279/279/279 280/280/280
f 281/281/281 282/282/282 283/283/283
f 281/281/281 283/283/283 284/284/284
f 285/285/285 286/286/286 287/287/287
f 285/285/285 287/287/287 288/288/288
f 289/289/289 290/290/290 291/291/291
f 289/289/289 291/291/291 292/292/292
f 293/293/293 294/294/294 295/295/295
f 293/293/293 295/295/295 296/296/296
f 297/297/297 298/298/298 299/299/299
f 297/297/297 299/299/299 300/300/300
f 301/301/301 300/300/300 299/299/299
f 301/301/301 302/302/302 300/300/300
f 303/303/303 304/304/304 305/305/305
f 303/303/303 305/305/305 306/306/306
f 306/306/306 305/305/305 307/307/307
f 306/306/306 307/307/307 308/308/308
f 309/309/309 310/310/310 311/311/311
f 309/309/309 311/311/311 312/312/312
f 312/312/312 311/311/311 313/313/313
f 312/312/312 313/313/313 314/314/314
