o Sponza_Mesh_035
v -8.691383 -2.551206 10.449854
v -8.363934 -2.008290 10.515922
v 7.480034 -2.008290 10.515921
v 7.980770 -2.551206 10.449854
v 7.980770 -2.551206 10.449854
v 7.480034 -2.008290 10.515921
v 7.480034 2.656423 10.515921
v 7.980770 3.265174 10.449854
v 7.480034 2.656423 10.515921
v -8.363934 2.656423 10.515921
v -8.691383 3.265174 10.449854
v 7.980770 3.265174 10.449854
v -8.363934 2.656423 10.515921
v -8.363934 -2.008290 10.515922
v -8.691383 -2.551206 10.449854
v -8.691383 3.265174 10.449854
v -8.691383 -2.551206 7.261953
v -8.691383 3.265174 7.261953
v -8.691383 3.265174 10.449854
v -8.691383 -2.551206 10.449854
v -8.691383 -2.551206 7.261953
v 7.980769 -2.551206 7.261953
v 6.979297 -1.465372 7.261953
v -8.036484 -1.465372 7.261953
v 6.979297 2.047673 7.261953
v -8.036484 2.047673 7.261953
v 7.980769 3.265174 7.261953
v -8.691383 3.265174 7.261953
v 7.980769 -2.551206 7.261953
v -8.691383 -2.551206 7.261953
v -8.691383 -2.551206 10.449854
v 7.980770 -2.551206 10.449854
v 7.980769 3.265174 7.261953
v 7.980769 -2.551206 7.261953
v 7.980770 -2.551206 10.449854
v 7.980770 3.265174 10.449854
v -8.691383 3.265174 7.261953
v 7.980769 3.265174 7.261953
v 7.980770 3.265174 10.449854
v -8.691383 3.265174 10.449854
v -8.363934 -2.008290 10.515922
v -8.036484 -1.465372 10.425580
v 6.979297 -1.465372 10.425580
v 7.480034 -2.008290 10.515921
v 7.480034 -2.008290 10.515921
v 6.979297 -1.465372 10.425580
v 6.979297 2.047673 10.425580
v 7.480034 2.656423 10.515921
v 6.979297 2.047673 10.425580
v -8.036484 2.047673 10.425580
v -8.363934 2.656423 10.515921
v 7.480034 2.656423 10.515921
v -8.036484 2.047673 10.425580
v -8.036484 -1.465372 10.425580
v -8.363934 -2.008290 10.515922
v -8.363934 2.656423 10.515921
vt 0.803300 2.341700
vt 0.889900 2.485300
vt 5.080500 2.485300
vt 5.213000 2.341700
vt 5.213000 2.341700
vt 5.080500 2.485300
vt 5.080500 3.719100
vt 5.213000 3.880100
vt 5.080500 3.719100
vt 0.889900 3.719100
vt 0.803300 3.880100
vt 5.213000 3.880100
vt 0.889900 3.719100
vt 0.889900 2.485300
vt 0.803300 2.341700
vt 0.803300 3.880100
vt 0.000000 2.341700
vt 0.000000 3.880100
vt 0.803300 3.880100
vt 0.803300 2.341700
vt 0.803300 1.538400
vt 5.213000 1.538400
vt 4.948100 1.251200
vt 0.976500 1.251200
vt 4.948100 0.322000
vt 0.976500 0.322000
vt 5.213000 0.000000
vt 0.803300 0.000000
vt 5.213000 1.538400
vt 0.803300 1.538400
vt 0.803300 2.341700
vt 5.213000 2.341700
vt 6.016300 3.880100
vt 6.016300 2.341700
vt 5.213000 2.341700
vt 5.213000 3.880100
vt 0.803300 4.683400
vt 5.213000 4.683400
vt 5.213000 3.880100
vt 0.803300 3.880100
vt 0.889900 2.485300
vt 0.976500 2.628900
vt 4.948100 2.628900
vt 5.080500 2.485300
vt 5.080500 2.485300
vt 4.948100 2.628900
vt 4.948100 3.558100
vt 5.080500 3.719100
vt 4.948100 3.558100
vt 0.976500 3.558100
vt 0.889900 3.719100
vt 5.080500 3.719100
vt 0.976500 3.558100
vt 0.976500 2.628900
vt 0.889900 2.485300
vt 0.889900 3.719100
vn -0.000000 0.120797 -0.992677
vn -0.000000 0.120797 -0.992677
vn -0.000000 0.120797 -0.992677
vn -0.000000 0.120797 -0.992677
vn -0.130801 0.000000 -0.991409
vn -0.130801 0.000000 -0.991409
vn -0.130801 0.000000 -0.991409
vn -0.130801 0.000000 -0.991409
vn 0.000000 -0.107896 -0.994162
vn 0.000000 -0.107896 -0.994162
vn 0.000000 -0.107896 -0.994162
vn 0.000000 -0.107896 -0.994162
vn 0.197808 -0.000000 -0.980241
vn 0.197808 -0.000000 -0.980241
vn 0.197808 -0.000000 -0.980241
vn 0.197808 -0.000000 -0.980241
vn 1.000000 0.000000 0.000000
vn 1.000000 0.000000 0.000000
vn 1.000000 0.000000 0.000000
vn 1.000000 0.000000 0.000000
vn 0.000000 0.000000 1.000000
vn 0.000000 0.000000 1.000000
vn 0.000000 0.000000 1.000000
vn 0.000000 0.000000 1.000000
vn 0.000000 0.000000 1.000000
vn 0.000000 0.000000 1.000000
vn 0.000000 0.000000 1.000000
vn 0.000000 0.000000 1.000000
vn 0.000000 1.000000 0.000000
vn 0.000000 1.000000 0.000000
vn 0.000000 1.000000 0.000000
vn 0.000000 1.000000 0.000000
vn -1.000000 0.000000 0.000000
vn -1.000000 0.000000 0.000000
vn -1.000000 0.000000 0.000000
vn -1.000000 0.000000 0.000000
vn 0.000000 -1.000000 0.000000
vn 0.000000 -1.000000 0.000000
vn 0.000000 -1.000000 0.000000
vn 0.000000 -1.000000 0.000000
vn -0.000000 -0.164107 -0.986443
vn -0.000000 -0.164107 -0.986443
vn -0.000000 -0.164107 -0.986443
vn -0.000000 -0.164107 -0.986443
vn 0.177600 0.000000 -0.984103
vn 0.177600 0.000000 -0.984103
vn 0.177600 0.000000 -0.984103
vn 0.177600 0.000000 -0.984103
vn 0.000000 0.146795 -0.989167
vn 0.000000 0.146795 -0.989167
vn 0.000000 0.146795 -0.989167
vn 0.000000 0.146795 -0.989167
vn -0.265993 -0.000000 -0.963975
vn -0.265993 -0.000000 -0.963975
vn -0.265993 -0.000000 -0.963975
vn -0.265993 -0.000000 -0.963975
f 1/1/1 2/2/2 3/3/3
f 1/1/1 3/3/3 4/4/4
f 5/5/5 6/6/6 7/7/7
f 5/5/5 7/7/7 8/8/8
f 9/9/9 10/10/10 11/11/11
f 9/9/9 11/11/11 12/12/12
f 13/13/13 14/14/14 15/15/15
f 13/13/13 15/15/15 16/16/16
f 17/17/17 18/18/18 19/19/19
f 17/17/17 19/19/19 20/20/20
f 21/21/21 22/22/22 23/23/23
f 21/21/21 23/23/23 24/24/24
f 22/22/22 25/25/25 23/23/23
f 21/21/21 24/24/24 26/26/26
f 22/22/22 27/27/27 25/25/25
f 21/21/21 26/26/26 28/28/28
f 28/28/28 25/25/25 27/27/27
f 28/28/28 26/26/26 25/25/25
f 29/29/29 30/30/30 31/31/31
f 29/29/29 31/31/31 32/32/32
f 33/33/33 34/34/34 35/35/35
f 33/33/33 35/35/35 36/36/36
f 37/37/37 38/38/38 39/39/39
f 37/37/37 39/39/39 40/40/40
f 41/41/41 42/42/42 43/43/43
f 41/41/41 43/43/43 44/44/44
f 45/45/45 46/46/46 47/47/47
f 45/45/45 47/47/47 48/48/48
f 49/49/49 50/50/50 51/51/51
f 49/49/49 51/51/51 52/52/52
f 53/53/53 54/54/54 55/55/55
f 53/53/53 55/55/55 56/56/56
