o Sponza_Mesh_014
v 7.141255 -1.802363 5.551612
v 7.141255 -1.802363 7.373828
v 6.898635 -1.802363 5.550135
v 6.747395 -1.802363 6.109662
v 6.451260 -1.802363 6.373956
v 6.113752 -1.802363 7.373828
v 6.113752 -1.802363 6.550633
v 5.776244 -1.802363 6.373956
v 5.418165 -1.802363 7.373828
v 5.480110 -1.802363 6.109662
v 5.418165 -1.802363 5.880492
v 5.356221 -1.802363 6.109662
v 5.060087 -1.802363 6.373956
v 4.722579 -1.802363 7.373828
v 4.722579 -1.802363 6.550633
v 4.385070 -1.802363 6.403533
v 3.949393 -1.802363 7.373828
v 4.088935 -1.802363 6.118341
v 3.933487 -1.802363 5.740151
v 3.839470 -1.802363 5.957285
v 3.622059 -1.802363 6.279592
v 3.325391 -1.802363 6.480823
v 3.138137 -1.802363 7.373828
v 3.138137 -1.802363 6.565678
v 2.987084 -1.802363 6.517331
v 2.449753 -1.802363 7.373828
v 2.663543 -1.802363 6.292249
v 2.449753 -1.802363 6.019618
v 2.251570 -1.802363 6.212526
v 2.003439 -1.802363 6.422717
v 1.755308 -1.802363 7.373828
v 1.755308 -1.802363 6.526347
v 1.469463 -1.802363 6.396179
v 0.968941 -1.802363 7.373828
v 1.183618 -1.802363 6.130501
v 0.968941 -1.802362 5.692455
v 0.730256 -1.802363 6.210187
v 0.419143 -1.802363 6.427083
v 0.180458 -1.802363 7.373828
v 0.180458 -1.802363 6.546289
v -0.029282 -1.802362 6.440296
v -0.534886 -1.802363 7.373828
v -0.294514 -1.802362 6.249763
v -0.534866 -1.802362 6.013942
v -0.775218 -1.802362 6.249763
v -1.040450 -1.802362 6.440296
v -1.250190 -1.802363 7.373828
v -1.250190 -1.802363 6.546289
v -1.488875 -1.802363 6.427083
v -2.038672 -1.802363 7.373828
v -1.758851 -1.802363 6.210187
v -2.002150 -1.802363 5.692455
v -2.253350 -1.802363 6.130501
v -2.539194 -1.802363 6.396179
v -2.825039 -1.802363 7.373828
v -2.825039 -1.802363 6.526347
v -3.073170 -1.802363 6.422717
v -3.519484 -1.802363 7.373828
v -3.321302 -1.802363 6.212526
v -3.460754 -1.802363 6.019618
v -3.733274 -1.802363 6.292249
v -4.056815 -1.802363 6.517331
v -4.207869 -1.802363 7.373828
v -4.207869 -1.802363 6.565678
v -4.395123 -1.802363 6.480823
v -5.019124 -1.802363 7.373828
v -4.668169 -1.802363 6.279592
v -4.866509 -1.802363 5.957285
v -4.950999 -1.802363 5.740151
v -5.158667 -1.802363 6.118341
v -5.454801 -1.802363 6.403533
v -5.792310 -1.802363 7.373828
v -5.792310 -1.802363 6.550633
v -6.129819 -1.802363 6.373956
v -6.487897 -1.802363 7.373828
v -6.359376 -1.802363 6.109662
v -6.463939 -1.802363 5.880492
v -6.549841 -1.802363 6.109662
v -6.845975 -1.802363 6.373956
v -7.183484 -1.802363 7.373828
v -7.183484 -1.802363 6.550633
v -7.520993 -1.802363 6.373956
v -8.180536 -1.802363 7.373828
v -7.772531 -1.802363 6.109662
v -7.968366 -1.802363 5.550135
v -8.180536 -1.802363 5.551612
v 7.141255 -1.802363 5.551612
v 7.141255 -1.371099 5.552159
v 7.141255 -1.802363 7.373828
v 7.141255 -1.189258 5.985345
v 7.141255 -0.955923 6.287978
v 7.141255 -0.489253 7.373828
v 7.141255 -0.489253 6.511376
v 7.141255 0.288050 7.373828
v 7.141255 -0.022582 6.287978
v 7.141255 0.210754 5.985345
v 7.141255 0.288050 5.868671
v 7.141255 0.365346 5.985345
v 7.141255 0.598682 6.287978
v 7.141255 1.065352 6.511376
v 7.141255 1.065352 7.373828
v 7.141255 1.532023 6.287978
v 7.141255 2.363953 7.373828
v 7.141255 1.765358 5.985345
v 7.141255 1.925711 5.552159
v 7.141255 2.363953 5.551612
v 7.141255 2.363953 5.551612
v 6.898635 2.363953 5.550135
v 7.141255 2.363953 7.373828
v 6.747395 2.363953 6.109662
v 6.451260 2.363953 6.373955
v 6.113752 2.363953 7.373828
v 6.113752 2.363953 6.550633
v 5.776244 2.363953 6.373955
v 5.418165 2.363953 7.373828
v 5.480110 2.363953 6.109662
v 5.418165 2.363953 5.880492
v 5.356221 2.363953 6.109662
v 5.060087 2.363953 6.373955
v 4.722579 2.363953 7.373828
v 4.722579 2.363953 6.550633
v 4.385070 2.363953 6.403533
v 3.949393 2.363953 7.373828
v 4.088935 2.363953 6.118341
v 3.933487 2.363953 5.740151
v 3.839470 2.363953 5.957285
v 3.622059 2.363953 6.279592
v 3.325391 2.363953 6.480822
v 3.138137 2.363953 7.373828
v 3.138137 2.363953 6.565678
v 2.987084 2.363953 6.517330
v 2.449753 2.363953 7.373828
v 2.663543 2.363953 6.292249
v 2.449753 2.363953 6.019618
v 2.251570 2.363953 6.212526
v 2.003439 2.363953 6.422716
v 1.755308 2.363953 7.373828
v 1.755308 2.363953 6.526347
v 1.469463 2.363953 6.396179
v 0.968941 2.363953 7.373828
v 1.183618 2.363953 6.130501
v 0.968941 2.363953 5.692455
v 0.730255 2.363953 6.210187
v 0.419143 2.363953 6.427083
v 0.180458 2.363953 7.373828
v 0.180458 2.363953 6.546289
v -0.029282 2.363952 6.440296
v -0.534866 2.363953 7.373828
v -0.294514 2.363952 6.249763
v -0.503506 2.363952 6.013942
v -0.775218 2.363952 6.249763
v -1.040450 2.363952 6.440296
v -1.250190 2.363953 7.373828
v -1.250190 2.363953 6.546289
v -1.488875 2.363953 6.427083
v -2.038672 2.363953 7.373828
v -1.758738 2.363953 6.210187
v -1.992327 2.363953 5.692455
v -2.253350 2.363953 6.130501
v -2.539194 2.363953 6.396179
v -2.825039 2.363953 7.373828
v -2.825039 2.363953 6.526347
v -3.073170 2.363953 6.422716
v -3.519484 2.363953 7.373828
v -3.321302 2.363953 6.212526
v -3.470038 2.363953 6.019618
v -3.733274 2.363953 6.292249
v -4.056815 2.363953 6.517330
v -4.207869 2.363953 7.373828
v -4.207869 2.363953 6.565678
v -4.395123 2.363953 6.480822
v -5.019124 2.363953 7.373828
v -4.662338 2.363953 6.279592
v -4.873009 2.363953 5.957285
v -4.953724 2.363953 5.740151
v -5.158667 2.363953 6.118341
v -5.454801 2.363953 6.403533
v -5.792310 2.363953 7.373828
v -5.792310 2.363953 6.550633
v -6.129819 2.363953 6.373955
v -6.487897 2.363953 7.373828
v -6.374733 2.363953 6.109662
v -6.487897 2.363953 5.880492
v -6.549841 2.363953 6.109662
v -6.845975 2.363953 6.373955
v -7.183484 2.363953 7.373828
v -7.183484 2.363953 6.550633
v -7.520993 2.363953 6.373955
v -8.180536 2.363953 7.373828
v -7.817128 2.363953 6.109662
v -7.968366 2.363953 5.550135
v -8.180536 2.363953 5.551612
v -8.180536 -1.802363 5.551612
v -8.180536 -1.802363 7.373828
v -8.180536 -1.371099 5.552159
v -8.180536 -1.189258 5.985345
v -8.180536 -0.955923 6.287978
v -8.180536 -0.489253 7.373828
v -8.180536 -0.489253 6.511376
v -8.180536 0.288050 7.373828
v -8.180536 -0.022582 6.287978
v -8.180536 0.210754 5.985345
v -8.180536 0.288050 5.868671
v -8.180536 0.365346 5.985345
v -8.180536 0.598682 6.287978
v -8.180536 1.065352 6.511376
v -8.180536 1.065352 7.373828
v -8.180536 1.532023 6.287978
v -8.180536 2.363953 7.373828
v -8.180536 1.765358 5.985345
v -8.180536 1.925711 5.552159
v -8.180536 2.363953 5.551612
vt 16.143499 0.001200
vt 16.143499 1.510700
vt 15.942500 0.000000
vt 15.817200 0.463500
vt 15.571900 0.682400
vt 15.292300 1.510700
vt 15.292300 0.828800
vt 15.012800 0.682400
vt 14.716100 1.510700
vt 14.767400 0.463500
vt 14.716100 0.273700
vt 14.664800 0.463500
vt 14.419500 0.682400
vt 14.139900 1.510700
vt 14.139900 0.828800
vt 13.860300 0.706900
vt 13.499400 1.510700
vt 13.615000 0.470700
vt 13.486300 0.157400
vt 13.408400 0.337300
vt 13.228300 0.604300
vt 12.982500 0.771000
vt 12.827400 1.510700
vt 12.827400 0.841300
vt 12.702300 0.801200
vt 12.257200 1.510700
vt 12.434300 0.614800
vt 12.257200 0.388900
vt 12.093000 0.548700
vt 11.887400 0.722800
vt 11.681900 1.510700
vt 11.681900 0.808700
vt 11.445100 0.700800
vt 11.030500 1.510700
vt 11.208300 0.480800
vt 11.030500 0.117900
vt 10.832800 0.546800
vt 10.575100 0.726400
vt 10.377300 1.510700
vt 10.377300 0.825200
vt 10.203600 0.737400
vt 9.784800 1.510700
vt 9.983900 0.579600
vt 9.784800 0.384200
vt 9.585700 0.579600
vt 9.366000 0.737400
vt 9.192200 1.510700
vt 9.192200 0.825200
vt 8.994500 0.726400
vt 8.539100 1.510700
vt 8.770900 0.546800
vt 8.569300 0.117900
vt 8.361200 0.480800
vt 8.124400 0.700800
vt 7.887600 1.510700
vt 7.887600 0.808700
vt 7.682100 0.722800
vt 7.312400 1.510700
vt 7.476600 0.548700
vt 7.361000 0.388900
vt 7.135300 0.614800
vt 6.867300 0.801200
vt 6.742100 1.510700
vt 6.742100 0.841300
vt 6.587000 0.771000
vt 6.070100 1.510700
vt 6.360800 0.604300
vt 6.196500 0.337300
vt 6.126600 0.157400
vt 5.954500 0.470700
vt 5.709200 0.706900
vt 5.429600 1.510700
vt 5.429600 0.828800
vt 5.150000 0.682400
vt 4.853400 1.510700
vt 4.959900 0.463500
vt 4.873300 0.273700
vt 4.802100 0.463500
vt 4.556800 0.682400
vt 4.277200 1.510700
vt 4.277200 0.828800
vt 3.997600 0.682400
vt 3.451300 1.510700
vt 3.789300 0.463500
vt 3.627000 0.000000
vt 3.451300 0.001200
vt 16.143499 0.001200
vt 16.500700 0.001700
vt 16.143499 1.510700
vt 16.651400 0.360500
vt 16.844700 0.611200
vt 17.231199 1.510700
vt 17.231199 0.796300
vt 17.875099 1.510700
vt 17.617800 0.611200
vt 17.811100 0.360500
vt 17.875099 0.263900
vt 17.939199 0.360500
vt 18.132500 0.611200
vt 18.518999 0.796300
vt 18.518999 1.510700
vt 18.905600 0.611200
vt 19.594801 1.510700
vt 19.098900 0.360500
vt 19.231701 0.001700
vt 19.594801 0.001200
vt 19.594801 0.001200
vt 19.795799 0.000000
vt 19.594801 1.510700
vt 19.921000 0.463500
vt 20.166401 0.682400
vt 20.445900 1.510700
vt 20.445900 0.828800
vt 20.725500 0.682400
vt 21.022100 1.510700
vt 20.970800 0.463500
vt 21.022100 0.273700
vt 21.073500 0.463500
vt 21.318800 0.682400
vt 21.598400 1.510700
vt 21.598400 0.828800
vt 21.877899 0.706900
vt 22.238800 1.510700
vt 22.123199 0.470700
vt 22.252001 0.157400
vt 22.329901 0.337300
vt 22.510000 0.604300
vt 22.755800 0.771000
vt 22.910900 1.510700
vt 22.910900 0.841300
vt 23.035999 0.801200
vt 23.481100 1.510700
vt 23.304001 0.614800
vt 23.481100 0.388900
vt 23.645300 0.548700
vt 23.850800 0.722800
vt 24.056400 1.510700
vt 24.056400 0.808700
vt 24.293200 0.700800
vt 24.707800 1.510700
vt 24.529900 0.480800
vt 24.707800 0.117900
vt 24.905500 0.546800
vt 25.163200 0.726400
vt 25.360901 1.510700
vt 25.360901 0.825200
vt 25.534700 0.737400
vt 25.953501 1.510700
vt 25.754400 0.579600
vt 25.927500 0.384200
vt 26.152599 0.579600
vt 26.372299 0.737400
vt 26.546101 1.510700
vt 26.546101 0.825200
vt 26.743799 0.726400
vt 27.199200 1.510700
vt 26.967300 0.546800
vt 27.160801 0.117900
vt 27.377100 0.480800
vt 27.613800 0.700800
vt 27.850599 1.510700
vt 27.850599 0.808700
vt 28.056200 0.722800
vt 28.425900 1.510700
vt 28.261700 0.548700
vt 28.384899 0.388900
vt 28.603001 0.614800
vt 28.871000 0.801200
vt 28.996099 1.510700
vt 28.996099 0.841300
vt 29.151199 0.771000
vt 29.668200 1.510700
vt 29.372601 0.604300
vt 29.547100 0.337300
vt 29.614000 0.157400
vt 29.783800 0.470700
vt 30.029100 0.706900
vt 30.308599 1.510700
vt 30.308599 0.828800
vt 30.588200 0.682400
vt 30.884899 1.510700
vt 30.791100 0.463500
vt 30.884899 0.273700
vt 30.936199 0.463500
vt 31.181499 0.682400
vt 31.461100 1.510700
vt 31.461100 0.828800
vt 31.740601 0.682400
vt 32.286999 1.510700
vt 31.986000 0.463500
vt 32.111198 0.000000
vt 32.286999 0.001200
vt 3.451300 0.001200
vt 3.451300 1.510700
vt 3.094000 0.001700
vt 2.943400 0.360500
vt 2.750100 0.611200
vt 2.363500 1.510700
vt 2.363500 0.796300
vt 1.719600 1.510700
vt 1.977000 0.611200
vt 1.783700 0.360500
vt 1.719600 0.263900
vt 1.655600 0.360500
vt 1.462300 0.611200
vt 1.075700 0.796300
vt 1.075700 1.510700
vt 0.689200 0.611200
vt 0.000000 1.510700
vt 0.495900 0.360500
vt 0.363000 0.001700
vt 0.000000 0.001200
vn 0.000000 -1.000000 0.000000
vn 0.000000 -1.000000 0.000000
vn 0.000000 -1.000000 -0.000000
vn 0.000000 -1.000000 -0.000000
vn 0.000000 -1.000000 0.000000
vn 0.000000 -1.000000 0.000000
vn 0.000000 -1.000000 0.000000
vn 0.000000 -1.000000 0.000000
vn 0.000000 -1.000000 0.000000
vn 0.000000 -1.000000 0.000000
vn 0.000000 -1.000000 0.000000
vn 0.000000 -1.000000 0.000000
vn -0.000000 -1.000000 -0.000000
vn -0.000000 -1.000000 -0.000000
vn -0.000000 -1.000000 -0.000000
vn 0.000000 -1.000000 0.000000
vn -0.000000 -1.000000 0.000000
vn -0.000000 -1.000000 0.000000
vn 0.000000 -1.000000 -0.000000
vn 0.000000 -1.000000 0.000000
vn 0.000000 -1.000000 0.000000
vn 0.000000 -1.000000 0.000000
vn 0.000000 -1.000000 0.000000
vn 0.000000 -1.000000 0.000000
vn 0.000000 -1.000000 0.000000
vn -0.000000 -1.000000 -0.000000
vn -0.000000 -1.000000 -0.000000
vn -0.000000 -1.000000 -0.000000
vn -0.000000 -1.000000 -0.000000
vn -0.000000 -1.000000 -0.000000
vn -0.000000 -1.000000 -0.000000
vn 0.000000 -1.000000 -0.000000
vn -0.000000 -1.000000 -0.000000
vn -0.000000 -1.000000 -0.000000
vn -0.000000 -1.000000 -0.000000
vn -0.000000 -1.000000 -0.000000
vn 0.000000 -1.000000 -0.000000
vn 0.000000 -1.000000 0.000000
vn -0.000000 -1.000000 -0.000000
vn -0.000000 -1.000000 0.000000
vn -0.000000 -1.000000 -0.000000
vn -0.000000 -1.000000 -0.000000
vn 0.000000 -1.000000 -0.000000
vn 0.000000 -1.000000 -0.000000
vn -0.000000 -1.000000 -0.000000
vn 0.000000 -1.000000 -0.000000
vn 0.000000 -1.000000 -0.000000
vn 0.000000 -1.000000 0.000000
vn 0.000000 -1.000000 -0.000000
vn 0.000000 -1.000000 -0.000000
vn 0.000000 -1.000000 -0.000000
vn 0.000000 -1.000000 -0.000000
vn -0.000000 -1.000000 -0.000000
vn -0.000000 -1.000000 -0.000000
vn -0.000000 -1.000000 -0.000000
vn -0.000000 -1.000000 -0.000000
vn 0.000000 -1.000000 -0.000000
vn -0.000000 -1.000000 -0.000000
vn 0.000000 -1.000000 -0.000000
vn 0.000000 -1.000000 -0.000000
vn 0.000000 -1.000000 -0.000000
vn -0.000000 -1.000000 0.000000
vn -0.000000 -1.000000 0.000000
vn -0.000000 -1.000000 0.000000
vn 0.000000 -1.000000 0.000000
vn 0.000000 -1.000000 0.000000
vn 0.000000 -1.000000 0.000000
vn 0.000000 -1.000000 0.000000
vn 0.000000 -1.000000 0.000000
vn 0.000000 -1.000000 0.000000
vn -0.000000 -1.000000 -0.000000
vn 0.000000 -1.000000 -0.000000
vn 0.000000 -1.000000 -0.000000
vn 0.000000 -1.000000 -0.000000
vn -0.000000 -1.000000 0.000000
vn 0.000000 -1.000000 0.000000
vn 0.000000 -1.000000 0.000000
vn 0.000000 -1.000000 0.000000
vn -0.000000 -1.000000 0.000000
vn -0.000000 -1.000000 0.000000
vn 0.000000 -1.000000 0.000000
vn 0.000000 -1.000000 0.000000
vn 0.000000 -1.000000 0.000000
vn 0.000000 -1.000000 0.000000
vn 0.000000 -1.000000 0.000000
vn 0.000000 -1.000000 0.000000
vn 1.000000 0.000000 0.000000
vn 1.000000 0.000000 0.000000
vn 1.000000 0.000000 0.000000
vn 1.000000 0.000000 0.000000
vn 1.000000 0.000000 0.000000
vn 1.000000 0.000000 0.000000
vn 1.000000 0.000000 0.000000
vn 1.000000 0.000000 0.000000
vn 1.000000 0.000000 0.000000
vn 1.000000 0.000000 0.000000
vn 1.000000 0.000000 0.000000
vn 1.000000 0.000000 0.000000
vn 1.000000 0.000000 0.000000
vn 1.000000 0.000000 0.000000
vn 1.000000 0.000000 0.000000
vn 1.000000 0.000000 0.000000
vn 1.000000 0.000000 0.000000
vn 1.000000 0.000000 0.000000
vn 1.000000 0.000000 0.000000
vn 1.000000 0.000000 0.000000
vn 0.000000 1.000000 0.000000
vn 0.000000 1.000000 0.000000
vn 0.000000 1.000000 0.000000
vn 0.000000 1.000000 0.000000
vn -0.000000 1.000000 -0.000000
vn -0.000000 1.000000 -0.000000
vn 0.000000 1.000000 -0.000000
vn 0.000000 1.000000 -0.000000
vn 0.000000 1.000000 0.000000
vn 0.000000 1.000000 0.000000
vn 0.000000 1.000000 0.000000
vn 0.000000 1.000000 0.000000
vn -0.000000 1.000000 -0.000000
vn -0.000000 1.000000 -0.000000
vn -0.000000 1.000000 -0.000000
vn 0.000000 1.000000 -0.000000
vn 0.000000 1.000000 0.000000
vn 0.000000 1.000000 0.000000
vn 0.000000 1.000000 0.000000
vn 0.000000 1.000000 0.000000
vn 0.000000 1.000000 0.000000
vn 0.000000 1.000000 0.000000
vn 0.000000 1.000000 0.000000
vn 0.000000 1.000000 0.000000
vn 0.000000 1.000000 0.000000
vn -0.000000 1.000000 -0.000000
vn -0.000000 1.000000 -0.000000
vn -0.000000 1.000000 -0.000000
vn -0.000000 1.000000 -0.000000
vn -0.000000 1.000000 -0.000000
vn 0.000000 1.000000 -0.000000
vn 0.000000 1.000000 -0.000000
vn 0.000000 1.000000 -0.000000
vn -0.000000 1.000000 -0.000000
vn -0.000000 1.000000 -0.000000
vn -0.000000 1.000000 -0.000000
vn -0.000000 1.000000 -0.000000
vn -0.000000 1.000000 -0.000000
vn -0.000000 1.000000 -0.000000
vn -0.000000 1.000000 -0.000000
vn -0.000000 1.000000 -0.000000
vn -0.000000 1.000000 -0.000000
vn 0.000000 1.000000 -0.000000
vn 0.000000 1.000000 -0.000000
vn -0.000000 1.000000 -0.000000
vn 0.000000 1.000000 -0.000000
vn 0.000000 1.000000 -0.000000
vn 0.000000 1.000000 -0.000000
vn 0.000000 1.000000 -0.000000
vn 0.000000 1.000000 -0.000000
vn 0.000000 1.000000 -0.000000
vn 0.000000 1.000000 -0.000000
vn 0.000000 1.000000 -0.000000
vn -0.000000 1.000000 -0.000000
vn -0.000000 1.000000 -0.000000
vn -0.000000 1.000000 -0.000000
vn 0.000000 1.000000 -0.000000
vn 0.000000 1.000000 -0.000000
vn 0.000000 1.000000 -0.000000
vn 0.000000 1.000000 -0.000000
vn 0.000000 1.000000 -0.000000
vn 0.000000 1.000000 0.000000
vn 0.000000 1.000000 0.000000
vn 0.000000 1.000000 0.000000
vn 0.000000 1.000000 0.000000
vn 0.000000 1.000000 0.000000
vn 0.000000 1.000000 0.000000
vn 0.000000 1.000000 0.000000
vn 0.000000 1.000000 0.000000
vn 0.000000 1.000000 0.000000
vn -0.000000 1.000000 -0.000000
vn 0.000000 1.000000 -0.000000
vn 0.000000 1.000000 -0.000000
vn 0.000000 1.000000 -0.000000
vn 0.000000 1.000000 0.000000
vn 0.000000 1.000000 0.000000
vn 0.000000 1.000000 0.000000
vn 0.000000 1.000000 0.000000
vn -0.000000 1.000000 -0.000000
vn 0.000000 1.000000 -0.000000
vn 0.000000 1.000000 -0.000000
vn 0.000000 1.000000 -0.000000
vn 0.000000 1.000000 0.000000
vn 0.000000 1.000000 0.000000
vn 0.000000 1.000000 0.000000
vn 0.000000 1.000000 0.000000
vn -1.000000 0.000000 0.000000
vn -1.000000 0.000000 0.000000
vn -1.000000 0.000000 0.000000
vn -1.000000 0.000000 0.000000
vn -1.000000 0.000000 0.000000
vn -1.000000 0.000000 0.000000
vn -1.000000 0.000000 0.000000
vn -1.000000 0.000000 0.000000
vn -1.000000 0.000000 0.000000
vn -1.000000 0.000000 0.000000
vn -1.000000 0.000000 0.000000
vn -1.000000 0.000000 0.000000
vn -1.000000 0.000000 0.000000
vn -1.000000 0.000000 0.000000
vn -1.000000 0.000000 0.000000
vn -1.000000 0.000000 0.000000
vn -1.000000 0.000000 0.000000
vn -1.000000 0.000000 0.000000
vn -1.000000 0.000000 0.000000
vn -1.000000 0.000000 0.000000
f 1/1/1 2/2/2 3/3/3
f 3/3/3 2/2/2 4/4/4
f 4/4/4 2/2/2 5/5/5
f 6/6/6 5/5/5 2/2/2
f 6/6/6 7/7/7 5/5/5
f 8/8/8 7/7/7 6/6/6
f 8/8/8 6/6/6 9/9/9
f 10/10/10 8/8/8 9/9/9
f 9/9/9 11/11/11 10/10/10
f 11/11/11 9/9/9 12/12/12
f 12/12/12 9/9/9 13/13/13
f 14/14/14 13/13/13 9/9/9
f 14/14/14 15/15/15 13/13/13
f 16/16/16 15/15/15 14/14/14
f 16/16/16 14/14/14 17/17/17
f 18/18/18 16/16/16 17/17/17
f 19/19/19 18/18/18 17/17/17
f 19/19/19 17/17/17 20/20/20
f 20/20/20 17/17/17 21/21/21
f 21/21/21 17/17/17 22/22/22
f 22/22/22 17/17/17 23/23/23
f 22/22/22 23/23/23 24/24/24
f 23/23/23 25/25/25 24/24/24
f 23/23/23 26/26/26 25/25/25
f 25/25/25 26/26/26 27/27/27
f 27/27/27 26/26/26 28/28/28
f 28/28/28 26/26/26 29/29/29
f 29/29/29 26/26/26 30/30/30
f 30/30/30 26/26/26 31/31/31
f 30/30/30 31/31/31 32/32/32
f 31/31/31 33/33/33 32/32/32
f 31/31/31 34/34/34 33/33/33
f 33/33/33 34/34/34 35/35/35
f 35/35/35 34/34/34 36/36/36
f 36/36/36 34/34/34 37/37/37
f 37/37/37 34/34/34 38/38/38
f 38/38/38 34/34/34 39/39/39
f 38/38/38 39/39/39 40/40/40
f 39/39/39 41/41/41 40/40/40
f 39/39/39 42/42/42 41/41/41
f 41/41/41 42/42/42 43/43/43
f 43/43/43 42/42/42 44/44/44
f 45/45/45 44/44/44 42/42/42
f 46/46/46 45/45/45 42/42/42
f 47/47/47 46/46/46 42/42/42
f 47/47/47 48/48/48 46/46/46
f 49/49/49 48/48/48 47/47/47
f 49/49/49 47/47/47 50/50/50
f 51/51/51 49/49/49 50/50/50
f 52/52/52 51/51/51 50/50/50
f 53/53/53 52/52/52 50/50/50
f 54/54/54 53/53/53 50/50/50
f 55/55/55 54/54/54 50/50/50
f 55/55/55 56/56/56 54/54/54
f 57/57/57 56/56/56 55/55/55
f 57/57/57 55/55/55 58/58/58
f 59/59/59 57/57/57 58/58/58
f 60/60/60 59/59/59 58/58/58
f 61/61/61 60/60/60 58/58/58
f 62/62/62 61/61/61 58/58/58
f 63/63/63 62/62/62 58/58/58
f 63/63/63 64/64/64 62/62/62
f 65/65/65 64/64/64 63/63/63
f 65/65/65 63/63/63 66/66/66
f 67/67/67 65/65/65 66/66/66
f 68/68/68 67/67/67 66/66/66
f 69/69/69 68/68/68 66/66/66
f 69/69/69 66/66/66 70/70/70
f 70/70/70 66/66/66 71/71/71
f 72/72/72 71/71/71 66/66/66
f 72/72/72 73/73/73 71/71/71
f 74/74/74 73/73/73 72/72/72
f 74/74/74 72/72/72 75/75/75
f 76/76/76 74/74/74 75/75/75
f 77/77/77 76/76/76 75/75/75
f 75/75/75 78/78/78 77/77/77
f 78/78/78 75/75/75 79/79/79
f 80/80/80 79/79/79 75/75/75
f 80/80/80 81/81/81 79/79/79
f 82/82/82 81/81/81 80/80/80
f 82/82/82 80/80/80 83/83/83
f 84/84/84 82/82/82 83/83/83
f 85/85/85 84/84/84 83/83/83
f 86/86/86 85/85/85 83/83/83
f 87/87/87 88/88/88 89/89/89
f 89/89/89 88/88/88 90/90/90
f 89/89/89 90/90/90 91/91/91
f 91/91/91 92/92/92 89/89/89
f 91/91/91 93/93/93 92/92/92
f 93/93/93 94/94/94 92/92/92
f 93/93/93 95/95/95 94/94/94
f 94/94/94 95/95/95 96/96/96
f 94/94/94 96/96/96 97/97/97
f 98/98/98 94/94/94 97/97/97
f 99/99/99 94/94/94 98/98/98
f 94/94/94 99/99/99 100/100/100
f 94/94/94 100/100/100 101/101/101
f 101/101/101 100/100/100 102/102/102
f 101/101/101 102/102/102 103/103/103
f 103/103/103 102/102/102 104/104/104
f 103/103/103 104/104/104 105/105/105
f 106/106/106 103/103/103 105/105/105
f 107/107/107 108/108/108 109/109/109
f 108/108/108 110/110/110 109/109/109
f 110/110/110 111/111/111 109/109/109
f 111/111/111 112/112/112 109/109/109
f 111/111/111 113/113/113 112/112/112
f 112/112/112 113/113/113 114/114/114
f 112/112/112 114/114/114 115/115/115
f 116/116/116 115/115/115 114/114/114
f 115/115/115 116/116/116 117/117/117
f 117/117/117 118/118/118 115/115/115
f 118/118/118 119/119/119 115/115/115
f 119/119/119 120/120/120 115/115/115
f 119/119/119 121/121/121 120/120/120
f 120/120/120 121/121/121 122/122/122
f 120/120/120 122/122/122 123/123/123
f 124/124/124 123/123/123 122/122/122
f 125/125/125 123/123/123 124/124/124
f 125/125/125 126/126/126 123/123/123
f 126/126/126 127/127/127 123/123/123
f 127/127/127 128/128/128 123/123/123
f 128/128/128 129/129/129 123/123/123
f 128/128/128 130/130/130 129/129/129
f 129/129/129 130/130/130 131/131/131
f 129/129/129 131/131/131 132/132/132
f 131/131/131 133/133/133 132/132/132
f 133/133/133 134/134/134 132/132/132
f 134/134/134 135/135/135 132/132/132
f 135/135/135 136/136/136 132/132/132
f 136/136/136 137/137/137 132/132/132
f 136/136/136 138/138/138 137/137/137
f 137/137/137 138/138/138 139/139/139
f 137/137/137 139/139/139 140/140/140
f 139/139/139 141/141/141 140/140/140
f 141/141/141 142/142/142 140/140/140
f 142/142/142 143/143/143 140/140/140
f 143/143/143 144/144/144 140/140/140
f 144/144/144 145/145/145 140/140/140
f 144/144/144 146/146/146 145/145/145
f 145/145/145 146/146/146 147/147/147
f 145/145/145 147/147/147 148/148/148
f 147/147/147 149/149/149 148/148/148
f 149/149/149 150/150/150 148/148/148
f 151/151/151 148/148/148 150/150/150
f 152/152/152 148/148/148 151/151/151
f 153/153/153 148/148/148 152/152/152
f 153/153/153 152/152/152 154/154/154
f 155/155/155 153/153/153 154/154/154
f 155/155/155 156/156/156 153/153/153
f 157/157/157 156/156/156 155/155/155
f 158/158/158 156/156/156 157/157/157
f 159/159/159 156/156/156 158/158/158
f 160/160/160 156/156/156 159/159/159
f 161/161/161 156/156/156 160/160/160
f 161/161/161 160/160/160 162/162/162
f 163/163/163 161/161/161 162/162/162
f 163/163/163 164/164/164 161/161/161
f 165/165/165 164/164/164 163/163/163
f 166/166/166 164/164/164 165/165/165
f 167/167/167 164/164/164 166/166/166
f 168/168/168 164/164/164 167/167/167
f 169/169/169 164/164/164 168/168/168
f 169/169/169 168/168/168 170/170/170
f 171/171/171 169/169/169 170/170/170
f 171/171/171 172/172/172 169/169/169
f 173/173/173 172/172/172 171/171/171
f 174/174/174 172/172/172 173/173/173
f 175/175/175 172/172/172 174/174/174
f 175/175/175 176/176/176 172/172/172
f 176/176/176 177/177/177 172/172/172
f 177/177/177 178/178/178 172/172/172
f 177/177/177 179/179/179 178/178/178
f 178/178/178 179/179/179 180/180/180
f 178/178/178 180/180/180 181/181/181
f 182/182/182 181/181/181 180/180/180
f 183/183/183 181/181/181 182/182/182
f 181/181/181 183/183/183 184/184/184
f 184/184/184 185/185/185 181/181/181
f 185/185/185 186/186/186 181/181/181
f 185/185/185 187/187/187 186/186/186
f 186/186/186 187/187/187 188/188/188
f 186/186/186 188/188/188 189/189/189
f 190/190/190 189/189/189 188/188/188
f 191/191/191 189/189/189 190/190/190
f 192/192/192 189/189/189 191/191/191
f 193/193/193 194/194/194 195/195/195
f 194/194/194 196/196/196 195/195/195
f 194/194/194 197/197/197 196/196/196
f 198/198/198 197/197/197 194/194/194
f 198/198/198 199/199/199 197/197/197
f 200/200/200 199/199/199 198/198/198
f 200/200/200 201/201/201 199/199/199
f 200/200/200 202/202/202 201/201/201
f 200/200/200 203/203/203 202/202/202
f 204/204/204 203/203/203 200/200/200
f 205/205/205 204/204/204 200/200/200
f 206/206/206 205/205/205 200/200/200
f 206/206/206 200/200/200 207/207/207
f 208/208/208 206/206/206 207/207/207
f 208/208/208 207/207/207 209/209/209
f 209/209/209 210/210/210 208/208/208
f 209/209/209 211/211/211 210/210/210
f 212/212/212 211/211/211 209/209/209
