o Sponza_Mesh_004
v 7.318404 2.481077 3.311289
v 7.318404 2.481077 3.952420
v 7.318407 -1.909433 3.952420
v 7.318407 -1.909433 3.311289
v -8.365928 2.481077 3.311289
v -8.365928 2.481076 3.952420
v 7.318404 2.481077 3.952420
v 7.318404 2.481077 3.311289
v -8.365928 2.481077 3.311289
v -8.365928 -1.909436 3.311289
v -8.365928 -1.909436 3.952420
v -8.365928 2.481076 3.952420
v -8.365928 -1.909436 3.311289
v 7.318407 -1.909433 3.311289
v 7.318407 -1.909433 3.952420
v -8.365928 -1.909436 3.952420
v -1.973230 -1.441044 1.771902
v -2.231235 -1.441044 2.634059
v -1.973230 -1.441044 3.965517
v -1.715661 -1.441044 2.630887
v -2.705380 -1.441044 3.059744
v -1.241079 -1.441044 3.051457
v -3.478310 -1.441044 3.965517
v -3.478310 -1.441044 3.251356
v -0.508928 -1.441044 3.965517
v -4.210462 -1.441044 3.051457
v -0.508928 -1.441044 3.251356
v 0.223222 -1.441044 3.059744
v -4.942612 -1.441044 3.965517
v 0.955373 -1.441044 3.965517
v -4.740399 -1.441044 2.630887
v -4.942612 -1.441044 1.771902
v -5.255186 -1.441044 2.634059
v -5.700348 -1.441044 3.023491
v -6.440912 -1.441044 3.965517
v -6.440912 -1.441044 3.251356
v -7.173063 -1.441044 3.051457
v -7.988143 -1.441044 3.965517
v -7.647646 -1.441044 2.630887
v -7.988143 -1.441044 1.771902
v 0.697366 -1.441044 2.634059
v 0.955373 -1.441044 1.771902
v 1.267626 -1.441044 2.634059
v 1.741770 -1.441044 3.059744
v 2.473921 -1.441044 3.965517
v 2.473921 -1.441044 3.251356
v 3.206071 -1.441044 3.051457
v 3.938222 -1.441044 3.965517
v 3.680654 -1.441044 2.630887
v 3.938222 -1.441044 1.771902
v 4.196228 -1.441044 2.634059
v 4.670373 -1.441044 3.059744
v 5.402524 -1.441044 3.965517
v 5.402524 -1.441044 3.251356
v 6.134674 -1.441044 3.051457
v 6.954809 -1.441044 3.965517
v 6.609256 -1.441044 2.630887
v 6.954809 -1.441044 1.771902
v -7.988143 -1.441044 1.771902
v -7.988143 -0.955827 2.512034
v -7.988143 -1.441044 3.965517
v -7.988143 -0.486602 2.837591
v -7.988143 -0.017375 3.049305
v -7.988143 0.282750 3.965517
v -7.988143 0.282750 3.054119
v 6.954809 -1.441044 1.771902
v 6.954809 -1.441044 3.965517
v 6.954809 -0.955827 2.512034
v 6.954809 -0.486602 2.837591
v 6.954809 -0.017375 3.049305
v 6.954809 0.282750 3.965517
v 6.954809 0.282750 3.054119
v -1.973230 2.006543 1.771902
v -1.973230 2.006543 3.965517
v -2.231235 2.006543 2.634059
v -1.715661 2.006543 2.630887
v -2.705380 2.006543 3.059744
v -1.241079 2.006543 3.051457
v -3.478310 2.006543 3.965517
v -3.478310 2.006543 3.251356
v -0.508928 2.006543 3.965517
v -4.210462 2.006543 3.051457
v -0.508928 2.006543 3.251356
v 0.223222 2.006543 3.059744
v -4.942612 2.006543 3.965517
v 0.955373 2.006543 3.965517
v -4.740399 2.006543 2.630887
v -4.942612 2.006543 1.771902
v -5.255186 2.006543 2.634059
v -5.700348 2.006543 3.023491
v -6.440912 2.006543 3.965517
v -6.440912 2.006543 3.251356
v -7.173063 2.006543 3.051457
v -7.988143 2.006543 3.965517
v -7.647646 2.006543 2.630887
v -7.988143 2.006543 1.771902
v 0.697366 2.006543 2.634059
v 0.955373 2.006543 1.771902
v 1.267626 2.006543 2.634059
v 1.741770 2.006543 3.059744
v 2.473921 2.006543 3.965517
v 2.473921 2.006543 3.251356
v 3.206071 2.006543 3.051457
v 3.938222 2.006543 3.965517
v 3.680654 2.006543 2.630887
v 3.938222 2.006543 1.771902
v 4.196228 2.006543 2.634059
v 4.670373 2.006543 3.059744
v 5.402524 2.006543 3.965517
v 5.402524 2.006543 3.251356
v 6.134674 2.006543 3.051457
v 6.954809 2.006543 3.965517
v 6.609256 2.006543 2.630887
v 6.954809 2.006543 1.771902
v -7.988143 2.006543 1.771902
v -7.988143 2.006543 3.965517
v -7.988143 1.521326 2.512034
v -7.988143 1.052100 2.837591
v -7.988143 0.582874 3.049305
v -7.988143 0.282750 3.965517
v -7.988143 0.282750 3.054119
v 6.954809 2.006543 1.771902
v 6.954809 1.521326 2.512034
v 6.954809 2.006543 3.965517
v 6.954809 1.052100 2.837591
v 6.954809 0.582874 3.049305
v 6.954809 0.282750 3.965517
v 6.954809 0.282750 3.054119
vt 16.455500 0.360800
vt 16.455500 0.681900
vt 18.603100 0.681900
vt 18.603100 0.360800
vt 8.643900 0.360900
vt 8.643900 0.681900
vt 16.455500 0.681900
vt 16.455500 0.360800
vt 8.643900 0.360900
vt 6.496300 0.360900
vt 6.496300 0.681900
vt 8.643900 0.681900
vt 6.496300 0.360900
vt -1.315300 0.360900
vt -1.315300 0.681900
vt 6.496300 0.681900
vt 5.180400 -0.557200
vt 5.339700 -0.024800
vt 5.180400 0.797200
vt 5.021400 -0.026800
vt 5.632400 0.238000
vt 4.728400 0.232900
vt 6.109700 0.797200
vt 6.109700 0.356300
vt 4.276300 0.797200
vt 6.561700 0.232900
vt 4.276300 0.356300
vt 3.824300 0.238000
vt 7.013700 0.797200
vt 3.372200 0.797200
vt 6.888900 -0.026800
vt 7.013700 -0.557200
vt 7.206700 -0.024800
vt 7.481600 0.215600
vt 7.938600 0.797200
vt 7.938800 0.356300
vt 8.390700 0.232800
vt 8.856400 0.796500
vt 8.683200 -0.027000
vt 8.859400 -0.557100
vt 3.531500 -0.024800
vt 3.372200 -0.557200
vt 3.179400 -0.024800
vt 2.886700 0.238000
vt 2.434700 0.797200
vt 2.434700 0.356300
vt 1.982600 0.232900
vt 1.530600 0.797200
vt 1.689600 -0.026800
vt 1.530600 -0.557200
vt 1.371300 -0.024800
vt 1.078500 0.238000
vt 0.626500 0.797200
vt 0.626500 0.356300
vt 0.174500 0.232900
vt -0.272100 0.795400
vt -0.118600 -0.026800
vt -0.277600 -0.557200
vt 8.859400 -0.557100
vt 9.128300 -0.100200
vt 8.856400 0.796500
vt 9.418000 0.100800
vt 9.707700 0.231500
vt 9.893100 0.797200
vt 9.893100 0.234500
vt 8.828800 -0.557200
vt 8.828800 0.797200
vt 9.128300 -0.100200
vt 9.418000 0.100800
vt 9.707700 0.231500
vt 9.893100 0.797200
vt 9.893100 0.234500
vt 5.180400 -0.557200
vt 5.180400 0.797200
vt 5.339700 -0.024800
vt 5.021400 -0.026800
vt 5.632400 0.238000
vt 4.728400 0.232900
vt 6.109700 0.797200
vt 6.109700 0.356300
vt 4.276300 0.797200
vt 6.561700 0.232900
vt 4.276300 0.356300
vt 3.824300 0.238000
vt 7.013700 0.797200
vt 3.372200 0.797200
vt 6.888900 -0.026800
vt 7.013700 -0.557200
vt 7.206700 -0.024800
vt 7.481600 0.215600
vt 7.938600 0.797200
vt 7.938800 0.356300
vt 8.390700 0.232800
vt 8.855400 0.796600
vt 8.683200 -0.027000
vt 8.859400 -0.557100
vt 3.531500 -0.024800
vt 3.372200 -0.557200
vt 3.179400 -0.024800
vt 2.886700 0.238000
vt 2.434700 0.797200
vt 2.434700 0.356300
vt 1.982600 0.232900
vt 1.530600 0.797200
vt 1.689600 -0.026800
vt 1.530600 -0.557200
vt 1.371300 -0.024800
vt 1.078500 0.238000
vt 0.626500 0.797200
vt 0.626500 0.356300
vt 0.174500 0.232900
vt -0.274100 0.795000
vt -0.118600 -0.026800
vt -0.277600 -0.557200
vt 8.859400 -0.557100
vt 8.855400 0.796600
vt 9.128300 -0.100200
vt 9.418000 0.100800
vt 9.707700 0.231500
vt 9.893100 0.797200
vt 9.893100 0.234500
vt 8.828800 -0.557200
vt 9.128300 -0.100200
vt 8.828800 0.797200
vt 9.418000 0.100800
vt 9.707700 0.231500
vt 9.893100 0.797200
vt 9.893100 0.234500
vn 1.000000 0.000000 0.000000
vn 1.000000 0.000000 0.000000
vn 1.000000 0.000000 0.000000
vn 1.000000 0.000000 0.000000
vn -0.000000 1.000000 0.000000
vn -0.000000 1.000000 0.000000
vn 0.000000 1.000000 0.000000
vn 0.000000 1.000000 0.000000
vn -1.000000 0.000000 0.000000
vn -1.000000 0.000000 0.000000
vn -1.000000 0.000000 0.000000
vn -1.000000 0.000000 0.000000
vn 0.000000 -1.000000 0.000000
vn 0.000000 -1.000000 0.000000
vn 0.000000 -1.000000 0.000000
vn 0.000000 -1.000000 0.000000
vn 0.000000 1.000000 0.000000
vn 0.000000 1.000000 0.000000
vn 0.000000 1.000000 0.000000
vn 0.000000 1.000000 0.000000
vn 0.000000 1.000000 0.000000
vn 0.000000 1.000000 0.000000
vn 0.000000 1.000000 0.000000
vn 0.000000 1.000000 0.000000
vn 0.000000 1.000000 0.000000
vn 0.000000 1.000000 0.000000
vn 0.000000 1.000000 0.000000
vn 0.000000 1.000000 0.000000
vn 0.000000 1.000000 0.000000
vn 0.000000 1.000000 0.000000
vn 0.000000 1.000000 0.000000
vn 0.000000 1.000000 0.000000
vn 0.000000 1.000000 0.000000
vn 0.000000 1.000000 0.000000
vn 0.000000 1.000000 0.000000
vn 0.000000 1.000000 0.000000
vn 0.000000 1.000000 0.000000
vn 0.000000 1.000000 0.000000
vn 0.000000 1.000000 0.000000
vn 0.000000 1.000000 0.000000
vn 0.000000 1.000000 0.000000
vn 0.000000 1.000000 0.000000
vn 0.000000 1.000000 0.000000
vn 0.000000 1.000000 0.000000
vn 0.000000 1.000000 0.000000
vn 0.000000 1.000000 0.000000
vn 0.000000 1.000000 0.000000
vn 0.000000 1.000000 0.000000
vn 0.000000 1.000000 0.000000
vn 0.000000 1.000000 0.000000
vn 0.000000 1.000000 0.000000
vn 0.000000 1.000000 0.000000
vn 0.000000 1.000000 0.000000
vn 0.000000 1.000000 0.000000
vn 0.000000 1.000000 0.000000
vn 0.000000 1.000000 0.000000
vn 0.000000 1.000000 0.000000
vn 0.000000 1.000000 0.000000
vn 1.000000 0.000000 0.000000
vn 1.000000 0.000000 0.000000
vn 1.000000 0.000000 0.000000
vn 1.000000 0.000000 0.000000
vn 1.000000 0.000000 0.000000
vn 1.000000 0.000000 0.000000
vn 1.000000 0.000000 0.000000
vn -1.000000 0.000000 0.000000
vn -1.000000 0.000000 0.000000
vn -1.000000 0.000000 0.000000
vn -1.000000 0.000000 0.000000
vn -1.000000 0.000000 0.000000
vn -1.000000 0.000000 0.000000
vn -1.000000 0.000000 0.000000
vn 0.000000 -1.000000 0.000000
vn 0.000000 -1.000000 0.000000
vn 0.000000 -1.000000 0.000000
vn 0.000000 -1.000000 0.000000
vn 0.000000 -1.000000 0.000000
vn 0.000000 -1.000000 0.000000
vn 0.000000 -1.000000 0.000000
vn 0.000000 -1.000000 0.000000
vn 0.000000 -1.000000 0.000000
vn 0.000000 -1.000000 0.000000
vn 0.000000 -1.000000 0.000000
vn 0.000000 -1.000000 0.000000
vn 0.000000 -1.000000 0.000000
vn 0.000000 -1.000000 0.000000
vn 0.000000 -1.000000 0.000000
vn 0.000000 -1.000000 0.000000
vn 0.000000 -1.000000 0.000000
vn 0.000000 -1.000000 0.000000
vn 0.000000 -1.000000 0.000000
vn 0.000000 -1.000000 0.000000
vn 0.000000 -1.000000 0.000000
vn 0.000000 -1.000000 0.000000
vn 0.000000 -1.000000 0.000000
vn 0.000000 -1.000000 0.000000
vn 0.000000 -1.000000 0.000000
vn 0.000000 -1.000000 0.000000
vn 0.000000 -1.000000 0.000000
vn 0.000000 -1.000000 0.000000
vn 0.000000 -1.000000 0.000000
vn 0.000000 -1.000000 0.000000
vn 0.000000 -1.000000 0.000000
vn 0.000000 -1.000000 0.000000
vn 0.000000 -1.000000 0.000000
vn 0.000000 -1.000000 0.000000
vn 0.000000 -1.000000 0.000000
vn 0.000000 -1.000000 0.000000
vn 0.000000 -1.000000 0.000000
vn 0.000000 -1.000000 0.000000
vn 0.000000 -1.000000 0.000000
vn 0.000000 -1.000000 0.000000
vn 0.000000 -1.000000 0.000000
vn 0.000000 -1.000000 0.000000
vn 1.000000 0.000000 0.000000
vn 1.000000 0.000000 0.000000
vn 1.000000 0.000000 0.000000
vn 1.000000 0.000000 0.000000
vn 1.000000 0.000000 0.000000
vn 1.000000 0.000000 0.000000
vn 1.000000 0.000000 0.000000
vn -1.000000 0.000000 0.000000
vn -1.000000 0.000000 0.000000
vn -1.000000 0.000000 0.000000
vn -1.000000 0.000000 0.000000
vn -1.000000 0.000000 0.000000
vn -1.000000 0.000000 0.000000
vn -1.000000 0.000000 0.000000
f 1/1/1 2/2/2 3/3/3
f 1/1/1 3/3/3 4/4/4
f 5/5/5 6/6/6 7/7/7
f 5/5/5 7/7/7 8/8/8
f 9/9/9 10/10/10 11/11/11
f 9/9/9 11/11/11 12/12/12
f 13/13/13 14/14/14 15/15/15
f 13/13/13 15/15/15 16/16/16
f 17/17/17 18/18/18 19/19/19
f 17/17/17 19/19/19 20/20/20
f 18/18/18 21/21/21 19/19/19
f 20/20/20 19/19/19 22/22/22
f 21/21/21 23/23/23 19/19/19
f 21/21/21 24/24/24 23/23/23
f 22/22/22 19/19/19 25/25/25
f 26/26/26 23/23/23 24/24/24
f 22/22/22 25/25/25 27/27/27
f 28/28/28 27/27/27 25/25/25
f 26/26/26 29/29/29 23/23/23
f 28/28/28 25/25/25 30/30/30
f 31/31/31 29/29/29 26/26/26
f 32/32/32 29/29/29 31/31/31
f 32/32/32 33/33/33 29/29/29
f 33/33/33 34/34/34 29/29/29
f 34/34/34 35/35/35 29/29/29
f 34/34/34 36/36/36 35/35/35
f 37/37/37 35/35/35 36/36/36
f 37/37/37 38/38/38 35/35/35
f 39/39/39 38/38/38 37/37/37
f 40/40/40 38/38/38 39/39/39
f 41/41/41 28/28/28 30/30/30
f 42/42/42 41/41/41 30/30/30
f 42/42/42 30/30/30 43/43/43
f 43/43/43 30/30/30 44/44/44
f 44/44/44 30/30/30 45/45/45
f 44/44/44 45/45/45 46/46/46
f 47/47/47 46/46/46 45/45/45
f 47/47/47 45/45/45 48/48/48
f 49/49/49 47/47/47 48/48/48
f 50/50/50 49/49/49 48/48/48
f 50/50/50 48/48/48 51/51/51
f 51/51/51 48/48/48 52/52/52
f 52/52/52 48/48/48 53/53/53
f 52/52/52 53/53/53 54/54/54
f 55/55/55 54/54/54 53/53/53
f 55/55/55 53/53/53 56/56/56
f 57/57/57 55/55/55 56/56/56
f 58/58/58 57/57/57 56/56/56
f 59/59/59 60/60/60 61/61/61
f 60/60/60 62/62/62 61/61/61
f 62/62/62 63/63/63 61/61/61
f 63/63/63 64/64/64 61/61/61
f 63/63/63 65/65/65 64/64/64
f 66/66/66 67/67/67 68/68/68
f 68/68/68 67/67/67 69/69/69
f 69/69/69 67/67/67 70/70/70
f 70/70/70 67/67/67 71/71/71
f 70/70/70 71/71/71 72/72/72
f 73/73/73 74/74/74 75/75/75
f 73/73/73 76/76/76 74/74/74
f 75/75/75 74/74/74 77/77/77
f 76/76/76 78/78/78 74/74/74
f 77/77/77 74/74/74 79/79/79
f 77/77/77 79/79/79 80/80/80
f 78/78/78 81/81/81 74/74/74
f 82/82/82 80/80/80 79/79/79
f 78/78/78 83/83/83 81/81/81
f 84/84/84 81/81/81 83/83/83
f 82/82/82 79/79/79 85/85/85
f 84/84/84 86/86/86 81/81/81
f 87/87/87 82/82/82 85/85/85
f 88/88/88 87/87/87 85/85/85
f 88/88/88 85/85/85 89/89/89
f 89/89/89 85/85/85 90/90/90
f 90/90/90 85/85/85 91/91/91
f 90/90/90 91/91/91 92/92/92
f 93/93/93 92/92/92 91/91/91
f 93/93/93 91/91/91 94/94/94
f 95/95/95 93/93/93 94/94/94
f 96/96/96 95/95/95 94/94/94
f 97/97/97 86/86/86 84/84/84
f 98/98/98 86/86/86 97/97/97
f 98/98/98 99/99/99 86/86/86
f 99/99/99 100/100/100 86/86/86
f 100/100/100 101/101/101 86/86/86
f 100/100/100 102/102/102 101/101/101
f 103/103/103 101/101/101 102/102/102
f 103/103/103 104/104/104 101/101/101
f 105/105/105 104/104/104 103/103/103
f 106/106/106 104/104/104 105/105/105
f 106/106/106 107/107/107 104/104/104
f 107/107/107 108/108/108 104/104/104
f 108/108/108 109/109/109 104/104/104
f 108/108/108 110/110/110 109/109/109
f 111/111/111 109/109/109 110/110/110
f 111/111/111 112/112/112 109/109/109
f 113/113/113 112/112/112 111/111/111
f 114/114/114 112/112/112 113/113/113
f 115/115/115 116/116/116 117/117/117
f 117/117/117 116/116/116 118/118/118
f 118/118/118 116/116/116 119/119/119
f 119/119/119 116/116/116 120/120/120
f 119/119/119 120/120/120 121/121/121
f 122/122/122 123/123/123 124/124/124
f 123/123/123 125/125/125 124/124/124
f 125/125/125 126/126/126 124/124/124
f 126/126/126 127/127/127 124/124/124
f 126/126/126 128/128/128 127/127/127
