o Sponza_Mesh_027
v 4.057715 -1.458167 10.091897
v 4.057714 -1.582144 10.091897
v 4.027591 -1.582144 10.083829
v 4.087835 -1.458167 10.083829
v 4.027591 -1.458167 10.083829
v 4.087835 -1.582144 10.083829
v 4.005545 -1.582144 10.061783
v 4.109882 -1.458167 10.061783
v 4.005545 -1.458167 10.061783
v 4.109882 -1.582144 10.061783
v 3.997475 -1.582144 10.031667
v 4.117950 -1.458167 10.031667
v 3.997475 -1.458167 10.031667
v 4.117950 -1.582144 10.031667
v 4.002769 -1.582144 10.011912
v 4.002769 -1.458167 10.011912
v 4.112657 -1.458167 10.011912
v 4.112657 -1.582144 10.011912
v 3.952899 -1.458167 10.009135
v 3.952899 -1.582144 10.009135
v 3.930853 -1.582144 9.987090
v 3.983014 -1.458167 10.017206
v 3.930853 -1.458167 9.987090
v 3.983014 -1.582144 10.017206
v 4.002769 -1.458167 10.011912
v 4.002769 -1.582144 10.011912
v 3.923087 -1.582144 9.958110
v 3.923087 -1.458167 9.958110
v 3.930853 -1.582144 9.929130
v 3.930853 -1.458167 9.929130
v 3.952899 -1.582144 9.907084
v 3.952899 -1.458167 9.907084
v 3.983014 -1.582144 9.899015
v 3.983014 -1.458167 9.899015
v 4.002769 -1.582144 9.904309
v 4.002769 -1.458167 9.904309
v 4.192339 -1.458167 9.958110
v 4.192339 -1.582144 9.958110
v 4.184574 -1.582144 9.987090
v 4.184574 -1.458167 9.929130
v 4.184574 -1.458167 9.987090
v 4.184574 -1.582144 9.929130
v 4.162528 -1.582144 10.009135
v 4.162528 -1.458167 9.907084
v 4.162528 -1.458167 10.009135
v 4.162528 -1.582144 9.907084
v 4.132413 -1.582144 10.017206
v 4.132413 -1.458167 9.899015
v 4.132413 -1.458167 10.017206
v 4.132413 -1.582144 9.899015
v 4.112657 -1.582144 10.011912
v 4.112657 -1.458167 10.011912
v 4.112657 -1.458167 9.904309
v 4.112657 -1.582144 9.904309
v 4.027591 -1.458167 9.832392
v 4.027591 -1.582144 9.832392
v 4.057714 -1.582144 9.824324
v 4.005545 -1.458167 9.854438
v 4.057714 -1.458167 9.824324
v 4.005545 -1.582144 9.854438
v 3.997475 -1.458167 9.884553
v 3.997475 -1.582144 9.884553
v 4.087835 -1.582143 9.832392
v 4.087835 -1.458167 9.832392
v 4.109882 -1.582144 9.854438
v 4.109882 -1.458167 9.854438
v 4.117950 -1.582144 9.884553
v 4.117950 -1.458167 9.884553
v 4.112657 -1.582144 9.904309
v 4.112657 -1.458167 9.904309
v 4.002769 -1.458167 9.904309
v 4.002769 -1.582144 9.904309
v 3.997475 -1.582144 9.884553
v 3.997475 -1.458167 9.884553
v 4.162528 -1.458167 9.907084
v 4.184574 -1.458167 9.929130
v 4.191178 -1.458167 9.909708
v 4.161172 -1.458167 9.860644
v 4.199210 -1.458167 9.966655
v 4.192339 -1.458167 9.958110
v 4.184574 -1.458167 9.987090
v 4.185953 -1.458167 10.018018
v 4.162528 -1.458167 10.009135
v 4.154736 -1.458167 10.060905
v 4.132413 -1.458167 10.017206
v 4.132413 -1.458167 9.899015
v 4.109931 -1.458167 10.089305
v 4.114137 -1.458167 9.827550
v 4.109882 -1.458167 10.061783
v 4.117950 -1.458167 10.031667
v 4.112657 -1.458167 10.011912
v 4.087835 -1.458167 10.083829
v 4.057823 -1.458167 10.099235
v 4.057715 -1.458167 10.091897
v 4.027591 -1.458167 10.083829
v 4.005715 -1.458167 10.089305
v 4.005545 -1.458167 10.061783
v 3.960911 -1.458167 10.060905
v 3.997475 -1.458167 10.031667
v 3.929693 -1.458167 10.018018
v 3.952899 -1.458167 10.009135
v 3.983014 -1.458167 10.017206
v 4.002769 -1.458167 10.011912
v 3.930853 -1.458167 9.987090
v 3.916436 -1.458167 9.966655
v 3.923087 -1.458167 9.958110
v 3.930853 -1.458167 9.929130
v 3.924468 -1.458167 9.909708
v 3.952899 -1.458167 9.907084
v 3.954475 -1.458167 9.860644
v 3.983014 -1.458167 9.899015
v 4.001509 -1.458167 9.827549
v 4.005545 -1.458167 9.854438
v 3.997475 -1.458167 9.884553
v 4.002769 -1.458167 9.904309
v 4.027591 -1.458167 9.832392
v 4.057823 -1.458167 9.815877
v 4.057714 -1.458167 9.824324
v 4.087835 -1.458167 9.832392
v 4.109882 -1.458167 9.854438
v 4.117950 -1.458167 9.884553
v 4.112657 -1.458167 9.904309
vt 0.955100 0.594800
vt 0.815900 0.594800
vt 0.815900 0.628600
vt 0.955100 0.560900
vt 0.955100 0.628600
vt 0.815900 0.560900
vt 0.815900 0.653300
vt 0.955100 0.536200
vt 0.955100 0.653300
vt 0.815900 0.536200
vt 0.815900 0.687100
vt 0.955100 0.502400
vt 0.955100 0.687100
vt 0.815900 0.502400
vt 0.815900 0.709300
vt 0.955100 0.709300
vt 0.955100 0.480200
vt 0.815900 0.480200
vt 0.955100 0.762600
vt 0.815900 0.762600
vt 0.815900 0.797600
vt 0.955100 0.732300
vt 0.955100 0.797600
vt 0.815900 0.732300
vt 0.955100 0.709300
vt 0.815900 0.709300
vt 0.815900 0.826800
vt 0.955100 0.826800
vt 0.815900 0.856000
vt 0.955100 0.856000
vt 0.815900 0.891000
vt 0.955100 0.891000
vt 0.815900 0.921300
vt 0.955100 0.921300
vt 0.815900 0.944200
vt 0.955100 0.944200
vt 0.955100 0.361300
vt 0.815900 0.361300
vt 0.815900 0.395000
vt 0.955100 0.332100
vt 0.955100 0.395000
vt 0.815900 0.332100
vt 0.815900 0.425300
vt 0.955100 0.297100
vt 0.955100 0.425300
vt 0.815900 0.297100
vt 0.815900 0.460300
vt 0.955100 0.266800
vt 0.955100 0.460300
vt 0.815900 0.266800
vt 0.815900 0.480200
vt 0.955100 0.480200
vt 0.955100 0.243800
vt 0.815900 0.243800
vt 0.955100 0.087900
vt 0.815900 0.087900
vt 0.815900 0.121700
vt 0.955100 0.052900
vt 0.955100 0.121700
vt 0.815900 0.052900
vt 0.955100 0.022600
vt 0.815900 0.022600
vt 0.815900 0.155600
vt 0.955100 0.155600
vt 0.815900 0.190600
vt 0.955100 0.190600
vt 0.815900 0.220900
vt 0.955100 0.220900
vt 0.815900 0.243800
vt 0.955100 0.243800
vt 0.955100 0.944200
vt 0.815900 0.944200
vt 0.815900 0.967200
vt 0.955100 0.967200
vt 0.580400 0.603600
vt 0.546000 0.597600
vt 0.552400 0.619700
vt 0.611700 0.645400
vt 0.508300 0.572600
vt 0.520100 0.576000
vt 0.508500 0.544300
vt 0.487300 0.516800
vt 0.514600 0.509800
vt 0.488300 0.457300
vt 0.537000 0.483000
vt 0.613300 0.591600
vt 0.511100 0.402200
vt 0.676200 0.645400
vt 0.528900 0.427500
vt 0.541000 0.460400
vt 0.558600 0.475100
vt 0.534900 0.393000
vt 0.552600 0.359500
vt 0.557400 0.366200
vt 0.590300 0.354100
vt 0.606800 0.335000
vt 0.624800 0.360100
vt 0.666300 0.332100
vt 0.651600 0.382600
vt 0.722700 0.351400
vt 0.707100 0.374500
vt 0.674200 0.386500
vt 0.659500 0.404200
vt 0.741600 0.380500
vt 0.768000 0.390000
vt 0.767400 0.402100
vt 0.779000 0.433800
vt 0.797400 0.447500
vt 0.773000 0.468200
vt 0.801500 0.511900
vt 0.750600 0.495100
vt 0.779700 0.572700
vt 0.758600 0.550600
vt 0.746600 0.517700
vt 0.729000 0.503000
vt 0.752600 0.585100
vt 0.735500 0.619800
vt 0.730200 0.611900
vt 0.697300 0.624000
vt 0.662800 0.618000
vt 0.635900 0.595500
vt 0.628000 0.573900
vn -0.000000 0.000000 -1.000000
vn -0.000000 0.000000 -1.000000
vn 0.499968 0.000000 -0.866044
vn -0.500011 0.000000 -0.866019
vn 0.499968 0.000000 -0.866044
vn -0.499968 0.000000 -0.866044
vn 0.866019 0.000000 -0.500011
vn -0.866019 0.000000 -0.500011
vn 0.866019 0.000000 -0.500011
vn -0.866019 0.000000 -0.500011
vn 1.000000 0.000000 -0.000000
vn -1.000000 0.000000 0.000000
vn 1.000000 0.000000 -0.000000
vn -1.000000 0.000000 0.000000
vn 0.965929 0.000000 0.258808
vn 0.965929 0.000000 0.258808
vn -0.965929 0.000000 0.258808
vn -0.965929 0.000000 0.258808
vn 0.500011 0.000000 -0.866019
vn 0.500011 0.000000 -0.866019
vn 0.866019 0.000000 -0.500011
vn -0.000000 0.000000 -1.000000
vn 0.866019 0.000000 -0.500011
vn -0.000000 0.000000 -1.000000
vn -0.258808 0.000000 -0.965929
vn -0.258808 0.000000 -0.965929
vn 1.000000 0.000000 0.000000
vn 1.000000 0.000000 0.000000
vn 0.866019 0.000000 0.500011
vn 0.866019 0.000000 0.500011
vn 0.500011 0.000000 0.866019
vn 0.500011 0.000000 0.866019
vn -0.000000 0.000000 1.000000
vn -0.000000 0.000000 1.000000
vn -0.258808 0.000000 0.965929
vn -0.258808 0.000000 0.965929
vn -1.000000 0.000000 -0.000000
vn -1.000000 0.000000 0.000000
vn -0.866019 0.000000 -0.500011
vn -0.866019 0.000000 0.500011
vn -0.866019 0.000000 -0.500011
vn -0.866019 0.000000 0.500011
vn -0.500011 0.000000 -0.866019
vn -0.500011 0.000000 0.866019
vn -0.500011 0.000000 -0.866019
vn -0.500011 0.000000 0.866019
vn -0.000000 0.000000 -1.000000
vn -0.000000 0.000000 1.000000
vn -0.000000 0.000000 -1.000000
vn -0.000000 0.000000 1.000000
vn 0.258808 0.000000 -0.965929
vn 0.258808 0.000000 -0.965929
vn 0.258808 0.000000 0.965929
vn 0.258808 0.000000 0.965929
vn 0.500011 0.000000 0.866019
vn 0.500011 0.000000 0.866019
vn -0.000000 0.000000 1.000000
vn 0.866019 0.000000 0.500011
vn -0.000000 0.000000 1.000000
vn 0.866019 0.000000 0.500011
vn 1.000000 0.000000 -0.000000
vn 1.000000 0.000000 -0.000000
vn -0.500011 0.000000 0.866019
vn -0.500011 0.000000 0.866019
vn -0.866019 0.000000 0.500011
vn -0.866019 0.000000 0.500011
vn -1.000000 0.000000 -0.000000
vn -1.000000 0.000000 -0.000000
vn -0.965929 0.000000 -0.258808
vn -0.965929 0.000000 -0.258808
vn 0.965929 0.000000 -0.258808
vn 0.965929 0.000000 -0.258808
vn 1.000000 0.000000 -0.000000
vn 1.000000 0.000000 -0.000000
vn 0.000000 1.000000 0.000000
vn 0.000000 1.000000 0.000000
vn 0.000000 1.000000 0.000000
vn 0.000000 1.000000 0.000000
vn 0.000000 1.000000 0.000000
vn 0.000000 1.000000 0.000000
vn 0.000000 1.000000 0.000000
vn 0.000000 1.000000 0.000000
vn 0.000000 1.000000 0.000000
vn 0.000000 1.000000 0.000000
vn 0.000000 1.000000 0.000000
vn 0.000000 1.000000 0.000000
vn 0.000000 1.000000 0.000000
vn 0.000000 1.000000 0.000000
vn 0.000000 1.000000 0.000000
vn 0.000000 1.000000 0.000000
vn 0.000000 1.000000 0.000000
vn 0.000000 1.000000 0.000000
vn 0.000000 1.000000 0.000000
vn 0.000000 1.000000 0.000000
vn 0.000000 1.000000 0.000000
vn 0.000000 1.000000 0.000000
vn 0.000000 1.000000 0.000000
vn 0.000000 1.000000 0.000000
vn 0.000000 1.000000 0.000000
vn 0.000000 1.000000 0.000000
vn 0.000000 1.000000 0.000000
vn 0.000000 1.000000 0.000000
vn 0.000000 1.000000 0.000000
vn 0.000000 1.000000 0.000000
vn 0.000000 1.000000 0.000000
vn 0.000000 1.000000 0.000000
vn 0.000000 1.000000 0.000000
vn 0.000000 1.000000 0.000000
vn 0.000000 1.000000 0.000000
vn 0.000000 1.000000 0.000000
vn 0.000000 1.000000 0.000000
vn 0.000000 1.000000 0.000000
vn 0.000000 1.000000 0.000000
vn 0.000000 1.000000 0.000000
vn 0.000000 1.000000 0.000000
vn 0.000000 1.000000 0.000000
vn 0.000000 1.000000 0.000000
vn 0.000000 1.000000 0.000000
vn 0.000000 1.000000 0.000000
vn 0.000000 1.000000 0.000000
vn 0.000000 1.000000 0.000000
vn 0.000000 1.000000 0.000000
f 1/1/1 2/2/2 3/3/3
f 4/4/4 2/2/2 1/1/1
f 1/1/1 3/3/3 5/5/5
f 4/4/4 6/6/6 2/2/2
f 5/5/5 3/3/3 7/7/7
f 8/8/8 6/6/6 4/4/4
f 5/5/5 7/7/7 9/9/9
f 8/8/8 10/10/10 6/6/6
f 9/9/9 7/7/7 11/11/11
f 12/12/12 10/10/10 8/8/8
f 9/9/9 11/11/11 13/13/13
f 12/12/12 14/14/14 10/10/10
f 13/13/13 11/11/11 15/15/15
f 13/13/13 15/15/15 16/16/16
f 17/17/17 14/14/14 12/12/12
f 17/17/17 18/18/18 14/14/14
f 19/19/19 20/20/20 21/21/21
f 22/22/22 20/20/20 19/19/19
f 19/19/19 21/21/21 23/23/23
f 22/22/22 24/24/24 20/20/20
f 25/25/25 24/24/24 22/22/22
f 25/25/25 26/26/26 24/24/24
f 23/23/23 21/21/21 27/27/27
f 23/23/23 27/27/27 28/28/28
f 28/28/28 27/27/27 29/29/29
f 28/28/28 29/29/29 30/30/30
f 30/30/30 29/29/29 31/31/31
f 30/30/30 31/31/31 32/32/32
f 32/32/32 31/31/31 33/33/33
f 32/32/32 33/33/33 34/34/34
f 34/34/34 33/33/33 35/35/35
f 34/34/34 35/35/35 36/36/36
f 37/37/37 38/38/38 39/39/39
f 40/40/40 38/38/38 37/37/37
f 37/37/37 39/39/39 41/41/41
f 40/40/40 42/42/42 38/38/38
f 41/41/41 39/39/39 43/43/43
f 44/44/44 42/42/42 40/40/40
f 41/41/41 43/43/43 45/45/45
f 44/44/44 46/46/46 42/42/42
f 45/45/45 43/43/43 47/47/47
f 48/48/48 46/46/46 44/44/44
f 45/45/45 47/47/47 49/49/49
f 48/48/48 50/50/50 46/46/46
f 49/49/49 47/47/47 51/51/51
f 49/49/49 51/51/51 52/52/52
f 53/53/53 50/50/50 48/48/48
f 53/53/53 54/54/54 50/50/50
f 55/55/55 56/56/56 57/57/57
f 58/58/58 56/56/56 55/55/55
f 55/55/55 57/57/57 59/59/59
f 58/58/58 60/60/60 56/56/56
f 61/61/61 60/60/60 58/58/58
f 61/61/61 62/62/62 60/60/60
f 59/59/59 57/57/57 63/63/63
f 59/59/59 63/63/63 64/64/64
f 64/64/64 63/63/63 65/65/65
f 64/64/64 65/65/65 66/66/66
f 66/66/66 65/65/65 67/67/67
f 66/66/66 67/67/67 68/68/68
f 68/68/68 67/67/67 69/69/69
f 68/68/68 69/69/69 70/70/70
f 71/71/71 72/72/72 73/73/73
f 71/71/71 73/73/73 74/74/74
f 75/75/75 76/76/76 77/77/77
f 75/75/75 77/77/77 78/78/78
f 76/76/76 79/79/79 77/77/77
f 76/76/76 80/80/80 79/79/79
f 79/79/79 80/80/80 81/81/81
f 79/79/79 81/81/81 82/82/82
f 82/82/82 81/81/81 83/83/83
f 82/82/82 83/83/83 84/84/84
f 84/84/84 83/83/83 85/85/85
f 86/86/86 75/75/75 78/78/78
f 84/84/84 85/85/85 87/87/87
f 86/86/86 78/78/78 88/88/88
f 85/85/85 89/89/89 87/87/87
f 85/85/85 90/90/90 89/89/89
f 91/91/91 90/90/90 85/85/85
f 87/87/87 89/89/89 92/92/92
f 87/87/87 92/92/92 93/93/93
f 92/92/92 94/94/94 93/93/93
f 95/95/95 93/93/93 94/94/94
f 95/95/95 96/96/96 93/93/93
f 96/96/96 95/95/95 97/97/97
f 96/96/96 97/97/97 98/98/98
f 98/98/98 97/97/97 99/99/99
f 98/98/98 99/99/99 100/100/100
f 99/99/99 101/101/101 100/100/100
f 99/99/99 102/102/102 101/101/101
f 99/99/99 103/103/103 102/102/102
f 101/101/101 104/104/104 100/100/100
f 104/104/104 105/105/105 100/100/100
f 104/104/104 106/106/106 105/105/105
f 105/105/105 106/106/106 107/107/107
f 105/105/105 107/107/107 108/108/108
f 108/108/108 107/107/107 109/109/109
f 108/108/108 109/109/109 110/110/110
f 110/110/110 109/109/109 111/111/111
f 110/110/110 111/111/111 112/112/112
f 111/111/111 113/113/113 112/112/112
f 111/111/111 114/114/114 113/113/113
f 115/115/115 114/114/114 111/111/111
f 116/116/116 112/112/112 113/113/113
f 116/116/116 117/117/117 112/112/112
f 116/116/116 118/118/118 117/117/117
f 117/117/117 118/118/118 119/119/119
f 117/117/117 119/119/119 88/88/88
f 119/119/119 120/120/120 88/88/88
f 120/120/120 86/86/86 88/88/88
f 120/120/120 121/121/121 86/86/86
f 121/121/121 122/122/122 86/86/86
