o Sponza_Mesh_030
v -2.116791 -1.397127 9.804216
v -2.116791 -1.383858 9.765716
v -2.193042 -1.383858 9.781522
v -2.116791 -1.355496 9.727213
v -2.208347 -1.355496 9.746191
v -2.177739 -1.397127 9.816850
v -2.116791 -1.413252 9.815877
v -2.256731 -1.383858 9.826332
v -2.284817 -1.355496 9.799997
v -2.173105 -1.413252 9.827550
v -2.116791 -1.519428 9.815877
v -2.173103 -1.519428 9.827550
v -2.228646 -1.397127 9.852668
v -2.220139 -1.413252 9.860645
v -2.220139 -1.519428 9.860645
v -2.297359 -1.383858 9.892766
v -2.333600 -1.355496 9.879763
v -2.261121 -1.397127 9.905769
v -2.250145 -1.413252 9.909708
v -2.250145 -1.519428 9.909708
v -2.308235 -1.383858 9.969876
v -2.346659 -1.355496 9.972349
v -2.269798 -1.397133 9.967403
v -2.258177 -1.413252 9.966655
v -2.258177 -1.519428 9.966655
v -2.290285 -1.383858 10.039424
v -2.325106 -1.355496 10.055856
v -2.255438 -1.397138 10.022981
v -2.244921 -1.413252 10.018018
v -2.244921 -1.519428 10.018018
v -2.248014 -1.383858 10.097497
v -2.274351 -1.355496 10.125583
v -2.221656 -1.397138 10.069388
v -2.213703 -1.413252 10.060906
v -2.213703 -1.519428 10.060906
v -2.187348 -1.383858 10.135952
v -2.201509 -1.355496 10.171755
v -2.116791 -1.383858 10.149398
v -2.116791 -1.355496 10.187901
v -2.173176 -1.397138 10.100119
v -2.116791 -1.397138 10.110864
v -2.168899 -1.413252 10.089305
v -2.116791 -1.413252 10.099236
v -2.168899 -1.519428 10.089305
v -2.116791 -1.519428 10.099236
v -2.346659 -1.355496 9.972349
v -2.333600 -1.355496 9.879763
v -2.333600 -1.519428 9.879763
v -2.346659 -1.519428 9.972349
v -2.284817 -1.519428 9.799997
v -2.325106 -1.355496 10.055856
v -2.284817 -1.355496 9.799997
v -2.325106 -1.519428 10.055856
v -2.208347 -1.519428 9.746191
v -2.274351 -1.355496 10.125583
v -2.208347 -1.355496 9.746191
v -2.116791 -1.519428 9.727213
v -2.116791 -1.355496 9.727213
v -2.274351 -1.519428 10.125583
v -2.201509 -1.355496 10.171755
v -2.201509 -1.519428 10.171755
v -2.116791 -1.355496 10.187901
v -2.116791 -1.519428 10.187901
v -2.055842 -1.397127 9.816850
v -2.040539 -1.383858 9.781522
v -2.116791 -1.383858 9.765716
v -2.025234 -1.355496 9.746191
v -2.116791 -1.355496 9.727213
v -1.948765 -1.355496 9.799997
v -2.116791 -1.397127 9.804216
v -1.976850 -1.383858 9.826332
v -1.899981 -1.355496 9.879763
v -2.060477 -1.413252 9.827551
v -2.116791 -1.413252 9.815877
v -2.116791 -1.519428 9.815877
v -2.060477 -1.519428 9.827551
v -2.013442 -1.413252 9.860645
v -2.013442 -1.519428 9.860645
v -2.004935 -1.397127 9.852668
v -1.983436 -1.413252 9.909708
v -1.983436 -1.519428 9.909708
v -1.975404 -1.519428 9.966655
v -1.936222 -1.383858 9.892766
v -1.972460 -1.397127 9.905770
v -1.925346 -1.383858 9.969876
v -1.886922 -1.355496 9.972349
v -1.908474 -1.355496 10.055856
v -1.975404 -1.413252 9.966655
v -1.963783 -1.397133 9.967403
v -1.943295 -1.383858 10.039424
v -1.959230 -1.355496 10.125583
v -1.978143 -1.397138 10.022981
v -1.988660 -1.413252 10.018018
v -1.988660 -1.519428 10.018018
v -1.985567 -1.383858 10.097497
v -2.032072 -1.355496 10.171755
v -2.019879 -1.413252 10.060906
v -2.019879 -1.519428 10.060906
v -2.011924 -1.397138 10.069388
v -2.064682 -1.413252 10.089305
v -2.064682 -1.519428 10.089305
v -2.116791 -1.519428 10.099236
v -2.116791 -1.413252 10.099236
v -2.060406 -1.397138 10.100119
v -2.116791 -1.397138 10.110864
v -2.116791 -1.383858 10.149398
v -2.116791 -1.355496 10.187901
v -2.046233 -1.383858 10.135952
v -1.899981 -1.519428 9.879763
v -1.899981 -1.355496 9.879763
v -1.886922 -1.355496 9.972349
v -1.948765 -1.355496 9.799997
v -1.886922 -1.519428 9.972349
v -1.948765 -1.519428 9.799997
v -1.908474 -1.519428 10.055856
v -2.025234 -1.355496 9.746191
v -1.908474 -1.355496 10.055856
v -2.025234 -1.519428 9.746191
v -2.116791 -1.355496 9.727213
v -2.116791 -1.519428 9.727213
v -1.959230 -1.519428 10.125583
v -1.959230 -1.355496 10.125583
v -2.032072 -1.519428 10.171755
v -2.032072 -1.355496 10.171755
v -2.116791 -1.355496 10.187901
v -2.116791 -1.519428 10.187901
vt 0.003300 0.162100
vt 0.003300 0.187800
vt 0.127500 0.187800
vt 0.003300 0.216900
vt 0.127500 0.216900
vt 0.127500 0.162100
vt 0.003300 0.145100
vt 0.251600 0.187800
vt 0.251600 0.216900
vt 0.127500 0.145100
vt 0.003300 0.063800
vt 0.127500 0.063800
vt 0.251600 0.162100
vt 0.251600 0.145100
vt 0.251600 0.063800
vt 0.375800 0.187800
vt 0.375800 0.216900
vt 0.375800 0.162100
vt 0.375800 0.145100
vt 0.375800 0.063800
vt 0.499900 0.187800
vt 0.499900 0.216900
vt 0.499900 0.162100
vt 0.499900 0.145100
vt 0.499900 0.063800
vt 0.614300 0.187800
vt 0.614300 0.216900
vt 0.614300 0.162100
vt 0.614300 0.145100
vt 0.614300 0.063800
vt 0.728700 0.187800
vt 0.728700 0.216900
vt 0.728700 0.162100
vt 0.728700 0.145100
vt 0.728700 0.063800
vt 0.843100 0.187800
vt 0.843100 0.216900
vt 0.957500 0.187800
vt 0.957500 0.216900
vt 0.843100 0.162100
vt 0.957500 0.162100
vt 0.843100 0.145100
vt 0.957500 0.145100
vt 0.843100 0.063800
vt 0.957500 0.063800
vt 0.499900 0.216900
vt 0.375800 0.216900
vt 0.375800 0.326300
vt 0.499900 0.326300
vt 0.251600 0.326300
vt 0.614300 0.216900
vt 0.251600 0.216900
vt 0.614300 0.326300
vt 0.127500 0.326300
vt 0.728700 0.216900
vt 0.127500 0.216900
vt 0.003300 0.326300
vt 0.003300 0.216900
vt 0.728700 0.326300
vt 0.843100 0.216900
vt 0.843100 0.326300
vt 0.957500 0.216900
vt 0.957500 0.326300
vt 0.127500 0.162100
vt 0.127500 0.187800
vt 0.003300 0.187800
vt 0.127500 0.216900
vt 0.003300 0.216900
vt 0.251600 0.216900
vt 0.003300 0.162100
vt 0.251600 0.187800
vt 0.375800 0.216900
vt 0.127500 0.145100
vt 0.003300 0.145100
vt 0.003300 0.063800
vt 0.127500 0.063800
vt 0.251600 0.145100
vt 0.251600 0.063800
vt 0.251600 0.162100
vt 0.375800 0.145100
vt 0.375800 0.063800
vt 0.499900 0.063800
vt 0.375800 0.187800
vt 0.375800 0.162100
vt 0.499900 0.187800
vt 0.499900 0.216900
vt 0.614300 0.216900
vt 0.499900 0.145100
vt 0.499900 0.162100
vt 0.614300 0.187800
vt 0.728700 0.216900
vt 0.614300 0.162100
vt 0.614300 0.145100
vt 0.614300 0.063800
vt 0.728700 0.187800
vt 0.843100 0.216900
vt 0.728700 0.145100
vt 0.728700 0.063800
vt 0.728700 0.162100
vt 0.843100 0.145100
vt 0.843100 0.063800
vt 0.957500 0.063800
vt 0.957500 0.145100
vt 0.843100 0.162100
vt 0.957500 0.162100
vt 0.957500 0.187800
vt 0.957500 0.216900
vt 0.843100 0.187800
vt 0.375800 0.326300
vt 0.375800 0.216900
vt 0.499900 0.216900
vt 0.251600 0.216900
vt 0.499900 0.326300
vt 0.251600 0.326300
vt 0.614300 0.326300
vt 0.127500 0.216900
vt 0.614300 0.216900
vt 0.127500 0.326300
vt 0.003300 0.216900
vt 0.003300 0.326300
vt 0.728700 0.326300
vt 0.728700 0.216900
vt 0.843100 0.326300
vt 0.843100 0.216900
vt 0.957500 0.216900
vt 0.957500 0.326300
vn 0.000000 0.822073 0.569382
vn 0.000000 0.877318 0.479910
vn 0.190711 0.877350 0.440325
vn 0.000000 0.805119 0.593114
vn 0.235712 0.805143 0.544229
vn 0.226293 0.822073 0.522483
vn -0.000000 0.320305 0.947315
vn 0.350110 0.877326 0.328210
vn 0.432617 0.805132 0.405716
vn 0.376495 0.320296 0.869288
vn -0.000000 0.000000 1.000000
vn 0.397501 0.000000 0.917602
vn 0.415293 0.822087 0.389494
vn 0.691008 0.320304 0.648007
vn 0.729490 0.000000 0.683991
vn 0.451708 0.877316 0.162103
vn 0.558230 0.805143 0.200311
vn 0.535896 0.822093 0.192298
vn 0.891675 0.320291 0.319891
vn 0.941248 0.000000 0.337717
vn 0.478611 0.877621 -0.026701
vn 0.592128 0.805139 -0.033702
vn 0.569712 0.821217 -0.032101
vn 0.946103 0.319501 -0.053000
vn 0.998419 0.000000 -0.056201
vn 0.432895 0.877989 -0.204297
vn 0.536408 0.805112 -0.253104
vn 0.517207 0.820311 -0.244103
vn 0.857181 0.318793 -0.404491
vn 0.904395 0.000000 -0.426697
vn 0.327487 0.877965 -0.349186
vn 0.405716 0.805132 -0.432617
vn 0.391203 0.820306 -0.417203
vn 0.648313 0.318806 -0.691414
vn 0.683991 0.000000 -0.729490
vn 0.176091 0.877957 -0.445178
vn 0.218110 0.805138 -0.551526
vn 0.000000 0.877984 -0.478691
vn 0.000000 0.805119 -0.593114
vn 0.210307 0.820329 -0.531819
vn 0.000000 0.820316 -0.571911
vn 0.348596 0.318797 -0.881391
vn 0.000000 0.318807 -0.947820
vn 0.367802 0.000000 -0.929904
vn 0.000000 0.000000 -1.000000
vn -0.998419 0.000000 0.056201
vn -0.941248 0.000000 -0.337717
vn -0.941248 0.000000 -0.337717
vn -0.998419 0.000000 0.056201
vn -0.729490 0.000000 -0.683991
vn -0.904395 0.000000 0.426697
vn -0.729490 0.000000 -0.683991
vn -0.904395 0.000000 0.426697
vn -0.397501 0.000000 -0.917602
vn -0.683991 0.000000 0.729490
vn -0.397501 0.000000 -0.917602
vn -0.000000 0.000000 -1.000000
vn -0.000000 0.000000 -1.000000
vn -0.683991 0.000000 0.729490
vn -0.367802 0.000000 0.929904
vn -0.367802 0.000000 0.929904
vn -0.000000 0.000000 1.000000
vn -0.000000 0.000000 1.000000
vn -0.226293 0.822073 0.522483
vn -0.190711 0.877350 0.440325
vn 0.000000 0.877318 0.479910
vn -0.235712 0.805143 0.544229
vn 0.000000 0.805119 0.593114
vn -0.432617 0.805132 0.405716
vn 0.000000 0.822073 0.569382
vn -0.350099 0.877297 0.328299
vn -0.558230 0.805143 0.200311
vn -0.376495 0.320296 0.869288
vn -0.000000 0.320305 0.947315
vn -0.000000 0.000000 1.000000
vn -0.397501 0.000000 0.917602
vn -0.691008 0.320304 0.648007
vn -0.729490 0.000000 0.683991
vn -0.415293 0.822087 0.389494
vn -0.891675 0.320291 0.319891
vn -0.941248 0.000000 0.337717
vn -0.998419 0.000000 -0.056201
vn -0.451708 0.877316 0.162103
vn -0.535896 0.822093 0.192298
vn -0.478611 0.877621 -0.026701
vn -0.592128 0.805139 -0.033702
vn -0.536408 0.805112 -0.253104
vn -0.946072 0.319591 -0.052998
vn -0.569780 0.821170 -0.032099
vn -0.432895 0.877989 -0.204297
vn -0.405716 0.805132 -0.432617
vn -0.517207 0.820311 -0.244103
vn -0.857181 0.318793 -0.404491
vn -0.904395 0.000000 -0.426697
vn -0.327487 0.877965 -0.349186
vn -0.218110 0.805138 -0.551526
vn -0.648313 0.318806 -0.691414
vn -0.683991 0.000000 -0.729490
vn -0.391203 0.820306 -0.417203
vn -0.348596 0.318797 -0.881391
vn -0.367802 0.000000 -0.929904
vn 0.000000 0.000000 -1.000000
vn 0.000000 0.318807 -0.947820
vn -0.210307 0.820329 -0.531819
vn 0.000000 0.820316 -0.571911
vn 0.000000 0.877984 -0.478691
vn 0.000000 0.805119 -0.593114
vn -0.176091 0.877957 -0.445178
vn 0.941248 0.000000 -0.337717
vn 0.941248 0.000000 -0.337717
vn 0.998419 0.000000 0.056201
vn 0.729490 0.000000 -0.683991
vn 0.998419 0.000000 0.056201
vn 0.729490 0.000000 -0.683991
vn 0.904356 0.000000 0.426779
vn 0.397501 0.000000 -0.917602
vn 0.904356 0.000000 0.426779
vn 0.397501 0.000000 -0.917602
vn -0.000000 0.000000 -1.000000
vn -0.000000 0.000000 -1.000000
vn 0.683991 0.000000 0.729490
vn 0.683991 0.000000 0.729490
vn 0.367802 0.000000 0.929904
vn 0.367802 0.000000 0.929904
vn -0.000000 0.000000 1.000000
vn -0.000000 0.000000 1.000000
f 1/1/1 2/2/2 3/3/3
f 3/3/3 2/2/2 4/4/4
f 3/3/3 4/4/4 5/5/5
f 1/1/1 3/3/3 6/6/6
f 7/7/7 1/1/1 6/6/6
f 8/8/8 3/3/3 5/5/5
f 6/6/6 3/3/3 8/8/8
f 8/8/8 5/5/5 9/9/9
f 7/7/7 6/6/6 10/10/10
f 10/10/10 11/11/11 7/7/7
f 10/10/10 12/12/12 11/11/11
f 10/10/10 6/6/6 13/13/13
f 6/6/6 8/8/8 13/13/13
f 14/14/14 12/12/12 10/10/10
f 10/10/10 13/13/13 14/14/14
f 14/14/14 15/15/15 12/12/12
f 16/16/16 8/8/8 9/9/9
f 13/13/13 8/8/8 16/16/16
f 16/16/16 9/9/9 17/17/17
f 14/14/14 13/13/13 18/18/18
f 13/13/13 16/16/16 18/18/18
f 19/19/19 15/15/15 14/14/14
f 14/14/14 18/18/18 19/19/19
f 19/19/19 20/20/20 15/15/15
f 21/21/21 16/16/16 17/17/17
f 18/18/18 16/16/16 21/21/21
f 21/21/21 17/17/17 22/22/22
f 19/19/19 18/18/18 23/23/23
f 18/18/18 21/21/21 23/23/23
f 24/24/24 20/20/20 19/19/19
f 19/19/19 23/23/23 24/24/24
f 24/24/24 25/25/25 20/20/20
f 26/26/26 21/21/21 22/22/22
f 23/23/23 21/21/21 26/26/26
f 26/26/26 22/22/22 27/27/27
f 24/24/24 23/23/23 28/28/28
f 23/23/23 26/26/26 28/28/28
f 29/29/29 25/25/25 24/24/24
f 24/24/24 28/28/28 29/29/29
f 29/29/29 30/30/30 25/25/25
f 31/31/31 26/26/26 27/27/27
f 28/28/28 26/26/26 31/31/31
f 31/31/31 27/27/27 32/32/32
f 29/29/29 28/28/28 33/33/33
f 28/28/28 31/31/31 33/33/33
f 34/34/34 30/30/30 29/29/29
f 29/29/29 33/33/33 34/34/34
f 34/34/34 35/35/35 30/30/30
f 36/36/36 31/31/31 32/32/32
f 33/33/33 31/31/31 36/36/36
f 36/36/36 32/32/32 37/37/37
f 38/38/38 36/36/36 37/37/37
f 38/38/38 37/37/37 39/39/39
f 33/33/33 36/36/36 40/40/40
f 40/40/40 36/36/36 38/38/38
f 34/34/34 33/33/33 40/40/40
f 40/40/40 38/38/38 41/41/41
f 34/34/34 40/40/40 42/42/42
f 42/42/42 40/40/40 41/41/41
f 42/42/42 35/35/35 34/34/34
f 42/42/42 41/41/41 43/43/43
f 42/42/42 44/44/44 35/35/35
f 43/43/43 44/44/44 42/42/42
f 43/43/43 45/45/45 44/44/44
f 46/46/46 47/47/47 48/48/48
f 46/46/46 48/48/48 49/49/49
f 47/47/47 50/50/50 48/48/48
f 51/51/51 46/46/46 49/49/49
f 47/47/47 52/52/52 50/50/50
f 51/51/51 49/49/49 53/53/53
f 52/52/52 54/54/54 50/50/50
f 55/55/55 51/51/51 53/53/53
f 52/52/52 56/56/56 54/54/54
f 56/56/56 57/57/57 54/54/54
f 56/56/56 58/58/58 57/57/57
f 55/55/55 53/53/53 59/59/59
f 60/60/60 55/55/55 59/59/59
f 60/60/60 59/59/59 61/61/61
f 62/62/62 60/60/60 61/61/61
f 62/62/62 61/61/61 63/63/63
f 64/64/64 65/65/65 66/66/66
f 67/67/67 66/66/66 65/65/65
f 67/67/67 68/68/68 66/66/66
f 69/69/69 67/67/67 65/65/65
f 64/64/64 66/66/66 70/70/70
f 69/69/69 65/65/65 71/71/71
f 64/64/64 71/71/71 65/65/65
f 72/72/72 69/69/69 71/71/71
f 73/73/73 64/64/64 70/70/70
f 73/73/73 70/70/70 74/74/74
f 73/73/73 74/74/74 75/75/75
f 73/73/73 75/75/75 76/76/76
f 77/77/77 73/73/73 76/76/76
f 77/77/77 64/64/64 73/73/73
f 77/77/77 76/76/76 78/78/78
f 77/77/77 79/79/79 64/64/64
f 64/64/64 79/79/79 71/71/71
f 80/80/80 77/77/77 78/78/78
f 80/80/80 79/79/79 77/77/77
f 80/80/80 78/78/78 81/81/81
f 80/80/80 81/81/81 82/82/82
f 79/79/79 83/83/83 71/71/71
f 72/72/72 71/71/71 83/83/83
f 80/80/80 84/84/84 79/79/79
f 79/79/79 84/84/84 83/83/83
f 72/72/72 83/83/83 85/85/85
f 84/84/84 85/85/85 83/83/83
f 72/72/72 85/85/85 86/86/86
f 87/87/87 86/86/86 85/85/85
f 88/88/88 84/84/84 80/80/80
f 80/80/80 82/82/82 88/88/88
f 84/84/84 89/89/89 85/85/85
f 88/88/88 89/89/89 84/84/84
f 87/87/87 85/85/85 90/90/90
f 91/91/91 87/87/87 90/90/90
f 92/92/92 85/85/85 89/89/89
f 92/92/92 90/90/90 85/85/85
f 93/93/93 89/89/89 88/88/88
f 93/93/93 88/88/88 82/82/82
f 93/93/93 92/92/92 89/89/89
f 93/93/93 82/82/82 94/94/94
f 91/91/91 90/90/90 95/95/95
f 92/92/92 95/95/95 90/90/90
f 96/96/96 91/91/91 95/95/95
f 97/97/97 93/93/93 94/94/94
f 97/97/97 92/92/92 93/93/93
f 97/97/97 94/94/94 98/98/98
f 92/92/92 99/99/99 95/95/95
f 97/97/97 99/99/99 92/92/92
f 100/100/100 97/97/97 98/98/98
f 100/100/100 99/99/99 97/97/97
f 100/100/100 98/98/98 101/101/101
f 100/100/100 101/101/101 102/102/102
f 100/100/100 102/102/102 103/103/103
f 103/103/103 104/104/104 100/100/100
f 100/100/100 104/104/104 99/99/99
f 103/103/103 105/105/105 104/104/104
f 104/104/104 105/105/105 106/106/106
f 96/96/96 106/106/106 107/107/107
f 99/99/99 104/104/104 108/108/108
f 104/104/104 106/106/106 108/108/108
f 96/96/96 108/108/108 106/106/106
f 99/99/99 108/108/108 95/95/95
f 96/96/96 95/95/95 108/108/108
f 109/109/109 110/110/110 111/111/111
f 109/109/109 112/112/112 110/110/110
f 109/109/109 111/111/111 113/113/113
f 109/109/109 114/114/114 112/112/112
f 115/115/115 113/113/113 111/111/111
f 114/114/114 116/116/116 112/112/112
f 115/115/115 111/111/111 117/117/117
f 114/114/114 118/118/118 116/116/116
f 118/118/118 119/119/119 116/116/116
f 118/118/118 120/120/120 119/119/119
f 121/121/121 115/115/115 117/117/117
f 121/121/121 117/117/117 122/122/122
f 123/123/123 121/121/121 122/122/122
f 123/123/123 122/122/122 124/124/124
f 123/123/123 124/124/124 125/125/125
f 123/123/123 125/125/125 126/126/126
