o Sponza_Mesh_045
v -11.391733 5.118054 0.008983
v -11.391729 -4.555804 0.008983
v -11.391729 -4.555804 -0.027035
v -11.391733 5.118054 -0.027035
v 10.381095 -4.555808 0.008983
v 10.381088 5.110470 0.008983
v 10.381088 5.110470 -0.027035
v 10.381095 -4.555808 -0.027035
v 10.381088 5.110470 0.008983
v 0.097299 5.114053 0.008983
v 0.097299 5.114052 -0.027035
v 10.381088 5.110470 -0.027035
v -11.391729 -4.555804 0.008983
v 10.381095 -4.555808 0.008983
v 10.381095 -4.555808 -0.027035
v -11.391729 -4.555804 -0.027035
v -11.428159 -4.592235 0.045001
v -11.391729 -4.555804 0.008983
v -11.391733 5.118054 0.008983
v -11.428159 5.154491 0.045001
v 10.417525 5.146894 0.045001
v 10.381088 5.110470 0.008983
v 10.381095 -4.555808 0.008983
v 10.417525 -4.592238 0.045001
v 0.096663 5.150484 0.045001
v 0.097299 5.114053 0.008983
v 10.381088 5.110470 0.008983
v 10.417525 5.146894 0.045001
v 10.417525 -4.592238 0.045001
v 10.381095 -4.555808 0.008983
v -11.391729 -4.555804 0.008983
v -11.428159 -4.592235 0.045001
v -11.428159 5.154491 0.008983
v -11.428159 5.154491 -0.027035
v -11.428159 -4.592235 -0.027035
v -11.428159 -4.592235 0.008983
v -11.428159 -4.592235 0.045001
v -11.428159 5.154491 0.045001
v 10.417525 -4.592238 0.008983
v 10.417525 -4.592238 -0.027035
v 10.417525 5.146894 -0.027035
v 10.417525 5.146894 0.008983
v 10.417525 5.146894 0.045001
v 10.417525 -4.592238 0.045001
v -1.109584 5.150903 0.008983
v -1.109584 5.150903 -0.027035
v -11.428159 5.154491 -0.027035
v -11.428159 5.154491 0.008983
v -11.428159 5.154491 0.045001
v -1.109584 5.150903 0.045001
v -11.428159 -4.592235 0.008983
v -11.428159 -4.592235 -0.027035
v 10.417525 -4.592238 -0.027035
v 10.417525 -4.592238 0.008983
v 10.417525 -4.592238 0.045001
v -11.428159 -4.592235 0.045001
v -11.391729 -4.555804 -0.027035
v -11.428159 -4.592235 -0.027035
v -11.428159 5.154491 -0.027035
v -11.391733 5.118054 -0.027035
v 10.381088 5.110470 -0.027035
v 10.417525 5.146894 -0.027035
v 10.417525 -4.592238 -0.027035
v 10.381095 -4.555808 -0.027035
v 0.097299 5.114052 -0.027035
v 0.096663 5.150483 -0.027035
v 10.417525 5.146894 -0.027035
v 10.381088 5.110470 -0.027035
v 10.381095 -4.555808 -0.027035
v 10.417525 -4.592238 -0.027035
v -11.428159 -4.592235 -0.027035
v -11.391729 -4.555804 -0.027035
v -11.391733 5.118054 0.008983
v -11.391733 5.118054 -0.027035
v -1.108948 5.114472 -0.027035
v -1.108948 5.114473 0.008983
v -11.428159 5.154491 0.045001
v -11.391733 5.118054 0.008983
v -1.108948 5.114473 0.008983
v -1.109584 5.150903 0.045001
v -11.391733 5.118054 -0.027035
v -11.428159 5.154491 -0.027035
v -1.109584 5.150903 -0.027035
v -1.108948 5.114472 -0.027035
v 10.417525 5.146894 0.008983
v 10.417525 5.146894 -0.027035
v 0.096663 5.150483 -0.027035
v 0.096663 5.150484 0.008983
v 10.417525 5.146894 0.045001
v 10.417525 5.146894 0.008983
v 0.096663 5.150484 0.008983
v 0.096663 5.150484 0.045001
vt 8.333000 1.198600
vt 14.896000 1.198600
vt 14.896000 1.260500
vt 8.333000 1.260500
vt -12.996200 1.198600
vt -6.438300 1.198600
vt -6.438300 1.260500
vt -12.996200 1.260500
vt -6.438300 1.198600
vt 0.538500 1.198600
vt 0.538500 1.260500
vt -6.438300 1.260500
vt -27.767700 1.198600
vt -12.996200 1.198600
vt -12.996200 1.260500
vt -27.767700 1.260500
vt 14.920800 1.136700
vt 14.896000 1.198600
vt 8.333000 1.198600
vt 8.308300 1.136700
vt -6.413600 1.136700
vt -6.438300 1.198600
vt -12.996200 1.198600
vt -13.021000 1.136700
vt 0.538900 1.136700
vt 0.538500 1.198600
vt -6.438300 1.198600
vt -6.463100 1.136700
vt -12.971500 1.136700
vt -12.996200 1.198600
vt -27.767700 1.198600
vt -27.792400 1.136700
vt 8.308300 1.074800
vt 8.308300 1.012800
vt 14.920800 1.012800
vt 14.920800 1.074800
vt 14.920800 1.136700
vt 8.308300 1.136700
vt -13.021000 1.074800
vt -13.021000 1.012800
vt -6.413600 1.012800
vt -6.413600 1.074800
vt -6.413600 1.136700
vt -13.021000 1.136700
vt 1.357300 1.074800
vt 1.357300 1.012800
vt 8.357700 1.012800
vt 8.357700 1.074800
vt 8.357700 1.136700
vt 1.357300 1.136700
vt -27.792400 1.074800
vt -27.792400 1.012800
vt -12.971500 1.012800
vt -12.971500 1.074800
vt -12.971500 1.136700
vt -27.792400 1.136700
vt 14.896000 1.260500
vt 14.920800 1.273400
vt 8.308300 1.273400
vt 8.333000 1.260500
vt -6.438300 1.260500
vt -6.413600 1.273400
vt -13.021000 1.273400
vt -12.996200 1.260500
vt 0.538500 1.260500
vt 0.538900 1.273300
vt -6.463100 1.272000
vt -6.438300 1.260500
vt -12.996200 1.260500
vt -12.971500 1.273400
vt -27.792400 1.273400
vt -27.767700 1.260500
vt 8.333000 1.198600
vt 8.333000 1.260500
vt 1.356800 1.260500
vt 1.356800 1.198600
vt 8.357700 1.136700
vt 8.333000 1.198600
vt 1.356800 1.198600
vt 1.357300 1.136700
vt 8.333000 1.260500
vt 8.357700 1.274700
vt 1.357300 1.273500
vt 1.356800 1.260500
vt -6.463100 1.074800
vt -6.463100 1.012800
vt 0.538900 1.012800
vt 0.538900 1.074800
vt -6.463100 1.136700
vt -6.463100 1.074800
vt 0.538900 1.074800
vt 0.538900 1.136700
vn 1.000000 0.000000 0.000000
vn 1.000000 0.000000 0.000000
vn 1.000000 0.000000 0.000000
vn 1.000000 0.000000 0.000000
vn -1.000000 -0.000000 0.000000
vn -1.000000 -0.000000 0.000000
vn -1.000000 -0.000000 0.000000
vn -1.000000 -0.000000 0.000000
vn -0.000300 -1.000000 0.000000
vn -0.000300 -1.000000 0.000000
vn -0.000300 -1.000000 0.000000
vn -0.000300 -1.000000 0.000000
vn 0.000000 1.000000 0.000000
vn 0.000000 1.000000 0.000000
vn 0.000000 1.000000 0.000000
vn 0.000000 1.000000 0.000000
vn 0.405176 0.405176 0.819552
vn 0.405176 0.405176 0.819552
vn 0.405092 -0.405192 0.819585
vn 0.405092 -0.405192 0.819585
vn -0.405192 -0.405092 0.819585
vn -0.405192 -0.405092 0.819585
vn -0.405176 0.405176 0.819552
vn -0.405176 0.405176 0.819552
vn -0.000200 -0.703095 0.711095
vn -0.000200 -0.703095 0.711095
vn -0.405192 -0.405092 0.819585
vn -0.405192 -0.405092 0.819585
vn -0.405176 0.405176 0.819552
vn -0.405176 0.405176 0.819552
vn 0.405176 0.405176 0.819552
vn 0.405176 0.405176 0.819552
vn -1.000000 0.000000 0.000000
vn -1.000000 0.000000 0.000000
vn -1.000000 0.000000 0.000000
vn -1.000000 0.000000 0.000000
vn -1.000000 0.000000 0.000000
vn -1.000000 0.000000 0.000000
vn 1.000000 0.000000 0.000000
vn 1.000000 0.000000 0.000000
vn 1.000000 0.000000 0.000000
vn 1.000000 0.000000 0.000000
vn 1.000000 0.000000 0.000000
vn 1.000000 0.000000 0.000000
vn 0.000300 1.000000 0.000000
vn 0.000300 1.000000 0.000000
vn 0.000300 1.000000 0.000000
vn 0.000300 1.000000 0.000000
vn 0.000300 1.000000 0.000000
vn 0.000300 1.000000 0.000000
vn -0.000000 -1.000000 0.000000
vn -0.000000 -1.000000 0.000000
vn -0.000000 -1.000000 0.000000
vn -0.000000 -1.000000 0.000000
vn -0.000000 -1.000000 0.000000
vn -0.000000 -1.000000 0.000000
vn 0.000000 0.000000 -1.000000
vn 0.000000 0.000000 -1.000000
vn 0.000000 0.000000 -1.000000
vn 0.000000 0.000000 -1.000000
vn 0.000000 0.000000 -1.000000
vn 0.000000 0.000000 -1.000000
vn 0.000000 0.000000 -1.000000
vn 0.000000 0.000000 -1.000000
vn 0.000000 0.000000 -1.000000
vn 0.000000 0.000000 -1.000000
vn 0.000000 0.000000 -1.000000
vn 0.000000 0.000000 -1.000000
vn 0.000000 0.000000 -1.000000
vn 0.000000 0.000000 -1.000000
vn 0.000000 0.000000 -1.000000
vn 0.000000 0.000000 -1.000000
vn -0.000300 -1.000000 0.000000
vn -0.000300 -1.000000 0.000000
vn -0.000300 -1.000000 0.000000
vn -0.000300 -1.000000 0.000000
vn 0.405092 -0.405192 0.819585
vn 0.405092 -0.405192 0.819585
vn -0.000200 -0.703095 0.711095
vn -0.000200 -0.703095 0.711095
vn 0.000000 0.000000 -1.000000
vn 0.000000 0.000000 -1.000000
vn 0.000000 0.000000 -1.000000
vn 0.000000 0.000000 -1.000000
vn 0.000300 1.000000 -0.000000
vn 0.000300 1.000000 -0.000000
vn 0.000300 1.000000 -0.000000
vn 0.000300 1.000000 -0.000000
vn 0.000300 1.000000 0.000000
vn 0.000300 1.000000 0.000000
vn 0.000300 1.000000 0.000000
vn 0.000300 1.000000 0.000000
f 1/1/1 2/2/2 3/3/3
f 1/1/1 3/3/3 4/4/4
f 5/5/5 6/6/6 7/7/7
f 5/5/5 7/7/7 8/8/8
f 9/9/9 10/10/10 11/11/11
f 9/9/9 11/11/11 12/12/12
f 13/13/13 14/14/14 15/15/15
f 13/13/13 15/15/15 16/16/16
f 17/17/17 18/18/18 19/19/19
f 17/17/17 19/19/19 20/20/20
f 21/21/21 22/22/22 23/23/23
f 21/21/21 23/23/23 24/24/24
f 25/25/25 26/26/26 27/27/27
f 25/25/25 27/27/27 28/28/28
f 29/29/29 30/30/30 31/31/31
f 29/29/29 31/31/31 32/32/32
f 33/33/33 34/34/34 35/35/35
f 33/33/33 35/35/35 36/36/36
f 37/37/37 33/33/33 36/36/36
f 37/37/37 38/38/38 33/33/33
f 39/39/39 40/40/40 41/41/41
f 39/39/39 41/41/41 42/42/42
f 43/43/43 39/39/39 42/42/42
f 43/43/43 44/44/44 39/39/39
f 45/45/45 46/46/46 47/47/47
f 45/45/45 47/47/47 48/48/48
f 49/49/49 45/45/45 48/48/48
f 49/49/49 50/50/50 45/45/45
f 51/51/51 52/52/52 53/53/53
f 51/51/51 53/53/53 54/54/54
f 55/55/55 51/51/51 54/54/54
f 55/55/55 56/56/56 51/51/51
f 57/57/57 58/58/58 59/59/59
f 57/57/57 59/59/59 60/60/60
f 61/61/61 62/62/62 63/63/63
f 61/61/61 63/63/63 64/64/64
f 65/65/65 66/66/66 67/67/67
f 65/65/65 67/67/67 68/68/68
f 69/69/69 70/70/70 71/71/71
f 69/69/69 71/71/71 72/72/72
f 73/73/73 74/74/74 75/75/75
f 73/73/73 75/75/75 76/76/76
f 77/77/77 78/78/78 79/79/79
f 77/77/77 79/79/79 80/80/80
f 81/81/81 82/82/82 83/83/83
f 81/81/81 83/83/83 84/84/84
f 85/85/85 86/86/86 87/87/87
f 85/85/85 87/87/87 88/88/88
f 89/89/89 90/90/90 91/91/91
f 89/89/89 91/91/91 92/92/92
