o Sponza_Mesh_022
v -5.154850 1.973427 9.781522
v -5.078598 1.973427 9.765716
v -5.078598 1.986697 9.804216
v -5.078598 1.945066 9.727213
v -5.170152 1.945066 9.746191
v -5.139546 1.986697 9.816850
v -5.078598 2.002822 9.815877
v -5.218537 1.973427 9.826332
v -5.246623 1.945066 9.799997
v -5.134911 2.002822 9.827550
v -5.078598 2.108998 9.815877
v -5.134911 2.108998 9.827550
v -5.190453 1.986697 9.852668
v -5.181946 2.002822 9.860645
v -5.181946 2.108998 9.860645
v -5.259167 1.973427 9.892766
v -5.295407 1.945066 9.879763
v -5.222928 1.986697 9.905769
v -5.270042 1.973427 9.969876
v -5.308465 1.945066 9.972349
v -5.211951 2.002822 9.909708
v -5.211951 2.108998 9.909708
v -5.231606 1.986702 9.967403
v -5.252092 1.973427 10.039424
v -5.286912 1.945066 10.055856
v -5.219984 2.002822 9.966655
v -5.219984 2.108998 9.966655
v -5.217243 1.986708 10.022981
v -5.209820 1.973427 10.097497
v -5.236158 1.945066 10.125583
v -5.206727 2.002822 10.018018
v -5.206727 2.108998 10.018018
v -5.183464 1.986708 10.069388
v -5.149155 1.973427 10.135952
v -5.163316 1.945066 10.171755
v -5.175510 2.002822 10.060906
v -5.175510 2.108998 10.060906
v -5.078598 1.973427 10.149398
v -5.078598 1.945066 10.187901
v -5.134983 1.986708 10.100119
v -5.078598 1.986709 10.110864
v -5.130705 2.002822 10.089305
v -5.130705 2.108998 10.089305
v -5.078598 2.002822 10.099236
v -5.078598 2.108998 10.099236
v -5.295407 2.108998 9.879763
v -5.295407 1.945066 9.879763
v -5.308465 1.945066 9.972349
v -5.246623 2.108998 9.799997
v -5.308465 2.108998 9.972349
v -5.246623 1.945066 9.799997
v -5.286912 1.945066 10.055856
v -5.170152 2.108998 9.746191
v -5.286912 2.108998 10.055856
v -5.170152 1.945066 9.746191
v -5.078598 2.108998 9.727213
v -5.078598 1.945066 9.727213
v -5.236158 1.945066 10.125583
v -5.236158 2.108998 10.125583
v -5.163316 1.945066 10.171755
v -5.163316 2.108998 10.171755
v -5.078598 1.945066 10.187901
v -5.078598 2.108998 10.187901
v -5.078598 1.973427 9.765716
v -5.002345 1.973427 9.781522
v -5.017649 1.986697 9.816850
v -4.987041 1.945066 9.746191
v -5.078598 1.945066 9.727213
v -4.910571 1.945066 9.799997
v -5.078598 1.986697 9.804216
v -4.938658 1.973427 9.826332
v -4.861787 1.945066 9.879763
v -5.022283 2.002822 9.827551
v -5.078598 2.002822 9.815877
v -5.078598 2.108998 9.815877
v -5.022283 2.108998 9.827551
v -4.975248 2.002822 9.860645
v -4.975248 2.108998 9.860645
v -4.966742 1.986697 9.852668
v -4.945243 2.002822 9.909708
v -4.945243 2.108998 9.909708
v -4.937212 2.108998 9.966655
v -4.898028 1.973427 9.892766
v -4.934267 1.986697 9.905770
v -4.937212 2.002822 9.966655
v -4.887152 1.973427 9.969876
v -4.848729 1.945066 9.972349
v -4.870282 1.945066 10.055856
v -4.925590 1.986702 9.967403
v -4.905102 1.973427 10.039424
v -4.921036 1.945066 10.125583
v -4.939951 1.986709 10.022981
v -4.950467 2.002822 10.018018
v -4.950467 2.108998 10.018018
v -4.947373 1.973427 10.097497
v -4.993880 1.945066 10.171755
v -4.981686 2.002822 10.060906
v -4.981686 2.108998 10.060906
v -4.973731 1.986709 10.069388
v -5.026488 2.002822 10.089305
v -5.026488 2.108998 10.089305
v -5.078598 2.108998 10.099236
v -5.078598 2.002822 10.099236
v -5.022212 1.986709 10.100119
v -5.078598 1.986709 10.110864
v -5.078598 1.973427 10.149398
v -5.008039 1.973427 10.135952
v -5.078598 1.945066 10.187901
v -4.848729 1.945066 9.972349
v -4.861787 1.945066 9.879763
v -4.861787 2.108998 9.879763
v -4.910571 1.945066 9.799997
v -4.848729 2.108998 9.972349
v -4.910571 2.108998 9.799997
v -4.870282 2.108998 10.055856
v -4.987041 1.945066 9.746191
v -4.870282 1.945066 10.055856
v -4.987041 2.108998 9.746191
v -5.078598 1.945066 9.727213
v -5.078598 2.108998 9.727213
v -4.921036 2.108998 10.125583
v -4.921036 1.945066 10.125583
v -4.993880 2.108998 10.171755
v -4.993880 1.945066 10.171755
v -5.078598 1.945066 10.187901
v -5.078598 2.108998 10.187901
vt 0.127500 0.187800
vt 0.003300 0.187800
vt 0.003300 0.162100
vt 0.003300 0.216900
vt 0.127500 0.216900
vt 0.127500 0.162100
vt 0.003300 0.145100
vt 0.251600 0.187800
vt 0.251600 0.216900
vt 0.127500 0.145100
vt 0.003300 0.063800
vt 0.127500 0.063800
vt 0.251600 0.162100
vt 0.251600 0.145100
vt 0.251600 0.063800
vt 0.375800 0.187800
vt 0.375800 0.216900
vt 0.375800 0.162100
vt 0.499900 0.187800
vt 0.499900 0.216900
vt 0.375800 0.145100
vt 0.375800 0.063800
vt 0.499900 0.162100
vt 0.614300 0.187800
vt 0.614300 0.216900
vt 0.499900 0.145100
vt 0.499900 0.063800
vt 0.614300 0.162100
vt 0.728700 0.187800
vt 0.728700 0.216900
vt 0.614300 0.145100
vt 0.614300 0.063800
vt 0.728700 0.162100
vt 0.843100 0.187800
vt 0.843100 0.216900
vt 0.728700 0.145100
vt 0.728700 0.063800
vt 0.957500 0.187800
vt 0.957500 0.216900
vt 0.843100 0.162100
vt 0.957500 0.162100
vt 0.843100 0.145100
vt 0.843100 0.063800
vt 0.957500 0.145100
vt 0.957500 0.063800
vt 0.375800 0.326300
vt 0.375800 0.216900
vt 0.499900 0.216900
vt 0.251600 0.326300
vt 0.499900 0.326300
vt 0.251600 0.216900
vt 0.614300 0.216900
vt 0.127500 0.326300
vt 0.614300 0.326300
vt 0.127500 0.216900
vt 0.003300 0.326300
vt 0.003300 0.216900
vt 0.728700 0.216900
vt 0.728700 0.326300
vt 0.843100 0.216900
vt 0.843100 0.326300
vt 0.957500 0.216900
vt 0.957500 0.326300
vt 0.003300 0.187800
vt 0.127500 0.187800
vt 0.127500 0.162100
vt 0.127500 0.216900
vt 0.003300 0.216900
vt 0.251600 0.216900
vt 0.003300 0.162100
vt 0.251600 0.187800
vt 0.375800 0.216900
vt 0.127500 0.145100
vt 0.003300 0.145100
vt 0.003300 0.063800
vt 0.127500 0.063800
vt 0.251600 0.145100
vt 0.251600 0.063800
vt 0.251600 0.162100
vt 0.375800 0.145100
vt 0.375800 0.063800
vt 0.499900 0.063800
vt 0.375800 0.187800
vt 0.375800 0.162100
vt 0.499900 0.145100
vt 0.499900 0.187800
vt 0.499900 0.216900
vt 0.614300 0.216900
vt 0.499900 0.162100
vt 0.614300 0.187800
vt 0.728700 0.216900
vt 0.614300 0.162100
vt 0.614300 0.145100
vt 0.614300 0.063800
vt 0.728700 0.187800
vt 0.843100 0.216900
vt 0.728700 0.145100
vt 0.728700 0.063800
vt 0.728700 0.162100
vt 0.843100 0.145100
vt 0.843100 0.063800
vt 0.957500 0.063800
vt 0.957500 0.145100
vt 0.843100 0.162100
vt 0.957500 0.162100
vt 0.957500 0.187800
vt 0.843100 0.187800
vt 0.957500 0.216900
vt 0.499900 0.216900
vt 0.375800 0.216900
vt 0.375800 0.326300
vt 0.251600 0.216900
vt 0.499900 0.326300
vt 0.251600 0.326300
vt 0.614300 0.326300
vt 0.127500 0.216900
vt 0.614300 0.216900
vt 0.127500 0.326300
vt 0.003300 0.216900
vt 0.003300 0.326300
vt 0.728700 0.326300
vt 0.728700 0.216900
vt 0.843100 0.326300
vt 0.843100 0.216900
vt 0.957500 0.216900
vt 0.957500 0.326300
vn 0.190711 -0.877350 0.440325
vn 0.000000 -0.877318 0.479910
vn 0.000000 -0.822073 0.569382
vn 0.000000 -0.805119 0.593114
vn 0.235712 -0.805143 0.544229
vn 0.226293 -0.822073 0.522483
vn -0.000000 -0.320305 0.947315
vn 0.350099 -0.877297 0.328299
vn 0.432617 -0.805132 0.405716
vn 0.376495 -0.320296 0.869288
vn -0.000000 0.000000 1.000000
vn 0.397501 0.000000 0.917602
vn 0.415293 -0.822087 0.389494
vn 0.691008 -0.320304 0.648007
vn 0.729490 0.000000 0.683991
vn 0.451708 -0.877316 0.162103
vn 0.558230 -0.805143 0.200311
vn 0.535896 -0.822093 0.192298
vn 0.478611 -0.877621 -0.026701
vn 0.592128 -0.805139 -0.033702
vn 0.891675 -0.320291 0.319891
vn 0.941248 0.000000 0.337717
vn 0.569712 -0.821217 -0.032101
vn 0.432895 -0.877989 -0.204297
vn 0.536408 -0.805112 -0.253104
vn 0.946103 -0.319501 -0.053000
vn 0.998419 0.000000 -0.056201
vn 0.517207 -0.820311 -0.244103
vn 0.327487 -0.877965 -0.349186
vn 0.405716 -0.805132 -0.432617
vn 0.857181 -0.318793 -0.404491
vn 0.904395 0.000000 -0.426697
vn 0.391203 -0.820306 -0.417203
vn 0.176091 -0.877957 -0.445178
vn 0.218110 -0.805138 -0.551526
vn 0.648371 -0.318786 -0.691369
vn 0.683991 0.000000 -0.729490
vn 0.000000 -0.877984 -0.478691
vn 0.000000 -0.805119 -0.593114
vn 0.210403 -0.820312 -0.531808
vn 0.000000 -0.820316 -0.571911
vn 0.348596 -0.318797 -0.881391
vn 0.367802 0.000000 -0.929904
vn 0.000000 -0.318807 -0.947820
vn 0.000000 0.000000 -1.000000
vn -0.941248 0.000000 -0.337717
vn -0.941248 0.000000 -0.337717
vn -0.998419 0.000000 0.056201
vn -0.729490 0.000000 -0.683991
vn -0.998419 0.000000 0.056201
vn -0.729490 0.000000 -0.683991
vn -0.904395 0.000000 0.426697
vn -0.397501 0.000000 -0.917602
vn -0.904395 0.000000 0.426697
vn -0.397501 0.000000 -0.917602
vn -0.000000 0.000000 -1.000000
vn -0.000000 0.000000 -1.000000
vn -0.683991 0.000000 0.729490
vn -0.683991 0.000000 0.729490
vn -0.367802 0.000000 0.929904
vn -0.367802 0.000000 0.929904
vn -0.000000 0.000000 1.000000
vn -0.000000 0.000000 1.000000
vn 0.000000 -0.877318 0.479910
vn -0.190711 -0.877350 0.440325
vn -0.226293 -0.822073 0.522483
vn -0.235712 -0.805143 0.544229
vn 0.000000 -0.805119 0.593114
vn -0.432617 -0.805132 0.405716
vn 0.000000 -0.822073 0.569382
vn -0.350110 -0.877326 0.328210
vn -0.558185 -0.805178 0.200295
vn -0.376495 -0.320296 0.869288
vn -0.000000 -0.320305 0.947315
vn -0.000000 0.000000 1.000000
vn -0.397501 0.000000 0.917602
vn -0.691008 -0.320304 0.648007
vn -0.729490 0.000000 0.683991
vn -0.415293 -0.822087 0.389494
vn -0.891675 -0.320291 0.319891
vn -0.941248 0.000000 0.337717
vn -0.998419 0.000000 -0.056201
vn -0.451708 -0.877316 0.162103
vn -0.535896 -0.822093 0.192298
vn -0.946072 -0.319591 -0.052998
vn -0.478611 -0.877621 -0.026701
vn -0.592128 -0.805139 -0.033702
vn -0.536408 -0.805112 -0.253104
vn -0.569780 -0.821170 -0.032099
vn -0.432895 -0.877989 -0.204297
vn -0.405716 -0.805132 -0.432617
vn -0.517207 -0.820311 -0.244103
vn -0.857181 -0.318793 -0.404491
vn -0.904395 0.000000 -0.426697
vn -0.327487 -0.877965 -0.349186
vn -0.218110 -0.805138 -0.551526
vn -0.648313 -0.318806 -0.691414
vn -0.683991 0.000000 -0.729490
vn -0.391203 -0.820306 -0.417203
vn -0.348596 -0.318797 -0.881391
vn -0.367802 0.000000 -0.929904
vn 0.000000 0.000000 -1.000000
vn 0.000000 -0.318807 -0.947820
vn -0.210307 -0.820329 -0.531819
vn 0.000000 -0.820316 -0.571911
vn 0.000000 -0.877984 -0.478691
vn -0.176091 -0.877957 -0.445178
vn 0.000000 -0.805119 -0.593114
vn 0.998419 0.000000 0.056201
vn 0.941248 0.000000 -0.337717
vn 0.941248 0.000000 -0.337717
vn 0.729490 0.000000 -0.683991
vn 0.998419 0.000000 0.056201
vn 0.729490 0.000000 -0.683991
vn 0.904356 0.000000 0.426779
vn 0.397501 0.000000 -0.917602
vn 0.904356 0.000000 0.426779
vn 0.397501 0.000000 -0.917602
vn -0.000000 0.000000 -1.000000
vn -0.000000 0.000000 -1.000000
vn 0.683991 0.000000 0.729490
vn 0.683991 0.000000 0.729490
vn 0.367802 0.000000 0.929904
vn 0.367802 0.000000 0.929904
vn -0.000000 0.000000 1.000000
vn -0.000000 0.000000 1.000000
f 1/1/1 2/2/2 3/3/3
f 4/4/4 2/2/2 1/1/1
f 4/4/4 1/1/1 5/5/5
f 1/1/1 3/3/3 6/6/6
f 6/6/6 3/3/3 7/7/7
f 5/5/5 1/1/1 8/8/8
f 8/8/8 1/1/1 6/6/6
f 5/5/5 8/8/8 9/9/9
f 6/6/6 7/7/7 10/10/10
f 11/11/11 10/10/10 7/7/7
f 11/11/11 12/12/12 10/10/10
f 13/13/13 6/6/6 10/10/10
f 8/8/8 6/6/6 13/13/13
f 12/12/12 14/14/14 10/10/10
f 13/13/13 10/10/10 14/14/14
f 12/12/12 15/15/15 14/14/14
f 16/16/16 8/8/8 13/13/13
f 9/9/9 8/8/8 16/16/16
f 9/9/9 16/16/16 17/17/17
f 16/16/16 13/13/13 18/18/18
f 18/18/18 13/13/13 14/14/14
f 17/17/17 16/16/16 19/19/19
f 19/19/19 16/16/16 18/18/18
f 17/17/17 19/19/19 20/20/20
f 15/15/15 21/21/21 14/14/14
f 18/18/18 14/14/14 21/21/21
f 15/15/15 22/22/22 21/21/21
f 19/19/19 18/18/18 23/23/23
f 23/23/23 18/18/18 21/21/21
f 20/20/20 19/19/19 24/24/24
f 24/24/24 19/19/19 23/23/23
f 20/20/20 24/24/24 25/25/25
f 22/22/22 26/26/26 21/21/21
f 23/23/23 21/21/21 26/26/26
f 22/22/22 27/27/27 26/26/26
f 24/24/24 23/23/23 28/28/28
f 28/28/28 23/23/23 26/26/26
f 25/25/25 24/24/24 29/29/29
f 29/29/29 24/24/24 28/28/28
f 25/25/25 29/29/29 30/30/30
f 27/27/27 31/31/31 26/26/26
f 28/28/28 26/26/26 31/31/31
f 27/27/27 32/32/32 31/31/31
f 29/29/29 28/28/28 33/33/33
f 33/33/33 28/28/28 31/31/31
f 30/30/30 29/29/29 34/34/34
f 34/34/34 29/29/29 33/33/33
f 30/30/30 34/34/34 35/35/35
f 32/32/32 36/36/36 31/31/31
f 33/33/33 31/31/31 36/36/36
f 32/32/32 37/37/37 36/36/36
f 35/35/35 34/34/34 38/38/38
f 35/35/35 38/38/38 39/39/39
f 34/34/34 33/33/33 40/40/40
f 38/38/38 34/34/34 40/40/40
f 40/40/40 33/33/33 36/36/36
f 38/38/38 40/40/40 41/41/41
f 37/37/37 42/42/42 36/36/36
f 40/40/40 36/36/36 42/42/42
f 41/41/41 40/40/40 42/42/42
f 37/37/37 43/43/43 42/42/42
f 41/41/41 42/42/42 44/44/44
f 43/43/43 44/44/44 42/42/42
f 43/43/43 45/45/45 44/44/44
f 46/46/46 47/47/47 48/48/48
f 49/49/49 47/47/47 46/46/46
f 46/46/46 48/48/48 50/50/50
f 49/49/49 51/51/51 47/47/47
f 50/50/50 48/48/48 52/52/52
f 53/53/53 51/51/51 49/49/49
f 50/50/50 52/52/52 54/54/54
f 53/53/53 55/55/55 51/51/51
f 56/56/56 55/55/55 53/53/53
f 56/56/56 57/57/57 55/55/55
f 54/54/54 52/52/52 58/58/58
f 54/54/54 58/58/58 59/59/59
f 59/59/59 58/58/58 60/60/60
f 59/59/59 60/60/60 61/61/61
f 61/61/61 60/60/60 62/62/62
f 61/61/61 62/62/62 63/63/63
f 64/64/64 65/65/65 66/66/66
f 64/64/64 67/67/67 65/65/65
f 64/64/64 68/68/68 67/67/67
f 65/65/65 67/67/67 69/69/69
f 64/64/64 66/66/66 70/70/70
f 65/65/65 69/69/69 71/71/71
f 71/71/71 66/66/66 65/65/65
f 71/71/71 69/69/69 72/72/72
f 70/70/70 66/66/66 73/73/73
f 70/70/70 73/73/73 74/74/74
f 75/75/75 74/74/74 73/73/73
f 75/75/75 73/73/73 76/76/76
f 76/76/76 73/73/73 77/77/77
f 66/66/66 77/77/77 73/73/73
f 76/76/76 77/77/77 78/78/78
f 71/71/71 79/79/79 66/66/66
f 66/66/66 79/79/79 77/77/77
f 78/78/78 77/77/77 80/80/80
f 79/79/79 80/80/80 77/77/77
f 78/78/78 80/80/80 81/81/81
f 82/82/82 81/81/81 80/80/80
f 83/83/83 79/79/79 71/71/71
f 71/71/71 72/72/72 83/83/83
f 79/79/79 84/84/84 80/80/80
f 83/83/83 84/84/84 79/79/79
f 82/82/82 80/80/80 85/85/85
f 84/84/84 85/85/85 80/80/80
f 86/86/86 83/83/83 72/72/72
f 86/86/86 84/84/84 83/83/83
f 86/86/86 72/72/72 87/87/87
f 86/86/86 87/87/87 88/88/88
f 86/86/86 89/89/89 84/84/84
f 84/84/84 89/89/89 85/85/85
f 86/86/86 88/88/88 90/90/90
f 90/90/90 88/88/88 91/91/91
f 86/86/86 92/92/92 89/89/89
f 86/86/86 90/90/90 92/92/92
f 89/89/89 93/93/93 85/85/85
f 82/82/82 85/85/85 93/93/93
f 89/89/89 92/92/92 93/93/93
f 82/82/82 93/93/93 94/94/94
f 90/90/90 91/91/91 95/95/95
f 95/95/95 92/92/92 90/90/90
f 95/95/95 91/91/91 96/96/96
f 94/94/94 93/93/93 97/97/97
f 92/92/92 97/97/97 93/93/93
f 94/94/94 97/97/97 98/98/98
f 95/95/95 99/99/99 92/92/92
f 92/92/92 99/99/99 97/97/97
f 98/98/98 97/97/97 100/100/100
f 99/99/99 100/100/100 97/97/97
f 98/98/98 100/100/100 101/101/101
f 102/102/102 101/101/101 100/100/100
f 102/102/102 100/100/100 103/103/103
f 104/104/104 103/103/103 100/100/100
f 99/99/99 104/104/104 100/100/100
f 104/104/104 105/105/105 103/103/103
f 106/106/106 105/105/105 104/104/104
f 107/107/107 104/104/104 99/99/99
f 106/106/106 104/104/104 107/107/107
f 107/107/107 99/99/99 95/95/95
f 95/95/95 96/96/96 107/107/107
f 106/106/106 107/107/107 96/96/96
f 106/106/106 96/96/96 108/108/108
f 109/109/109 110/110/110 111/111/111
f 112/112/112 111/111/111 110/110/110
f 109/109/109 111/111/111 113/113/113
f 112/112/112 114/114/114 111/111/111
f 109/109/109 113/113/113 115/115/115
f 116/116/116 114/114/114 112/112/112
f 109/109/109 115/115/115 117/117/117
f 116/116/116 118/118/118 114/114/114
f 119/119/119 118/118/118 116/116/116
f 119/119/119 120/120/120 118/118/118
f 117/117/117 115/115/115 121/121/121
f 117/117/117 121/121/121 122/122/122
f 122/122/122 121/121/121 123/123/123
f 122/122/122 123/123/123 124/124/124
f 125/125/125 124/124/124 123/123/123
f 125/125/125 123/123/123 126/126/126
