o Sponza_Mesh_042
v 0.104189 5.061081 0.848727
v 0.060466 5.107382 0.848727
v 0.060858 5.107382 -0.017724
v 0.104189 5.061081 -0.017724
v 0.104189 5.061081 1.454442
v 0.058627 5.107382 1.454442
v 0.104189 5.061081 1.715178
v 0.057835 5.107382 1.715178
v 0.087428 5.061081 1.808506
v 0.039408 5.107382 1.791514
v -0.002659 5.107382 1.965779
v 0.026453 5.061081 1.988951
v -0.131897 5.107382 2.136263
v -0.095495 5.061081 2.170875
v -0.250136 5.107382 2.246253
v -0.217444 5.061081 2.284762
v -0.387622 5.107382 2.323245
v -0.380043 5.061081 2.366110
v -0.517242 5.107382 2.350743
v -0.517242 5.061081 2.403086
v -0.632071 5.061081 2.372026
v -0.714841 5.107382 2.281999
v -0.754021 5.061081 2.318780
v -0.841329 5.107382 2.188508
v -0.886810 5.061081 2.221162
v -0.954068 5.107382 2.042772
v -1.006049 5.061081 2.074735
v -1.031062 5.107382 1.894286
v -1.087348 5.061081 1.906123
v -1.072308 5.107382 1.715178
v -1.123575 5.061081 1.715178
v -1.123575 5.061081 1.454442
v -1.071894 5.107382 1.454442
v -1.070933 5.107382 0.848727
v -1.123575 5.061081 0.848727
v -1.123575 5.061081 -0.017724
v -1.069558 5.107382 -0.017724
v -0.517242 5.207417 2.195427
v -0.517242 5.207417 1.715178
v -0.110867 5.207417 1.715178
v -0.123650 5.207417 1.795286
v -0.174414 5.207417 1.920704
v -0.268478 5.207417 2.049107
v -0.381950 5.207417 2.135705
v -0.517242 5.207417 1.654938
v -0.101254 5.207416 1.654938
v -0.917594 5.207418 1.715178
v -0.925425 5.207418 1.654938
v -0.858238 5.207417 1.922197
v -0.906016 5.207418 1.804245
v -0.622333 5.207417 2.149142
v -0.761189 5.207417 2.050600
v -0.098892 5.198576 0.036211
v -0.095285 5.198576 0.848727
v -0.517242 5.198576 0.848727
v -0.517242 5.198576 0.036211
v -0.923479 5.198576 0.036211
v -0.930692 5.198576 0.848727
v -0.517242 5.198576 1.454442
v -0.093358 5.198576 1.282850
v -0.104032 5.198576 1.284233
v -0.124668 5.198576 1.303034
v -0.136133 5.198576 1.338346
v -0.154475 5.198576 1.364942
v -0.172360 5.198576 1.364026
v -0.179698 5.198576 1.373656
v -0.911101 5.198576 1.294120
v -0.934558 5.198576 1.284251
v -0.855014 5.198576 1.352451
v -0.892256 5.198576 1.324182
v -0.879243 5.198576 1.352899
v -0.842450 5.198576 1.366361
v -0.172819 5.198576 1.393374
v -0.184283 5.198576 1.401170
v -0.841553 5.198576 1.400910
v -0.852770 5.198576 1.386552
v -0.841553 5.198576 1.422447
v -0.847386 5.198576 1.415268
v -0.840655 5.198576 1.454442
v -0.185201 5.198576 1.426850
v -0.186118 5.198576 1.454442
v -0.178780 5.198576 1.419972
v -0.852770 5.146292 1.386552
v -0.841553 5.146292 1.400910
v -0.847386 5.146292 1.415268
v -0.840655 5.146292 1.454442
v -0.841553 5.146292 1.422447
v -0.879243 5.146292 1.352899
v -0.842450 5.146292 1.366361
v -0.855014 5.146292 1.352451
v -0.892256 5.146292 1.324182
v -0.934558 5.146292 1.284251
v -0.936068 5.146292 1.454442
v -0.911101 5.146292 1.294120
v -0.104032 5.146291 1.284233
v -0.093358 5.146291 1.282850
v -0.092597 5.146291 1.454442
v -0.136133 5.146291 1.338346
v -0.124668 5.146291 1.303034
v -0.154475 5.146291 1.364942
v -0.186118 5.146291 1.454442
v -0.185201 5.146291 1.426850
v -0.178780 5.146291 1.419972
v -0.172819 5.146291 1.393374
v -0.184283 5.146291 1.401170
v -0.172360 5.146291 1.364026
v -0.179698 5.146291 1.373656
v -0.092597 5.107382 1.454442
v -0.092597 5.146291 1.454442
v -0.093358 5.146291 1.282850
v -0.095285 5.107382 0.848727
v -0.095285 5.198576 0.848727
v -0.093358 5.198576 1.282850
v -0.098892 5.107382 0.036211
v -0.098892 5.198576 0.036211
v -0.936068 5.107382 1.454442
v -0.936068 5.146292 1.454442
v -0.840655 5.146292 1.454442
v -0.517242 5.107382 1.454442
v -0.517242 5.198576 1.454442
v -0.840655 5.198576 1.454442
v -0.186118 5.146291 1.454442
v -0.186118 5.198576 1.454442
v -0.092597 5.107382 1.454442
v -0.092597 5.146291 1.454442
v -0.841553 5.198576 1.422447
v -0.840655 5.198576 1.454442
v -0.840655 5.146292 1.454442
v -0.841553 5.146292 1.422447
v -0.847386 5.198576 1.415268
v -0.847386 5.146292 1.415268
v -0.186118 5.198576 1.454442
v -0.185201 5.198576 1.426850
v -0.185201 5.146291 1.426850
v -0.186118 5.146291 1.454442
v -0.185201 5.198576 1.426850
v -0.178780 5.198576 1.419972
v -0.178780 5.146291 1.419972
v -0.185201 5.146291 1.426850
v -0.178780 5.198576 1.419972
v -0.184283 5.198576 1.401170
v -0.184283 5.146291 1.401170
v -0.178780 5.146291 1.419972
v -0.184283 5.198576 1.401170
v -0.172819 5.198576 1.393374
v -0.172819 5.146291 1.393374
v -0.184283 5.146291 1.401170
v -0.172819 5.198576 1.393374
v -0.179698 5.198576 1.373656
v -0.179698 5.146291 1.373656
v -0.172819 5.146291 1.393374
v -0.179698 5.198576 1.373656
v -0.172360 5.198576 1.364026
v -0.172360 5.146291 1.364026
v -0.179698 5.146291 1.373656
v -0.172360 5.198576 1.364026
v -0.154475 5.198576 1.364942
v -0.154475 5.146291 1.364942
v -0.172360 5.146291 1.364026
v -0.154475 5.198576 1.364942
v -0.136133 5.198576 1.338346
v -0.136133 5.146291 1.338346
v -0.154475 5.146291 1.364942
v -0.136133 5.198576 1.338346
v -0.124668 5.198576 1.303034
v -0.124668 5.146291 1.303034
v -0.136133 5.146291 1.338346
v -0.124668 5.198576 1.303034
v -0.104032 5.198576 1.284233
v -0.104032 5.146291 1.284233
v -0.124668 5.146291 1.303034
v -0.104032 5.198576 1.284233
v -0.093358 5.198576 1.282850
v -0.093358 5.146291 1.282850
v -0.104032 5.146291 1.284233
v -0.098892 5.198576 0.036211
v -0.517242 5.198576 0.036211
v -0.517242 5.107382 0.036211
v -0.098892 5.107382 0.036211
v -0.923479 5.107382 0.036211
v -0.923479 5.198576 0.036211
v -0.923479 5.198576 0.036211
v -0.930692 5.198576 0.848727
v -0.930692 5.107382 0.848727
v -0.923479 5.107382 0.036211
v -0.934558 5.146292 1.284251
v -0.934558 5.198576 1.284251
v -0.936068 5.107382 1.454442
v -0.936068 5.146292 1.454442
v -0.934558 5.198576 1.284251
v -0.911101 5.198576 1.294120
v -0.911101 5.146292 1.294120
v -0.934558 5.146292 1.284251
v -0.892256 5.146292 1.324182
v -0.892256 5.198576 1.324182
v -0.879243 5.146292 1.352899
v -0.879243 5.198576 1.352899
v -0.879243 5.198576 1.352899
v -0.855014 5.198576 1.352451
v -0.855014 5.146292 1.352451
v -0.879243 5.146292 1.352899
v -0.855014 5.198576 1.352451
v -0.842450 5.198576 1.366361
v -0.842450 5.146292 1.366361
v -0.855014 5.146292 1.352451
v -0.842450 5.198576 1.366361
v -0.852770 5.198576 1.386552
v -0.852770 5.146292 1.386552
v -0.842450 5.146292 1.366361
v -0.852770 5.198576 1.386552
v -0.841553 5.198576 1.400910
v -0.841553 5.146292 1.400910
v -0.852770 5.146292 1.386552
v -0.841553 5.198576 1.400910
v -0.847386 5.198576 1.415268
v -0.847386 5.146292 1.415268
v -0.841553 5.146292 1.400910
v -0.101254 5.207416 1.654938
v -0.517242 5.207417 1.654938
v -0.517242 5.107382 1.654938
v -0.101254 5.107381 1.654938
v -0.925425 5.107382 1.654938
v -0.925425 5.207418 1.654938
v -0.925425 5.207418 1.654938
v -0.917594 5.207418 1.715178
v -0.917594 5.107382 1.715178
v -0.925425 5.107382 1.654938
v -0.906016 5.107382 1.804245
v -0.906016 5.207418 1.804245
v -0.858238 5.107382 1.922197
v -0.858238 5.207417 1.922197
v -0.761189 5.107382 2.050600
v -0.761189 5.207417 2.050600
v -0.761189 5.207417 2.050600
v -0.622333 5.207417 2.149142
v -0.622333 5.107382 2.149142
v -0.761189 5.107382 2.050600
v -0.517242 5.107382 2.195427
v -0.517242 5.207417 2.195427
v -0.517242 5.207417 2.195427
v -0.381950 5.207417 2.135705
v -0.381950 5.107382 2.135705
v -0.517242 5.107382 2.195427
v -0.268478 5.107382 2.049107
v -0.268478 5.207417 2.049107
v -0.174414 5.107382 1.920704
v -0.174414 5.207417 1.920704
v -0.123650 5.107382 1.795286
v -0.123650 5.207417 1.795286
v -0.110867 5.107382 1.715178
v -0.110867 5.207417 1.715178
v -0.101254 5.107381 1.654938
v -0.101254 5.207416 1.654938
v 0.104189 5.212308 -0.017724
v 0.104189 5.061081 -0.017724
v 0.060858 5.107382 -0.017724
v -0.517242 5.212308 -0.017724
v -0.517242 5.107382 -0.017724
v -1.123575 5.212308 -0.017724
v -1.069558 5.107382 -0.017724
v -1.123575 5.061081 -0.017724
v -1.123575 5.212308 0.848727
v -1.123575 5.212308 -0.017724
v -1.123575 5.061081 -0.017724
v -1.123575 5.061081 0.848727
v -1.123575 5.212308 1.454442
v -1.123575 5.061081 1.454442
v -1.123575 5.212308 1.715178
v -1.123575 5.061081 1.715178
v -1.087348 5.212308 1.906123
v -1.087348 5.061081 1.906123
v -1.006049 5.212308 2.074735
v -1.006049 5.061081 2.074735
v 0.104189 5.212308 1.454442
v 0.104189 5.212308 1.715178
v 0.104189 5.061081 1.715178
v 0.104189 5.061081 1.454442
v 0.087428 5.061081 1.808506
v 0.087428 5.212308 1.808506
v 0.026453 5.061081 1.988951
v 0.026453 5.212308 1.988951
v -0.095495 5.061081 2.170875
v -0.095495 5.212308 2.170875
v -0.217444 5.061081 2.284762
v -0.217444 5.212308 2.284762
v -0.380043 5.061081 2.366110
v -0.380043 5.212308 2.366110
v -0.517242 5.061081 2.403086
v -0.517242 5.212308 2.403086
v -0.632071 5.061081 2.372026
v -0.632071 5.212308 2.372026
v -0.754021 5.061081 2.318780
v -0.754021 5.212308 2.318780
v -0.886810 5.061081 2.221162
v -0.886810 5.212308 2.221162
v -1.006049 5.061081 2.074735
v -1.006049 5.212308 2.074735
v 0.104189 5.212308 -0.017724
v 0.104189 5.212308 0.848727
v 0.104189 5.061081 0.848727
v 0.104189 5.061081 -0.017724
v 0.104189 5.061081 1.454442
v 0.104189 5.212308 1.454442
v 0.060466 5.107382 0.848727
v -0.095285 5.107382 0.848727
v -0.098892 5.107382 0.036211
v 0.060858 5.107382 -0.017724
v 0.058627 5.107382 1.454442
v -0.517242 5.107382 -0.017724
v -0.517242 5.107382 0.036211
v -0.923479 5.107382 0.036211
v -1.069558 5.107382 -0.017724
v -1.070933 5.107382 0.848727
v -0.930692 5.107382 0.848727
v -0.936068 5.107382 1.454442
v -0.092597 5.107382 1.454442
v -1.071894 5.107382 1.454442
v -0.101254 5.107381 1.654938
v 0.057835 5.107382 1.715178
v -0.517242 5.107382 1.454442
v -0.110867 5.107382 1.715178
v -0.517242 5.107382 1.654938
v 0.039408 5.107382 1.791514
v -0.123650 5.107382 1.795286
v -0.002659 5.107382 1.965779
v -0.174414 5.107382 1.920704
v -0.131897 5.107382 2.136263
v -0.268478 5.107382 2.049107
v -0.250136 5.107382 2.246253
v -0.381950 5.107382 2.135705
v -0.387622 5.107382 2.323245
v -0.517242 5.107382 2.195427
v -0.517242 5.107382 2.350743
v -0.714841 5.107382 2.281999
v -0.622333 5.107382 2.149142
v -0.841329 5.107382 2.188508
v -0.761189 5.107382 2.050600
v -0.954068 5.107382 2.042772
v -0.858238 5.107382 1.922197
v -1.031062 5.107382 1.894286
v -0.906016 5.107382 1.804245
v -1.072308 5.107382 1.715178
v -0.917594 5.107382 1.715178
v -0.925425 5.107382 1.654938
v 10.419270 0.843698 3.313995
v 10.419270 0.843306 4.180446
v 10.372969 0.887029 4.180446
v 10.372969 0.887029 3.313995
v 10.372969 0.887029 4.786162
v 10.419270 0.841467 4.786162
v 10.372969 0.887029 5.046897
v 10.419270 0.840675 5.046897
v 10.372969 0.870268 5.140225
v 10.419270 0.822248 5.123234
v 10.419270 0.780181 5.297499
v 10.372969 0.809294 5.320670
v 10.419270 0.650943 5.467982
v 10.372969 0.687344 5.502594
v 10.419270 0.532705 5.577972
v 10.372969 0.565395 5.616481
v 10.419270 0.395218 5.654964
v 10.372969 0.402797 5.697829
v 10.419270 0.265598 5.682462
v 10.372969 0.265598 5.734805
v 10.372969 0.150769 5.703745
v 10.419270 0.067998 5.613719
v 10.372969 0.028819 5.650499
v 10.419270 -0.058490 5.520227
v 10.372969 -0.103970 5.552882
v 10.419270 -0.171229 5.374490
v 10.372969 -0.223209 5.406455
v 10.419270 -0.248222 5.226005
v 10.372969 -0.304508 5.237843
v 10.419270 -0.289467 5.046897
v 10.372969 -0.340736 5.046897
v 10.372969 -0.340735 4.786162
v 10.419270 -0.289054 4.786162
v 10.419270 -0.288093 4.180446
v 10.372969 -0.340735 4.180446
v 10.372969 -0.340735 3.313995
v 10.419270 -0.286718 3.313995
v 10.519305 0.514362 5.380826
v 10.519305 0.608426 5.252424
v 10.519305 0.659190 5.127006
v 10.519305 0.265598 5.046897
v 10.519305 0.671973 5.046897
v 10.519305 0.265598 5.527147
v 10.519305 0.400890 5.467424
v 10.519305 0.160506 5.480862
v 10.519305 -0.075398 5.253916
v 10.519305 0.021652 5.382320
v 10.519305 -0.123175 5.135964
v 10.519305 -0.134754 5.046897
v 10.519305 0.265598 4.986658
v 10.519304 0.681586 4.986658
v 10.519305 -0.142585 4.986658
v 10.510463 0.265598 4.180446
v 10.510463 0.687554 4.180446
v 10.510463 0.683949 3.367931
v 10.510463 0.265598 3.367931
v 10.510463 -0.140640 3.367931
v 10.510463 -0.147852 4.180446
v 10.510463 0.265598 4.786162
v 10.510463 -0.151718 4.615970
v 10.510463 -0.128261 4.625840
v 10.510463 -0.072174 4.684170
v 10.510463 -0.109415 4.655902
v 10.510463 -0.096403 4.684618
v 10.510463 -0.059610 4.698079
v 10.510463 -0.058713 4.732629
v 10.510463 -0.069930 4.718271
v 10.510463 -0.058713 4.754167
v 10.510463 -0.064546 4.746988
v 10.510463 -0.057815 4.786162
v 10.510463 0.596722 4.786162
v 10.510463 0.597639 4.758570
v 10.510463 0.598556 4.732890
v 10.510463 0.604059 4.751692
v 10.510463 0.610021 4.725094
v 10.510463 0.603142 4.705375
v 10.510463 0.610479 4.695745
v 10.510463 0.658171 4.634754
v 10.510463 0.646707 4.670065
v 10.510463 0.628364 4.696662
v 10.510463 0.678807 4.615952
v 10.510463 0.689482 4.614570
v 10.458180 -0.096403 4.684618
v 10.458180 -0.109415 4.655902
v 10.458180 -0.128261 4.625840
v 10.458180 -0.153229 4.786162
v 10.458180 -0.151718 4.615970
v 10.458180 -0.064546 4.746988
v 10.458180 -0.058713 4.754167
v 10.458180 -0.057815 4.786162
v 10.458180 -0.069930 4.718271
v 10.458180 -0.058713 4.732629
v 10.458180 -0.072174 4.684170
v 10.458180 -0.059610 4.698079
v 10.458179 0.678807 4.615952
v 10.458179 0.658171 4.634754
v 10.458179 0.646707 4.670065
v 10.458179 0.690243 4.786162
v 10.458179 0.689482 4.614570
v 10.458180 0.596722 4.786162
v 10.458180 0.610021 4.725094
v 10.458180 0.628364 4.696662
v 10.458180 0.603142 4.705375
v 10.458180 0.610479 4.695745
v 10.458180 0.604059 4.751692
v 10.458180 0.598556 4.732890
v 10.458180 0.597639 4.758570
v 10.419270 0.690243 4.786162
v 10.419270 0.687554 4.180446
v 10.458179 0.689482 4.614570
v 10.458179 0.690243 4.786162
v 10.510463 0.687554 4.180446
v 10.510463 0.689482 4.614570
v 10.419270 0.683949 3.367931
v 10.510463 0.683949 3.367931
v 10.419270 -0.153229 4.786162
v 10.419270 0.265598 4.786162
v 10.458180 -0.057815 4.786162
v 10.458180 -0.153229 4.786162
v 10.510463 0.265598 4.786162
v 10.510463 -0.057815 4.786162
v 10.458180 0.596722 4.786162
v 10.510463 0.596722 4.786162
v 10.419270 0.690243 4.786162
v 10.458179 0.690243 4.786162
v 10.458180 -0.057815 4.786162
v 10.510463 -0.057815 4.786162
v 10.510463 -0.058713 4.754167
v 10.458180 -0.058713 4.754167
v 10.510463 -0.064546 4.746988
v 10.458180 -0.064546 4.746988
v 10.458180 0.597639 4.758570
v 10.510463 0.597639 4.758570
v 10.510463 0.596722 4.786162
v 10.458180 0.596722 4.786162
v 10.458180 0.604059 4.751692
v 10.510463 0.604059 4.751692
v 10.510463 0.597639 4.758570
v 10.458180 0.597639 4.758570
v 10.458180 0.598556 4.732890
v 10.510463 0.598556 4.732890
v 10.510463 0.604059 4.751692
v 10.458180 0.604059 4.751692
v 10.458180 0.610021 4.725094
v 10.510463 0.610021 4.725094
v 10.510463 0.598556 4.732890
v 10.458180 0.598556 4.732890
v 10.458180 0.603142 4.705375
v 10.510463 0.603142 4.705375
v 10.510463 0.610021 4.725094
v 10.458180 0.610021 4.725094
v 10.458180 0.610479 4.695745
v 10.510463 0.610479 4.695745
v 10.510463 0.603142 4.705375
v 10.458180 0.603142 4.705375
v 10.458180 0.628364 4.696662
v 10.510463 0.628364 4.696662
v 10.510463 0.610479 4.695745
v 10.458180 0.610479 4.695745
v 10.458179 0.646707 4.670065
v 10.510463 0.646707 4.670065
v 10.510463 0.628364 4.696662
v 10.458180 0.628364 4.696662
v 10.458179 0.658171 4.634754
v 10.510463 0.658171 4.634754
v 10.510463 0.646707 4.670065
v 10.458179 0.646707 4.670065
v 10.458179 0.678807 4.615952
v 10.510463 0.678807 4.615952
v 10.510463 0.658171 4.634754
v 10.458179 0.658171 4.634754
v 10.458179 0.689482 4.614570
v 10.510463 0.689482 4.614570
v 10.510463 0.678807 4.615952
v 10.458179 0.678807 4.615952
v 10.419270 0.265598 3.367931
v 10.510463 0.265598 3.367931
v 10.510463 0.683949 3.367931
v 10.419270 0.683949 3.367931
v 10.419270 -0.140640 3.367931
v 10.510463 -0.140640 3.367931
v 10.419270 -0.147852 4.180446
v 10.510463 -0.147852 4.180446
v 10.510463 -0.140640 3.367931
v 10.419270 -0.140640 3.367931
v 10.458180 -0.151718 4.615970
v 10.510463 -0.151718 4.615970
v 10.419270 -0.153229 4.786162
v 10.458180 -0.153229 4.786162
v 10.458180 -0.128261 4.625840
v 10.510463 -0.128261 4.625840
v 10.510463 -0.151718 4.615970
v 10.458180 -0.151718 4.615970
v 10.458180 -0.109415 4.655902
v 10.510463 -0.109415 4.655902
v 10.458180 -0.096403 4.684618
v 10.510463 -0.096403 4.684618
v 10.458180 -0.072174 4.684170
v 10.510463 -0.072174 4.684170
v 10.510463 -0.096403 4.684618
v 10.458180 -0.096403 4.684618
v 10.458180 -0.059610 4.698079
v 10.510463 -0.059610 4.698079
v 10.510463 -0.072174 4.684170
v 10.458180 -0.072174 4.684170
v 10.458180 -0.069930 4.718271
v 10.510463 -0.069930 4.718271
v 10.510463 -0.059610 4.698079
v 10.458180 -0.059610 4.698079
v 10.458180 -0.058713 4.732629
v 10.510463 -0.058713 4.732629
v 10.510463 -0.069930 4.718271
v 10.458180 -0.069930 4.718271
v 10.458180 -0.064546 4.746988
v 10.510463 -0.064546 4.746988
v 10.510463 -0.058713 4.732629
v 10.458180 -0.058713 4.732629
v 10.419270 0.265598 4.986658
v 10.519305 0.265598 4.986658
v 10.519304 0.681586 4.986658
v 10.419269 0.681586 4.986658
v 10.419270 -0.142586 4.986658
v 10.519305 -0.142585 4.986658
v 10.419270 -0.134754 5.046897
v 10.519305 -0.134754 5.046897
v 10.519305 -0.142585 4.986658
v 10.419270 -0.142586 4.986658
v 10.419270 -0.123175 5.135964
v 10.519305 -0.123175 5.135964
v 10.419270 -0.075398 5.253916
v 10.519305 -0.075398 5.253916
v 10.419270 0.021652 5.382320
v 10.519305 0.021652 5.382320
v 10.419270 0.160506 5.480862
v 10.519305 0.160506 5.480862
v 10.519305 0.021652 5.382320
v 10.419270 0.021652 5.382320
v 10.419270 0.265598 5.527147
v 10.519305 0.265598 5.527147
v 10.419270 0.400890 5.467424
v 10.519305 0.400890 5.467424
v 10.519305 0.265598 5.527147
v 10.419270 0.265598 5.527147
v 10.419270 0.514362 5.380826
v 10.519305 0.514362 5.380826
v 10.419270 0.608426 5.252424
v 10.519305 0.608426 5.252424
v 10.419270 0.659190 5.127006
v 10.519305 0.659190 5.127006
v 10.419270 0.671973 5.046897
v 10.519305 0.671973 5.046897
v 10.419269 0.681586 4.986658
v 10.519304 0.681586 4.986658
v 10.419270 0.843698 3.313995
v 10.372969 0.887029 3.313995
v 10.524196 0.887029 3.313995
v 10.419270 0.265598 3.313995
v 10.524196 0.265598 3.313995
v 10.419270 -0.286718 3.313995
v 10.524196 -0.340735 3.313995
v 10.372969 -0.340735 3.313995
v 10.372969 -0.340735 3.313995
v 10.524196 -0.340735 3.313995
v 10.524196 -0.340735 4.180446
v 10.372969 -0.340735 4.180446
v 10.524196 -0.340735 4.786162
v 10.372969 -0.340735 4.786162
v 10.524196 -0.340736 5.046897
v 10.372969 -0.340736 5.046897
v 10.524196 -0.304508 5.237843
v 10.372969 -0.304508 5.237843
v 10.524196 -0.223209 5.406455
v 10.372969 -0.223209 5.406455
v 10.372969 0.887029 5.046897
v 10.524196 0.887029 5.046897
v 10.524196 0.887029 4.786162
v 10.372969 0.887029 4.786162
v 10.372969 0.870268 5.140225
v 10.524196 0.870268 5.140225
v 10.372969 0.809294 5.320670
v 10.524196 0.809294 5.320670
v 10.372969 0.687344 5.502594
v 10.524196 0.687344 5.502594
v 10.372969 0.565395 5.616481
v 10.524196 0.565395 5.616481
v 10.372969 0.402797 5.697829
v 10.524196 0.402797 5.697829
v 10.372969 0.265598 5.734805
v 10.524196 0.265598 5.734805
v 10.372969 0.150769 5.703745
v 10.524196 0.150769 5.703745
v 10.372969 0.028819 5.650499
v 10.524196 0.028819 5.650499
v 10.372969 -0.103970 5.552882
v 10.524196 -0.103970 5.552882
v 10.372969 -0.223209 5.406455
v 10.524196 -0.223209 5.406455
v 10.372969 0.887029 4.180446
v 10.524196 0.887029 4.180446
v 10.524196 0.887029 3.313995
v 10.372969 0.887029 3.313995
v 10.372969 0.887029 4.786162
v 10.524196 0.887029 4.786162
v 10.419270 0.683949 3.367931
v 10.419270 0.687554 4.180446
v 10.419270 0.843306 4.180446
v 10.419270 0.843698 3.313995
v 10.419270 0.841467 4.786162
v 10.419270 0.265598 3.313995
v 10.419270 0.265598 3.367931
v 10.419270 -0.140640 3.367931
v 10.419270 -0.286718 3.313995
v 10.419270 -0.288093 4.180446
v 10.419270 -0.147852 4.180446
v 10.419270 -0.153229 4.786162
v 10.419270 0.690243 4.786162
v 10.419270 -0.289054 4.786162
v 10.419269 0.681586 4.986658
v 10.419270 0.840675 5.046897
v 10.419270 0.265598 4.786162
v 10.419270 0.671973 5.046897
v 10.419270 0.265598 4.986658
v 10.419270 0.822248 5.123234
v 10.419270 0.659190 5.127006
v 10.419270 0.780181 5.297499
v 10.419270 0.608426 5.252424
v 10.419270 0.650943 5.467982
v 10.419270 0.514362 5.380826
v 10.419270 0.532705 5.577972
v 10.419270 0.400890 5.467424
v 10.419270 0.395218 5.654964
v 10.419270 0.265598 5.527147
v 10.419270 0.265598 5.682462
v 10.419270 0.067998 5.613719
v 10.419270 0.160506 5.480862
v 10.419270 -0.058490 5.520227
v 10.419270 0.021652 5.382320
v 10.419270 -0.171229 5.374490
v 10.419270 -0.075398 5.253916
v 10.419270 -0.248222 5.226005
v 10.419270 -0.123175 5.135964
v 10.419270 -0.289467 5.046897
v 10.419270 -0.134754 5.046897
v 10.419270 -0.142586 4.986658
vt -0.000000 0.336100
vt 0.017500 0.336100
vt 0.017400 0.000000
vt 0.000000 0.000000
vt -0.000000 0.571100
vt 0.018300 0.571100
vt -0.000000 0.672200
vt 0.018600 0.672200
vt 0.006700 0.708400
vt 0.026000 0.701800
vt 0.042900 0.769400
vt 0.031200 0.778400
vt 0.094700 0.835600
vt 0.080100 0.849000
vt 0.142200 0.878200
vt 0.129000 0.893200
vt 0.197300 0.908100
vt 0.194300 0.924700
vt 0.249300 0.918800
vt 0.249300 0.939100
vt 0.295400 0.927000
vt 0.328600 0.892100
vt 0.344300 0.906400
vt 0.379300 0.855800
vt 0.397600 0.868500
vt 0.424600 0.799300
vt 0.445400 0.811700
vt 0.455500 0.741700
vt 0.478000 0.746300
vt 0.472000 0.672200
vt 0.492600 0.672200
vt 0.492600 0.571100
vt 0.471800 0.571100
vt 0.471500 0.336100
vt 0.492600 0.336100
vt 0.492600 0.000000
vt 0.470900 0.000000
vt 0.249300 0.858500
vt 0.249300 0.672200
vt 0.086300 0.672200
vt 0.091400 0.703300
vt 0.111800 0.751900
vt 0.149500 0.801700
vt 0.195000 0.835300
vt 0.249300 0.648800
vt 0.082400 0.648800
vt 0.409900 0.672200
vt 0.413100 0.648800
vt 0.386100 0.752500
vt 0.405300 0.706800
vt 0.291500 0.840600
vt 0.347200 0.802300
vt 0.081500 0.020900
vt 0.080000 0.336100
vt 0.249300 0.336100
vt 0.249300 0.020900
vt 0.412300 0.020900
vt 0.415200 0.336100
vt 0.249300 0.571100
vt 0.079300 0.504500
vt 0.083500 0.505000
vt 0.091800 0.512300
vt 0.096400 0.526000
vt 0.103800 0.536400
vt 0.111000 0.536000
vt 0.113900 0.539700
vt 0.407300 0.508900
vt 0.416700 0.505100
vt 0.384800 0.531500
vt 0.399800 0.520500
vt 0.394500 0.531700
vt 0.379800 0.536900
vt 0.111100 0.547400
vt 0.115700 0.550400
vt 0.379400 0.550300
vt 0.383900 0.544700
vt 0.379400 0.558700
vt 0.381800 0.555900
vt 0.379100 0.571100
vt 0.116100 0.560400
vt 0.116500 0.571100
vt 0.113500 0.557700
vt 0.383900 0.544700
vt 0.379400 0.550300
vt 0.381800 0.555900
vt 0.379100 0.571100
vt 0.379400 0.558700
vt 0.394500 0.531700
vt 0.379800 0.536900
vt 0.384800 0.531500
vt 0.399800 0.520500
vt 0.416700 0.505100
vt 0.417300 0.571100
vt 0.407300 0.508900
vt 0.083500 0.505000
vt 0.079300 0.504500
vt 0.078900 0.571100
vt 0.096400 0.526000
vt 0.091800 0.512300
vt 0.103800 0.536400
vt 0.116500 0.571100
vt 0.116100 0.560400
vt 0.113500 0.557700
vt 0.111100 0.547400
vt 0.115700 0.550400
vt 0.111000 0.536000
vt 0.113900 0.539700
vt 0.026100 0.567200
vt 0.041000 0.567200
vt 0.041000 0.501500
vt 0.026100 0.335300
vt 0.061000 0.335300
vt 0.061000 0.501500
vt 0.026100 0.024100
vt 0.061000 0.024100
vt 0.434500 0.520700
vt 0.454400 0.520700
vt 0.454400 0.471900
vt 0.434500 0.306200
vt 0.481200 0.306200
vt 0.481200 0.471900
vt 0.454400 0.136600
vt 0.481200 0.136600
vt 0.434500 0.088700
vt 0.454400 0.088700
vt 0.022400 0.347800
vt 0.022400 0.371600
vt 0.061100 0.371600
vt 0.061100 0.347800
vt 0.022400 0.341000
vt 0.061100 0.341000
vt 0.061100 0.370000
vt 0.061100 0.349400
vt 0.022400 0.349400
vt 0.022400 0.370000
vt 0.061100 0.363200
vt 0.061100 0.356200
vt 0.022400 0.356200
vt 0.022400 0.363200
vt 0.061100 0.367000
vt 0.061100 0.352400
vt 0.022400 0.352400
vt 0.022400 0.367000
vt 0.061100 0.364800
vt 0.061100 0.354600
vt 0.022400 0.354600
vt 0.022400 0.364800
vt 0.061100 0.367400
vt 0.061100 0.352000
vt 0.022400 0.352000
vt 0.022400 0.367400
vt 0.061100 0.364200
vt 0.061100 0.355200
vt 0.022400 0.355200
vt 0.022400 0.364200
vt 0.022400 0.353100
vt 0.022400 0.366300
vt 0.061100 0.366300
vt 0.061100 0.353100
vt 0.061100 0.371600
vt 0.061100 0.347800
vt 0.022400 0.347800
vt 0.022400 0.371600
vt 0.061100 0.373400
vt 0.061100 0.345900
vt 0.022400 0.345900
vt 0.022400 0.373400
vt 0.061100 0.370000
vt 0.061100 0.349400
vt 0.022400 0.349400
vt 0.022400 0.370000
vt 0.061100 0.363700
vt 0.061100 0.355700
vt 0.022400 0.355700
vt 0.022400 0.363700
vt 0.151100 0.019000
vt 0.255400 0.019000
vt 0.255400 0.003700
vt 0.151100 0.003700
vt 0.356600 0.003700
vt 0.356600 0.019000
vt 0.435000 0.021200
vt 0.435000 0.337100
vt 0.470400 0.337100
vt 0.470400 0.021200
vt 0.455300 0.506400
vt 0.435000 0.506400
vt 0.470400 0.572600
vt 0.455300 0.572600
vt 0.022400 0.198900
vt 0.022400 0.217700
vt 0.061100 0.217700
vt 0.061100 0.198900
vt 0.061100 0.244000
vt 0.022400 0.244000
vt 0.061100 0.267400
vt 0.022400 0.267400
vt 0.022400 0.267400
vt 0.022400 0.285300
vt 0.061100 0.285300
vt 0.061100 0.267400
vt 0.022400 0.285300
vt 0.022400 0.299200
vt 0.061100 0.299200
vt 0.061100 0.285300
vt 0.022400 0.299200
vt 0.022400 0.316000
vt 0.061100 0.316000
vt 0.061100 0.299200
vt 0.022400 0.316000
vt 0.022400 0.329500
vt 0.061100 0.329500
vt 0.061100 0.316000
vt 0.022400 0.329500
vt 0.022400 0.341000
vt 0.061100 0.341000
vt 0.061100 0.329500
vt 0.068600 0.429300
vt 0.068600 0.290500
vt 0.028200 0.290500
vt 0.028200 0.429300
vt 0.028200 0.154200
vt 0.068600 0.154200
vt 0.068600 0.154200
vt 0.068600 0.134100
vt 0.028200 0.134100
vt 0.028200 0.154200
vt 0.028200 0.104400
vt 0.068600 0.104400
vt 0.028200 0.065000
vt 0.068600 0.065000
vt 0.028200 0.022200
vt 0.068600 0.022200
vt 0.068600 0.725200
vt 0.068600 0.678900
vt 0.028200 0.678900
vt 0.028200 0.725200
vt 0.028200 0.643800
vt 0.068600 0.643800
vt 0.068600 0.643800
vt 0.068600 0.598700
vt 0.028200 0.598700
vt 0.028200 0.643800
vt 0.028200 0.560800
vt 0.068600 0.560800
vt 0.028200 0.518000
vt 0.068600 0.518000
vt 0.028200 0.476100
vt 0.068600 0.476100
vt 0.028200 0.449400
vt 0.068600 0.449400
vt 0.028200 0.429300
vt 0.068600 0.429300
vt 0.017700 0.549700
vt 0.063600 0.549700
vt 0.063600 0.530800
vt 0.017700 0.277700
vt 0.063600 0.277700
vt 0.017700 0.012300
vt 0.063600 0.036000
vt 0.063600 0.012300
vt 0.017700 0.415700
vt 0.017700 0.708200
vt 0.063600 0.708200
vt 0.063600 0.415700
vt 0.017700 0.211300
vt 0.063600 0.211300
vt 0.017700 0.123300
vt 0.063600 0.123300
vt 0.017700 0.058800
vt 0.063600 0.058800
vt 0.017700 0.001900
vt 0.063600 0.001900
vt 0.017700 0.000700
vt 0.017700 0.114900
vt 0.063600 0.114900
vt 0.063600 0.000700
vt 0.063600 0.155700
vt 0.017700 0.155700
vt 0.063600 0.234700
vt 0.017700 0.234700
vt 0.063600 0.314300
vt 0.017700 0.314300
vt 0.063600 0.367700
vt 0.017700 0.367700
vt 0.063600 0.438900
vt 0.017700 0.438900
vt 0.063600 0.498900
vt 0.017700 0.498900
vt 0.063600 0.549200
vt 0.017700 0.549200
vt 0.063600 0.602600
vt 0.017700 0.602600
vt 0.063600 0.660700
vt 0.017700 0.660700
vt 0.063600 0.724800
vt 0.017700 0.724800
vt 0.017700 0.008300
vt 0.017700 0.387600
vt 0.063600 0.387600
vt 0.063600 0.008300
vt 0.063600 0.652700
vt 0.017700 0.652700
vt 0.017500 0.336100
vt 0.080000 0.336100
vt 0.081500 0.020900
vt 0.017400 0.000000
vt 0.018300 0.571100
vt 0.249300 0.000000
vt 0.249300 0.020900
vt 0.412300 0.020900
vt 0.470900 0.000000
vt 0.471500 0.336100
vt 0.415200 0.336100
vt 0.417300 0.571100
vt 0.078900 0.571100
vt 0.471800 0.571100
vt 0.082400 0.648800
vt 0.018600 0.672200
vt 0.249300 0.571100
vt 0.086300 0.672200
vt 0.249300 0.648800
vt 0.026000 0.701800
vt 0.091400 0.703300
vt 0.042900 0.769400
vt 0.111800 0.751900
vt 0.094700 0.835600
vt 0.149500 0.801700
vt 0.142200 0.878200
vt 0.195000 0.835300
vt 0.197300 0.908100
vt 0.249300 0.858500
vt 0.249300 0.918800
vt 0.328600 0.892100
vt 0.291500 0.840600
vt 0.379300 0.855800
vt 0.347200 0.802300
vt 0.424600 0.799300
vt 0.386100 0.752500
vt 0.455500 0.741700
vt 0.405300 0.706800
vt 0.472000 0.672200
vt 0.409900 0.672200
vt 0.413100 0.648800
vt 0.017400 0.000000
vt 0.017500 0.336100
vt -0.000000 0.336100
vt 0.000000 0.000000
vt -0.000000 0.571100
vt 0.018300 0.571100
vt -0.000000 0.672200
vt 0.018600 0.672200
vt 0.006700 0.708400
vt 0.026000 0.701800
vt 0.042900 0.769400
vt 0.031200 0.778400
vt 0.094700 0.835600
vt 0.080100 0.849000
vt 0.142200 0.878200
vt 0.129000 0.893200
vt 0.197300 0.908100
vt 0.194300 0.924700
vt 0.249300 0.918800
vt 0.249300 0.939100
vt 0.295400 0.927000
vt 0.328600 0.892100
vt 0.344300 0.906400
vt 0.379300 0.855800
vt 0.397600 0.868500
vt 0.424600 0.799300
vt 0.445400 0.811700
vt 0.455500 0.741700
vt 0.478000 0.746300
vt 0.472000 0.672200
vt 0.492600 0.672200
vt 0.492600 0.571100
vt 0.471800 0.571100
vt 0.471500 0.336100
vt 0.492600 0.336100
vt 0.492600 0.000000
vt 0.470900 0.000000
vt 0.149500 0.801700
vt 0.111800 0.751900
vt 0.091400 0.703300
vt 0.249300 0.672200
vt 0.086300 0.672200
vt 0.249300 0.858500
vt 0.195000 0.835300
vt 0.291500 0.840600
vt 0.386100 0.752500
vt 0.347200 0.802300
vt 0.405300 0.706800
vt 0.409900 0.672200
vt 0.249300 0.648800
vt 0.082400 0.648800
vt 0.413100 0.648800
vt 0.249300 0.336100
vt 0.080000 0.336100
vt 0.081500 0.020900
vt 0.249300 0.020900
vt 0.412300 0.020900
vt 0.415200 0.336100
vt 0.249300 0.571100
vt 0.416700 0.505100
vt 0.407300 0.508900
vt 0.384800 0.531500
vt 0.399800 0.520500
vt 0.394500 0.531700
vt 0.379800 0.536900
vt 0.379400 0.550300
vt 0.383900 0.544700
vt 0.379400 0.558700
vt 0.381800 0.555900
vt 0.379100 0.571100
vt 0.116500 0.571100
vt 0.116100 0.560400
vt 0.115700 0.550400
vt 0.113500 0.557700
vt 0.111100 0.547400
vt 0.113900 0.539700
vt 0.111000 0.536000
vt 0.091800 0.512300
vt 0.096400 0.526000
vt 0.103800 0.536400
vt 0.083500 0.505000
vt 0.079300 0.504500
vt 0.394500 0.531700
vt 0.399800 0.520500
vt 0.407300 0.508900
vt 0.417300 0.571100
vt 0.416700 0.505100
vt 0.381800 0.555900
vt 0.379400 0.558700
vt 0.379100 0.571100
vt 0.383900 0.544700
vt 0.379400 0.550300
vt 0.384800 0.531500
vt 0.379800 0.536900
vt 0.083500 0.505000
vt 0.091800 0.512300
vt 0.096400 0.526000
vt 0.078900 0.571100
vt 0.079300 0.504500
vt 0.116500 0.571100
vt 0.111100 0.547400
vt 0.103800 0.536400
vt 0.113900 0.539700
vt 0.111000 0.536000
vt 0.113500 0.557700
vt 0.115700 0.550400
vt 0.116100 0.560400
vt 0.026100 0.567200
vt 0.026100 0.335300
vt 0.041000 0.501500
vt 0.041000 0.567200
vt 0.061000 0.335300
vt 0.061000 0.501500
vt 0.026100 0.024100
vt 0.061000 0.024100
vt 0.434500 0.520700
vt 0.434500 0.306200
vt 0.454400 0.471900
vt 0.454400 0.520700
vt 0.481200 0.306200
vt 0.481200 0.471900
vt 0.454400 0.136600
vt 0.481200 0.136600
vt 0.434500 0.088700
vt 0.454400 0.088700
vt 0.061100 0.371600
vt 0.022400 0.371600
vt 0.022400 0.347800
vt 0.061100 0.347800
vt 0.022400 0.341000
vt 0.061100 0.341000
vt 0.022400 0.349400
vt 0.061100 0.349400
vt 0.061100 0.370000
vt 0.022400 0.370000
vt 0.022400 0.356200
vt 0.061100 0.356200
vt 0.061100 0.363200
vt 0.022400 0.363200
vt 0.022400 0.352400
vt 0.061100 0.352400
vt 0.061100 0.367000
vt 0.022400 0.367000
vt 0.022400 0.354600
vt 0.061100 0.354600
vt 0.061100 0.364800
vt 0.022400 0.364800
vt 0.022400 0.352000
vt 0.061100 0.352000
vt 0.061100 0.367400
vt 0.022400 0.367400
vt 0.022400 0.355200
vt 0.061100 0.355200
vt 0.061100 0.364200
vt 0.022400 0.364200
vt 0.061100 0.366300
vt 0.022400 0.366300
vt 0.022400 0.353100
vt 0.061100 0.353100
vt 0.022400 0.347800
vt 0.061100 0.347800
vt 0.061100 0.371600
vt 0.022400 0.371600
vt 0.022400 0.345900
vt 0.061100 0.345900
vt 0.061100 0.373400
vt 0.022400 0.373400
vt 0.022400 0.349400
vt 0.061100 0.349400
vt 0.061100 0.370000
vt 0.022400 0.370000
vt 0.022400 0.355700
vt 0.061100 0.355700
vt 0.061100 0.363700
vt 0.022400 0.363700
vt 0.255400 0.003700
vt 0.255400 0.019000
vt 0.151100 0.019000
vt 0.151100 0.003700
vt 0.356600 0.003700
vt 0.356600 0.019000
vt 0.470400 0.337100
vt 0.435000 0.337100
vt 0.435000 0.021200
vt 0.470400 0.021200
vt 0.455300 0.506400
vt 0.435000 0.506400
vt 0.470400 0.572600
vt 0.455300 0.572600
vt 0.061100 0.217700
vt 0.022400 0.217700
vt 0.022400 0.198900
vt 0.061100 0.198900
vt 0.061100 0.244000
vt 0.022400 0.244000
vt 0.061100 0.267400
vt 0.022400 0.267400
vt 0.061100 0.285300
vt 0.022400 0.285300
vt 0.022400 0.267400
vt 0.061100 0.267400
vt 0.061100 0.299200
vt 0.022400 0.299200
vt 0.022400 0.285300
vt 0.061100 0.285300
vt 0.061100 0.316000
vt 0.022400 0.316000
vt 0.022400 0.299200
vt 0.061100 0.299200
vt 0.061100 0.329500
vt 0.022400 0.329500
vt 0.022400 0.316000
vt 0.061100 0.316000
vt 0.061100 0.341000
vt 0.022400 0.341000
vt 0.022400 0.329500
vt 0.061100 0.329500
vt 0.028200 0.290500
vt 0.068600 0.290500
vt 0.068600 0.429300
vt 0.028200 0.429300
vt 0.028200 0.154200
vt 0.068600 0.154200
vt 0.028200 0.134100
vt 0.068600 0.134100
vt 0.068600 0.154200
vt 0.028200 0.154200
vt 0.028200 0.104400
vt 0.068600 0.104400
vt 0.028200 0.065000
vt 0.068600 0.065000
vt 0.028200 0.022200
vt 0.068600 0.022200
vt 0.028200 0.678900
vt 0.068600 0.678900
vt 0.068600 0.725200
vt 0.028200 0.725200
vt 0.028200 0.643800
vt 0.068600 0.643800
vt 0.028200 0.598700
vt 0.068600 0.598700
vt 0.068600 0.643800
vt 0.028200 0.643800
vt 0.028200 0.560800
vt 0.068600 0.560800
vt 0.028200 0.518000
vt 0.068600 0.518000
vt 0.028200 0.476100
vt 0.068600 0.476100
vt 0.028200 0.449400
vt 0.068600 0.449400
vt 0.028200 0.429300
vt 0.068600 0.429300
vt 0.063600 0.530800
vt 0.063600 0.549700
vt 0.017700 0.549700
vt 0.063600 0.277700
vt 0.017700 0.277700
vt 0.063600 0.036000
vt 0.017700 0.012300
vt 0.063600 0.012300
vt 0.063600 0.708200
vt 0.017700 0.708200
vt 0.017700 0.415700
vt 0.063600 0.415700
vt 0.017700 0.211300
vt 0.063600 0.211300
vt 0.017700 0.123300
vt 0.063600 0.123300
vt 0.017700 0.058800
vt 0.063600 0.058800
vt 0.017700 0.001900
vt 0.063600 0.001900
vt 0.063600 0.114900
vt 0.017700 0.114900
vt 0.017700 0.000700
vt 0.063600 0.000700
vt 0.063600 0.155700
vt 0.017700 0.155700
vt 0.063600 0.234700
vt 0.017700 0.234700
vt 0.063600 0.314300
vt 0.017700 0.314300
vt 0.063600 0.367700
vt 0.017700 0.367700
vt 0.063600 0.438900
vt 0.017700 0.438900
vt 0.063600 0.498900
vt 0.017700 0.498900
vt 0.063600 0.549200
vt 0.017700 0.549200
vt 0.063600 0.602600
vt 0.017700 0.602600
vt 0.063600 0.660700
vt 0.017700 0.660700
vt 0.063600 0.724800
vt 0.017700 0.724800
vt 0.063600 0.387600
vt 0.017700 0.387600
vt 0.017700 0.008300
vt 0.063600 0.008300
vt 0.063600 0.652700
vt 0.017700 0.652700
vt 0.081500 0.020900
vt 0.080000 0.336100
vt 0.017500 0.336100
vt 0.017400 0.000000
vt 0.018300 0.571100
vt 0.249300 0.000000
vt 0.249300 0.020900
vt 0.412300 0.020900
vt 0.470900 0.000000
vt 0.471500 0.336100
vt 0.415200 0.336100
vt 0.417300 0.571100
vt 0.078900 0.571100
vt 0.471800 0.571100
vt 0.082400 0.648800
vt 0.018600 0.672200
vt 0.249300 0.571100
vt 0.086300 0.672200
vt 0.249300 0.648800
vt 0.026000 0.701800
vt 0.091400 0.703300
vt 0.042900 0.769400
vt 0.111800 0.751900
vt 0.094700 0.835600
vt 0.149500 0.801700
vt 0.142200 0.878200
vt 0.195000 0.835300
vt 0.197300 0.908100
vt 0.249300 0.858500
vt 0.249300 0.918800
vt 0.328600 0.892100
vt 0.291500 0.840600
vt 0.379300 0.855800
vt 0.347200 0.802300
vt 0.424600 0.799300
vt 0.386100 0.752500
vt 0.455500 0.741700
vt 0.405300 0.706800
vt 0.472000 0.672200
vt 0.409900 0.672200
vt 0.413100 0.648800
vn -0.727116 -0.686515 -0.000200
vn -0.726580 -0.687081 -0.000200
vn -0.730024 -0.683422 -0.000000
vn -0.730120 -0.683319 0.000000
vn -0.713279 -0.700879 -0.001000
vn -0.712287 -0.701887 -0.001200
vn -0.705873 -0.705673 -0.061398
vn -0.696207 -0.714007 -0.074101
vn -0.677092 -0.717891 -0.161798
vn -0.655776 -0.738174 -0.158294
vn -0.690201 -0.635101 -0.346800
vn -0.682691 -0.632092 -0.366595
vn -0.521792 -0.726588 -0.446993
vn -0.514810 -0.735115 -0.441109
vn -0.396808 -0.735914 -0.548611
vn -0.402087 -0.729676 -0.553082
vn -0.250000 -0.686999 -0.682299
vn -0.239097 -0.689392 -0.683792
vn 0.013400 -0.751076 -0.660079
vn 0.000300 -0.748985 -0.662587
vn 0.212299 -0.763995 -0.609296
vn 0.312900 -0.751200 -0.581200
vn 0.341910 -0.745122 -0.572617
vn 0.444103 -0.764705 -0.466903
vn 0.449401 -0.769601 -0.453601
vn 0.508886 -0.793779 -0.333091
vn 0.510823 -0.793236 -0.331415
vn 0.588713 -0.779417 -0.214305
vn 0.602371 -0.771763 -0.203790
vn 0.662534 -0.745938 -0.068004
vn 0.669006 -0.740807 -0.060301
vn 0.667294 -0.744794 0.000900
vn 0.667294 -0.744793 0.001100
vn 0.660407 -0.750908 0.000100
vn 0.660407 -0.750908 0.000000
vn 0.651310 -0.758811 0.001000
vn 0.650775 -0.759270 0.001000
vn -0.000000 -1.000000 -0.000000
vn -0.000000 -1.000000 0.000000
vn -0.000000 -1.000000 0.000000
vn 0.000000 -1.000000 0.000000
vn 0.000000 -1.000000 0.000000
vn 0.000000 -1.000000 0.000000
vn 0.000000 -1.000000 0.000000
vn -0.000000 -1.000000 0.000000
vn -0.000000 -1.000000 0.000000
vn -0.000000 -1.000000 -0.000000
vn -0.000000 -1.000000 0.000000
vn 0.000000 -1.000000 -0.000000
vn -0.000000 -1.000000 0.000000
vn 0.000000 -1.000000 0.000000
vn 0.000000 -1.000000 0.000000
vn 0.000000 -1.000000 0.000000
vn 0.000000 -1.000000 0.000000
vn 0.000000 -1.000000 0.000000
vn 0.000000 -1.000000 0.000000
vn 0.000000 -1.000000 0.000000
vn 0.000000 -1.000000 0.000000
vn 0.000000 -1.000000 0.000000
vn 0.000000 -1.000000 0.000000
vn 0.000000 -1.000000 0.000000
vn 0.000000 -1.000000 0.000000
vn 0.000000 -1.000000 0.000000
vn 0.000000 -1.000000 0.000000
vn 0.000000 -1.000000 0.000000
vn 0.000000 -1.000000 0.000000
vn 0.000000 -1.000000 0.000000
vn 0.000000 -1.000000 0.000000
vn 0.000000 -1.000000 0.000000
vn 0.000000 -1.000000 0.000000
vn 0.000000 -1.000000 0.000000
vn 0.000000 -1.000000 0.000000
vn 0.000000 -1.000000 0.000000
vn 0.000000 -1.000000 0.000000
vn 0.000000 -1.000000 0.000000
vn 0.000000 -1.000000 0.000000
vn 0.000000 -1.000000 0.000000
vn 0.000000 -1.000000 0.000000
vn 0.000000 -1.000000 0.000000
vn 0.000000 -1.000000 0.000000
vn 0.000000 -1.000000 0.000000
vn 0.000000 -1.000000 0.000000
vn 0.000000 -1.000000 0.000000
vn 0.000000 -1.000000 0.000000
vn 0.000000 -1.000000 0.000000
vn 0.000000 -1.000000 0.000000
vn 0.000000 -1.000000 0.000000
vn 0.000000 -1.000000 0.000000
vn 0.000000 -1.000000 0.000000
vn 0.000000 -1.000000 0.000000
vn 0.000000 -1.000000 0.000000
vn 0.000000 -1.000000 0.000000
vn 0.000000 -1.000000 0.000000
vn 0.000000 -1.000000 0.000000
vn 0.000000 -1.000000 0.000000
vn 0.000000 -1.000000 0.000000
vn 0.000000 -1.000000 0.000000
vn 0.000000 -1.000000 0.000000
vn 0.000000 -1.000000 0.000000
vn 0.000000 -1.000000 0.000000
vn 0.000000 -1.000000 0.000000
vn 0.000000 -1.000000 0.000000
vn 0.000000 -1.000000 0.000000
vn 0.000000 -1.000000 0.000000
vn 0.000000 -1.000000 0.000000
vn 0.000000 -1.000000 0.000000
vn 0.000000 -1.000000 0.000000
vn -0.999990 -0.000000 0.004400
vn -0.999990 0.000000 0.004400
vn -0.999990 -0.000000 0.004400
vn -0.999990 -0.000000 0.004400
vn -0.999990 0.000000 0.004400
vn -0.999990 0.000000 0.004400
vn -0.999990 0.000000 0.004400
vn -0.999990 0.000000 0.004400
vn 0.000000 0.000000 -1.000000
vn 0.000000 0.000000 -1.000000
vn 0.000000 0.000000 -1.000000
vn 0.000000 0.000000 -1.000000
vn 0.000000 0.000000 -1.000000
vn 0.000000 0.000000 -1.000000
vn 0.000000 0.000000 -1.000000
vn 0.000000 0.000000 -1.000000
vn 0.000000 0.000000 -1.000000
vn 0.000000 0.000000 -1.000000
vn 0.937573 0.000000 -0.347790
vn 0.999608 0.000000 -0.028000
vn 0.999608 0.000000 -0.028000
vn 0.937573 0.000000 -0.347790
vn 0.776105 0.000000 -0.630604
vn 0.776105 0.000000 -0.630604
vn -0.999449 0.000000 -0.033202
vn -0.924118 0.000000 -0.382107
vn -0.924118 0.000000 -0.382107
vn -0.999449 0.000000 -0.033202
vn -0.924118 0.000000 -0.382107
vn -0.730989 0.000000 -0.682389
vn -0.730989 0.000000 -0.682389
vn -0.924118 0.000000 -0.382107
vn -0.959734 0.000000 0.280910
vn -0.959734 0.000000 0.280910
vn -0.959734 0.000000 0.280910
vn -0.959734 0.000000 0.280910
vn -0.562316 0.000000 -0.826923
vn -0.562316 0.000000 -0.826923
vn -0.562316 0.000000 -0.826923
vn -0.562316 0.000000 -0.826923
vn -0.944192 0.000000 0.329397
vn -0.944192 0.000000 0.329397
vn -0.944192 0.000000 0.329397
vn -0.944192 0.000000 0.329397
vn -0.795393 0.000000 -0.606094
vn -0.795393 0.000000 -0.606094
vn -0.795393 0.000000 -0.606094
vn -0.795393 0.000000 -0.606094
vn 0.051199 0.000000 -0.998688
vn 0.051199 0.000000 -0.998688
vn 0.051199 0.000000 -0.998688
vn 0.051199 0.000000 -0.998688
vn -0.823224 0.000000 -0.567717
vn -0.896577 0.000000 -0.442888
vn -0.896577 0.000000 -0.442888
vn -0.823224 0.000000 -0.567717
vn -0.896577 0.000000 -0.442888
vn -0.840310 0.000000 -0.542106
vn -0.840310 0.000000 -0.542106
vn -0.896577 0.000000 -0.442888
vn -0.840310 0.000000 -0.542106
vn -0.420415 0.000000 -0.907332
vn -0.420415 0.000000 -0.907332
vn -0.840310 0.000000 -0.542106
vn -0.420415 0.000000 -0.907332
vn -0.128501 0.000000 -0.991709
vn -0.128501 0.000000 -0.991709
vn -0.420415 0.000000 -0.907332
vn 0.000000 0.000000 1.000000
vn 0.000000 0.000000 1.000000
vn 0.000000 0.000000 1.000000
vn 0.000000 0.000000 1.000000
vn 0.000000 0.000000 1.000000
vn 0.000000 0.000000 1.000000
vn 0.999960 0.000000 0.008900
vn 0.999960 0.000000 0.008900
vn 0.999960 -0.000000 0.008900
vn 0.999960 0.000000 0.008900
vn 0.999960 -0.000000 0.008900
vn 0.999960 0.000000 0.008900
vn 0.999960 -0.000000 0.008900
vn 0.999960 0.000000 0.008900
vn 0.387816 0.000000 -0.921737
vn 0.647698 0.000000 -0.761897
vn 0.647698 0.000000 -0.761897
vn 0.387816 0.000000 -0.921737
vn 0.881071 0.000000 -0.472984
vn 0.881071 0.000000 -0.472984
vn 0.910856 0.000000 -0.412725
vn 0.910856 0.000000 -0.412725
vn -0.018501 0.000000 -0.999829
vn -0.018501 0.000000 -0.999829
vn -0.018501 0.000000 -0.999829
vn -0.018501 0.000000 -0.999829
vn 0.742095 0.000000 -0.670295
vn 0.742095 0.000000 -0.670295
vn 0.742095 0.000000 -0.670295
vn 0.742095 0.000000 -0.670295
vn 0.890432 0.000000 0.455116
vn 0.890432 0.000000 0.455116
vn 0.890432 0.000000 0.455116
vn 0.890432 0.000000 0.455116
vn 0.787988 0.000000 -0.615691
vn 0.787988 0.000000 -0.615691
vn 0.787988 0.000000 -0.615691
vn 0.787988 0.000000 -0.615691
vn 0.926463 0.000000 0.376385
vn 0.926463 0.000000 0.376385
vn 0.926463 0.000000 0.376385
vn 0.926463 0.000000 0.376385
vn 0.000000 0.000000 1.000000
vn 0.000000 0.000000 1.000000
vn 0.000000 0.000000 1.000000
vn 0.000000 0.000000 1.000000
vn -0.000000 0.000000 1.000000
vn -0.000000 0.000000 1.000000
vn 0.991658 -0.000000 -0.128895
vn 0.991658 -0.000000 -0.128895
vn 0.991658 -0.000000 -0.128895
vn 0.991658 -0.000000 -0.128895
vn 0.967148 -0.000000 -0.254213
vn 0.967148 -0.000000 -0.254213
vn 0.869802 -0.000000 -0.493401
vn 0.869802 -0.000000 -0.493401
vn 0.696427 -0.000000 -0.717628
vn 0.696427 -0.000000 -0.717628
vn 0.696427 -0.000000 -0.717628
vn 0.493401 -0.000000 -0.869802
vn 0.493401 -0.000000 -0.869802
vn 0.696427 -0.000000 -0.717628
vn 0.403084 -0.000000 -0.915163
vn 0.403084 0.000000 -0.915163
vn -0.403817 -0.000000 -0.914840
vn -0.508793 -0.000000 -0.860889
vn -0.508793 -0.000000 -0.860889
vn -0.403817 0.000000 -0.914840
vn -0.714023 -0.000000 -0.700122
vn -0.714023 -0.000000 -0.700122
vn -0.873510 -0.000000 -0.486806
vn -0.873510 -0.000000 -0.486806
vn -0.963392 -0.000000 -0.268098
vn -0.963392 -0.000000 -0.268098
vn -0.987503 -0.000000 -0.157600
vn -0.987503 -0.000000 -0.157600
vn -0.987503 -0.000000 -0.157600
vn -0.987503 -0.000000 -0.157600
vn 0.000000 0.000000 -1.000000
vn 0.000000 0.000000 -1.000000
vn 0.000000 0.000000 -1.000000
vn -0.000000 0.000000 -1.000000
vn -0.000000 -0.000000 -1.000000
vn -0.000000 -0.000000 -1.000000
vn -0.000000 -0.000000 -1.000000
vn 0.000000 0.000000 -1.000000
vn -1.000000 0.000000 0.000000
vn -1.000000 0.000000 0.000000
vn -1.000000 0.000000 0.000000
vn -1.000000 0.000000 0.000000
vn -1.000000 0.000000 0.000000
vn -1.000000 0.000000 0.000000
vn -0.995610 0.000000 0.093601
vn -0.995610 0.000000 0.093601
vn -0.949748 0.000000 0.313016
vn -0.949748 0.000000 0.313016
vn -0.843855 0.000000 0.536571
vn -0.843855 0.000000 0.536571
vn 1.000000 0.000000 0.000000
vn 0.996059 0.000000 0.088696
vn 0.996059 0.000000 0.088696
vn 1.000000 0.000000 0.000000
vn 0.968479 0.000000 0.249095
vn 0.968479 0.000000 0.249095
vn 0.896874 0.000000 0.442287
vn 0.896874 0.000000 0.442287
vn 0.761574 0.000000 0.648078
vn 0.761574 0.000000 0.648078
vn 0.570909 0.000000 0.821013
vn 0.570909 0.000000 0.821013
vn 0.355613 0.000000 0.934633
vn 0.355613 0.000000 0.934633
vn -0.000500 0.000000 1.000000
vn -0.000500 0.000000 1.000000
vn -0.331517 0.000000 0.943449
vn -0.331517 0.000000 0.943449
vn -0.499313 0.000000 0.866422
vn -0.499313 0.000000 0.866422
vn -0.689390 0.000000 0.724390
vn -0.689390 0.000000 0.724390
vn -0.843855 0.000000 0.536571
vn -0.843855 0.000000 0.536571
vn 1.000000 0.000000 0.000000
vn 1.000000 0.000000 0.000000
vn 1.000000 0.000000 0.000000
vn 1.000000 0.000000 0.000000
vn 1.000000 0.000000 0.000000
vn 1.000000 0.000000 0.000000
vn 0.000000 -1.000000 0.000000
vn 0.000000 -1.000000 0.000000
vn 0.000000 -1.000000 0.000000
vn 0.000000 -1.000000 0.000000
vn 0.000000 -1.000000 -0.000000
vn 0.000000 -1.000000 0.000000
vn 0.000000 -1.000000 0.000000
vn 0.000000 -1.000000 0.000000
vn 0.000000 -1.000000 0.000000
vn 0.000000 -1.000000 0.000000
vn 0.000000 -1.000000 0.000000
vn 0.000000 -1.000000 0.000000
vn 0.000000 -1.000000 -0.000000
vn 0.000000 -1.000000 0.000000
vn 0.000000 -1.000000 0.000000
vn 0.000000 -1.000000 0.000000
vn -0.000000 -1.000000 -0.000000
vn 0.000000 -1.000000 0.000000
vn -0.000000 -1.000000 0.000000
vn 0.000000 -1.000000 0.000000
vn 0.000000 -1.000000 0.000000
vn 0.000000 -1.000000 0.000000
vn 0.000000 -1.000000 0.000000
vn 0.000000 -1.000000 0.000000
vn 0.000000 -1.000000 0.000000
vn 0.000000 -1.000000 0.000000
vn 0.000000 -1.000000 0.000000
vn 0.000000 -1.000000 0.000000
vn 0.000000 -1.000000 0.000000
vn 0.000000 -1.000000 0.000000
vn 0.000000 -1.000000 0.000000
vn 0.000000 -1.000000 0.000000
vn 0.000000 -1.000000 0.000000
vn 0.000000 -1.000000 0.000000
vn 0.000000 -1.000000 0.000000
vn 0.000000 -1.000000 0.000000
vn 0.000000 -1.000000 0.000000
vn 0.000000 -1.000000 0.000000
vn 0.000000 -1.000000 0.000000
vn 0.000000 -1.000000 0.000000
vn 0.000000 -1.000000 0.000000
vn -0.683475 -0.729974 -0.000000
vn -0.687081 -0.726580 -0.000200
vn -0.686515 -0.727116 -0.000200
vn -0.683319 -0.730120 0.000000
vn -0.700879 -0.713279 -0.001000
vn -0.701887 -0.712287 -0.001200
vn -0.705673 -0.705873 -0.061398
vn -0.714007 -0.696207 -0.074101
vn -0.717891 -0.677092 -0.161798
vn -0.738174 -0.655776 -0.158294
vn -0.635101 -0.690201 -0.346800
vn -0.632092 -0.682691 -0.366595
vn -0.726541 -0.521830 -0.447025
vn -0.735115 -0.514810 -0.441109
vn -0.735914 -0.396808 -0.548611
vn -0.729676 -0.402087 -0.553082
vn -0.686999 -0.250000 -0.682299
vn -0.689392 -0.239097 -0.683792
vn -0.751076 0.013400 -0.660079
vn -0.748985 0.000300 -0.662587
vn -0.763995 0.212299 -0.609296
vn -0.751199 0.312900 -0.581200
vn -0.745122 0.341910 -0.572617
vn -0.764705 0.444103 -0.466903
vn -0.769601 0.449401 -0.453601
vn -0.793779 0.508886 -0.333091
vn -0.793236 0.510823 -0.331415
vn -0.779417 0.588713 -0.214305
vn -0.771763 0.602371 -0.203790
vn -0.745983 0.662485 -0.067998
vn -0.740807 0.669006 -0.060301
vn -0.744794 0.667294 0.000900
vn -0.744793 0.667294 0.001100
vn -0.750908 0.660407 0.000100
vn -0.750908 0.660407 0.000000
vn -0.758811 0.651310 0.001000
vn -0.759270 0.650775 0.001000
vn -1.000000 0.000000 0.000000
vn -1.000000 0.000000 0.000000
vn -1.000000 0.000000 0.000000
vn -1.000000 0.000000 0.000000
vn -1.000000 -0.000000 0.000000
vn -1.000000 0.000000 0.000000
vn -1.000000 0.000000 0.000000
vn -1.000000 0.000000 0.000000
vn -1.000000 0.000000 0.000000
vn -1.000000 0.000000 0.000000
vn -1.000000 0.000000 0.000000
vn -1.000000 0.000000 0.000000
vn -1.000000 -0.000000 0.000000
vn -1.000000 -0.000000 0.000000
vn -1.000000 0.000000 0.000000
vn -1.000000 0.000000 0.000000
vn -1.000000 0.000000 0.000000
vn -1.000000 0.000000 0.000000
vn -1.000000 0.000000 0.000000
vn -1.000000 0.000000 0.000000
vn -1.000000 0.000000 0.000000
vn -1.000000 0.000000 0.000000
vn -1.000000 0.000000 0.000000
vn -1.000000 0.000000 0.000000
vn -1.000000 0.000000 0.000000
vn -1.000000 0.000000 0.000000
vn -1.000000 0.000000 0.000000
vn -1.000000 0.000000 0.000000
vn -1.000000 0.000000 0.000000
vn -1.000000 0.000000 0.000000
vn -1.000000 0.000000 0.000000
vn -1.000000 0.000000 0.000000
vn -1.000000 0.000000 0.000000
vn -1.000000 0.000000 0.000000
vn -1.000000 0.000000 0.000000
vn -1.000000 0.000000 0.000000
vn -1.000000 0.000000 0.000000
vn -1.000000 0.000000 0.000000
vn -1.000000 0.000000 0.000000
vn -1.000000 0.000000 0.000000
vn -1.000000 0.000000 0.000000
vn -1.000000 0.000000 0.000000
vn -1.000000 0.000000 0.000000
vn -1.000000 0.000000 0.000000
vn -1.000000 0.000000 0.000000
vn -1.000000 0.000000 0.000000
vn -1.000000 0.000000 0.000000
vn -1.000000 0.000000 0.000000
vn -1.000000 0.000000 0.000000
vn -1.000000 0.000000 0.000000
vn -1.000000 0.000000 0.000000
vn -1.000000 0.000000 0.000000
vn -1.000000 0.000000 0.000000
vn -1.000000 0.000000 0.000000
vn -1.000000 0.000000 0.000000
vn -1.000000 0.000000 0.000000
vn -1.000000 0.000000 0.000000
vn -1.000000 -0.000000 0.000000
vn -1.000000 0.000000 0.000000
vn -1.000000 0.000000 0.000000
vn -1.000000 -0.000000 0.000000
vn -1.000000 0.000000 0.000000
vn -1.000000 -0.000000 0.000000
vn -1.000000 -0.000000 -0.000000
vn -1.000000 -0.000300 -0.000200
vn -1.000000 0.000000 0.000000
vn -1.000000 0.000000 0.000000
vn -1.000000 0.000000 0.000000
vn -1.000000 0.000000 0.000000
vn -1.000000 0.000000 0.000000
vn 0.000000 -0.999990 0.004400
vn 0.000000 -0.999990 0.004400
vn 0.000000 -0.999990 0.004400
vn 0.000000 -0.999990 0.004400
vn 0.000000 -0.999990 0.004400
vn 0.000000 -0.999990 0.004400
vn 0.000000 -0.999990 0.004400
vn 0.000000 -0.999990 0.004400
vn 0.000000 0.000000 -1.000000
vn 0.000000 0.000000 -1.000000
vn 0.000000 0.000000 -1.000000
vn 0.000000 0.000000 -1.000000
vn 0.000000 0.000000 -1.000000
vn 0.000000 0.000000 -1.000000
vn 0.000000 0.000000 -1.000000
vn 0.000000 0.000000 -1.000000
vn 0.000000 0.000000 -1.000000
vn 0.000000 0.000000 -1.000000
vn 0.000000 0.999608 -0.028000
vn 0.000000 0.999608 -0.028000
vn 0.000000 0.937573 -0.347790
vn 0.000000 0.937573 -0.347790
vn 0.000000 0.776105 -0.630604
vn 0.000000 0.776105 -0.630604
vn 0.000000 -0.924118 -0.382107
vn 0.000000 -0.924118 -0.382107
vn 0.000000 -0.999449 -0.033202
vn 0.000000 -0.999449 -0.033202
vn 0.000000 -0.731039 -0.682336
vn 0.000000 -0.731039 -0.682336
vn 0.000000 -0.924118 -0.382107
vn 0.000000 -0.924118 -0.382107
vn 0.000000 -0.959734 0.280910
vn 0.000000 -0.959734 0.280910
vn 0.000000 -0.959734 0.280910
vn 0.000000 -0.959734 0.280910
vn 0.000000 -0.562316 -0.826923
vn 0.000000 -0.562316 -0.826923
vn 0.000000 -0.562316 -0.826923
vn 0.000000 -0.562316 -0.826923
vn 0.000000 -0.944192 0.329397
vn 0.000000 -0.944192 0.329397
vn 0.000000 -0.944192 0.329397
vn 0.000000 -0.944192 0.329397
vn 0.000000 -0.795441 -0.606031
vn 0.000000 -0.795441 -0.606031
vn 0.000000 -0.795441 -0.606031
vn 0.000000 -0.795441 -0.606031
vn 0.000000 0.051199 -0.998688
vn 0.000000 0.051199 -0.998688
vn 0.000000 0.051199 -0.998688
vn 0.000000 0.051199 -0.998688
vn 0.000000 -0.896577 -0.442888
vn 0.000000 -0.896577 -0.442888
vn 0.000000 -0.823224 -0.567717
vn 0.000000 -0.823224 -0.567717
vn 0.000000 -0.840310 -0.542106
vn 0.000000 -0.840310 -0.542106
vn 0.000000 -0.896577 -0.442888
vn 0.000000 -0.896577 -0.442888
vn 0.000000 -0.420415 -0.907332
vn 0.000000 -0.420415 -0.907332
vn 0.000000 -0.840310 -0.542106
vn 0.000000 -0.840310 -0.542106
vn 0.000000 -0.128501 -0.991709
vn 0.000000 -0.128501 -0.991709
vn 0.000000 -0.420415 -0.907332
vn 0.000000 -0.420415 -0.907332
vn 0.000000 0.000000 1.000000
vn 0.000000 0.000000 1.000000
vn 0.000000 0.000000 1.000000
vn 0.000000 0.000000 1.000000
vn 0.000000 0.000000 1.000000
vn 0.000000 0.000000 1.000000
vn -0.000000 0.999960 0.008900
vn 0.000000 0.999960 0.008900
vn 0.000000 0.999960 0.008900
vn 0.000000 0.999960 0.008900
vn -0.000000 0.999960 0.008900
vn 0.000000 0.999960 0.008900
vn -0.000000 0.999960 0.008900
vn 0.000000 0.999960 0.008900
vn 0.000000 0.647698 -0.761897
vn 0.000000 0.647698 -0.761897
vn 0.000000 0.387816 -0.921737
vn 0.000000 0.387816 -0.921737
vn 0.000000 0.881071 -0.472984
vn 0.000000 0.881071 -0.472984
vn 0.000000 0.910873 -0.412688
vn 0.000000 0.910873 -0.412688
vn 0.000000 -0.018501 -0.999829
vn 0.000000 -0.018501 -0.999829
vn 0.000000 -0.018501 -0.999829
vn 0.000000 -0.018501 -0.999829
vn 0.000000 0.742095 -0.670295
vn 0.000000 0.742095 -0.670295
vn 0.000000 0.742095 -0.670295
vn 0.000000 0.742095 -0.670295
vn 0.000000 0.890432 0.455116
vn 0.000000 0.890432 0.455116
vn 0.000000 0.890432 0.455116
vn 0.000000 0.890432 0.455116
vn 0.000000 0.788037 -0.615629
vn 0.000000 0.788037 -0.615629
vn 0.000000 0.788037 -0.615629
vn 0.000000 0.788037 -0.615629
vn 0.000000 0.926463 0.376385
vn 0.000000 0.926463 0.376385
vn 0.000000 0.926463 0.376385
vn 0.000000 0.926463 0.376385
vn 0.000000 0.000000 1.000000
vn 0.000000 0.000000 1.000000
vn 0.000000 0.000000 1.000000
vn 0.000000 0.000000 1.000000
vn 0.000000 0.000000 1.000000
vn 0.000000 0.000000 1.000000
vn -0.000000 0.991658 -0.128895
vn 0.000000 0.991658 -0.128895
vn -0.000000 0.991658 -0.128895
vn -0.000000 0.991658 -0.128895
vn 0.000000 0.967148 -0.254213
vn -0.000000 0.967148 -0.254213
vn -0.000000 0.869802 -0.493401
vn -0.000000 0.869802 -0.493401
vn -0.000000 0.696427 -0.717628
vn -0.000000 0.696427 -0.717628
vn -0.000000 0.493401 -0.869802
vn -0.000000 0.493401 -0.869802
vn -0.000000 0.696427 -0.717628
vn -0.000000 0.696427 -0.717628
vn -0.000000 0.403084 -0.915163
vn 0.000000 0.403084 -0.915163
vn 0.000000 -0.508793 -0.860889
vn 0.000000 -0.508793 -0.860889
vn 0.000000 -0.403817 -0.914840
vn 0.000000 -0.403817 -0.914840
vn 0.000000 -0.714023 -0.700122
vn 0.000000 -0.714023 -0.700122
vn 0.000000 -0.873510 -0.486806
vn 0.000000 -0.873510 -0.486806
vn 0.000000 -0.963392 -0.268098
vn 0.000000 -0.963392 -0.268098
vn 0.000000 -0.987503 -0.157600
vn 0.000000 -0.987503 -0.157600
vn 0.000000 -0.987503 -0.157600
vn 0.000000 -0.987503 -0.157600
vn 0.000000 0.000000 -1.000000
vn 0.000000 0.000000 -1.000000
vn 0.000000 0.000000 -1.000000
vn 0.000000 -0.000000 -1.000000
vn -0.000000 -0.000000 -1.000000
vn -0.000000 -0.000000 -1.000000
vn -0.000000 -0.000000 -1.000000
vn 0.000000 0.000000 -1.000000
vn 0.000000 -1.000000 0.000000
vn 0.000000 -1.000000 0.000000
vn 0.000000 -1.000000 0.000000
vn 0.000000 -1.000000 0.000000
vn 0.000000 -1.000000 -0.000000
vn 0.000000 -1.000000 -0.000000
vn 0.000000 -0.995610 0.093601
vn 0.000000 -0.995610 0.093601
vn 0.000000 -0.949748 0.313016
vn 0.000000 -0.949748 0.313016
vn 0.000000 -0.843855 0.536571
vn 0.000000 -0.843855 0.536571
vn 0.000000 0.996059 0.088696
vn 0.000000 0.996059 0.088696
vn 0.000000 1.000000 0.000000
vn 0.000000 1.000000 0.000000
vn 0.000000 0.968479 0.249095
vn 0.000000 0.968479 0.249095
vn 0.000000 0.896854 0.442327
vn 0.000000 0.896854 0.442327
vn 0.000000 0.761574 0.648078
vn 0.000000 0.761574 0.648078
vn 0.000000 0.570909 0.821013
vn 0.000000 0.570909 0.821013
vn 0.000000 0.355613 0.934633
vn 0.000000 0.355613 0.934633
vn 0.000000 -0.000500 1.000000
vn 0.000000 -0.000500 1.000000
vn 0.000000 -0.331517 0.943449
vn 0.000000 -0.331517 0.943449
vn 0.000000 -0.499313 0.866422
vn 0.000000 -0.499313 0.866422
vn 0.000000 -0.689390 0.724390
vn 0.000000 -0.689390 0.724390
vn 0.000000 -0.843855 0.536571
vn 0.000000 -0.843855 0.536571
vn 0.000000 1.000000 -0.000000
vn 0.000000 1.000000 -0.000000
vn 0.000000 1.000000 -0.000000
vn 0.000000 1.000000 -0.000000
vn 0.000000 1.000000 0.000000
vn 0.000000 1.000000 0.000000
vn -1.000000 0.000000 0.000000
vn -1.000000 0.000000 0.000000
vn -1.000000 0.000000 0.000000
vn -1.000000 0.000000 0.000000
vn -1.000000 0.000000 -0.000000
vn -1.000000 0.000000 0.000000
vn -1.000000 0.000000 0.000000
vn -1.000000 0.000000 0.000000
vn -1.000000 0.000000 0.000000
vn -1.000000 0.000000 0.000000
vn -1.000000 0.000000 0.000000
vn -1.000000 0.000000 0.000000
vn -1.000000 0.000000 -0.000000
vn -1.000000 0.000000 0.000000
vn -1.000000 0.000000 0.000000
vn -1.000000 0.000000 0.000000
vn -1.000000 -0.000000 -0.000000
vn -1.000000 0.000000 0.000000
vn -1.000000 -0.000000 0.000000
vn -1.000000 0.000000 0.000000
vn -1.000000 0.000000 0.000000
vn -1.000000 0.000000 0.000000
vn -1.000000 0.000000 0.000000
vn -1.000000 0.000000 0.000000
vn -1.000000 0.000000 0.000000
vn -1.000000 0.000000 0.000000
vn -1.000000 0.000000 0.000000
vn -1.000000 0.000000 0.000000
vn -1.000000 0.000000 0.000000
vn -1.000000 0.000000 0.000000
vn -1.000000 0.000000 0.000000
vn -1.000000 0.000000 0.000000
vn -1.000000 0.000000 0.000000
vn -1.000000 0.000000 0.000000
vn -1.000000 0.000000 0.000000
vn -1.000000 0.000000 0.000000
vn -1.000000 0.000000 0.000000
vn -1.000000 0.000000 0.000000
vn -1.000000 0.000000 0.000000
vn -1.000000 0.000000 0.000000
vn -1.000000 0.000000 0.000000
f 1/1/1 2/2/2 3/3/3
f 1/1/1 3/3/3 4/4/4
f 2/2/2 1/1/1 5/5/5
f 2/2/2 5/5/5 6/6/6
f 6/6/6 5/5/5 7/7/7
f 6/6/6 7/7/7 8/8/8
f 9/9/9 8/8/8 7/7/7
f 9/9/9 10/10/10 8/8/8
f 11/11/11 10/10/10 9/9/9
f 11/11/11 9/9/9 12/12/12
f 13/13/13 11/11/11 12/12/12
f 13/13/13 12/12/12 14/14/14
f 15/15/15 13/13/13 14/14/14
f 15/15/15 14/14/14 16/16/16
f 17/17/17 15/15/15 16/16/16
f 17/17/17 16/16/16 18/18/18
f 18/18/18 19/19/19 17/17/17
f 18/18/18 20/20/20 19/19/19
f 21/21/21 19/19/19 20/20/20
f 22/22/22 19/19/19 21/21/21
f 22/22/22 21/21/21 23/23/23
f 24/24/24 22/22/22 23/23/23
f 24/24/24 23/23/23 25/25/25
f 26/26/26 24/24/24 25/25/25
f 26/26/26 25/25/25 27/27/27
f 28/28/28 26/26/26 27/27/27
f 28/28/28 27/27/27 29/29/29
f 30/30/30 28/28/28 29/29/29
f 30/30/30 29/29/29 31/31/31
f 30/30/30 31/31/31 32/32/32
f 30/30/30 32/32/32 33/33/33
f 34/34/34 33/33/33 32/32/32
f 34/34/34 32/32/32 35/35/35
f 34/34/34 35/35/35 36/36/36
f 34/34/34 36/36/36 37/37/37
f 38/38/38 39/39/39 40/40/40
f 40/40/40 41/41/41 42/42/42
f 40/40/40 42/42/42 43/43/43
f 38/38/38 40/40/40 43/43/43
f 44/44/44 38/38/38 43/43/43
f 45/45/45 40/40/40 39/39/39
f 45/45/45 46/46/46 40/40/40
f 45/45/45 39/39/39 47/47/47
f 47/47/47 39/39/39 38/38/38
f 45/45/45 47/47/47 48/48/48
f 49/49/49 47/47/47 38/38/38
f 49/49/49 50/50/50 47/47/47
f 49/49/49 38/38/38 51/51/51
f 49/49/49 51/51/51 52/52/52
f 53/53/53 54/54/54 55/55/55
f 53/53/53 55/55/55 56/56/56
f 57/57/57 56/56/56 55/55/55
f 57/57/57 55/55/55 58/58/58
f 59/59/59 55/55/55 54/54/54
f 58/58/58 55/55/55 59/59/59
f 54/54/54 60/60/60 61/61/61
f 59/59/59 54/54/54 61/61/61
f 59/59/59 61/61/61 62/62/62
f 62/62/62 63/63/63 64/64/64
f 62/62/62 64/64/64 65/65/65
f 59/59/59 62/62/62 65/65/65
f 59/59/59 65/65/65 66/66/66
f 67/67/67 68/68/68 58/58/58
f 67/67/67 58/58/58 59/59/59
f 59/59/59 69/69/69 67/67/67
f 70/70/70 67/67/67 69/69/69
f 70/70/70 69/69/69 71/71/71
f 59/59/59 72/72/72 69/69/69
f 66/66/66 73/73/73 74/74/74
f 59/59/59 66/66/66 74/74/74
f 75/75/75 76/76/76 72/72/72
f 75/75/75 72/72/72 59/59/59
f 59/59/59 77/77/77 75/75/75
f 77/77/77 78/78/78 75/75/75
f 59/59/59 79/79/79 77/77/77
f 80/80/80 59/59/59 74/74/74
f 80/80/80 81/81/81 59/59/59
f 82/82/82 80/80/80 74/74/74
f 83/83/83 84/84/84 85/85/85
f 83/83/83 85/85/85 86/86/86
f 85/85/85 87/87/87 86/86/86
f 86/86/86 88/88/88 83/83/83
f 89/89/89 83/83/83 88/88/88
f 89/89/89 88/88/88 90/90/90
f 86/86/86 91/91/91 88/88/88
f 86/86/86 92/92/92 91/91/91
f 86/86/86 93/93/93 92/92/92
f 92/92/92 94/94/94 91/91/91
f 95/95/95 96/96/96 97/97/97
f 95/95/95 98/98/98 99/99/99
f 95/95/95 97/97/97 98/98/98
f 97/97/97 100/100/100 98/98/98
f 97/97/97 101/101/101 102/102/102
f 97/97/97 102/102/102 103/103/103
f 97/97/97 104/104/104 100/100/100
f 103/103/103 104/104/104 97/97/97
f 103/103/103 105/105/105 104/104/104
f 104/104/104 106/106/106 100/100/100
f 104/104/104 107/107/107 106/106/106
f 108/108/108 109/109/109 110/110/110
f 108/108/108 110/110/110 111/111/111
f 110/110/110 112/112/112 111/111/111
f 110/110/110 113/113/113 112/112/112
f 112/112/112 114/114/114 111/111/111
f 112/112/112 115/115/115 114/114/114
f 116/116/116 117/117/117 118/118/118
f 116/116/116 118/118/118 119/119/119
f 118/118/118 120/120/120 119/119/119
f 118/118/118 121/121/121 120/120/120
f 120/120/120 122/122/122 119/119/119
f 120/120/120 123/123/123 122/122/122
f 122/122/122 124/124/124 119/119/119
f 122/122/122 125/125/125 124/124/124
f 126/126/126 127/127/127 128/128/128
f 126/126/126 128/128/128 129/129/129
f 130/130/130 126/126/126 129/129/129
f 130/130/130 129/129/129 131/131/131
f 132/132/132 133/133/133 134/134/134
f 132/132/132 134/134/134 135/135/135
f 136/136/136 137/137/137 138/138/138
f 136/136/136 138/138/138 139/139/139
f 140/140/140 141/141/141 142/142/142
f 140/140/140 142/142/142 143/143/143
f 144/144/144 145/145/145 146/146/146
f 144/144/144 146/146/146 147/147/147
f 148/148/148 149/149/149 150/150/150
f 148/148/148 150/150/150 151/151/151
f 152/152/152 153/153/153 154/154/154
f 152/152/152 154/154/154 155/155/155
f 156/156/156 157/157/157 158/158/158
f 156/156/156 158/158/158 159/159/159
f 160/160/160 161/161/161 162/162/162
f 160/160/160 162/162/162 163/163/163
f 164/164/164 165/165/165 166/166/166
f 164/164/164 166/166/166 167/167/167
f 168/168/168 169/169/169 170/170/170
f 168/168/168 170/170/170 171/171/171
f 172/172/172 173/173/173 174/174/174
f 172/172/172 174/174/174 175/175/175
f 176/176/176 177/177/177 178/178/178
f 176/176/176 178/178/178 179/179/179
f 177/177/177 180/180/180 178/178/178
f 177/177/177 181/181/181 180/180/180
f 182/182/182 183/183/183 184/184/184
f 182/182/182 184/184/184 185/185/185
f 183/183/183 186/186/186 184/184/184
f 183/183/183 187/187/187 186/186/186
f 186/186/186 188/188/188 184/184/184
f 186/186/186 189/189/189 188/188/188
f 190/190/190 191/191/191 192/192/192
f 190/190/190 192/192/192 193/193/193
f 191/191/191 194/194/194 192/192/192
f 191/191/191 195/195/195 194/194/194
f 195/195/195 196/196/196 194/194/194
f 195/195/195 197/197/197 196/196/196
f 198/198/198 199/199/199 200/200/200
f 198/198/198 200/200/200 201/201/201
f 202/202/202 203/203/203 204/204/204
f 202/202/202 204/204/204 205/205/205
f 206/206/206 207/207/207 208/208/208
f 206/206/206 208/208/208 209/209/209
f 210/210/210 211/211/211 212/212/212
f 210/210/210 212/212/212 213/213/213
f 214/214/214 215/215/215 216/216/216
f 214/214/214 216/216/216 217/217/217
f 218/218/218 219/219/219 220/220/220
f 218/218/218 220/220/220 221/221/221
f 219/219/219 222/222/222 220/220/220
f 219/219/219 223/223/223 222/222/222
f 224/224/224 225/225/225 226/226/226
f 224/224/224 226/226/226 227/227/227
f 225/225/225 228/228/228 226/226/226
f 225/225/225 229/229/229 228/228/228
f 229/229/229 230/230/230 228/228/228
f 229/229/229 231/231/231 230/230/230
f 231/231/231 232/232/232 230/230/230
f 231/231/231 233/233/233 232/232/232
f 234/234/234 235/235/235 236/236/236
f 234/234/234 236/236/236 237/237/237
f 235/235/235 238/238/238 236/236/236
f 235/235/235 239/239/239 238/238/238
f 240/240/240 241/241/241 242/242/242
f 240/240/240 242/242/242 243/243/243
f 241/241/241 244/244/244 242/242/242
f 241/241/241 245/245/245 244/244/244
f 245/245/245 246/246/246 244/244/244
f 245/245/245 247/247/247 246/246/246
f 247/247/247 248/248/248 246/246/246
f 247/247/247 249/249/249 248/248/248
f 249/249/249 250/250/250 248/248/248
f 249/249/249 251/251/251 250/250/250
f 251/251/251 252/252/252 250/250/250
f 251/251/251 253/253/253 252/252/252
f 254/254/254 255/255/255 256/256/256
f 254/254/254 256/256/256 257/257/257
f 258/258/258 257/257/257 256/256/256
f 259/259/259 257/257/257 258/258/258
f 259/259/259 258/258/258 260/260/260
f 261/261/261 259/259/259 260/260/260
f 262/262/262 263/263/263 264/264/264
f 262/262/262 264/264/264 265/265/265
f 266/266/266 262/262/262 265/265/265
f 266/266/266 265/265/265 267/267/267
f 268/268/268 266/266/266 267/267/267
f 268/268/268 267/267/267 269/269/269
f 270/270/270 268/268/268 269/269/269
f 270/270/270 269/269/269 271/271/271
f 272/272/272 270/270/270 271/271/271
f 272/272/272 271/271/271 273/273/273
f 274/274/274 275/275/275 276/276/276
f 274/274/274 276/276/276 277/277/277
f 275/275/275 278/278/278 276/276/276
f 275/275/275 279/279/279 278/278/278
f 279/279/279 280/280/280 278/278/278
f 279/279/279 281/281/281 280/280/280
f 281/281/281 282/282/282 280/280/280
f 281/281/281 283/283/283 282/282/282
f 283/283/283 284/284/284 282/282/282
f 283/283/283 285/285/285 284/284/284
f 285/285/285 286/286/286 284/284/284
f 285/285/285 287/287/287 286/286/286
f 287/287/287 288/288/288 286/286/286
f 287/287/287 289/289/289 288/288/288
f 289/289/289 290/290/290 288/288/288
f 289/289/289 291/291/291 290/290/290
f 291/291/291 292/292/292 290/290/290
f 291/291/291 293/293/293 292/292/292
f 293/293/293 294/294/294 292/292/292
f 293/293/293 295/295/295 294/294/294
f 295/295/295 296/296/296 294/294/294
f 295/295/295 297/297/297 296/296/296
f 298/298/298 299/299/299 300/300/300
f 298/298/298 300/300/300 301/301/301
f 299/299/299 302/302/302 300/300/300
f 299/299/299 303/303/303 302/302/302
f 304/304/304 305/305/305 306/306/306
f 304/304/304 306/306/306 307/307/307
f 308/308/308 305/305/305 304/304/304
f 306/306/306 309/309/309 307/307/307
f 306/306/306 310/310/310 309/309/309
f 311/311/311 309/309/309 310/310/310
f 311/311/311 312/312/312 309/309/309
f 313/313/313 312/312/312 311/311/311
f 313/313/313 311/311/311 314/314/314
f 313/313/313 314/314/314 315/315/315
f 308/308/308 316/316/316 305/305/305
f 313/313/313 315/315/315 317/317/317
f 308/308/308 318/318/318 316/316/316
f 308/308/308 319/319/319 318/318/318
f 318/318/318 320/320/320 316/316/316
f 318/318/318 319/319/319 321/321/321
f 318/318/318 322/322/322 320/320/320
f 323/323/323 321/321/321 319/319/319
f 324/324/324 321/321/321 323/323/323
f 324/324/324 323/323/323 325/325/325
f 326/326/326 324/324/324 325/325/325
f 326/326/326 325/325/325 327/327/327
f 328/328/328 326/326/326 327/327/327
f 328/328/328 327/327/327 329/329/329
f 330/330/330 328/328/328 329/329/329
f 330/330/330 329/329/329 331/331/331
f 331/331/331 332/332/332 330/330/330
f 331/331/331 333/333/333 332/332/332
f 334/334/334 332/332/332 333/333/333
f 334/334/334 335/335/335 332/332/332
f 336/336/336 335/335/335 334/334/334
f 336/336/336 337/337/337 335/335/335
f 338/338/338 337/337/337 336/336/336
f 338/338/338 339/339/339 337/337/337
f 340/340/340 339/339/339 338/338/338
f 340/340/340 341/341/341 339/339/339
f 342/342/342 341/341/341 340/340/340
f 342/342/342 343/343/343 341/341/341
f 342/342/342 344/344/344 343/343/343
f 317/317/317 344/344/344 342/342/342
f 317/317/317 315/315/315 344/344/344
f 344/344/344 315/315/315 320/320/320
f 344/344/344 320/320/320 322/322/322
f 345/345/345 346/346/346 347/347/347
f 345/345/345 347/347/347 348/348/348
f 349/349/349 347/347/347 346/346/346
f 349/349/349 346/346/346 350/350/350
f 351/351/351 349/349/349 350/350/350
f 351/351/351 350/350/350 352/352/352
f 353/353/353 351/351/351 352/352/352
f 353/353/353 352/352/352 354/354/354
f 353/353/353 354/354/354 355/355/355
f 353/353/353 355/355/355 356/356/356
f 356/356/356 355/355/355 357/357/357
f 356/356/356 357/357/357 358/358/358
f 358/358/358 357/357/357 359/359/359
f 358/358/358 359/359/359 360/360/360
f 361/361/361 360/360/360 359/359/359
f 361/361/361 362/362/362 360/360/360
f 363/363/363 362/362/362 361/361/361
f 363/363/363 364/364/364 362/362/362
f 365/365/365 364/364/364 363/363/363
f 365/365/365 363/363/363 366/366/366
f 365/365/365 366/366/366 367/367/367
f 367/367/367 366/366/366 368/368/368
f 367/367/367 368/368/368 369/369/369
f 369/369/369 368/368/368 370/370/370
f 369/369/369 370/370/370 371/371/371
f 371/371/371 370/370/370 372/372/372
f 371/371/371 372/372/372 373/373/373
f 374/374/374 373/373/373 372/372/372
f 374/374/374 375/375/375 373/373/373
f 376/376/376 375/375/375 374/374/374
f 376/376/376 374/374/374 377/377/377
f 376/376/376 377/377/377 378/378/378
f 376/376/376 378/378/378 379/379/379
f 380/380/380 379/379/379 378/378/378
f 380/380/380 378/378/378 381/381/381
f 382/382/382 383/383/383 384/384/384
f 382/382/382 384/384/384 385/385/385
f 384/384/384 386/386/386 385/385/385
f 382/382/382 385/385/385 387/387/387
f 382/382/382 387/387/387 388/388/388
f 389/389/389 387/387/387 385/385/385
f 389/389/389 385/385/385 390/390/390
f 391/391/391 389/389/389 390/390/390
f 385/385/385 392/392/392 390/390/390
f 385/385/385 393/393/393 392/392/392
f 394/394/394 385/385/385 386/386/386
f 393/393/393 385/385/385 394/394/394
f 394/394/394 386/386/386 395/395/395
f 393/393/393 394/394/394 396/396/396
f 397/397/397 398/398/398 399/399/399
f 397/397/397 399/399/399 400/400/400
f 397/397/397 400/400/400 401/401/401
f 397/397/397 401/401/401 402/402/402
f 403/403/403 397/397/397 402/402/402
f 398/398/398 397/397/397 403/403/403
f 402/402/402 404/404/404 405/405/405
f 403/403/403 402/402/402 405/405/405
f 406/406/406 403/403/403 405/405/405
f 406/406/406 405/405/405 407/407/407
f 406/406/406 407/407/407 408/408/408
f 406/406/406 409/409/409 403/403/403
f 409/409/409 410/410/410 403/403/403
f 409/409/409 411/411/411 410/410/410
f 410/410/410 412/412/412 403/403/403
f 410/410/410 413/413/413 412/412/412
f 412/412/412 414/414/414 403/403/403
f 403/403/403 415/415/415 416/416/416
f 403/403/403 416/416/416 417/417/417
f 418/418/418 417/417/417 416/416/416
f 398/398/398 403/403/403 417/417/417
f 417/417/417 419/419/419 420/420/420
f 417/417/417 420/420/420 398/398/398
f 421/421/421 398/398/398 420/420/420
f 421/421/421 422/422/422 398/398/398
f 421/421/421 423/423/423 422/422/422
f 421/421/421 424/424/424 423/423/423
f 425/425/425 398/398/398 422/422/422
f 425/425/425 426/426/426 398/398/398
f 427/427/427 428/428/428 429/429/429
f 427/427/427 429/429/429 430/430/430
f 429/429/429 431/431/431 430/430/430
f 427/427/427 430/430/430 432/432/432
f 430/430/430 433/433/433 432/432/432
f 430/430/430 434/434/434 433/433/433
f 427/427/427 432/432/432 435/435/435
f 432/432/432 436/436/436 435/435/435
f 437/437/437 427/427/427 435/435/435
f 437/437/437 435/435/435 438/438/438
f 439/439/439 440/440/440 441/441/441
f 439/439/439 442/442/442 443/443/443
f 439/439/439 444/444/444 442/442/442
f 439/439/439 441/441/441 444/444/444
f 441/441/441 445/445/445 444/444/444
f 441/441/441 446/446/446 445/445/445
f 446/446/446 447/447/447 445/445/445
f 446/446/446 448/448/448 447/447/447
f 445/445/445 449/449/449 444/444/444
f 445/445/445 450/450/450 449/449/449
f 449/449/449 451/451/451 444/444/444
f 452/452/452 453/453/453 454/454/454
f 452/452/452 454/454/454 455/455/455
f 454/454/454 453/453/453 456/456/456
f 454/454/454 456/456/456 457/457/457
f 458/458/458 456/456/456 453/453/453
f 458/458/458 459/459/459 456/456/456
f 460/460/460 461/461/461 462/462/462
f 460/460/460 462/462/462 463/463/463
f 462/462/462 461/461/461 464/464/464
f 462/462/462 464/464/464 465/465/465
f 466/466/466 464/464/464 461/461/461
f 466/466/466 467/467/467 464/464/464
f 468/468/468 466/466/466 461/461/461
f 468/468/468 469/469/469 466/466/466
f 470/470/470 471/471/471 472/472/472
f 470/470/470 472/472/472 473/473/473
f 473/473/473 472/472/472 474/474/474
f 473/473/473 474/474/474 475/475/475
f 476/476/476 477/477/477 478/478/478
f 476/476/476 478/478/478 479/479/479
f 480/480/480 481/481/481 482/482/482
f 480/480/480 482/482/482 483/483/483
f 484/484/484 485/485/485 486/486/486
f 484/484/484 486/486/486 487/487/487
f 488/488/488 489/489/489 490/490/490
f 488/488/488 490/490/490 491/491/491
f 492/492/492 493/493/493 494/494/494
f 492/492/492 494/494/494 495/495/495
f 496/496/496 497/497/497 498/498/498
f 496/496/496 498/498/498 499/499/499
f 500/500/500 501/501/501 502/502/502
f 500/500/500 502/502/502 503/503/503
f 504/504/504 505/505/505 506/506/506
f 504/504/504 506/506/506 507/507/507
f 508/508/508 509/509/509 510/510/510
f 508/508/508 510/510/510 511/511/511
f 512/512/512 513/513/513 514/514/514
f 512/512/512 514/514/514 515/515/515
f 516/516/516 517/517/517 518/518/518
f 516/516/516 518/518/518 519/519/519
f 520/520/520 521/521/521 522/522/522
f 520/520/520 522/522/522 523/523/523
f 524/524/524 521/521/521 520/520/520
f 524/524/524 525/525/525 521/521/521
f 526/526/526 527/527/527 528/528/528
f 526/526/526 528/528/528 529/529/529
f 530/530/530 527/527/527 526/526/526
f 530/530/530 531/531/531 527/527/527
f 532/532/532 530/530/530 526/526/526
f 532/532/532 533/533/533 530/530/530
f 534/534/534 535/535/535 536/536/536
f 534/534/534 536/536/536 537/537/537
f 538/538/538 535/535/535 534/534/534
f 538/538/538 539/539/539 535/535/535
f 540/540/540 539/539/539 538/538/538
f 540/540/540 541/541/541 539/539/539
f 542/542/542 543/543/543 544/544/544
f 542/542/542 544/544/544 545/545/545
f 546/546/546 547/547/547 548/548/548
f 546/546/546 548/548/548 549/549/549
f 550/550/550 551/551/551 552/552/552
f 550/550/550 552/552/552 553/553/553
f 554/554/554 555/555/555 556/556/556
f 554/554/554 556/556/556 557/557/557
f 558/558/558 559/559/559 560/560/560
f 558/558/558 560/560/560 561/561/561
f 562/562/562 563/563/563 564/564/564
f 562/562/562 564/564/564 565/565/565
f 566/566/566 563/563/563 562/562/562
f 566/566/566 567/567/567 563/563/563
f 568/568/568 569/569/569 570/570/570
f 568/568/568 570/570/570 571/571/571
f 572/572/572 569/569/569 568/568/568
f 572/572/572 573/573/573 569/569/569
f 574/574/574 573/573/573 572/572/572
f 574/574/574 575/575/575 573/573/573
f 576/576/576 575/575/575 574/574/574
f 576/576/576 577/577/577 575/575/575
f 578/578/578 579/579/579 580/580/580
f 578/578/578 580/580/580 581/581/581
f 582/582/582 579/579/579 578/578/578
f 582/582/582 583/583/583 579/579/579
f 584/584/584 585/585/585 586/586/586
f 584/584/584 586/586/586 587/587/587
f 588/588/588 585/585/585 584/584/584
f 588/588/588 589/589/589 585/585/585
f 590/590/590 589/589/589 588/588/588
f 590/590/590 591/591/591 589/589/589
f 592/592/592 591/591/591 590/590/590
f 592/592/592 593/593/593 591/591/591
f 594/594/594 593/593/593 592/592/592
f 594/594/594 595/595/595 593/593/593
f 596/596/596 595/595/595 594/594/594
f 596/596/596 597/597/597 595/595/595
f 598/598/598 599/599/599 600/600/600
f 598/598/598 600/600/600 601/601/601
f 601/601/601 600/600/600 602/602/602
f 603/603/603 601/601/601 602/602/602
f 603/603/603 602/602/602 604/604/604
f 605/605/605 603/603/603 604/604/604
f 606/606/606 607/607/607 608/608/608
f 606/606/606 608/608/608 609/609/609
f 609/609/609 608/608/608 610/610/610
f 609/609/609 610/610/610 611/611/611
f 611/611/611 610/610/610 612/612/612
f 611/611/611 612/612/612 613/613/613
f 613/613/613 612/612/612 614/614/614
f 613/613/613 614/614/614 615/615/615
f 615/615/615 614/614/614 616/616/616
f 615/615/615 616/616/616 617/617/617
f 618/618/618 619/619/619 620/620/620
f 618/618/618 620/620/620 621/621/621
f 622/622/622 619/619/619 618/618/618
f 622/622/622 623/623/623 619/619/619
f 624/624/624 623/623/623 622/622/622
f 624/624/624 625/625/625 623/623/623
f 626/626/626 625/625/625 624/624/624
f 626/626/626 627/627/627 625/625/625
f 628/628/628 627/627/627 626/626/626
f 628/628/628 629/629/629 627/627/627
f 630/630/630 629/629/629 628/628/628
f 630/630/630 631/631/631 629/629/629
f 632/632/632 631/631/631 630/630/630
f 632/632/632 633/633/633 631/631/631
f 634/634/634 633/633/633 632/632/632
f 634/634/634 635/635/635 633/633/633
f 636/636/636 635/635/635 634/634/634
f 636/636/636 637/637/637 635/635/635
f 638/638/638 637/637/637 636/636/636
f 638/638/638 639/639/639 637/637/637
f 640/640/640 639/639/639 638/638/638
f 640/640/640 641/641/641 639/639/639
f 642/642/642 643/643/643 644/644/644
f 642/642/642 644/644/644 645/645/645
f 646/646/646 643/643/643 642/642/642
f 646/646/646 647/647/647 643/643/643
f 648/648/648 649/649/649 650/650/650
f 648/648/648 650/650/650 651/651/651
f 649/649/649 652/652/652 650/650/650
f 653/653/653 648/648/648 651/651/651
f 653/653/653 654/654/654 648/648/648
f 655/655/655 654/654/654 653/653/653
f 655/655/655 653/653/653 656/656/656
f 657/657/657 655/655/655 656/656/656
f 657/657/657 658/658/658 655/655/655
f 659/659/659 658/658/658 657/657/657
f 649/649/649 660/660/660 652/652/652
f 659/659/659 657/657/657 661/661/661
f 652/652/652 660/660/660 662/662/662
f 652/652/652 662/662/662 663/663/663
f 664/664/664 662/662/662 660/660/660
f 662/662/662 665/665/665 663/663/663
f 664/664/664 666/666/666 662/662/662
f 667/667/667 663/663/663 665/665/665
f 667/667/667 665/665/665 668/668/668
f 667/667/667 668/668/668 669/669/669
f 669/669/669 668/668/668 670/670/670
f 669/669/669 670/670/670 671/671/671
f 671/671/671 670/670/670 672/672/672
f 671/671/671 672/672/672 673/673/673
f 673/673/673 672/672/672 674/674/674
f 673/673/673 674/674/674 675/675/675
f 675/675/675 674/674/674 676/676/676
f 675/675/675 676/676/676 677/677/677
f 678/678/678 677/677/677 676/676/676
f 678/678/678 676/676/676 679/679/679
f 680/680/680 678/678/678 679/679/679
f 680/680/680 679/679/679 681/681/681
f 682/682/682 680/680/680 681/681/681
f 682/682/682 681/681/681 683/683/683
f 684/684/684 682/682/682 683/683/683
f 684/684/684 683/683/683 685/685/685
f 685/685/685 686/686/686 684/684/684
f 685/685/685 687/687/687 686/686/686
f 686/686/686 687/687/687 688/688/688
f 688/688/688 661/661/661 686/686/686
f 688/688/688 659/659/659 661/661/661
f 688/688/688 664/664/664 659/659/659
f 688/688/688 666/666/666 664/664/664
