o Sponza_Mesh_043
v -11.418768 5.095804 3.359710
v -11.417307 -4.565970 3.359710
v -11.417307 -4.565970 3.323691
v -11.418768 5.095804 3.323691
v 10.381095 -4.565974 3.359710
v 10.381093 -0.338114 3.359710
v 10.381093 -0.339584 3.323691
v 10.381095 -4.565974 3.323691
v -11.417307 -4.565970 3.359710
v 10.381095 -4.565974 3.359710
v 10.381095 -4.565974 3.323691
v -11.417307 -4.565970 3.323691
v -11.453737 -4.602400 3.395727
v -11.417307 -4.565970 3.359710
v -11.418768 5.095804 3.359710
v -11.455190 5.132240 3.395727
v 10.417524 -0.336387 3.395727
v 10.381093 -0.338114 3.359710
v 10.381095 -4.565974 3.359710
v 10.417525 -4.602404 3.395727
v 10.417525 -4.602404 3.395727
v 10.381095 -4.565974 3.359710
v -11.417307 -4.565970 3.359710
v -11.453737 -4.602400 3.395727
v -11.455190 5.132240 3.359710
v -11.455190 5.132240 3.323691
v -11.453737 -4.602400 3.323691
v -11.453737 -4.602400 3.359710
v -11.453737 -4.602400 3.395727
v -11.455190 5.132240 3.395727
v 10.417524 0.880552 3.359710
v 10.417525 0.880553 3.323691
v 10.417525 5.132820 3.323691
v 10.417525 5.132820 3.359710
v 10.417525 5.132820 3.395727
v 10.417524 0.880552 3.395727
v 10.417525 5.132820 3.359710
v 10.417525 5.132820 3.323691
v -11.455190 5.132240 3.323691
v -11.455190 5.132240 3.359710
v -11.455190 5.132240 3.395727
v 10.417525 5.132820 3.395727
v -11.453737 -4.602400 3.359710
v -11.453737 -4.602400 3.323691
v 10.417525 -4.602404 3.323691
v 10.417525 -4.602404 3.359710
v 10.417525 -4.602404 3.395727
v -11.453737 -4.602400 3.395727
v -11.417307 -4.565970 3.323691
v -11.453737 -4.602400 3.323691
v -11.455190 5.132240 3.323691
v -11.418768 5.095804 3.323691
v 10.381095 -4.565974 3.323691
v 10.381093 -0.339584 3.323691
v 10.417526 -0.339326 3.323691
v 10.417525 -4.602404 3.323691
v 10.381095 -4.565974 3.323691
v 10.417525 -4.602404 3.323691
v -11.453737 -4.602400 3.323691
v -11.417307 -4.565970 3.323691
v -11.418768 5.095804 3.323691
v 10.381088 5.096395 3.323691
v 10.381088 5.096395 3.359710
v -11.418768 5.095804 3.359710
v -11.418768 5.095804 3.359710
v 10.381088 5.096395 3.359710
v 10.417525 5.132820 3.395727
v -11.455190 5.132240 3.395727
v -11.455190 5.132240 3.323691
v 10.417525 5.132820 3.323691
v 10.381088 5.096395 3.323691
v -11.418768 5.095804 3.323691
v 10.381088 5.096395 3.359710
v 10.381088 5.096395 3.323691
v 10.381092 0.881187 3.323691
v 10.381092 0.881187 3.359710
v 10.417524 0.880552 3.395727
v 10.417525 5.132820 3.395727
v 10.381088 5.096395 3.359710
v 10.381092 0.881187 3.359710
v 10.381088 5.096395 3.323691
v 10.417525 5.132820 3.323691
v 10.417525 0.880553 3.323691
v 10.381092 0.881187 3.323691
v 10.417525 -4.602404 3.359710
v 10.417525 -4.602404 3.323691
v 10.417526 -0.339326 3.323691
v 10.417524 -0.337857 3.359710
v 10.417525 -4.602404 3.395727
v 10.417525 -4.602404 3.359710
v 10.417524 -0.337857 3.359710
v 10.417524 -0.336387 3.395727
vt 18.462900 1.096100
vt 22.150400 1.096100
vt 22.150400 1.120600
vt 18.462900 1.120600
vt 6.479000 1.096100
vt 8.086700 1.096100
vt 8.086100 1.120600
vt 6.479000 1.120600
vt -1.820400 1.096100
vt 6.479000 1.096100
vt 6.479000 1.120600
vt -1.820400 1.120600
vt 22.164301 1.071600
vt 22.150400 1.096100
vt 18.462900 1.096100
vt 18.449100 1.071600
vt 8.087300 1.071600
vt 8.086700 1.096100
vt 6.479000 1.096100
vt 6.465100 1.071600
vt 6.492900 1.071600
vt 6.479000 1.096100
vt -1.820400 1.096100
vt -1.834300 1.071600
vt 18.449100 1.047100
vt 18.449100 1.022600
vt 22.164301 1.022600
vt 22.164301 1.047100
vt 22.164301 1.071600
vt 18.449100 1.071600
vt 8.551200 1.047100
vt 8.551200 1.022600
vt 10.177500 1.022600
vt 10.177500 1.047100
vt 10.177500 1.071600
vt 8.551200 1.071600
vt 11.029500 1.047100
vt 11.029500 1.022600
vt 18.476801 1.022600
vt 18.476801 1.047100
vt 18.476801 1.071600
vt 11.029500 1.071600
vt -1.834300 1.047100
vt -1.834300 1.022600
vt 6.492900 1.022600
vt 6.492900 1.047100
vt 6.492900 1.071600
vt -1.834300 1.071600
vt 22.150400 1.120600
vt 22.164301 1.125700
vt 18.449100 1.125700
vt 18.462900 1.120600
vt 6.479000 1.120600
vt 8.086100 1.120600
vt 8.086200 1.125700
vt 6.465100 1.125700
vt 6.479000 1.120600
vt 6.492900 1.125700
vt -1.834300 1.125700
vt -1.820400 1.120600
vt 18.462900 1.120600
vt 11.043200 1.120600
vt 11.043200 1.096100
vt 18.462900 1.096100
vt 18.462900 1.096100
vt 11.041900 1.102900
vt 11.029500 1.078400
vt 18.476801 1.071600
vt 18.476801 1.126200
vt 11.030800 1.122900
vt 11.043200 1.117800
vt 18.462900 1.120600
vt 10.163600 1.096100
vt 10.163600 1.120600
vt 8.551500 1.120600
vt 8.551500 1.096100
vt 8.551200 1.071600
vt 10.177500 1.071600
vt 10.163600 1.096100
vt 8.551500 1.096100
vt 10.163600 1.120600
vt 10.177500 1.125700
vt 8.551200 1.125700
vt 8.551500 1.120600
vt 6.465100 1.047100
vt 6.465100 1.022600
vt 8.086200 1.022600
vt 8.086800 1.047100
vt 6.465100 1.071600
vt 6.465100 1.047100
vt 8.086800 1.047100
vt 8.087300 1.071600
vn 1.000000 0.000200 0.000000
vn 1.000000 0.000200 0.000000
vn 1.000000 0.000200 0.000000
vn 1.000000 0.000200 0.000000
vn -1.000000 -0.000000 0.000000
vn -1.000000 -0.000000 0.000000
vn -1.000000 -0.000000 0.000000
vn -1.000000 -0.000000 0.000000
vn 0.000000 1.000000 0.000000
vn 0.000000 1.000000 0.000000
vn 0.000000 1.000000 0.000000
vn 0.000000 1.000000 0.000000
vn 0.405092 0.405192 0.819585
vn 0.405092 0.405192 0.819585
vn 0.405292 -0.404992 0.819585
vn 0.405176 -0.405176 0.819552
vn -0.703095 -0.000000 0.711095
vn -0.703095 -0.000000 0.711095
vn -0.405176 0.405176 0.819552
vn -0.405176 0.405176 0.819552
vn -0.405176 0.405176 0.819552
vn -0.405176 0.405176 0.819552
vn 0.405092 0.405192 0.819585
vn 0.405092 0.405192 0.819585
vn -1.000000 -0.000100 0.000000
vn -1.000000 -0.000100 0.000000
vn -1.000000 -0.000100 0.000000
vn -1.000000 -0.000100 0.000000
vn -1.000000 -0.000100 0.000000
vn -1.000000 -0.000100 0.000000
vn 1.000000 -0.000000 0.000000
vn 1.000000 -0.000000 0.000000
vn 1.000000 -0.000000 0.000000
vn 1.000000 -0.000000 0.000000
vn 1.000000 -0.000000 0.000000
vn 1.000000 -0.000000 0.000000
vn -0.000000 1.000000 0.000000
vn -0.000000 1.000000 0.000000
vn -0.000000 1.000000 0.000000
vn -0.000000 1.000000 0.000000
vn -0.000000 1.000000 0.000000
vn -0.000000 1.000000 0.000000
vn -0.000000 -1.000000 0.000000
vn -0.000000 -1.000000 0.000000
vn -0.000000 -1.000000 0.000000
vn -0.000000 -1.000000 0.000000
vn -0.000000 -1.000000 0.000000
vn -0.000000 -1.000000 0.000000
vn 0.000000 0.000000 -1.000000
vn 0.000000 0.000000 -1.000000
vn 0.000000 -0.000000 -1.000000
vn -0.000000 -0.000000 -1.000000
vn -0.000000 0.000000 -1.000000
vn 0.000000 -0.000000 -1.000000
vn -0.000000 -0.000000 -1.000000
vn -0.000000 0.000000 -1.000000
vn -0.000000 0.000000 -1.000000
vn -0.000000 0.000000 -1.000000
vn 0.000000 0.000000 -1.000000
vn 0.000000 0.000000 -1.000000
vn 0.000000 -1.000000 0.000000
vn 0.000000 -1.000000 0.000000
vn 0.000000 -1.000000 0.000000
vn 0.000000 -1.000000 0.000000
vn 0.405292 -0.404992 0.819585
vn -0.405092 -0.405192 0.819585
vn -0.405192 -0.405092 0.819585
vn 0.405176 -0.405176 0.819552
vn 0.000000 -0.000000 -1.000000
vn 0.000000 0.000000 -1.000000
vn 0.000000 0.000000 -1.000000
vn -0.000000 -0.000000 -1.000000
vn -1.000000 -0.000000 0.000000
vn -1.000000 -0.000000 0.000000
vn -1.000000 -0.000000 0.000000
vn -1.000000 -0.000000 0.000000
vn -0.703095 -0.000000 0.711095
vn -0.405192 -0.405092 0.819585
vn -0.405092 -0.405192 0.819585
vn -0.703095 -0.000000 0.711095
vn 0.000000 0.000000 -1.000000
vn 0.000000 0.000000 -1.000000
vn 0.000000 0.000000 -1.000000
vn 0.000000 0.000000 -1.000000
vn 1.000000 0.000000 0.000000
vn 1.000000 0.000000 0.000000
vn 1.000000 0.000000 0.000000
vn 1.000000 0.000000 0.000000
vn 1.000000 0.000000 -0.000000
vn 1.000000 0.000000 -0.000000
vn 1.000000 0.000000 -0.000000
vn 1.000000 0.000000 -0.000000
f 1/1/1 2/2/2 3/3/3
f 1/1/1 3/3/3 4/4/4
f 5/5/5 6/6/6 7/7/7
f 5/5/5 7/7/7 8/8/8
f 9/9/9 10/10/10 11/11/11
f 9/9/9 11/11/11 12/12/12
f 13/13/13 14/14/14 15/15/15
f 13/13/13 15/15/15 16/16/16
f 17/17/17 18/18/18 19/19/19
f 17/17/17 19/19/19 20/20/20
f 21/21/21 22/22/22 23/23/23
f 21/21/21 23/23/23 24/24/24
f 25/25/25 26/26/26 27/27/27
f 25/25/25 27/27/27 28/28/28
f 29/29/29 25/25/25 28/28/28
f 29/29/29 30/30/30 25/25/25
f 31/31/31 32/32/32 33/33/33
f 31/31/31 33/33/33 34/34/34
f 35/35/35 31/31/31 34/34/34
f 35/35/35 36/36/36 31/31/31
f 37/37/37 38/38/38 39/39/39
f 37/37/37 39/39/39 40/40/40
f 41/41/41 37/37/37 40/40/40
f 41/41/41 42/42/42 37/37/37
f 43/43/43 44/44/44 45/45/45
f 43/43/43 45/45/45 46/46/46
f 47/47/47 43/43/43 46/46/46
f 47/47/47 48/48/48 43/43/43
f 49/49/49 50/50/50 51/51/51
f 49/49/49 51/51/51 52/52/52
f 53/53/53 54/54/54 55/55/55
f 53/53/53 55/55/55 56/56/56
f 57/57/57 58/58/58 59/59/59
f 57/57/57 59/59/59 60/60/60
f 61/61/61 62/62/62 63/63/63
f 61/61/61 63/63/63 64/64/64
f 65/65/65 66/66/66 67/67/67
f 65/65/65 67/67/67 68/68/68
f 69/69/69 70/70/70 71/71/71
f 69/69/69 71/71/71 72/72/72
f 73/73/73 74/74/74 75/75/75
f 73/73/73 75/75/75 76/76/76
f 77/77/77 78/78/78 79/79/79
f 77/77/77 79/79/79 80/80/80
f 81/81/81 82/82/82 83/83/83
f 81/81/81 83/83/83 84/84/84
f 85/85/85 86/86/86 87/87/87
f 85/85/85 87/87/87 88/88/88
f 89/89/89 90/90/90 91/91/91
f 89/89/89 91/91/91 92/92/92
