o Sponza_Mesh_102
v 11.044827 6.260163 -0.927833
v 11.044827 -5.398054 -0.927833
v -12.035747 -5.398054 -0.927833
v -12.035747 6.260163 -0.927833
v 11.044828 -5.398054 10.168297
v -12.035747 -5.398054 10.168297
v -12.035747 -5.398054 -0.927833
v 11.044827 -5.398054 -0.927833
v 11.044828 6.260163 10.168297
v 11.044828 -5.398054 10.168297
v 11.044827 -5.398054 -0.927833
v 11.044827 6.260163 -0.927833
v -12.035747 6.260163 10.168297
v 11.044828 6.260163 10.168297
v 11.044827 6.260163 -0.927833
v -12.035747 6.260163 -0.927833
v -12.035747 -5.398054 10.168297
v -12.035747 6.260163 10.168297
v -12.035747 6.260163 -0.927833
v -12.035747 -5.398054 -0.927833
vt -3.643200 0.000000
vt -3.643200 -3.643200
vt -10.855900 -3.643200
vt -10.855900 0.000000
vt -0.000000 3.558800
vt 7.212700 3.558800
vt 7.212700 0.000000
vt -0.000000 0.000000
vt -3.643200 3.558800
vt -0.000000 3.558800
vt -0.000000 0.000000
vt -3.643200 0.000000
vt -10.855900 3.558800
vt -3.643200 3.558800
vt -3.643200 0.000000
vt -10.855900 0.000000
vt -14.499100 3.558800
vt -10.855900 3.558800
vt -10.855900 0.000000
vt -14.499100 0.000000
vn 0.000000 0.000000 -1.000000
vn 0.000000 0.000000 -1.000000
vn 0.000000 0.000000 -1.000000
vn 0.000000 0.000000 -1.000000
vn 0.000000 -1.000000 0.000000
vn 0.000000 -1.000000 0.000000
vn 0.000000 -1.000000 0.000000
vn 0.000000 -1.000000 0.000000
vn 1.000000 0.000000 -0.000000
vn 1.000000 0.000000 -0.000000
vn 1.000000 0.000000 -0.000000
vn 1.000000 0.000000 -0.000000
vn 0.000000 1.000000 0.000000
vn 0.000000 1.000000 0.000000
vn 0.000000 1.000000 0.000000
vn 0.000000 1.000000 0.000000
vn -1.000000 0.000000 0.000000
vn -1.000000 0.000000 0.000000
vn -1.000000 0.000000 0.000000
vn -1.000000 0.000000 0.000000
f 1/1/1 2/2/2 3/3/3
f 1/1/1 3/3/3 4/4/4
f 5/5/5 6/6/6 7/7/7
f 5/5/5 7/7/7 8/8/8
f 9/9/9 10/10/10 11/11/11
f 9/9/9 11/11/11 12/12/12
f 13/13/13 14/14/14 15/15/15
f 13/13/13 15/15/15 16/16/16
f 17/17/17 18/18/18 19/19/19
f 17/17/17 19/19/19 20/20/20
