o Sponza_Mesh_015
v -8.019013 0.631720 8.102835
v -8.019013 0.631720 7.373828
v -8.019013 2.028389 7.373828
v -8.019013 0.441642 9.810932
v -8.019013 2.028389 10.373686
v -8.019013 0.273766 9.741259
v -8.019013 0.442440 10.129916
v -8.019013 0.271125 8.102835
v -8.019013 0.288999 10.373686
v -8.019013 0.273766 10.189063
v -8.019013 0.113167 10.109839
v -8.019013 -0.084534 8.102835
v -8.019013 -1.450390 10.373686
v -8.019013 0.112149 9.817584
v -8.019013 -1.450390 7.373828
v -8.019013 -0.084534 7.373828
v 6.948754 2.028389 7.373828
v 6.948754 -1.450390 7.373828
v 6.948754 -1.450390 10.373686
v 6.948754 2.028389 10.373686
v 2.087676 2.028389 8.102835
v 2.803332 2.028389 8.102835
v 3.868170 2.028389 9.856407
v 2.803333 2.028389 7.373828
v 3.940404 2.028389 7.373828
v 4.062019 2.028389 9.731013
v 5.056906 2.028389 7.373828
v 5.056906 2.028389 8.102835
v 4.222347 2.028389 9.800637
v 4.217162 2.028389 10.117004
v 5.767937 2.028389 8.102835
v 6.948754 2.028389 10.373686
v 6.948754 2.028389 7.373828
v 5.767937 2.028389 7.373828
v 4.699866 2.028389 10.373686
v 4.062019 2.028389 10.184620
v 2.450979 2.028389 10.373686
v 3.887310 2.028389 10.100583
v 1.254178 2.028389 10.121075
v 0.974942 2.028389 10.373686
v 1.264326 2.028389 9.798231
v 1.097554 2.028389 10.184620
v 0.930154 2.028389 10.110846
v 1.097554 2.028389 9.731013
v 2.090765 2.028389 7.373828
v -0.501096 2.028389 10.373686
v 0.975926 2.028389 7.373828
v 0.930153 2.028389 9.800700
v -0.138914 2.028389 8.102835
v -0.138914 2.028389 7.373828
v -0.851138 2.028389 8.102835
v -1.957789 2.028389 10.111652
v -1.978418 2.028389 10.373686
v -1.946208 2.028389 9.809137
v -2.123974 2.028389 10.184620
v -2.285828 2.028389 10.102083
v -2.123974 2.028389 9.731013
v -0.851138 2.028389 7.373828
v -3.455740 2.028389 10.373686
v -1.977057 2.028389 7.373828
v -3.121152 2.028389 8.102835
v -3.121152 2.028389 7.373828
v -2.287934 2.028389 9.806950
v -3.820647 2.028389 8.102835
v -4.894331 2.028389 9.840831
v -4.939899 2.028389 10.127886
v -5.078470 2.028389 10.184620
v -5.078470 2.028389 9.731013
v -5.737377 2.028389 10.373686
v -3.820647 2.028389 7.373828
v -5.234902 2.028389 10.118815
v -4.948041 2.028389 7.373828
v -8.019013 2.028389 10.373686
v -6.084705 2.028389 8.102835
v -6.084705 2.028389 7.373828
v -5.279637 2.028389 9.858045
v -6.799801 2.028389 8.102835
v -8.019013 2.028389 7.373828
v -6.799801 2.028389 7.373828
v 1.254178 -1.450390 10.121075
v 2.450979 -1.450390 10.373686
v 3.887310 -1.450390 10.100583
v 4.062019 -1.450390 10.184620
v 4.699866 -1.450390 10.373686
v 4.217163 -1.450390 10.117004
v 6.948754 -1.450390 10.373686
v 0.974942 -1.450390 10.373686
v 5.771582 -1.450390 8.102835
v 6.948754 -1.450390 7.373828
v 5.771582 -1.450390 7.373828
v 5.056906 -1.450390 8.102835
v 4.222348 -1.450390 9.800637
v 4.062019 -1.450390 9.731013
v 5.056906 -1.450390 7.373828
v 3.940404 -1.450390 7.373828
v 2.802301 -1.450390 8.102835
v 2.802302 -1.450390 7.373828
v 3.868170 -1.450390 9.856407
v 2.087677 -1.450390 8.102835
v 1.264326 -1.450390 9.798231
v 1.097555 -1.450390 9.731013
v 2.090766 -1.450390 7.373828
v 0.975926 -1.450390 7.373828
v -0.138913 -1.450390 8.102835
v -0.138913 -1.450390 7.373828
v 0.930154 -1.450390 9.800700
v 0.930154 -1.450390 10.110846
v 1.097555 -1.450390 10.184620
v -0.501095 -1.450390 10.373686
v -0.841366 -1.450390 8.102835
v -1.957788 -1.450390 10.111652
v -1.978418 -1.450390 10.373686
v -1.946207 -1.450390 9.809137
v -2.123973 -1.450390 10.184620
v -2.123973 -1.450390 9.731013
v -0.841366 -1.450390 7.373828
v -2.285827 -1.450390 10.102083
v -1.977056 -1.450390 7.373828
v -3.455740 -1.450390 10.373686
v -3.116572 -1.450390 8.102835
v -3.116572 -1.450390 7.373828
v -2.287934 -1.450390 9.806950
v -3.820647 -1.450390 8.102835
v -4.939899 -1.450390 10.127886
v -5.078470 -1.450390 10.184620
v -4.894331 -1.450390 9.840831
v -5.737376 -1.450390 10.373686
v -5.078470 -1.450390 9.731013
v -5.234902 -1.450390 10.118815
v -3.820647 -1.450390 7.373828
v -8.019013 -1.450390 10.373686
v -4.948041 -1.450390 7.373828
v -6.090103 -1.450390 8.102835
v -6.090103 -1.450390 7.373828
v -5.279637 -1.450390 9.858045
v -6.799801 -1.450390 8.102835
v -8.019013 -1.450390 7.373828
v -6.799801 -1.450390 7.373828
vt 1.165300 0.448200
vt 1.165300 0.000900
vt 2.022200 0.000900
vt 1.048700 1.496100
vt 2.022200 1.841400
vt 0.945700 1.453400
vt 1.049200 1.691800
vt 0.944100 0.448200
vt 0.955000 1.841400
vt 0.945700 1.728100
vt 0.847200 1.679500
vt 0.722800 0.448200
vt -0.112100 1.841400
vt 0.846500 1.500200
vt -0.112100 0.000900
vt 0.722800 0.000900
vt 11.205100 0.000900
vt 13.339400 0.000900
vt 13.339400 1.841400
vt 11.205100 1.841400
vt 8.222800 0.448200
vt 8.661800 0.448200
vt 9.315100 1.524000
vt 8.661800 0.000900
vt 9.359500 0.000900
vt 9.434100 1.447100
vt 10.044400 0.000900
vt 10.044400 0.448200
vt 9.532400 1.489800
vt 9.529200 1.683900
vt 10.480700 0.448200
vt 11.205100 1.841400
vt 11.205100 0.000900
vt 10.480700 0.000900
vt 9.825400 1.841400
vt 9.434100 1.725400
vt 8.445700 1.841400
vt 9.326900 1.673800
vt 7.711400 1.686400
vt 7.540100 1.841400
vt 7.717600 1.488300
vt 7.615300 1.725400
vt 7.512600 1.680100
vt 7.615300 1.447100
vt 8.224700 0.000900
vt 6.634500 1.841400
vt 7.540700 0.000900
vt 7.512600 1.489800
vt 6.856700 0.448200
vt 6.856700 0.000900
vt 6.419800 0.448200
vt 5.740800 1.680600
vt 5.728200 1.841400
vt 5.747900 1.495000
vt 5.638900 1.725400
vt 5.539600 1.674700
vt 5.638900 1.447100
vt 6.419800 0.000900
vt 4.821800 1.841400
vt 5.729000 0.000900
vt 5.027100 0.448200
vt 5.027100 0.000900
vt 5.538300 1.493700
vt 4.597900 0.448200
vt 3.939200 1.514500
vt 3.911300 1.690600
vt 3.826200 1.725400
vt 3.826200 1.447100
vt 3.422000 1.841400
vt 4.597900 0.000900
vt 3.730300 1.685000
vt 3.906300 0.000900
vt 2.022200 1.841400
vt 3.208900 0.448200
vt 3.208900 0.000900
vt 3.702800 1.525000
vt 2.770200 0.448200
vt 2.022200 0.000900
vt 2.770200 0.000900
vt 7.711400 1.686400
vt 8.445700 1.841400
vt 9.326900 1.673800
vt 9.434100 1.725400
vt 9.825400 1.841400
vt 9.529200 1.683900
vt 11.205100 1.841400
vt 7.540100 1.841400
vt 10.482900 0.448200
vt 11.205100 0.000900
vt 10.482900 0.000900
vt 10.044400 0.448200
vt 9.532400 1.489800
vt 9.434100 1.447100
vt 10.044400 0.000900
vt 9.359500 0.000900
vt 8.661200 0.448200
vt 8.661200 0.000900
vt 9.315100 1.524000
vt 8.222800 0.448200
vt 7.717600 1.488300
vt 7.615300 1.447100
vt 8.224700 0.000900
vt 7.540700 0.000900
vt 6.856700 0.448200
vt 6.856700 0.000900
vt 7.512600 1.489800
vt 7.512600 1.680100
vt 7.615300 1.725400
vt 6.634500 1.841400
vt 6.425800 0.448200
vt 5.740800 1.680600
vt 5.728200 1.841400
vt 5.747900 1.495000
vt 5.638900 1.725400
vt 5.638900 1.447100
vt 6.425800 0.000900
vt 5.539600 1.674700
vt 5.729000 0.000900
vt 4.821800 1.841400
vt 5.029900 0.448200
vt 5.029900 0.000900
vt 5.538300 1.493700
vt 4.597900 0.448200
vt 3.911300 1.690600
vt 3.826200 1.725400
vt 3.939200 1.514500
vt 3.422000 1.841400
vt 3.826200 1.447100
vt 3.730300 1.685000
vt 4.597900 0.000900
vt 2.022200 1.841400
vt 3.906300 0.000900
vt 3.205600 0.448200
vt 3.205600 0.000900
vt 3.702800 1.525000
vt 2.770200 0.448200
vt 2.022200 0.000900
vt 2.770200 0.000900
vn 1.000000 0.000000 0.000000
vn 1.000000 0.000000 0.000000
vn 1.000000 0.000000 0.000000
vn 1.000000 0.000000 0.000000
vn 1.000000 0.000000 0.000000
vn 1.000000 0.000000 0.000000
vn 1.000000 0.000000 0.000000
vn 1.000000 0.000000 0.000000
vn 1.000000 0.000000 0.000000
vn 1.000000 0.000000 0.000000
vn 1.000000 0.000000 0.000000
vn 1.000000 0.000000 0.000000
vn 1.000000 0.000000 0.000000
vn 1.000000 0.000000 0.000000
vn 1.000000 0.000000 0.000000
vn 1.000000 0.000000 0.000000
vn -1.000000 0.000000 0.000000
vn -1.000000 0.000000 0.000000
vn -1.000000 0.000000 0.000000
vn -1.000000 0.000000 0.000000
vn 0.000000 -1.000000 0.000000
vn 0.000000 -1.000000 0.000000
vn 0.000000 -1.000000 0.000000
vn 0.000000 -1.000000 0.000000
vn 0.000000 -1.000000 0.000000
vn 0.000000 -1.000000 0.000000
vn 0.000000 -1.000000 0.000000
vn 0.000000 -1.000000 0.000000
vn 0.000000 -1.000000 0.000000
vn 0.000000 -1.000000 0.000000
vn 0.000000 -1.000000 0.000000
vn 0.000000 -1.000000 0.000000
vn 0.000000 -1.000000 0.000000
vn 0.000000 -1.000000 0.000000
vn 0.000000 -1.000000 0.000000
vn 0.000000 -1.000000 0.000000
vn 0.000000 -1.000000 0.000000
vn 0.000000 -1.000000 0.000000
vn 0.000000 -1.000000 0.000000
vn 0.000000 -1.000000 0.000000
vn 0.000000 -1.000000 0.000000
vn 0.000000 -1.000000 0.000000
vn 0.000000 -1.000000 0.000000
vn 0.000000 -1.000000 0.000000
vn 0.000000 -1.000000 0.000000
vn 0.000000 -1.000000 0.000000
vn 0.000000 -1.000000 0.000000
vn 0.000000 -1.000000 0.000000
vn 0.000000 -1.000000 0.000000
vn 0.000000 -1.000000 0.000000
vn 0.000000 -1.000000 0.000000
vn 0.000000 -1.000000 0.000000
vn 0.000000 -1.000000 0.000000
vn 0.000000 -1.000000 0.000000
vn 0.000000 -1.000000 0.000000
vn 0.000000 -1.000000 0.000000
vn 0.000000 -1.000000 0.000000
vn 0.000000 -1.000000 0.000000
vn 0.000000 -1.000000 0.000000
vn 0.000000 -1.000000 0.000000
vn 0.000000 -1.000000 0.000000
vn 0.000000 -1.000000 0.000000
vn 0.000000 -1.000000 0.000000
vn 0.000000 -1.000000 0.000000
vn 0.000000 -1.000000 0.000000
vn 0.000000 -1.000000 0.000000
vn 0.000000 -1.000000 0.000000
vn 0.000000 -1.000000 0.000000
vn 0.000000 -1.000000 0.000000
vn 0.000000 -1.000000 0.000000
vn 0.000000 -1.000000 0.000000
vn 0.000000 -1.000000 0.000000
vn 0.000000 -1.000000 0.000000
vn 0.000000 -1.000000 0.000000
vn 0.000000 -1.000000 0.000000
vn 0.000000 -1.000000 0.000000
vn 0.000000 -1.000000 0.000000
vn 0.000000 -1.000000 0.000000
vn 0.000000 -1.000000 0.000000
vn 0.000000 1.000000 0.000000
vn 0.000000 1.000000 0.000000
vn 0.000000 1.000000 0.000000
vn 0.000000 1.000000 0.000000
vn 0.000000 1.000000 -0.000000
vn 0.000000 1.000000 -0.000000
vn 0.000000 1.000000 0.000000
vn 0.000000 1.000000 0.000000
vn 0.000000 1.000000 0.000000
vn 0.000000 1.000000 0.000000
vn 0.000000 1.000000 0.000000
vn 0.000000 1.000000 0.000000
vn 0.000000 1.000000 0.000000
vn 0.000000 1.000000 0.000000
vn 0.000000 1.000000 0.000000
vn 0.000000 1.000000 0.000000
vn 0.000000 1.000000 0.000000
vn 0.000000 1.000000 0.000000
vn 0.000000 1.000000 0.000000
vn 0.000000 1.000000 0.000000
vn 0.000000 1.000000 0.000000
vn 0.000000 1.000000 0.000000
vn 0.000000 1.000000 0.000000
vn 0.000000 1.000000 0.000000
vn 0.000000 1.000000 0.000000
vn 0.000000 1.000000 0.000000
vn 0.000000 1.000000 0.000000
vn 0.000000 1.000000 0.000000
vn 0.000000 1.000000 0.000000
vn 0.000000 1.000000 0.000000
vn 0.000000 1.000000 0.000000
vn 0.000000 1.000000 0.000000
vn 0.000000 1.000000 0.000000
vn 0.000000 1.000000 0.000000
vn 0.000000 1.000000 0.000000
vn 0.000000 1.000000 0.000000
vn 0.000000 1.000000 0.000000
vn 0.000000 1.000000 0.000000
vn 0.000000 1.000000 0.000000
vn 0.000000 1.000000 0.000000
vn 0.000000 1.000000 0.000000
vn 0.000000 1.000000 0.000000
vn 0.000000 1.000000 0.000000
vn 0.000000 1.000000 0.000000
vn 0.000000 1.000000 0.000000
vn 0.000000 1.000000 0.000000
vn 0.000000 1.000000 0.000000
vn 0.000000 1.000000 0.000000
vn 0.000000 1.000000 0.000000
vn 0.000000 1.000000 0.000000
vn 0.000000 1.000000 0.000000
vn -0.000000 1.000000 -0.000000
vn 0.000000 1.000000 0.000000
vn 0.000000 1.000000 0.000000
vn 0.000000 1.000000 0.000000
vn 0.000000 1.000000 0.000000
vn -0.000000 1.000000 -0.000000
vn -0.000000 1.000000 -0.000000
vn -0.000000 1.000000 0.000000
f 1/1/1 2/2/2 3/3/3
f 1/1/1 3/3/3 4/4/4
f 5/5/5 4/4/4 3/3/3
f 1/1/1 4/4/4 6/6/6
f 5/5/5 7/7/7 4/4/4
f 1/1/1 6/6/6 8/8/8
f 9/9/9 7/7/7 5/5/5
f 9/9/9 10/10/10 7/7/7
f 9/9/9 11/11/11 10/10/10
f 12/12/12 8/8/8 6/6/6
f 9/9/9 13/13/13 11/11/11
f 14/14/14 11/11/11 13/13/13
f 12/12/12 6/6/6 14/14/14
f 14/14/14 13/13/13 15/15/15
f 15/15/15 12/12/12 14/14/14
f 15/15/15 16/16/16 12/12/12
f 17/17/17 18/18/18 19/19/19
f 17/17/17 19/19/19 20/20/20
f 21/21/21 22/22/22 23/23/23
f 24/24/24 25/25/25 22/22/22
f 26/26/26 22/22/22 25/25/25
f 26/26/26 23/23/23 22/22/22
f 25/25/25 27/27/27 26/26/26
f 28/28/28 26/26/26 27/27/27
f 28/28/28 29/29/29 26/26/26
f 30/30/30 29/29/29 28/28/28
f 30/30/30 28/28/28 31/31/31
f 32/32/32 30/30/30 31/31/31
f 33/33/33 32/32/32 31/31/31
f 33/33/33 31/31/31 34/34/34
f 30/30/30 32/32/32 35/35/35
f 30/30/30 35/35/35 36/36/36
f 36/36/36 35/35/35 37/37/37
f 36/36/36 37/37/37 38/38/38
f 23/23/23 38/38/38 37/37/37
f 21/21/21 23/23/23 37/37/37
f 21/21/21 37/37/37 39/39/39
f 39/39/39 37/37/37 40/40/40
f 21/21/21 39/39/39 41/41/41
f 39/39/39 40/40/40 42/42/42
f 43/43/43 42/42/42 40/40/40
f 21/21/21 41/41/41 44/44/44
f 21/21/21 44/44/44 45/45/45
f 43/43/43 40/40/40 46/46/46
f 47/47/47 45/45/45 44/44/44
f 48/48/48 43/43/43 46/46/46
f 44/44/44 49/49/49 47/47/47
f 44/44/44 48/48/48 49/49/49
f 50/50/50 47/47/47 49/49/49
f 51/51/51 49/49/49 48/48/48
f 51/51/51 48/48/48 46/46/46
f 51/51/51 46/46/46 52/52/52
f 52/52/52 46/46/46 53/53/53
f 51/51/51 52/52/52 54/54/54
f 52/52/52 53/53/53 55/55/55
f 56/56/56 55/55/55 53/53/53
f 51/51/51 54/54/54 57/57/57
f 51/51/51 57/57/57 58/58/58
f 56/56/56 53/53/53 59/59/59
f 60/60/60 58/58/58 57/57/57
f 57/57/57 61/61/61 60/60/60
f 62/62/62 60/60/60 61/61/61
f 57/57/57 63/63/63 61/61/61
f 63/63/63 56/56/56 59/59/59
f 61/61/61 63/63/63 64/64/64
f 63/63/63 59/59/59 64/64/64
f 59/59/59 65/65/65 64/64/64
f 59/59/59 66/66/66 65/65/65
f 59/59/59 67/67/67 66/66/66
f 64/64/64 65/65/65 68/68/68
f 59/59/59 69/69/69 67/67/67
f 64/64/64 68/68/68 70/70/70
f 71/71/71 67/67/67 69/69/69
f 72/72/72 70/70/70 68/68/68
f 71/71/71 69/69/69 73/73/73
f 68/68/68 74/74/74 72/72/72
f 74/74/74 71/71/71 73/73/73
f 75/75/75 72/72/72 74/74/74
f 74/74/74 76/76/76 71/71/71
f 68/68/68 76/76/76 74/74/74
f 77/77/77 74/74/74 73/73/73
f 78/78/78 77/77/77 73/73/73
f 78/78/78 79/79/79 77/77/77
f 80/80/80 81/81/81 82/82/82
f 83/83/83 82/82/82 81/81/81
f 83/83/83 81/81/81 84/84/84
f 84/84/84 85/85/85 83/83/83
f 84/84/84 86/86/86 85/85/85
f 87/87/87 81/81/81 80/80/80
f 86/86/86 88/88/88 85/85/85
f 88/88/88 86/86/86 89/89/89
f 88/88/88 89/89/89 90/90/90
f 91/91/91 85/85/85 88/88/88
f 91/91/91 92/92/92 85/85/85
f 93/93/93 92/92/92 91/91/91
f 93/93/93 91/91/91 94/94/94
f 95/95/95 93/93/93 94/94/94
f 96/96/96 93/93/93 95/95/95
f 97/97/97 96/96/96 95/95/95
f 96/96/96 98/98/98 93/93/93
f 82/82/82 98/98/98 96/96/96
f 80/80/80 82/82/82 96/96/96
f 80/80/80 96/96/96 99/99/99
f 80/80/80 99/99/99 100/100/100
f 101/101/101 100/100/100 99/99/99
f 101/101/101 99/99/99 102/102/102
f 103/103/103 101/101/101 102/102/102
f 104/104/104 101/101/101 103/103/103
f 105/105/105 104/104/104 103/103/103
f 104/104/104 106/106/106 101/101/101
f 107/107/107 106/106/106 104/104/104
f 87/87/87 80/80/80 108/108/108
f 87/87/87 108/108/108 107/107/107
f 87/87/87 107/107/107 109/109/109
f 107/107/107 104/104/104 110/110/110
f 111/111/111 109/109/109 107/107/107
f 111/111/111 107/107/107 110/110/110
f 112/112/112 109/109/109 111/111/111
f 113/113/113 111/111/111 110/110/110
f 112/112/112 111/111/111 114/114/114
f 115/115/115 113/113/113 110/110/110
f 115/115/115 110/110/110 116/116/116
f 112/112/112 114/114/114 117/117/117
f 118/118/118 115/115/115 116/116/116
f 112/112/112 117/117/117 119/119/119
f 120/120/120 115/115/115 118/118/118
f 121/121/121 120/120/120 118/118/118
f 120/120/120 122/122/122 115/115/115
f 123/123/123 122/122/122 120/120/120
f 123/123/123 117/117/117 122/122/122
f 124/124/124 119/119/119 117/117/117
f 123/123/123 124/124/124 117/117/117
f 119/119/119 124/124/124 125/125/125
f 123/123/123 126/126/126 124/124/124
f 119/119/119 125/125/125 127/127/127
f 128/128/128 126/126/126 123/123/123
f 129/129/129 127/127/127 125/125/125
f 128/128/128 123/123/123 130/130/130
f 129/129/129 131/131/131 127/127/127
f 132/132/132 128/128/128 130/130/130
f 133/133/133 128/128/128 132/132/132
f 129/129/129 133/133/133 131/131/131
f 134/134/134 133/133/133 132/132/132
f 133/133/133 135/135/135 128/128/128
f 129/129/129 135/135/135 133/133/133
f 136/136/136 131/131/131 133/133/133
f 136/136/136 137/137/137 131/131/131
f 136/136/136 138/138/138 137/137/137
