o Sponza_Mesh_024
v -7.978557 0.279773 9.816406
v -7.965287 0.279773 9.777906
v -7.965287 0.356025 9.793711
v -7.936925 0.279773 9.739403
v -7.936924 0.371329 9.758380
v -7.978557 0.340722 9.829040
v -7.994681 0.279773 9.828067
v -7.965287 0.419713 9.838522
v -7.936924 0.447798 9.812186
v -7.994681 0.336088 9.839740
v -8.100858 0.279773 9.828067
v -8.100858 0.336088 9.839740
v -7.978557 0.391629 9.864858
v -7.994682 0.383122 9.872834
v -8.100858 0.383122 9.872834
v -7.965287 0.460342 9.904956
v -7.936924 0.496582 9.891953
v -7.978557 0.424103 9.917958
v -7.994682 0.413126 9.921897
v -8.100858 0.413126 9.921897
v -7.965287 0.471218 9.982066
v -7.936924 0.509640 9.984539
v -7.978563 0.432781 9.979592
v -7.994682 0.421160 9.978844
v -8.100858 0.421160 9.978844
v -7.965287 0.453267 10.051614
v -7.936924 0.488089 10.068045
v -7.978567 0.418420 10.035170
v -7.994682 0.407903 10.030208
v -8.100858 0.407903 10.030208
v -7.965287 0.410997 10.109686
v -7.936924 0.437334 10.137772
v -7.978567 0.384638 10.081578
v -7.994682 0.376686 10.073095
v -8.100858 0.376686 10.073095
v -7.965287 0.350331 10.148141
v -7.936924 0.364492 10.183945
v -7.965287 0.279773 10.161587
v -7.936925 0.279773 10.200090
v -7.978567 0.336158 10.112308
v -7.978568 0.279773 10.123053
v -7.994681 0.331881 10.101495
v -7.994681 0.279773 10.111425
v -8.100858 0.331881 10.101495
v -8.100858 0.279773 10.111425
v -7.936924 0.509640 9.984539
v -7.936924 0.496582 9.891953
v -8.100858 0.496582 9.891953
v -8.100858 0.509640 9.984539
v -8.100858 0.447798 9.812186
v -7.936924 0.488089 10.068045
v -7.936924 0.447798 9.812186
v -8.100858 0.488089 10.068045
v -8.100858 0.371329 9.758380
v -7.936924 0.437334 10.137772
v -7.936924 0.371329 9.758380
v -8.100858 0.279773 9.739403
v -7.936925 0.279773 9.739403
v -8.100858 0.437334 10.137772
v -7.936924 0.364492 10.183945
v -8.100858 0.364492 10.183945
v -7.936925 0.279773 10.200090
v -8.100858 0.279773 10.200090
v -7.978557 0.218824 9.829040
v -7.965287 0.203522 9.793711
v -7.965287 0.279773 9.777906
v -7.936925 0.188217 9.758380
v -7.936925 0.279773 9.739403
v -7.936925 0.111747 9.812186
v -7.978557 0.279773 9.816406
v -7.965287 0.139834 9.838522
v -7.936925 0.062964 9.891953
v -7.994681 0.223458 9.839741
v -7.994681 0.279773 9.828067
v -8.100858 0.279773 9.828067
v -8.100858 0.223458 9.839741
v -7.994681 0.176423 9.872834
v -8.100858 0.176423 9.872834
v -7.978557 0.167918 9.864858
v -7.994681 0.146420 9.921897
v -8.100858 0.146420 9.921897
v -8.100858 0.138386 9.978844
v -7.965287 0.099205 9.904956
v -7.978557 0.135443 9.917959
v -7.965287 0.088328 9.982066
v -7.936925 0.049905 9.984539
v -7.936925 0.071457 10.068045
v -7.994681 0.138386 9.978844
v -7.978563 0.126766 9.979592
v -7.965287 0.106278 10.051614
v -7.936925 0.122213 10.137772
v -7.978568 0.141126 10.035170
v -7.994681 0.151642 10.030208
v -8.100858 0.151642 10.030208
v -7.965287 0.148549 10.109686
v -7.936925 0.195054 10.183945
v -7.994681 0.182861 10.073095
v -8.100858 0.182861 10.073095
v -7.978568 0.174907 10.081578
v -7.994681 0.227665 10.101495
v -8.100858 0.227665 10.101495
v -8.100858 0.279773 10.111425
v -7.994681 0.279773 10.111425
v -7.978568 0.223389 10.112308
v -7.978568 0.279773 10.123053
v -7.965287 0.279773 10.161587
v -7.936925 0.279773 10.200090
v -7.965287 0.209214 10.148141
v -8.100858 0.062964 9.891953
v -7.936925 0.062964 9.891953
v -7.936925 0.049905 9.984539
v -7.936925 0.111747 9.812186
v -8.100858 0.049905 9.984539
v -8.100858 0.111747 9.812186
v -8.100858 0.071457 10.068045
v -7.936925 0.188217 9.758380
v -7.936925 0.071457 10.068045
v -8.100858 0.188217 9.758380
v -7.936925 0.279773 9.739403
v -8.100858 0.279773 9.739403
v -8.100858 0.122213 10.137772
v -7.936925 0.122213 10.137772
v -8.100858 0.195054 10.183945
v -7.936925 0.195054 10.183945
v -7.936925 0.279773 10.200090
v -8.100858 0.279773 10.200090
vt 0.003300 0.162100
vt 0.003300 0.187800
vt 0.127500 0.187800
vt 0.003300 0.216900
vt 0.127500 0.216900
vt 0.127500 0.162100
vt 0.003300 0.145100
vt 0.251600 0.187800
vt 0.251600 0.216900
vt 0.127500 0.145100
vt 0.003300 0.063800
vt 0.127500 0.063800
vt 0.251600 0.162100
vt 0.251600 0.145100
vt 0.251600 0.063800
vt 0.375800 0.187800
vt 0.375800 0.216900
vt 0.375800 0.162100
vt 0.375800 0.145100
vt 0.375800 0.063800
vt 0.499900 0.187800
vt 0.499900 0.216900
vt 0.499900 0.162100
vt 0.499900 0.145100
vt 0.499900 0.063800
vt 0.614300 0.187800
vt 0.614300 0.216900
vt 0.614300 0.162100
vt 0.614300 0.145100
vt 0.614300 0.063800
vt 0.728700 0.187800
vt 0.728700 0.216900
vt 0.728700 0.162100
vt 0.728700 0.145100
vt 0.728700 0.063800
vt 0.843100 0.187800
vt 0.843100 0.216900
vt 0.957500 0.187800
vt 0.957500 0.216900
vt 0.843100 0.162100
vt 0.957500 0.162100
vt 0.843100 0.145100
vt 0.957500 0.145100
vt 0.843100 0.063800
vt 0.957500 0.063800
vt 0.499900 0.216900
vt 0.375800 0.216900
vt 0.375800 0.326300
vt 0.499900 0.326300
vt 0.251600 0.326300
vt 0.614300 0.216900
vt 0.251600 0.216900
vt 0.614300 0.326300
vt 0.127500 0.326300
vt 0.728700 0.216900
vt 0.127500 0.216900
vt 0.003300 0.326300
vt 0.003300 0.216900
vt 0.728700 0.326300
vt 0.843100 0.216900
vt 0.843100 0.326300
vt 0.957500 0.216900
vt 0.957500 0.326300
vt 0.127500 0.162100
vt 0.127500 0.187800
vt 0.003300 0.187800
vt 0.127500 0.216900
vt 0.003300 0.216900
vt 0.251600 0.216900
vt 0.003300 0.162100
vt 0.251600 0.187800
vt 0.375800 0.216900
vt 0.127500 0.145100
vt 0.003300 0.145100
vt 0.003300 0.063800
vt 0.127500 0.063800
vt 0.251600 0.145100
vt 0.251600 0.063800
vt 0.251600 0.162100
vt 0.375800 0.145100
vt 0.375800 0.063800
vt 0.499900 0.063800
vt 0.375800 0.187800
vt 0.375800 0.162100
vt 0.499900 0.187800
vt 0.499900 0.216900
vt 0.614300 0.216900
vt 0.499900 0.145100
vt 0.499900 0.162100
vt 0.614300 0.187800
vt 0.728700 0.216900
vt 0.614300 0.162100
vt 0.614300 0.145100
vt 0.614300 0.063800
vt 0.728700 0.187800
vt 0.843100 0.216900
vt 0.728700 0.145100
vt 0.728700 0.063800
vt 0.728700 0.162100
vt 0.843100 0.145100
vt 0.843100 0.063800
vt 0.957500 0.063800
vt 0.957500 0.145100
vt 0.843100 0.162100
vt 0.957500 0.162100
vt 0.957500 0.187800
vt 0.957500 0.216900
vt 0.843100 0.187800
vt 0.375800 0.326300
vt 0.375800 0.216900
vt 0.499900 0.216900
vt 0.251600 0.216900
vt 0.499900 0.326300
vt 0.251600 0.326300
vt 0.614300 0.326300
vt 0.127500 0.216900
vt 0.614300 0.216900
vt 0.127500 0.326300
vt 0.003300 0.216900
vt 0.003300 0.326300
vt 0.728700 0.326300
vt 0.728700 0.216900
vt 0.843100 0.326300
vt 0.843100 0.216900
vt 0.957500 0.216900
vt 0.957500 0.326300
vn 0.822073 0.000000 0.569382
vn 0.877318 0.000000 0.479910
vn 0.877312 -0.190702 0.440406
vn 0.805119 -0.000000 0.593114
vn 0.805143 -0.235712 0.544229
vn 0.822073 -0.226293 0.522483
vn 0.320305 0.000000 0.947315
vn 0.877297 -0.350099 0.328299
vn 0.805132 -0.432617 0.405716
vn 0.320296 -0.376495 0.869288
vn 0.000000 0.000000 1.000000
vn 0.000000 -0.397501 0.917602
vn 0.822087 -0.415293 0.389494
vn 0.320304 -0.691008 0.648007
vn 0.000000 -0.729490 0.683991
vn 0.877316 -0.451708 0.162103
vn 0.805098 -0.558299 0.200299
vn 0.822093 -0.535896 0.192298
vn 0.320291 -0.891675 0.319891
vn 0.000000 -0.941248 0.337717
vn 0.877621 -0.478611 -0.026701
vn 0.805088 -0.592191 -0.033800
vn 0.821217 -0.569712 -0.032101
vn 0.319501 -0.946103 -0.053000
vn 0.000000 -0.998419 -0.056201
vn 0.877989 -0.432895 -0.204297
vn 0.805112 -0.536408 -0.253104
vn 0.820311 -0.517207 -0.244103
vn 0.318793 -0.857181 -0.404491
vn 0.000000 -0.904356 -0.426779
vn 0.877965 -0.327487 -0.349186
vn 0.805132 -0.405716 -0.432617
vn 0.820306 -0.391203 -0.417203
vn 0.318696 -0.648391 -0.691391
vn 0.000000 -0.683991 -0.729490
vn 0.877957 -0.176091 -0.445178
vn 0.805138 -0.218110 -0.551526
vn 0.877984 -0.000000 -0.478691
vn 0.805119 -0.000000 -0.593114
vn 0.820329 -0.210307 -0.531819
vn 0.820316 -0.000000 -0.571911
vn 0.318797 -0.348596 -0.881391
vn 0.318807 -0.000000 -0.947820
vn 0.000000 -0.367802 -0.929904
vn 0.000000 -0.000000 -1.000000
vn 0.000000 0.998419 0.056201
vn 0.000000 0.941248 -0.337717
vn 0.000000 0.941248 -0.337717
vn 0.000000 0.998419 0.056201
vn 0.000000 0.729490 -0.683991
vn 0.000000 0.904395 0.426697
vn 0.000000 0.729490 -0.683991
vn 0.000000 0.904395 0.426697
vn 0.000000 0.397501 -0.917602
vn 0.000000 0.683991 0.729490
vn 0.000000 0.397501 -0.917602
vn 0.000000 0.000000 -1.000000
vn 0.000000 0.000000 -1.000000
vn 0.000000 0.683991 0.729490
vn 0.000000 0.367802 0.929904
vn 0.000000 0.367802 0.929904
vn 0.000000 0.000000 1.000000
vn 0.000000 0.000000 1.000000
vn 0.822073 0.226293 0.522483
vn 0.877350 0.190711 0.440325
vn 0.877318 0.000000 0.479910
vn 0.805143 0.235712 0.544229
vn 0.805119 -0.000000 0.593114
vn 0.805132 0.432617 0.405716
vn 0.822073 0.000000 0.569382
vn 0.877297 0.350099 0.328299
vn 0.805143 0.558230 0.200311
vn 0.320296 0.376495 0.869288
vn 0.320305 0.000000 0.947315
vn 0.000000 0.000000 1.000000
vn 0.000000 0.397501 0.917602
vn 0.320304 0.691008 0.648007
vn 0.000000 0.729490 0.683991
vn 0.822087 0.415293 0.389494
vn 0.320319 0.891654 0.319919
vn 0.000000 0.941248 0.337717
vn 0.000000 0.998419 -0.056201
vn 0.877316 0.451708 0.162103
vn 0.822093 0.535896 0.192298
vn 0.877621 0.478611 -0.026701
vn 0.805139 0.592128 -0.033702
vn 0.805112 0.536408 -0.253104
vn 0.319591 0.946072 -0.052998
vn 0.821171 0.569780 -0.032099
vn 0.877989 0.432895 -0.204297
vn 0.805132 0.405716 -0.432617
vn 0.820311 0.517207 -0.244103
vn 0.318793 0.857181 -0.404491
vn 0.000000 0.904395 -0.426697
vn 0.877965 0.327487 -0.349186
vn 0.805138 0.218110 -0.551526
vn 0.318806 0.648313 -0.691414
vn 0.000000 0.683991 -0.729490
vn 0.820306 0.391203 -0.417203
vn 0.318797 0.348596 -0.881391
vn 0.000000 0.367802 -0.929904
vn 0.000000 -0.000000 -1.000000
vn 0.318807 -0.000000 -0.947820
vn 0.820329 0.210307 -0.531819
vn 0.820316 -0.000000 -0.571911
vn 0.877984 -0.000000 -0.478691
vn 0.805119 -0.000000 -0.593114
vn 0.877957 0.176091 -0.445178
vn 0.000000 -0.941248 -0.337717
vn 0.000000 -0.941248 -0.337717
vn 0.000000 -0.998419 0.056201
vn 0.000000 -0.729490 -0.683991
vn 0.000000 -0.998419 0.056201
vn 0.000000 -0.729490 -0.683991
vn 0.000000 -0.904356 0.426779
vn 0.000000 -0.397501 -0.917602
vn 0.000000 -0.904356 0.426779
vn 0.000000 -0.397501 -0.917602
vn 0.000000 0.000000 -1.000000
vn 0.000000 0.000000 -1.000000
vn 0.000000 -0.683991 0.729490
vn 0.000000 -0.683991 0.729490
vn 0.000000 -0.367802 0.929904
vn 0.000000 -0.367802 0.929904
vn 0.000000 0.000000 1.000000
vn 0.000000 0.000000 1.000000
f 1/1/1 2/2/2 3/3/3
f 3/3/3 2/2/2 4/4/4
f 3/3/3 4/4/4 5/5/5
f 1/1/1 3/3/3 6/6/6
f 7/7/7 1/1/1 6/6/6
f 8/8/8 3/3/3 5/5/5
f 6/6/6 3/3/3 8/8/8
f 8/8/8 5/5/5 9/9/9
f 7/7/7 6/6/6 10/10/10
f 10/10/10 11/11/11 7/7/7
f 10/10/10 12/12/12 11/11/11
f 10/10/10 6/6/6 13/13/13
f 6/6/6 8/8/8 13/13/13
f 14/14/14 12/12/12 10/10/10
f 10/10/10 13/13/13 14/14/14
f 14/14/14 15/15/15 12/12/12
f 16/16/16 8/8/8 9/9/9
f 13/13/13 8/8/8 16/16/16
f 16/16/16 9/9/9 17/17/17
f 14/14/14 13/13/13 18/18/18
f 13/13/13 16/16/16 18/18/18
f 19/19/19 15/15/15 14/14/14
f 14/14/14 18/18/18 19/19/19
f 19/19/19 20/20/20 15/15/15
f 21/21/21 16/16/16 17/17/17
f 18/18/18 16/16/16 21/21/21
f 21/21/21 17/17/17 22/22/22
f 19/19/19 18/18/18 23/23/23
f 18/18/18 21/21/21 23/23/23
f 24/24/24 20/20/20 19/19/19
f 19/19/19 23/23/23 24/24/24
f 24/24/24 25/25/25 20/20/20
f 26/26/26 21/21/21 22/22/22
f 23/23/23 21/21/21 26/26/26
f 26/26/26 22/22/22 27/27/27
f 24/24/24 23/23/23 28/28/28
f 23/23/23 26/26/26 28/28/28
f 29/29/29 25/25/25 24/24/24
f 24/24/24 28/28/28 29/29/29
f 29/29/29 30/30/30 25/25/25
f 31/31/31 26/26/26 27/27/27
f 28/28/28 26/26/26 31/31/31
f 31/31/31 27/27/27 32/32/32
f 29/29/29 28/28/28 33/33/33
f 28/28/28 31/31/31 33/33/33
f 34/34/34 30/30/30 29/29/29
f 29/29/29 33/33/33 34/34/34
f 34/34/34 35/35/35 30/30/30
f 36/36/36 31/31/31 32/32/32
f 33/33/33 31/31/31 36/36/36
f 36/36/36 32/32/32 37/37/37
f 38/38/38 36/36/36 37/37/37
f 38/38/38 37/37/37 39/39/39
f 33/33/33 36/36/36 40/40/40
f 40/40/40 36/36/36 38/38/38
f 34/34/34 33/33/33 40/40/40
f 40/40/40 38/38/38 41/41/41
f 34/34/34 40/40/40 42/42/42
f 42/42/42 40/40/40 41/41/41
f 42/42/42 35/35/35 34/34/34
f 42/42/42 41/41/41 43/43/43
f 42/42/42 44/44/44 35/35/35
f 43/43/43 44/44/44 42/42/42
f 43/43/43 45/45/45 44/44/44
f 46/46/46 47/47/47 48/48/48
f 46/46/46 48/48/48 49/49/49
f 47/47/47 50/50/50 48/48/48
f 51/51/51 46/46/46 49/49/49
f 47/47/47 52/52/52 50/50/50
f 51/51/51 49/49/49 53/53/53
f 52/52/52 54/54/54 50/50/50
f 55/55/55 51/51/51 53/53/53
f 52/52/52 56/56/56 54/54/54
f 56/56/56 57/57/57 54/54/54
f 56/56/56 58/58/58 57/57/57
f 55/55/55 53/53/53 59/59/59
f 60/60/60 55/55/55 59/59/59
f 60/60/60 59/59/59 61/61/61
f 62/62/62 60/60/60 61/61/61
f 62/62/62 61/61/61 63/63/63
f 64/64/64 65/65/65 66/66/66
f 67/67/67 66/66/66 65/65/65
f 67/67/67 68/68/68 66/66/66
f 69/69/69 67/67/67 65/65/65
f 64/64/64 66/66/66 70/70/70
f 69/69/69 65/65/65 71/71/71
f 64/64/64 71/71/71 65/65/65
f 72/72/72 69/69/69 71/71/71
f 73/73/73 64/64/64 70/70/70
f 73/73/73 70/70/70 74/74/74
f 73/73/73 74/74/74 75/75/75
f 73/73/73 75/75/75 76/76/76
f 77/77/77 73/73/73 76/76/76
f 77/77/77 64/64/64 73/73/73
f 77/77/77 76/76/76 78/78/78
f 77/77/77 79/79/79 64/64/64
f 64/64/64 79/79/79 71/71/71
f 80/80/80 77/77/77 78/78/78
f 80/80/80 79/79/79 77/77/77
f 80/80/80 78/78/78 81/81/81
f 80/80/80 81/81/81 82/82/82
f 79/79/79 83/83/83 71/71/71
f 72/72/72 71/71/71 83/83/83
f 80/80/80 84/84/84 79/79/79
f 79/79/79 84/84/84 83/83/83
f 72/72/72 83/83/83 85/85/85
f 84/84/84 85/85/85 83/83/83
f 72/72/72 85/85/85 86/86/86
f 87/87/87 86/86/86 85/85/85
f 88/88/88 84/84/84 80/80/80
f 80/80/80 82/82/82 88/88/88
f 84/84/84 89/89/89 85/85/85
f 88/88/88 89/89/89 84/84/84
f 87/87/87 85/85/85 90/90/90
f 91/91/91 87/87/87 90/90/90
f 92/92/92 85/85/85 89/89/89
f 92/92/92 90/90/90 85/85/85
f 93/93/93 89/89/89 88/88/88
f 93/93/93 88/88/88 82/82/82
f 93/93/93 92/92/92 89/89/89
f 93/93/93 82/82/82 94/94/94
f 91/91/91 90/90/90 95/95/95
f 92/92/92 95/95/95 90/90/90
f 96/96/96 91/91/91 95/95/95
f 97/97/97 93/93/93 94/94/94
f 97/97/97 92/92/92 93/93/93
f 97/97/97 94/94/94 98/98/98
f 92/92/92 99/99/99 95/95/95
f 97/97/97 99/99/99 92/92/92
f 100/100/100 97/97/97 98/98/98
f 100/100/100 99/99/99 97/97/97
f 100/100/100 98/98/98 101/101/101
f 100/100/100 101/101/101 102/102/102
f 100/100/100 102/102/102 103/103/103
f 103/103/103 104/104/104 100/100/100
f 100/100/100 104/104/104 99/99/99
f 103/103/103 105/105/105 104/104/104
f 104/104/104 105/105/105 106/106/106
f 96/96/96 106/106/106 107/107/107
f 99/99/99 104/104/104 108/108/108
f 104/104/104 106/106/106 108/108/108
f 96/96/96 108/108/108 106/106/106
f 99/99/99 108/108/108 95/95/95
f 96/96/96 95/95/95 108/108/108
f 109/109/109 110/110/110 111/111/111
f 109/109/109 112/112/112 110/110/110
f 109/109/109 111/111/111 113/113/113
f 109/109/109 114/114/114 112/112/112
f 115/115/115 113/113/113 111/111/111
f 114/114/114 116/116/116 112/112/112
f 115/115/115 111/111/111 117/117/117
f 114/114/114 118/118/118 116/116/116
f 118/118/118 119/119/119 116/116/116
f 118/118/118 120/120/120 119/119/119
f 121/121/121 115/115/115 117/117/117
f 121/121/121 117/117/117 122/122/122
f 123/123/123 121/121/121 122/122/122
f 123/123/123 122/122/122 124/124/124
f 123/123/123 124/124/124 125/125/125
f 123/123/123 125/125/125 126/126/126
