o Sponza_Mesh_040
v 2.486260 -4.584833 2.314541
v 2.683459 -4.584833 2.294600
v 2.571499 -4.584832 2.146351
v 2.459539 -4.584832 2.154258
v 2.734349 -4.584832 2.119880
v 2.398463 -4.584833 2.314541
v 2.827223 -4.584833 2.260908
v 2.295417 -4.584832 2.144139
v 2.233076 -4.584833 2.294519
v 2.123661 -4.584832 2.112097
v 2.081678 -4.584833 2.258714
v 1.958267 -4.584833 2.217882
v 2.019336 -4.584832 2.072387
v 1.852523 -4.584833 2.218436
v 1.865103 -4.584833 2.047705
v 2.883203 -4.584832 2.077620
v 2.925186 -4.584833 2.225015
v 1.852523 -4.584832 0.958441
v 3.072970 -4.584833 2.227900
v 3.046243 -4.584833 2.047705
v 1.865103 -4.584832 0.984519
v 1.903366 -4.584833 2.011842
v 3.010174 -4.584833 2.011413
v 1.901847 -4.584832 1.017879
v 3.012072 -4.584833 1.020476
v 3.046243 -4.584833 0.984520
v 3.072970 -4.584833 0.958441
v 3.047369 -4.584833 0.984520
v 3.046243 -4.584833 0.985667
v 2.123661 -4.718024 2.112097
v 2.295417 -4.718024 2.144139
v 2.459539 -4.718024 2.154258
v 2.883203 -4.718023 2.077619
v 2.019336 -4.718024 2.072387
v 2.734349 -4.718023 2.119879
v 2.571499 -4.718024 2.146351
v 1.938589 -4.619663 1.051238
v 1.941627 -4.619664 1.975979
v 2.018150 -4.657105 1.904254
v 2.012074 -4.657105 1.117958
v 1.901847 -4.584832 1.017879
v 1.903366 -4.584833 2.011842
v 2.012074 -4.718024 1.117958
v 2.018150 -4.718024 1.904254
v 2.901966 -4.718023 1.902537
v 2.909558 -4.718024 1.124904
v 2.883203 -4.584832 2.077620
v 2.883203 -4.718023 2.077619
v 2.734349 -4.718023 2.119879
v 2.734349 -4.584832 2.119880
v 2.571499 -4.718024 2.146351
v 2.571499 -4.584832 2.146351
v 2.459539 -4.718024 2.154258
v 2.459539 -4.584832 2.154258
v 2.295417 -4.718024 2.144139
v 2.295417 -4.584832 2.144139
v 2.123661 -4.718024 2.112097
v 2.123661 -4.584832 2.112097
v 2.019336 -4.718024 2.072387
v 2.019336 -4.584832 2.072387
v 2.019336 -4.584832 2.072387
v 2.019336 -4.718024 2.072387
v 2.883203 -4.718023 2.077619
v 2.883203 -4.584832 2.077620
v 2.901966 -4.657103 1.902537
v 2.901966 -4.718023 1.902537
v 2.018150 -4.718024 1.904254
v 2.018150 -4.657105 1.904254
v 2.909558 -4.657105 1.124904
v 2.909558 -4.718024 1.124904
v 2.901966 -4.718023 1.902537
v 2.901966 -4.657103 1.902537
v 2.012074 -4.657105 1.117958
v 2.012074 -4.718024 1.117958
v 2.909558 -4.718024 1.124904
v 2.909558 -4.657105 1.124904
v 2.018150 -4.657105 1.904254
v 2.018150 -4.718024 1.904254
v 2.012074 -4.718024 1.117958
v 2.012074 -4.657105 1.117958
v 2.012074 -4.657105 1.117958
v 2.909558 -4.657105 1.124904
v 2.977900 -4.619664 1.055286
v 1.938589 -4.619663 1.051238
v 3.012072 -4.584833 1.020476
v 1.901847 -4.584832 1.017879
v 2.909558 -4.657105 1.124904
v 2.901966 -4.657103 1.902537
v 2.974105 -4.619663 1.975121
v 2.977900 -4.619664 1.055286
v 3.010174 -4.584833 2.011413
v 3.012072 -4.584833 1.020476
v 2.901966 -4.657103 1.902537
v 2.018150 -4.657105 1.904254
v 1.941627 -4.619664 1.975979
v 2.974105 -4.619663 1.975121
v 1.903366 -4.584833 2.011842
v 3.010174 -4.584833 2.011413
vt 0.664100 0.415500
vt 0.606800 0.409400
vt 0.639400 0.364000
vt 0.671900 0.366400
vt 0.592100 0.355900
vt 0.689600 0.415500
vt 0.565100 0.399100
vt 0.719500 0.363300
vt 0.737600 0.409400
vt 0.769400 0.353500
vt 0.781600 0.398400
vt 0.817400 0.385900
vt 0.799700 0.341300
vt 0.848100 0.386100
vt 0.844500 0.333800
vt 0.548800 0.342900
vt 0.536600 0.388100
vt 0.848100 0.000000
vt 0.493700 0.389000
vt 0.501500 0.333800
vt 0.844500 0.008000
vt 0.833400 0.322800
vt 0.512000 0.322700
vt 0.833800 0.018200
vt 0.511400 0.019000
vt 0.501500 0.008000
vt 0.493700 0.000000
vt 0.501200 0.008000
vt 0.501500 0.008300
vt 0.769400 0.353500
vt 0.719500 0.363300
vt 0.671900 0.366400
vt 0.548800 0.342900
vt 0.799700 0.341300
vt 0.592100 0.355900
vt 0.639400 0.364000
vt 0.823100 0.028400
vt 0.822300 0.311800
vt 0.800000 0.289800
vt 0.801800 0.048900
vt 0.833800 0.018200
vt 0.833400 0.322800
vt 0.801800 0.048900
vt 0.800000 0.289800
vt 0.543400 0.289300
vt 0.541200 0.051000
vt 0.440800 0.167200
vt 0.472600 0.167200
vt 0.472600 0.203700
vt 0.440800 0.203700
vt 0.472600 0.242600
vt 0.440800 0.242600
vt 0.472600 0.268900
vt 0.440800 0.268900
vt 0.472600 0.307600
vt 0.440800 0.307600
vt 0.472600 0.348700
vt 0.440800 0.348700
vt 0.472600 0.375100
vt 0.440800 0.375100
vt 0.440800 0.375100
vt 0.472600 0.375100
vt 0.472600 0.578100
vt 0.440800 0.578100
vt 0.440800 0.081700
vt 0.472600 0.081700
vt 0.472600 0.289300
vt 0.440800 0.289300
vt 0.440800 0.089100
vt 0.472600 0.089100
vt 0.472600 0.281900
vt 0.440800 0.281900
vt 0.440800 0.080100
vt 0.472600 0.080100
vt 0.472600 0.290900
vt 0.440800 0.290900
vt 0.440800 0.088000
vt 0.472600 0.088000
vt 0.472600 0.283000
vt 0.440800 0.283000
vt 0.801800 0.048900
vt 0.541200 0.051000
vt 0.521300 0.029700
vt 0.823100 0.028400
vt 0.511400 0.019000
vt 0.833800 0.018200
vt 0.541200 0.051000
vt 0.543400 0.289300
vt 0.522400 0.311500
vt 0.521300 0.029700
vt 0.512000 0.322700
vt 0.511400 0.019000
vt 0.543400 0.289300
vt 0.800000 0.289800
vt 0.822300 0.311800
vt 0.522400 0.311500
vt 0.833400 0.322800
vt 0.512000 0.322700
vn 0.000000 1.000000 0.000000
vn 0.000000 1.000000 0.000000
vn 0.000000 1.000000 0.000000
vn 0.000000 1.000000 0.000000
vn 0.000000 1.000000 0.000000
vn -0.000000 1.000000 0.000000
vn 0.000000 1.000000 0.000000
vn -0.000000 1.000000 0.000000
vn -0.000000 1.000000 0.000000
vn -0.000000 1.000000 0.000000
vn 0.000000 1.000000 0.000000
vn 0.000000 1.000000 0.000000
vn -0.000000 1.000000 -0.000000
vn -0.000000 1.000000 0.000000
vn 0.000000 1.000000 -0.000000
vn 0.000000 1.000000 -0.000000
vn 0.000000 1.000000 0.000000
vn 0.000000 1.000000 -0.000000
vn 0.000000 1.000000 0.000000
vn 0.000000 1.000000 0.000000
vn -0.000000 1.000000 0.000000
vn 0.000000 1.000000 0.000000
vn 0.000000 1.000000 0.000000
vn -0.000000 1.000000 0.000000
vn 0.000000 1.000000 0.000000
vn 0.000000 1.000000 -0.000000
vn 0.000000 1.000000 -0.000000
vn 0.000000 1.000000 -0.000000
vn 0.000000 1.000000 0.000000
vn -0.000000 1.000000 0.000000
vn 0.000000 1.000000 0.000000
vn -0.000000 1.000000 0.000000
vn -0.000000 1.000000 -0.000000
vn -0.000000 1.000000 0.000000
vn -0.000000 1.000000 -0.000000
vn 0.000000 1.000000 0.000000
vn 0.626009 0.779811 -0.002600
vn 0.610792 0.791790 -0.001200
vn 0.439195 0.898390 -0.001500
vn 0.456507 0.889713 -0.003500
vn 0.688209 0.725509 -0.002200
vn 0.672657 0.739953 -0.001000
vn -0.000000 1.000000 -0.000000
vn -0.000000 1.000000 -0.000000
vn -0.000000 1.000000 -0.000000
vn 0.000000 1.000000 -0.000000
vn -0.273096 0.000000 -0.961987
vn -0.273096 0.000000 -0.961987
vn -0.217110 0.000000 -0.976147
vn -0.217110 0.000000 -0.976147
vn -0.115600 0.000000 -0.993296
vn -0.115600 0.000000 -0.993296
vn -0.004500 0.000000 -0.999990
vn -0.004500 0.000000 -0.999990
vn 0.122705 0.000000 -0.992443
vn 0.122705 0.000000 -0.992443
vn 0.270691 0.000000 -0.962666
vn 0.270691 0.000000 -0.962666
vn 0.355700 0.000000 -0.934600
vn 0.355700 0.000000 -0.934600
vn -0.006100 -0.000000 0.999981
vn -0.006100 -0.000000 0.999981
vn -0.006100 -0.000000 0.999981
vn -0.006100 -0.000000 0.999981
vn -0.001900 0.000000 -0.999998
vn -0.001900 0.000000 -0.999998
vn -0.001900 0.000000 -0.999998
vn -0.001900 0.000000 -0.999998
vn -0.999952 0.000000 -0.009800
vn -0.999952 0.000000 -0.009800
vn -0.999952 0.000000 -0.009800
vn -0.999952 0.000000 -0.009800
vn -0.007700 0.000000 0.999970
vn -0.007700 0.000000 0.999970
vn -0.007700 0.000000 0.999970
vn -0.007700 0.000000 0.999970
vn 0.999970 0.000000 -0.007700
vn 0.999970 0.000000 -0.007700
vn 0.999970 0.000000 -0.007700
vn 0.999970 0.000000 -0.007700
vn -0.002000 0.871563 0.490279
vn -0.003600 0.882184 0.470891
vn -0.003000 0.763864 0.645370
vn -0.001800 0.745125 0.666922
vn -0.002700 0.707404 0.706804
vn -0.001700 0.690720 0.723121
vn -0.481008 0.876714 -0.002100
vn -0.457102 0.889403 -0.004500
vn -0.633518 0.773721 -0.003300
vn -0.655497 0.755196 -0.001600
vn -0.694290 0.719690 -0.002800
vn -0.714517 0.699617 -0.001400
vn -0.000400 0.888798 -0.458299
vn -0.000900 0.886097 -0.463499
vn -0.000700 0.768655 -0.639663
vn -0.000300 0.774714 -0.632312
vn -0.000600 0.717282 -0.696783
vn -0.000300 0.721605 -0.692305
f 1/1/1 2/2/2 3/3/3
f 1/1/1 3/3/3 4/4/4
f 2/2/2 5/5/5 3/3/3
f 4/4/4 6/6/6 1/1/1
f 2/2/2 7/7/7 5/5/5
f 8/8/8 6/6/6 4/4/4
f 8/8/8 9/9/9 6/6/6
f 8/8/8 10/10/10 9/9/9
f 10/10/10 11/11/11 9/9/9
f 10/10/10 12/12/12 11/11/11
f 13/13/13 12/12/12 10/10/10
f 13/13/13 14/14/14 12/12/12
f 14/14/14 13/13/13 15/15/15
f 7/7/7 16/16/16 5/5/5
f 16/16/16 15/15/15 13/13/13
f 7/7/7 17/17/17 16/16/16
f 18/18/18 14/14/14 15/15/15
f 17/17/17 19/19/19 16/16/16
f 16/16/16 19/19/19 20/20/20
f 16/16/16 20/20/20 15/15/15
f 18/18/18 15/15/15 21/21/21
f 21/21/21 15/15/15 22/22/22
f 20/20/20 22/22/22 15/15/15
f 20/20/20 23/23/23 22/22/22
f 21/21/21 22/22/22 24/24/24
f 25/25/25 23/23/23 20/20/20
f 26/26/26 18/18/18 21/21/21
f 26/26/26 21/21/21 24/24/24
f 26/26/26 27/27/27 18/18/18
f 26/26/26 28/28/28 27/27/27
f 19/19/19 27/27/27 28/28/28
f 26/26/26 24/24/24 29/29/29
f 25/25/25 29/29/29 24/24/24
f 29/29/29 28/28/28 26/26/26
f 25/25/25 20/20/20 29/29/29
f 19/19/19 28/28/28 29/29/29
f 19/19/19 29/29/29 20/20/20
f 30/30/30 31/31/31 32/32/32
f 30/30/30 32/32/32 33/33/33
f 34/34/34 30/30/30 33/33/33
f 32/32/32 35/35/35 33/33/33
f 32/32/32 36/36/36 35/35/35
f 37/37/37 38/38/38 39/39/39
f 37/37/37 39/39/39 40/40/40
f 41/41/41 38/38/38 37/37/37
f 41/41/41 42/42/42 38/38/38
f 43/43/43 44/44/44 45/45/45
f 43/43/43 45/45/45 46/46/46
f 47/47/47 48/48/48 49/49/49
f 47/47/47 49/49/49 50/50/50
f 50/50/50 49/49/49 51/51/51
f 50/50/50 51/51/51 52/52/52
f 52/52/52 51/51/51 53/53/53
f 52/52/52 53/53/53 54/54/54
f 54/54/54 53/53/53 55/55/55
f 54/54/54 55/55/55 56/56/56
f 56/56/56 55/55/55 57/57/57
f 56/56/56 57/57/57 58/58/58
f 58/58/58 57/57/57 59/59/59
f 58/58/58 59/59/59 60/60/60
f 61/61/61 62/62/62 63/63/63
f 61/61/61 63/63/63 64/64/64
f 65/65/65 66/66/66 67/67/67
f 65/65/65 67/67/67 68/68/68
f 69/69/69 70/70/70 71/71/71
f 69/69/69 71/71/71 72/72/72
f 73/73/73 74/74/74 75/75/75
f 73/73/73 75/75/75 76/76/76
f 77/77/77 78/78/78 79/79/79
f 77/77/77 79/79/79 80/80/80
f 81/81/81 82/82/82 83/83/83
f 81/81/81 83/83/83 84/84/84
f 85/85/85 84/84/84 83/83/83
f 85/85/85 86/86/86 84/84/84
f 87/87/87 88/88/88 89/89/89
f 87/87/87 89/89/89 90/90/90
f 90/90/90 89/89/89 91/91/91
f 90/90/90 91/91/91 92/92/92
f 93/93/93 94/94/94 95/95/95
f 93/93/93 95/95/95 96/96/96
f 96/96/96 95/95/95 97/97/97
f 96/96/96 97/97/97 98/98/98
