o Sponza_Mesh_001
v -2.000885 1.656533 0.473594
v -1.977441 1.700249 0.439489
v -2.028544 1.736528 0.471841
v -2.046092 1.686020 0.502466
v -1.953614 1.627582 0.448160
v -1.935759 1.678170 0.418047
v -1.898400 1.710238 0.451202
v -1.947004 1.738842 0.474412
v -1.993392 1.768022 0.501318
v -2.131640 1.755063 0.489878
v -2.130808 1.706394 0.518534
v -2.049845 1.694067 0.491945
v -2.050357 1.753426 0.470966
v -2.122368 1.804904 0.522573
v -2.056314 1.818951 0.516473
v -1.987196 1.818551 0.515760
v -1.973958 1.757949 0.484887
v -1.970416 1.707978 0.513382
v -2.065497 1.822334 0.490366
v -2.002804 1.819923 0.479306
v -2.010902 1.873954 0.477910
v -2.068386 1.879135 0.494921
v -2.124875 1.865637 0.521519
v -2.111366 1.809908 0.534871
v -2.060756 1.915618 0.533778
v -1.992143 1.909029 0.530851
v -2.106018 1.899936 0.584989
v -2.164577 1.801502 0.466976
v -2.153283 1.744301 0.495312
v -2.102175 1.761131 0.484556
v -2.109890 1.817436 0.464112
v -2.136000 1.873727 0.453993
v -2.188075 1.857790 0.478223
v -2.074121 1.836942 0.498267
v -2.065964 1.777905 0.537371
v -2.100924 1.895263 0.515822
v -2.111634 1.770182 0.444988
v -2.177862 1.751036 0.444230
v -2.161586 1.701738 0.450211
v -2.104814 1.720378 0.477839
v -2.066058 1.747283 0.466966
v -2.064883 1.790031 0.448119
v -2.079694 1.834894 0.471736
v -2.135654 1.813794 0.485055
v -2.192145 1.794299 0.476808
v -2.100160 1.842035 0.489838
v -2.113715 1.886711 0.450854
v -2.167392 1.846761 0.432149
v -2.145695 1.805689 0.474897
v -2.056508 1.879639 0.508106
v -2.078484 1.920898 0.465854
v -2.157792 1.920021 0.471159
v -2.202251 1.882956 0.454314
v -2.115358 1.958437 0.491582
v -1.998442 1.812943 0.498962
v -1.931646 1.842798 0.511946
v -1.983105 1.902530 0.532572
v -2.077194 1.839515 0.533476
v -2.044451 1.789525 0.531541
v -2.032678 1.875049 0.499721
v -2.107883 1.893987 0.539496
v -2.062636 1.922764 0.502852
v -2.012508 1.967287 0.575239
v -1.933331 1.866791 0.494530
v -1.873577 1.858610 0.516918
v -1.873676 1.912513 0.506783
v -1.930805 1.923711 0.492093
v -1.993085 1.917415 0.488069
v -1.993085 1.862759 0.511733
v -1.934885 1.963552 0.527274
v -1.873577 1.951704 0.560274
v -1.997133 1.956995 0.551027
v -2.089089 1.856730 0.482376
v -2.049898 1.864980 0.489666
v -2.043458 1.873679 0.457849
v -2.083578 1.877235 0.445595
v -2.007779 1.885146 0.460900
v -1.996186 1.879943 0.496343
v -2.018067 1.933354 0.436211
v -2.063364 1.922871 0.432139
v -2.089523 1.918931 0.438804
v -2.095742 1.922104 0.465657
v -2.093495 1.862782 0.490682
v -2.022615 1.865485 0.466413
v -2.024530 1.923467 0.450113
v -2.024165 1.985377 0.492839
v -2.094170 1.982580 0.502764
v -1.954233 1.929655 0.467013
v -1.949224 1.868891 0.491850
v -1.954146 1.992498 0.499923
v -1.791715 1.777370 0.495994
v -1.749266 1.797401 0.543966
v -1.767174 1.864811 0.515680
v -1.811446 1.844965 0.476326
v -1.879325 1.822130 0.489814
v -1.856902 1.756509 0.504803
v -1.845745 1.907999 0.484724
v -1.802902 1.931117 0.532946
v -1.911107 1.885234 0.488750
v -1.942869 1.673416 0.504810
v -1.883115 1.665225 0.527194
v -1.883214 1.719132 0.517089
v -1.940342 1.730337 0.502404
v -2.002623 1.724042 0.498377
v -2.002623 1.669376 0.522010
v -1.944423 1.770162 0.537608
v -1.883115 1.758299 0.570601
v -2.006671 1.763594 0.561358
v -2.057009 1.716636 0.461143
v -2.054763 1.669877 0.509270
v -1.983883 1.664350 0.485617
v -1.985798 1.712755 0.446148
v -1.985433 1.784347 0.459801
v -2.055438 1.785038 0.470184
v -1.915499 1.724091 0.459232
v -1.910491 1.675932 0.507790
v -1.915413 1.793299 0.463385
v -2.078721 1.779453 0.491682
v -2.118509 1.718054 0.504667
v -2.042831 1.695950 0.525293
v -1.998192 1.800022 0.526196
v -2.052869 1.824140 0.524261
v -2.016198 1.745985 0.492441
v -1.942800 1.771026 0.532216
v -1.965097 1.722259 0.495572
v -1.982919 1.657626 0.567959
v -1.958760 1.593500 0.441457
v -1.953137 1.647870 0.454854
v -2.009886 1.644693 0.479629
v -2.012655 1.582822 0.479663
v -1.908899 1.647260 0.475602
v -1.912775 1.580164 0.490838
v -1.962465 1.708596 0.471050
v -2.009836 1.695512 0.526036
v -1.913528 1.698891 0.514817
v -2.026150 1.643175 0.453978
v -2.000459 1.629010 0.456068
v -1.993022 1.652870 0.467698
v -2.016620 1.669486 0.457122
v -2.047079 1.672519 0.462543
v -2.055423 1.645933 0.458074
v -2.013185 1.686990 0.485240
v -1.982205 1.676954 0.490450
v -2.041650 1.696326 0.483329
v -2.097518 1.759147 0.479589
v -2.124230 1.763150 0.454543
v -2.128738 1.728186 0.466378
v -2.099283 1.725384 0.481762
v -2.130823 1.793430 0.471027
v -2.101778 1.792981 0.493026
v -2.159881 1.759385 0.452053
v -2.163591 1.729403 0.466362
v -2.162916 1.792954 0.460396
v -2.104043 1.815055 0.477481
v -2.099019 1.755302 0.500620
v -2.035702 1.755400 0.457202
v -2.038535 1.813663 0.442407
v -2.025918 1.874810 0.484154
v -2.091568 1.874810 0.513438
v -1.966509 1.816610 0.439042
v -1.958920 1.755302 0.461210
v -1.956292 1.878857 0.471370
v -2.019186 1.861479 0.491292
v -2.085373 1.842309 0.490190
v -2.065183 1.801419 0.457575
v -2.007275 1.816114 0.457482
v -2.123535 1.788691 0.455364
v -2.135512 1.834349 0.488830
v -2.147491 1.883912 0.473059
v -2.088854 1.895367 0.476762
v -2.030691 1.908938 0.477988
v -2.005971 1.836873 0.461143
v -2.003725 1.790114 0.509270
v -1.932845 1.784587 0.485617
v -1.934760 1.832992 0.446148
v -1.934395 1.904583 0.459801
v -2.004399 1.905275 0.470184
v -1.864462 1.844328 0.459232
v -1.859453 1.796169 0.507790
v -1.864375 1.913536 0.463385
v -1.840831 1.894843 0.492965
v -1.891926 1.930956 0.504401
v -1.929384 1.870738 0.480081
v -1.880799 1.836001 0.476899
v -1.839128 1.802766 0.532427
v -1.800191 1.860970 0.542649
v -1.921180 1.778109 0.493725
v -1.975047 1.812874 0.504615
v -1.877187 1.743594 0.539837
v -2.072409 1.812394 0.445642
v -2.070163 1.765634 0.493769
v -1.999283 1.760107 0.470115
v -2.001198 1.808513 0.430646
v -2.000833 1.880104 0.444299
v -2.070838 1.880795 0.454682
v -1.930900 1.819849 0.443730
v -1.925892 1.771690 0.492289
v -1.930814 1.889057 0.447883
v -1.971218 1.735382 0.471431
v -1.962080 1.784814 0.438579
v -2.030972 1.787395 0.437821
v -2.030972 1.735480 0.471669
v -1.911464 1.736857 0.474992
v -1.911464 1.789006 0.441710
v -1.971218 1.833757 0.472334
v -2.030972 1.832955 0.470399
v -1.911464 1.836250 0.478354
v -1.904585 1.730058 0.452398
v -1.846055 1.750741 0.467471
v -1.875792 1.792747 0.488162
v -1.931779 1.773012 0.481467
v -1.980512 1.734050 0.474501
v -1.947107 1.686670 0.465215
v -1.946406 1.786677 0.534037
v -1.882117 1.801889 0.556370
v -1.988063 1.737736 0.551193
v -1.842878 1.914853 0.538366
v -1.902006 1.919364 0.538366
v -1.906537 1.880416 0.504739
v -1.849866 1.859173 0.512499
v -1.961133 1.877073 0.504739
v -1.983748 1.918661 0.538366
v -1.961133 1.803493 0.533908
v -1.893487 1.803493 0.538366
v -1.857574 1.810241 0.554884
v -2.036731 1.889200 0.497234
v -1.975920 1.883882 0.463607
v -1.981052 1.941340 0.503872
v -2.036731 1.948327 0.497234
v -2.036731 1.830073 0.497234
v -1.981052 1.830073 0.463607
v -1.925372 1.830073 0.467698
v -1.925372 1.897718 0.497234
v -1.925372 1.929111 0.529376
v -2.065095 1.953992 0.454021
v -2.035623 1.954616 0.451002
v -2.032515 1.995429 0.447218
v -2.071394 1.993558 0.446842
v -2.025230 1.919162 0.458287
v -2.052156 1.900290 0.464554
v -1.984767 1.931460 0.470802
v -1.995789 1.976249 0.463066
v -2.007876 1.999895 0.461318
v -1.864012 1.909491 0.492512
v -1.796014 1.899451 0.486504
v -1.790132 1.931212 0.532661
v -1.850837 1.921276 0.554862
v -1.896674 1.924769 0.538700
v -1.914842 1.911056 0.493786
v -1.921776 1.863645 0.471954
v -1.862992 1.849277 0.480274
v -1.803235 1.847486 0.472255
v -1.840085 1.924898 0.537242
v -1.871988 1.922387 0.520687
v -1.873346 1.895811 0.549530
v -1.841233 1.895407 0.555958
v -1.874181 1.956839 0.523004
v -1.840802 1.961118 0.534401
v -1.906814 1.922511 0.530919
v -1.906785 1.901279 0.559366
v -1.907634 1.956410 0.523234
v -1.864600 1.881678 0.470838
v -1.834963 1.941820 0.506454
v -1.894207 1.952630 0.528726
v -1.920834 1.896603 0.486360
v -1.942302 1.995958 0.502194
v -1.968663 1.944437 0.456634
v -1.944623 1.861166 0.420856
v -1.884947 1.847828 0.396580
v -1.995339 1.904081 0.398634
v -1.927208 1.960717 0.471049
v -1.962966 1.942574 0.526334
v -1.919849 1.882272 0.525591
v -1.882977 1.903575 0.478324
v -1.829213 1.952378 0.477850
v -1.874882 2.005389 0.467145
v -1.828964 1.864351 0.509153
v -1.863990 1.843475 0.565920
v -1.776805 1.909261 0.500014
v -1.930769 1.763077 0.484581
v -1.933535 1.714408 0.513082
v -1.850051 1.702081 0.499623
v -1.847928 1.761440 0.478774
v -1.925686 1.812918 0.518421
v -1.859528 1.826965 0.522878
v -1.791013 1.826565 0.533155
v -1.774039 1.765963 0.504694
v -1.774103 1.715992 0.533467
v -1.822337 1.797981 0.501801
v -1.783959 1.800094 0.507278
v -1.784871 1.834665 0.504593
v -1.820959 1.837440 0.488822
v -1.856508 1.834906 0.497900
v -1.856508 1.802208 0.509485
v -1.823185 1.871089 0.507002
v -1.783464 1.873159 0.512442
v -1.858717 1.870607 0.504847
v -1.883951 1.681725 0.476001
v -1.940545 1.671853 0.518921
v -1.944543 1.624600 0.494387
v -1.881878 1.623645 0.476771
v -1.848299 1.647925 0.449138
v -1.840285 1.693142 0.449582
v -1.822328 1.723899 0.491767
v -1.865162 1.705369 0.535938
v -1.918398 1.697383 0.566302
v -1.842084 1.822950 0.484604
v -1.796912 1.821806 0.447477
v -1.798132 1.889954 0.459131
v -1.845100 1.881766 0.495953
v -1.837451 1.763954 0.474822
v -1.790243 1.772116 0.438234
v -1.744782 1.773603 0.442226
v -1.750461 1.832714 0.450994
v -1.754402 1.891632 0.461447
v -2.095518 1.691309 0.448058
v -2.089541 1.748958 0.443166
v -2.158327 1.748071 0.448313
v -2.155080 1.688272 0.452238
v -2.035735 1.694244 0.448061
v -2.038947 1.754028 0.444759
v -2.097349 1.778828 0.498612
v -2.157038 1.775849 0.500399
v -2.037422 1.781698 0.501322
v -1.815402 1.812142 0.468178
v -1.762056 1.842523 0.485947
v -1.794722 1.900786 0.449734
v -1.846831 1.872675 0.440334
v -1.902360 1.854652 0.488953
v -1.870243 1.794863 0.510905
v -1.881650 1.935727 0.445057
v -1.828158 1.969136 0.461993
v -1.938092 1.915467 0.484181
v -1.833110 1.842637 0.462516
v -1.868230 1.842677 0.521938
v -1.881691 1.772034 0.501666
v -1.843134 1.771620 0.450204
v -1.770815 1.768074 0.444046
v -1.764923 1.838013 0.452766
v -1.832350 1.700930 0.461000
v -1.868854 1.698274 0.521266
v -1.764366 1.697734 0.446263
v -1.796094 1.707935 0.440254
v -1.775921 1.739540 0.497809
v -1.844406 1.767926 0.497902
v -1.863934 1.732669 0.448165
v -1.883720 1.662945 0.443189
v -1.816811 1.642635 0.432102
v -1.930831 1.735925 0.478370
v -1.912742 1.769390 0.537494
v -1.951227 1.670763 0.464986
v -2.071682 1.940513 0.482498
v -2.089607 1.917723 0.487953
v -2.066886 1.904234 0.481470
v -2.051204 1.926892 0.467139
v -2.037897 1.953850 0.475590
v -2.059507 1.966732 0.489799
v -2.025461 1.913832 0.478867
v -2.040083 1.884638 0.483342
v -2.010683 1.939895 0.477050
v -1.944872 1.831678 0.424530
v -1.885118 1.823497 0.446919
v -1.885217 1.877400 0.436784
v -1.942346 1.888598 0.422094
v -2.004626 1.882302 0.418070
v -2.004626 1.827646 0.441734
v -1.946426 1.928439 0.457274
v -1.885118 1.916591 0.490274
v -2.008674 1.921883 0.481028
v -1.907461 1.701782 0.473881
v -1.894174 1.760612 0.496265
v -1.947890 1.765139 0.486160
v -1.963956 1.709182 0.471475
v -1.963027 1.646591 0.467448
v -1.908563 1.641901 0.491082
v -2.003984 1.708534 0.506679
v -1.986906 1.768598 0.539673
v -2.002782 1.645952 0.530429
v -1.865651 1.621367 0.464554
v -1.820833 1.648097 0.464902
v -1.850007 1.701677 0.479398
v -1.898608 1.681838 0.462363
v -1.885126 1.732822 0.472050
v -1.927929 1.723400 0.462687
v -1.967368 1.701459 0.479894
v -1.934074 1.652547 0.489926
v -1.903231 1.601012 0.487060
v -2.023331 1.725613 0.499289
v -2.075764 1.733743 0.477674
v -2.072154 1.676119 0.463322
v -2.005389 1.677626 0.449160
v -2.068545 1.618495 0.448969
v -2.007042 1.625185 0.434523
v -1.954434 1.624371 0.455445
v -1.965530 1.684422 0.499562
v -1.975026 1.708622 0.537322
v -1.998355 1.828845 0.558351
v -2.042835 1.862341 0.548071
v -2.061204 1.816682 0.511168
v -1.998576 1.797868 0.490349
v -2.079574 1.771023 0.474266
v -2.019792 1.758667 0.455917
v -1.972311 1.731563 0.468471
v -1.960926 1.772251 0.534890
v -1.961655 1.783925 0.580818
v -2.038572 1.826894 0.471086
v -2.083053 1.860390 0.460806
v -2.101422 1.814731 0.423903
v -2.038793 1.795917 0.403084
v -2.119790 1.769073 0.387001
v -2.060010 1.756716 0.368652
v -2.012528 1.729612 0.381206
v -2.001143 1.770300 0.447626
v -2.001872 1.781974 0.493553
v -1.926691 1.747173 0.499289
v -1.979124 1.755303 0.477674
v -1.975514 1.697679 0.463322
v -1.908749 1.699186 0.449160
v -1.971904 1.640055 0.448969
v -1.910402 1.646745 0.434523
v -1.857794 1.645931 0.455445
v -1.868890 1.705981 0.499562
v -1.878386 1.730181 0.537322
v -1.961579 1.804091 0.465480
v -2.006795 1.831490 0.443282
v -2.028671 1.776778 0.437756
v -1.968469 1.748139 0.422922
v -2.050548 1.722066 0.432231
v -1.992932 1.700291 0.416376
v -1.944510 1.679305 0.436779
v -1.926681 1.742517 0.471493
v -1.922900 1.772237 0.505326
v -2.063223 1.908373 0.470803
v -2.071527 1.925085 0.446006
v -2.112349 1.900500 0.445792
v -2.106344 1.886063 0.473481
v -2.034683 1.947126 0.481749
v -2.042463 1.961062 0.453417
v -2.098173 1.962238 0.436262
v -2.136296 1.935872 0.435082
v -2.066348 1.995471 0.440624
v -1.890514 1.946454 0.509572
v -1.874467 1.902450 0.557861
v -1.833181 1.897212 0.517975
v -1.842787 1.941914 0.474818
v -1.863797 1.995906 0.447822
v -1.899948 2.006704 0.498250
v -1.794894 1.958818 0.475519
v -1.777058 1.917793 0.534643
v -1.804220 2.023989 0.469503
v -1.914983 1.591453 0.432894
v -1.865025 1.626485 0.441355
v -1.904811 1.663823 0.442826
v -1.954019 1.631691 0.437889
v -1.924983 1.682958 0.469245
v -1.980116 1.650666 0.456750
v -1.992820 1.582681 0.435548
v -1.950646 1.542958 0.439634
v -2.014766 1.597791 0.465952
v -2.142890 1.728282 0.446010
v -2.082579 1.728662 0.468399
v -2.090325 1.782006 0.458264
v -2.148466 1.784985 0.443573
v -2.209222 1.769915 0.439550
v -2.201466 1.715812 0.463214
v -2.158158 1.823843 0.478754
v -2.095789 1.820815 0.511754
v -2.218845 1.808520 0.502507
v -1.845092 1.676214 0.473459
v -1.878142 1.664730 0.473422
v -1.859465 1.633036 0.473428
v -1.830796 1.646498 0.464782
v -1.885418 1.688059 0.500479
v -1.854155 1.703640 0.497895
v -1.900483 1.643077 0.493632
v -1.881954 1.616178 0.496678
v -1.911619 1.670663 0.513330
v -1.971101 1.887426 0.475742
v -1.949300 1.851173 0.473810
v -1.942600 1.973947 0.480339
v -1.956760 1.971195 0.487122
v -2.026187 1.812841 0.491625
v -2.008146 1.796782 0.490321
v -2.111483 1.726438 0.474438
v -1.940968 1.767186 0.455242
v -1.956725 1.729574 0.449765
v -1.851539 1.790439 0.444046
v -1.855792 1.807118 0.443496
v -1.756497 1.822129 0.464739
v -1.759331 1.840323 0.463573
v -1.709658 1.835700 0.456656
v -1.706670 1.824458 0.462248
v -1.673042 1.850063 0.445703
v -1.680472 1.853177 0.449186
v -2.072290 1.853312 0.461329
v -2.089939 1.842297 0.459926
v -2.080922 1.777093 0.480640
v -2.006913 1.697657 0.482382
v -2.084563 1.902013 0.455941
v -2.105754 1.907706 0.455240
v -2.066453 1.978705 0.459640
v -2.075842 1.989352 0.456440
v -2.019324 2.007768 0.459218
v -2.018668 2.000519 0.456072
v -2.159575 1.676266 0.401543
v -2.137502 1.717148 0.474465
v -2.148313 1.732826 0.469823
v -2.164631 1.688376 0.391981
v -2.134739 1.777174 0.479412
v -2.103245 1.771661 0.495690
v -2.087129 1.814648 0.463496
v -2.108115 1.825566 0.452240
v -2.061545 1.872759 0.507077
v -2.056271 1.851067 0.510527
v -1.939275 1.921404 0.551202
v -1.814379 1.849691 0.464656
v -1.803444 1.849714 0.459515
v -1.798907 1.904551 0.471919
v -1.813650 1.905426 0.471455
v -1.797234 1.952485 0.489630
v -1.829061 1.947120 0.490845
v -1.852775 1.975146 0.491113
v -1.853941 1.955750 0.492026
v -1.900837 1.938586 0.484787
v -1.887539 1.737695 0.489506
v -1.911295 1.640585 0.457977
v -1.828329 1.707511 0.466437
v -1.924625 1.873858 0.504211
v -1.850727 1.625247 0.447235
v -1.855735 1.563492 0.436102
v -1.811601 1.576646 0.477384
v -1.895686 1.512342 0.382378
v -1.939493 1.529141 0.403858
vt 0.116600 0.795600
vt 0.129800 0.890200
vt 0.000000 0.897800
vt 0.000000 0.795600
vt 0.233200 0.795600
vt 0.233200 0.897800
vt 0.233200 1.000000
vt 0.116600 1.000000
vt 0.000000 1.000000
vt 0.546800 0.367300
vt 0.561500 0.273400
vt 0.728500 0.288000
vt 0.728500 0.398800
vt 0.554600 0.453400
vt 0.716400 0.503300
vt 0.884300 0.473200
vt 0.911000 0.388800
vt 0.908400 0.288000
vt 0.017900 0.640800
vt 0.017900 0.503100
vt 0.175000 0.503100
vt 0.192800 0.630500
vt 0.175000 0.778600
vt 0.017900 0.778600
vt 0.332000 0.640800
vt 0.319100 0.510800
vt 0.332000 0.778600
vt 0.017900 0.640800
vt 0.017900 0.503100
vt 0.175000 0.503100
vt 0.192800 0.630500
vt 0.175000 0.778600
vt 0.017900 0.778600
vt 0.332000 0.640800
vt 0.319100 0.510800
vt 0.332000 0.778600
vt 0.480500 0.537300
vt 0.320000 0.546600
vt 0.326800 0.429600
vt 0.464200 0.416000
vt 0.583700 0.449500
vt 0.608400 0.546600
vt 0.608400 0.671300
vt 0.464200 0.671300
vt 0.320000 0.671300
vt 0.116600 0.795600
vt 0.129800 0.890200
vt 0.000000 0.897800
vt 0.000000 0.795600
vt 0.233200 0.795600
vt 0.233200 0.897800
vt 0.116600 1.000000
vt 0.000000 1.000000
vt 0.233200 1.000000
vt 0.660600 0.846900
vt 0.683900 0.615300
vt 0.819900 0.701100
vt 0.819900 0.992700
vt 0.660600 0.992700
vt 0.838000 0.836000
vt 0.979200 0.992700
vt 0.979200 0.846900
vt 0.979200 0.701100
vt 0.017900 0.640800
vt 0.017900 0.503100
vt 0.175000 0.503100
vt 0.192800 0.630500
vt 0.175000 0.778600
vt 0.017900 0.778600
vt 0.332000 0.640800
vt 0.319100 0.510800
vt 0.332000 0.778600
vt 0.737900 0.509900
vt 0.872500 0.480100
vt 0.879500 0.580200
vt 0.741800 0.587100
vt 0.996700 0.585400
vt 0.984700 0.486500
vt 0.996700 0.712600
vt 0.865200 0.707500
vt 0.769200 0.673700
vt 0.052800 0.384100
vt 0.052800 0.286400
vt 0.193100 0.286400
vt 0.195800 0.386100
vt 0.193100 0.481900
vt 0.052800 0.481900
vt 0.333500 0.384100
vt 0.333500 0.286400
vt 0.333500 0.481900
vt 0.052800 0.384100
vt 0.052800 0.286400
vt 0.193100 0.286400
vt 0.195800 0.386100
vt 0.193100 0.481900
vt 0.052800 0.481900
vt 0.333500 0.384100
vt 0.333500 0.286400
vt 0.333500 0.481900
vt 0.017900 0.640800
vt 0.017900 0.503100
vt 0.175000 0.503100
vt 0.192800 0.630500
vt 0.175000 0.778600
vt 0.017900 0.778600
vt 0.332000 0.640800
vt 0.319100 0.510800
vt 0.332000 0.778600
vt 0.052800 0.384100
vt 0.052800 0.286400
vt 0.193100 0.286400
vt 0.195800 0.386100
vt 0.193100 0.481900
vt 0.052800 0.481900
vt 0.333500 0.384100
vt 0.333500 0.286400
vt 0.333500 0.481900
vt 0.660600 0.846900
vt 0.683900 0.615300
vt 0.819900 0.701100
vt 0.819900 0.992700
vt 0.660600 0.992700
vt 0.838000 0.836000
vt 0.979200 0.992700
vt 0.979200 0.846900
vt 0.979200 0.701100
vt 0.116600 0.795600
vt 0.129800 0.890200
vt 0.000000 0.897800
vt 0.000000 0.795600
vt 0.233200 0.897800
vt 0.233200 0.795600
vt 0.116600 1.000000
vt 0.000000 1.000000
vt 0.233200 1.000000
vt 0.009200 0.132500
vt 0.009200 0.002800
vt 0.143700 0.002800
vt 0.141500 0.134500
vt 0.143700 0.262300
vt 0.009200 0.262300
vt 0.278200 0.132500
vt 0.278200 0.002800
vt 0.278200 0.262300
vt 0.828300 0.005600
vt 0.825800 0.156500
vt 0.671300 0.154300
vt 0.671300 0.005600
vt 0.985400 0.154300
vt 0.985400 0.005600
vt 0.828300 0.303000
vt 0.671300 0.303000
vt 0.985400 0.303000
vt 0.052800 0.384100
vt 0.052800 0.286400
vt 0.193100 0.286400
vt 0.195800 0.386100
vt 0.193100 0.481900
vt 0.052800 0.481900
vt 0.333500 0.384100
vt 0.333500 0.286400
vt 0.333500 0.481900
vt 0.000000 0.897800
vt 0.129800 0.890200
vt 0.116600 0.795600
vt 0.000000 0.795600
vt 0.233200 0.795600
vt 0.233200 0.897800
vt 0.233200 1.000000
vt 0.116600 1.000000
vt 0.000000 1.000000
vt 0.052800 0.384100
vt 0.052800 0.286400
vt 0.193100 0.286400
vt 0.195800 0.386100
vt 0.193100 0.481900
vt 0.052800 0.481900
vt 0.333500 0.384100
vt 0.333500 0.286400
vt 0.333500 0.481900
vt 0.052800 0.384100
vt 0.052800 0.286400
vt 0.193100 0.286400
vt 0.195800 0.386100
vt 0.193100 0.481900
vt 0.052800 0.481900
vt 0.333500 0.384100
vt 0.333500 0.286400
vt 0.333500 0.481900
vt 0.052800 0.384100
vt 0.052800 0.286400
vt 0.193100 0.286400
vt 0.195800 0.386100
vt 0.193100 0.481900
vt 0.052800 0.481900
vt 0.333500 0.384100
vt 0.333500 0.286400
vt 0.333500 0.481900
vt 0.116600 0.795600
vt 0.129800 0.890200
vt 0.000000 0.897800
vt 0.000000 0.795600
vt 0.233200 0.795600
vt 0.233200 0.897800
vt 0.116600 1.000000
vt 0.000000 1.000000
vt 0.233200 1.000000
vt 0.017900 0.640800
vt 0.017900 0.503100
vt 0.175000 0.503100
vt 0.192800 0.630500
vt 0.175000 0.778600
vt 0.017900 0.778600
vt 0.332000 0.640800
vt 0.319100 0.510800
vt 0.332000 0.778600
vt 0.737900 0.509900
vt 0.872500 0.480100
vt 0.879500 0.580200
vt 0.741800 0.587100
vt 0.996700 0.585400
vt 0.984700 0.486500
vt 0.996700 0.712600
vt 0.865200 0.707500
vt 0.769200 0.673700
vt 0.464300 0.687400
vt 0.491100 0.878400
vt 0.301300 0.843700
vt 0.301300 0.687400
vt 0.627200 0.687400
vt 0.627200 0.843700
vt 0.627200 1.000100
vt 0.464300 1.000100
vt 0.301300 1.000100
vt 0.872500 0.480100
vt 0.879500 0.580200
vt 0.741800 0.587100
vt 0.737900 0.509900
vt 0.996700 0.585400
vt 0.984700 0.486500
vt 0.996700 0.712600
vt 0.865200 0.707500
vt 0.769200 0.673700
vt 0.480500 0.537300
vt 0.320000 0.546600
vt 0.326800 0.429600
vt 0.464200 0.416000
vt 0.583700 0.449500
vt 0.608400 0.546600
vt 0.608400 0.671300
vt 0.464200 0.671300
vt 0.320000 0.671300
vt 0.828300 0.005600
vt 0.825800 0.156500
vt 0.671300 0.154300
vt 0.671300 0.005600
vt 0.985400 0.154300
vt 0.985400 0.005600
vt 0.828300 0.303000
vt 0.671300 0.303000
vt 0.985400 0.303000
vt 0.193100 0.286400
vt 0.052800 0.286400
vt 0.052800 0.384100
vt 0.195800 0.386100
vt 0.052800 0.481900
vt 0.193100 0.481900
vt 0.333500 0.384100
vt 0.333500 0.286400
vt 0.333500 0.481900
vt 0.052800 0.384100
vt 0.052800 0.286400
vt 0.193100 0.286400
vt 0.195800 0.386100
vt 0.193100 0.481900
vt 0.052800 0.481900
vt 0.333500 0.384100
vt 0.333500 0.286400
vt 0.333500 0.481900
vt 0.546800 0.367300
vt 0.561500 0.273400
vt 0.728500 0.288000
vt 0.728500 0.398800
vt 0.554600 0.453400
vt 0.716400 0.503300
vt 0.884300 0.473200
vt 0.911000 0.388800
vt 0.908400 0.288000
vt 0.329100 0.148500
vt 0.329100 0.010000
vt 0.475300 0.012900
vt 0.465800 0.150500
vt 0.475300 0.291400
vt 0.329100 0.288500
vt 0.609800 0.148500
vt 0.609800 0.010000
vt 0.609800 0.288500
vt 0.480500 0.537300
vt 0.320000 0.546600
vt 0.326800 0.429600
vt 0.464200 0.416000
vt 0.583700 0.449500
vt 0.608400 0.546600
vt 0.608400 0.671300
vt 0.464200 0.671300
vt 0.320000 0.671300
vt 0.116600 0.795600
vt 0.129800 0.890200
vt 0.000000 0.897800
vt 0.000000 0.795600
vt 0.233200 0.795600
vt 0.233200 0.897800
vt 0.233200 1.000000
vt 0.116600 1.000000
vt 0.000000 1.000000
vt 0.116600 0.795600
vt 0.129800 0.890200
vt 0.000000 0.897800
vt 0.000000 0.795600
vt 0.233200 0.795600
vt 0.233200 0.897800
vt 0.116600 1.000000
vt 0.000000 1.000000
vt 0.233200 1.000000
vt 0.052800 0.384100
vt 0.052800 0.286400
vt 0.193100 0.286400
vt 0.195800 0.386100
vt 0.193100 0.481900
vt 0.052800 0.481900
vt 0.333500 0.384100
vt 0.333500 0.286400
vt 0.333500 0.481900
vt 0.052800 0.384100
vt 0.052800 0.286400
vt 0.193100 0.286400
vt 0.195800 0.386100
vt 0.193100 0.481900
vt 0.052800 0.481900
vt 0.333500 0.384100
vt 0.333500 0.286400
vt 0.333500 0.481900
vt 0.052800 0.384100
vt 0.052800 0.286400
vt 0.193100 0.286400
vt 0.195800 0.386100
vt 0.193100 0.481900
vt 0.052800 0.481900
vt 0.333500 0.384100
vt 0.333500 0.286400
vt 0.333500 0.481900
vt 0.009200 0.132500
vt 0.009200 0.002800
vt 0.143700 0.002800
vt 0.141500 0.134500
vt 0.143700 0.262300
vt 0.009200 0.262300
vt 0.278200 0.132500
vt 0.278200 0.002800
vt 0.278200 0.262300
vt 0.017900 0.640800
vt 0.017900 0.503100
vt 0.175000 0.503100
vt 0.192800 0.630500
vt 0.175000 0.778600
vt 0.017900 0.778600
vt 0.332000 0.640800
vt 0.319100 0.510800
vt 0.332000 0.778600
vt 0.017900 0.640800
vt 0.017900 0.503100
vt 0.175000 0.503100
vt 0.192800 0.630500
vt 0.175000 0.778600
vt 0.017900 0.778600
vt 0.332000 0.640800
vt 0.319100 0.510800
vt 0.332000 0.778600
vt 0.320000 0.546600
vt 0.326800 0.429600
vt 0.464200 0.416000
vt 0.480500 0.537300
vt 0.583700 0.449500
vt 0.608400 0.546600
vt 0.608400 0.671300
vt 0.464200 0.671300
vt 0.320000 0.671300
vt 0.301300 0.843700
vt 0.301300 0.687400
vt 0.464300 0.687400
vt 0.491100 0.878400
vt 0.627200 0.687400
vt 0.627200 0.843700
vt 0.627200 1.000100
vt 0.464300 1.000100
vt 0.301300 1.000100
vt 0.301300 0.843700
vt 0.301300 0.687400
vt 0.464300 0.687400
vt 0.491100 0.878400
vt 0.627200 0.687400
vt 0.627200 0.843700
vt 0.627200 1.000100
vt 0.464300 1.000100
vt 0.301300 1.000100
vt 0.301300 0.843700
vt 0.301300 0.687400
vt 0.464300 0.687400
vt 0.491100 0.878400
vt 0.627200 0.687400
vt 0.627200 0.843700
vt 0.627200 1.000100
vt 0.464300 1.000100
vt 0.301300 1.000100
vt 0.301300 0.843700
vt 0.301300 0.687400
vt 0.464300 0.687400
vt 0.491100 0.878400
vt 0.627200 0.687400
vt 0.627200 0.843700
vt 0.627200 1.000100
vt 0.464300 1.000100
vt 0.301300 1.000100
vt 0.301300 0.843700
vt 0.301300 0.687400
vt 0.464300 0.687400
vt 0.491100 0.878400
vt 0.627200 0.687400
vt 0.627200 0.843700
vt 0.627200 1.000100
vt 0.464300 1.000100
vt 0.301300 1.000100
vt 0.193100 0.286400
vt 0.195800 0.386100
vt 0.052800 0.384100
vt 0.052800 0.286400
vt 0.333500 0.286400
vt 0.333500 0.384100
vt 0.193100 0.481900
vt 0.052800 0.481900
vt 0.333500 0.481900
vt 0.017900 0.640800
vt 0.017900 0.503100
vt 0.175000 0.503100
vt 0.192800 0.630500
vt 0.175000 0.778600
vt 0.017900 0.778600
vt 0.332000 0.640800
vt 0.319100 0.510800
vt 0.332000 0.778600
vt 0.017900 0.640800
vt 0.017900 0.503100
vt 0.175000 0.503100
vt 0.192800 0.630500
vt 0.319100 0.510800
vt 0.332000 0.640800
vt 0.175000 0.778600
vt 0.017900 0.778600
vt 0.332000 0.778600
vt 0.017900 0.640800
vt 0.017900 0.503100
vt 0.175000 0.503100
vt 0.192800 0.630500
vt 0.175000 0.778600
vt 0.017900 0.778600
vt 0.332000 0.640800
vt 0.319100 0.510800
vt 0.332000 0.778600
vt 0.828300 0.005600
vt 0.825800 0.156500
vt 0.671300 0.154300
vt 0.671300 0.005600
vt 0.985400 0.154300
vt 0.985400 0.005600
vt 0.828300 0.303000
vt 0.671300 0.303000
vt 0.985400 0.303000
vt 0.287400 0.725600
vt 0.266000 0.762000
vt 0.228200 0.626600
vt 0.242600 0.622400
vt 0.357000 0.823500
vt 0.338400 0.847700
vt 0.443600 0.934900
vt 0.257800 0.758200
vt 0.261900 0.693400
vt 0.375200 0.844700
vt 0.363500 0.879800
vt 0.456600 0.934200
vt 0.452900 0.969300
vt 0.491100 0.981400
vt 0.499000 0.963700
vt 0.541400 0.993200
vt 0.528000 1.002800
vt 0.338800 0.802300
vt 0.313300 0.815600
vt 0.257800 0.758200
vt 0.235400 0.624500
vt 0.375200 0.844700
vt 0.363500 0.879800
vt 0.467100 0.939100
vt 0.461500 0.963200
vt 0.528000 1.002800
vt 0.541400 0.993200
vt 0.242600 0.622400
vt 0.272400 0.691200
vt 0.251400 0.695600
vt 0.228200 0.626600
vt 0.257800 0.758200
vt 0.302300 0.760000
vt 0.338800 0.802300
vt 0.313300 0.815600
vt 0.387300 0.900200
vt 0.394400 0.869700
vt 0.534700 0.998000
vt 0.242600 0.622400
vt 0.228200 0.626600
vt 0.251400 0.695600
vt 0.272400 0.691200
vt 0.257800 0.758200
vt 0.302300 0.760000
vt 0.313300 0.815600
vt 0.338800 0.802300
vt 0.388700 0.889800
vt 0.953900 0.744800
vt 0.897300 0.591600
vt 1.001600 0.689500
vt 0.965600 0.896800
vt 0.954600 0.520900
vt 0.905300 0.465900
vt 0.970700 0.420800
vt 0.821000 0.413900
vt 0.786800 0.471400
vn 0.610100 0.255200 0.750100
vn 0.362706 -0.234504 0.901916
vn 0.368578 -0.275783 0.887747
vn 0.626813 0.233005 0.743515
vn 0.568337 0.278718 0.774151
vn 0.311685 -0.290286 0.904757
vn -0.022001 -0.682527 0.730529
vn -0.015100 -0.667108 0.744808
vn -0.003800 -0.681090 0.732190
vn 0.272793 -0.063498 0.959975
vn 0.338799 0.481698 0.808197
vn 0.017599 0.396982 0.917658
vn 0.037700 -0.100700 0.994202
vn 0.183894 -0.555581 0.810872
vn 0.100097 -0.561385 0.821479
vn -0.061803 -0.524222 0.849336
vn -0.220805 -0.013800 0.975220
vn -0.305496 0.455294 0.836289
vn 0.388401 0.060500 0.919502
vn 0.175407 0.051702 0.983137
vn 0.145597 -0.413292 0.898883
vn 0.340399 -0.442599 0.829599
vn 0.614187 -0.338693 0.712785
vn 0.613112 0.321506 0.721614
vn 0.299504 -0.797711 0.523407
vn -0.055001 -0.823317 0.564911
vn 0.563090 -0.785386 0.257095
vn 0.103697 0.243792 0.964268
vn 0.039602 0.449820 0.892241
vn -0.426387 0.332090 0.841374
vn -0.405808 0.126102 0.905217
vn -0.237496 -0.141798 0.960983
vn 0.423007 -0.004500 0.906115
vn -0.755672 -0.088997 0.648876
vn -0.835805 0.218201 0.503803
vn -0.681023 -0.479516 0.553419
vn -0.025701 -0.069603 0.997244
vn 0.047800 -0.273800 0.960598
vn -0.264094 0.263594 0.927778
vn -0.357912 0.479516 0.801226
vn -0.178507 0.472919 0.862834
vn -0.027401 -0.092503 0.995335
vn 0.268708 -0.478215 0.836126
vn 0.243492 -0.563281 0.789573
vn 0.082703 -0.581921 0.809029
vn -0.595231 0.416422 0.687236
vn -0.340483 -0.019299 0.940053
vn -0.300308 -0.039501 0.953024
vn -0.571174 0.427580 0.700668
vn -0.630377 0.380086 0.676875
vn -0.329885 -0.098596 0.938858
vn 0.058601 -0.482905 0.873710
vn 0.064101 -0.475610 0.877318
vn 0.062699 -0.521593 0.850888
vn 0.124098 -0.044299 0.991281
vn -0.027098 -0.347079 0.937444
vn -0.334284 -0.426279 0.840559
vn 0.476613 0.221606 0.850724
vn 0.461388 0.269493 0.845278
vn 0.027800 -0.032200 0.999095
vn 0.498773 0.219588 0.838455
vn 0.032400 -0.154900 0.987399
vn -0.407797 -0.624195 0.666395
vn -0.101301 0.166001 0.980909
vn -0.324502 0.174201 0.929706
vn -0.369407 -0.305206 0.877717
vn -0.162102 -0.354204 0.921012
vn 0.151405 -0.282209 0.947330
vn 0.230990 0.386582 0.892859
vn -0.096801 -0.752008 0.652007
vn -0.428497 -0.728495 0.534496
vn 0.284306 -0.803316 0.523310
vn -0.144104 0.919027 0.366911
vn -0.268314 0.940049 0.210511
vn -0.247600 0.761900 0.598500
vn -0.098797 0.601981 0.792375
vn -0.282798 0.763196 0.580997
vn -0.287600 0.929600 0.230500
vn -0.185999 0.403898 0.895696
vn -0.071204 0.334919 0.939553
vn 0.216008 0.186907 0.958335
vn 0.230992 -0.115596 0.966065
vn 0.286384 0.381579 0.878852
vn -0.020500 0.318800 0.947600
vn -0.000800 -0.147607 0.989046
vn 0.030702 -0.531429 0.846546
vn 0.140197 -0.520488 0.842281
vn -0.210404 -0.131602 0.968716
vn -0.322409 0.335309 0.885224
vn -0.042399 -0.463493 0.885086
vn -0.365393 0.175897 0.914083
vn -0.761151 0.068396 0.644958
vn -0.641170 -0.194791 0.742265
vn -0.265506 -0.027401 0.963720
vn 0.100703 0.137804 0.985327
vn 0.054199 0.239896 0.969284
vn -0.210402 -0.226102 0.951109
vn -0.535173 -0.470976 0.701264
vn 0.047298 0.040698 0.998051
vn -0.101301 0.165402 0.981010
vn -0.324500 0.173700 0.929800
vn -0.369395 -0.305596 0.877587
vn -0.162103 -0.354707 0.920818
vn 0.151398 -0.282696 0.947186
vn 0.230993 0.386088 0.893072
vn -0.096798 -0.752286 0.651688
vn -0.428503 -0.728705 0.534204
vn 0.284297 -0.803590 0.522894
vn 0.227205 0.284307 0.931422
vn 0.275610 0.695825 0.663224
vn -0.019699 0.668371 0.743567
vn 0.000200 0.257893 0.966174
vn 0.031200 -0.142598 0.989289
vn 0.144100 -0.132900 0.980598
vn -0.205497 0.272396 0.939985
vn -0.310983 0.658563 0.685262
vn -0.043399 -0.059798 0.997267
vn -0.128198 -0.030399 0.991283
vn -0.166094 0.305889 0.937467
vn 0.048499 0.539494 0.840591
vn -0.279301 -0.445302 0.850704
vn -0.240395 -0.477189 0.845281
vn -0.040900 0.011900 0.999092
vn -0.298887 -0.455680 0.838464
vn -0.111500 0.112300 0.987399
vn 0.002400 0.745595 0.666395
vn -0.033701 -0.063102 0.997438
vn -0.040198 -0.248288 0.967852
vn 0.559176 -0.246789 0.791466
vn 0.581521 -0.025601 0.813129
vn -0.573685 -0.201595 0.793880
vn -0.690115 0.197904 0.696115
vn 0.073599 -0.463593 0.882986
vn 0.721803 -0.467102 0.510702
vn -0.628801 -0.505300 0.591000
vn -0.099098 -0.173797 0.979783
vn -0.267805 -0.353407 0.896317
vn -0.428810 -0.405210 0.807420
vn -0.260388 -0.487378 0.833463
vn 0.017201 -0.488032 0.872657
vn 0.117200 -0.200300 0.972699
vn -0.309595 -0.685289 0.659189
vn -0.313198 -0.573996 0.756595
vn -0.248987 -0.604167 0.756959
vn -0.609994 -0.103699 0.785592
vn -0.394900 -0.109300 0.912199
vn -0.312080 0.304780 0.899842
vn -0.455401 0.080900 0.886603
vn -0.400515 -0.412415 0.818231
vn -0.565692 -0.364895 0.739489
vn -0.104497 0.026499 0.994172
vn 0.014600 0.429197 0.903093
vn -0.300597 -0.255498 0.918892
vn 0.479492 -0.143797 0.865685
vn 0.530510 0.344507 0.774515
vn 0.256997 0.298096 0.919289
vn 0.262813 -0.165508 0.950546
vn 0.242909 -0.545219 0.802329
vn 0.343998 -0.535797 0.771095
vn 0.062102 -0.139804 0.988230
vn -0.048700 0.334302 0.941207
vn 0.185495 -0.476688 0.859279
vn 0.033899 -0.168697 0.985085
vn 0.018199 -0.197391 0.980156
vn 0.126397 -0.578287 0.805982
vn 0.145098 -0.566494 0.811191
vn 0.084803 -0.584524 0.806933
vn -0.004700 -0.139600 0.990197
vn -0.090301 0.261002 0.961106
vn -0.094096 0.240989 0.965956
vn -0.078998 0.251295 0.964681
vn 0.227205 0.284307 0.931422
vn 0.275610 0.695825 0.663224
vn -0.019699 0.668371 0.743567
vn 0.000200 0.257893 0.966174
vn 0.031200 -0.142598 0.989289
vn 0.144100 -0.132900 0.980598
vn -0.205497 0.272396 0.939985
vn -0.310983 0.658563 0.685262
vn -0.043399 -0.059798 0.997267
vn -0.400583 -0.000600 0.916260
vn -0.039999 -0.352694 0.934883
vn 0.086199 -0.059600 0.994494
vn -0.286008 0.202306 0.936628
vn -0.574317 0.387112 0.721321
vn -0.630613 0.295806 0.717514
vn -0.146591 0.358777 0.921841
vn 0.296593 0.164796 0.940678
vn -0.486998 0.409798 0.771297
vn 0.227205 0.284307 0.931422
vn 0.275610 0.695825 0.663224
vn -0.019699 0.668371 0.743567
vn 0.000200 0.257893 0.966174
vn 0.031200 -0.142598 0.989289
vn 0.144100 -0.132900 0.980598
vn -0.205497 0.272396 0.939985
vn -0.310983 0.658563 0.685262
vn -0.043399 -0.059798 0.997267
vn -0.024200 0.554699 0.831699
vn -0.033500 0.009500 0.999394
vn -0.010400 -0.030000 0.999496
vn 0.004200 0.546175 0.837661
vn -0.077998 0.549289 0.831984
vn -0.073998 -0.062998 0.995267
vn -0.028100 -0.583805 0.811407
vn -0.018499 -0.581583 0.813277
vn -0.054001 -0.612006 0.789007
vn 0.141802 -0.371806 0.917416
vn -0.058698 -0.474183 0.878468
vn 0.122903 -0.782020 0.611015
vn 0.316906 -0.717312 0.620511
vn 0.528605 -0.504605 0.682606
vn 0.279896 0.009200 0.959986
vn 0.483209 -0.844916 0.229404
vn 0.179098 -0.972788 0.146998
vn 0.775292 -0.622594 0.106299
vn -0.169896 -0.509587 0.843479
vn -0.014800 -0.646105 0.763106
vn -0.045701 -0.178206 0.982931
vn -0.196302 0.122101 0.972911
vn -0.000700 -0.204801 0.978804
vn 0.005400 -0.627000 0.779000
vn -0.046601 0.382905 0.922612
vn -0.161407 0.487920 0.857836
vn -0.418810 0.631316 0.652716
vn 0.324505 -0.163103 0.931716
vn 0.051702 -0.321409 0.945528
vn -0.107297 -0.463688 0.879478
vn -0.118396 -0.000000 0.992966
vn 0.497776 -0.020699 0.867059
vn 0.249989 -0.023799 0.967956
vn -0.277108 -0.188705 0.942126
vn -0.413390 -0.522987 0.745381
vn -0.430681 -0.645672 0.630572
vn 0.063298 0.169693 0.983462
vn -0.095499 0.135299 0.986192
vn -0.205093 0.072298 0.976068
vn -0.018000 0.175696 0.984280
vn -0.103498 0.165997 0.980680
vn 0.079402 0.210206 0.974427
vn -0.325804 0.089301 0.941211
vn -0.367414 0.034001 0.929436
vn -0.465285 -0.173594 0.867972
vn -0.016700 -0.703499 0.710499
vn 0.012000 -0.557495 0.830093
vn 0.065399 -0.923085 0.378994
vn 0.060297 -0.983058 0.173093
vn -0.094899 -0.963194 0.251498
vn -0.004000 -0.706000 0.708200
vn -0.099204 -0.300412 0.948637
vn -0.037598 -0.219190 0.974957
vn 0.119601 -0.278002 0.953106
vn -0.356208 0.344408 0.868619
vn -0.103999 0.343998 0.933193
vn -0.012100 0.708903 0.705203
vn -0.159596 0.533387 0.830679
vn -0.129306 0.038702 0.990849
vn -0.330114 0.067303 0.941539
vn 0.215588 0.473773 0.853851
vn 0.293396 0.766290 0.571593
vn 0.003900 0.221204 0.975220
vn 0.025501 -0.763915 0.644813
vn 0.196201 -0.569402 0.798303
vn -0.273502 -0.465903 0.841505
vn -0.383617 -0.604526 0.698130
vn -0.657289 -0.254996 0.709188
vn -0.697830 -0.357915 0.620427
vn -0.418901 -0.719602 0.553801
vn -0.031001 -0.906243 0.421620
vn -0.649622 -0.450615 0.612321
vn 0.304595 0.331895 0.892786
vn 0.664199 0.467799 0.583099
vn 0.441002 0.679103 0.586802
vn 0.142600 0.479100 0.866100
vn -0.136202 0.226203 0.964511
vn -0.055600 0.151401 0.986907
vn 0.025900 0.625497 0.779796
vn 0.251602 0.847706 0.467003
vn -0.122207 0.332218 0.935252
vn 0.118201 -0.062701 0.991008
vn 0.208494 0.485386 0.849076
vn -0.127798 0.396294 0.909186
vn -0.117796 -0.101197 0.987868
vn 0.053401 -0.557412 0.828517
vn -0.032400 -0.562001 0.826502
vn -0.195801 -0.522102 0.830103
vn -0.370095 -0.014000 0.928888
vn -0.430896 0.450696 0.781794
vn -0.016100 0.263904 0.964415
vn -0.144895 0.072797 0.986765
vn -0.268010 -0.063302 0.961334
vn -0.083197 -0.098396 0.991663
vn 0.179606 -0.002500 0.983735
vn 0.245512 0.323716 0.913746
vn -0.083702 -0.336606 0.937918
vn -0.123204 -0.194007 0.973233
vn -0.056702 -0.194108 0.979340
vn 0.543477 -0.533877 0.647772
vn 0.485000 -0.713401 0.505800
vn 0.477819 -0.234309 0.846633
vn 0.424104 0.027100 0.905208
vn 0.581680 -0.032399 0.812772
vn 0.533209 -0.548109 0.644411
vn 0.497323 -0.825938 0.265512
vn 0.418889 -0.877076 0.235094
vn 0.320705 -0.888314 0.328705
vn 0.629299 -0.100800 0.770599
vn 0.322213 -0.138106 0.936539
vn 0.307793 -0.156596 0.938478
vn 0.625297 -0.116799 0.771597
vn 0.625599 -0.071100 0.776898
vn 0.269999 -0.140899 0.952496
vn -0.060497 -0.172491 0.983151
vn -0.038999 -0.162295 0.985971
vn -0.045200 -0.177400 0.983100
vn 0.036701 0.078602 0.996230
vn 0.048198 -0.457779 0.887759
vn 0.072499 -0.493196 0.866892
vn 0.066301 0.068901 0.995418
vn -0.019201 0.070303 0.997341
vn 0.009399 -0.520270 0.853950
vn 0.048600 -0.883293 0.466296
vn 0.057998 -0.881462 0.468680
vn 0.023200 -0.898288 0.438794
vn 0.029701 0.447616 0.893732
vn -0.443401 0.280501 0.851302
vn -0.258007 0.046401 0.965028
vn 0.153598 0.257896 0.953885
vn 0.481795 0.416096 0.771192
vn 0.426093 0.504592 0.750888
vn 0.226889 0.063397 0.971855
vn -0.150097 -0.245196 0.957784
vn 0.454101 0.331701 0.826902
vn 0.503988 -0.229795 0.832581
vn 0.822183 -0.296194 0.486090
vn 0.827511 -0.006900 0.561407
vn 0.494908 -0.007500 0.868913
vn 0.129202 -0.020200 0.991413
vn 0.131398 -0.133598 0.982286
vn 0.513198 0.192099 0.836496
vn 0.816486 0.276795 0.506691
vn 0.213795 0.050399 0.975578
vn -0.092901 -0.492205 0.865508
vn -0.321707 -0.777817 0.539912
vn -0.021900 -0.839192 0.543395
vn 0.121203 -0.530113 0.839220
vn 0.222199 -0.178099 0.958597
vn 0.114299 -0.158698 0.980689
vn 0.297502 -0.588203 0.752004
vn 0.228004 -0.875615 0.425807
vn 0.266797 -0.273297 0.924190
vn 0.415501 -0.197901 0.887803
vn 0.279710 0.009800 0.960035
vn 0.234604 0.199903 0.951315
vn 0.104801 0.059600 0.992706
vn 0.069701 -0.229903 0.970714
vn 0.330388 -0.392486 0.858369
vn -0.131400 0.187700 0.973398
vn 0.030599 0.136397 0.990182
vn -0.013800 0.077400 0.996905
vn -0.101301 0.166001 0.980909
vn -0.324502 0.174201 0.929706
vn -0.369407 -0.305206 0.877717
vn -0.162102 -0.354204 0.921012
vn 0.151405 -0.282209 0.947330
vn 0.230990 0.386582 0.892859
vn -0.096801 -0.752008 0.652007
vn -0.428497 -0.728495 0.534496
vn 0.284306 -0.803316 0.523310
vn -0.173502 -0.086701 0.981010
vn -0.200900 -0.308400 0.929800
vn 0.272790 -0.394285 0.877567
vn 0.339507 -0.191904 0.920819
vn 0.294691 0.126596 0.947170
vn -0.364881 0.263286 0.893052
vn 0.741208 -0.160902 0.651707
vn 0.689294 -0.489396 0.534196
vn 0.825011 0.214303 0.522907
vn 0.193898 0.037900 0.980289
vn 0.112801 -0.201802 0.972909
vn -0.191502 -0.136101 0.972010
vn 0.050999 0.087298 0.994876
vn -0.239212 -0.119806 0.963548
vn 0.101597 0.063898 0.992771
vn 0.316216 0.305815 0.898045
vn 0.388723 0.317419 0.864951
vn 0.420198 0.202299 0.884595
vn -0.331501 -0.651801 0.682101
vn -0.401706 -0.244904 0.882414
vn 0.047702 -0.393616 0.918037
vn -0.196007 -0.533418 0.822828
vn 0.224593 -0.242992 0.943670
vn -0.040901 -0.267404 0.962716
vn -0.517892 -0.406693 0.752588
vn -0.564892 -0.673190 0.477193
vn -0.544498 -0.761697 0.351198
vn -0.571598 -0.688998 0.445598
vn -0.491900 -0.419000 0.763200
vn -0.141101 -0.710404 0.689504
vn -0.411288 -0.694980 0.589783
vn 0.070299 -0.660091 0.747889
vn -0.180104 -0.592314 0.785319
vn -0.644668 -0.457477 0.612469
vn -0.784380 -0.553186 0.280593
vn -0.799485 -0.585089 0.135997
vn -0.571598 -0.688998 0.445598
vn -0.491900 -0.419000 0.763200
vn -0.141101 -0.710404 0.689504
vn -0.411288 -0.694980 0.589783
vn 0.070299 -0.660091 0.747889
vn -0.180104 -0.592314 0.785319
vn -0.644668 -0.457477 0.612469
vn -0.784380 -0.553186 0.280593
vn -0.799485 -0.585089 0.135997
vn -0.331501 -0.651801 0.682101
vn -0.401706 -0.244904 0.882414
vn 0.047702 -0.393616 0.918037
vn -0.196007 -0.533418 0.822828
vn 0.224593 -0.242992 0.943670
vn -0.040901 -0.267404 0.962716
vn -0.517892 -0.406693 0.752588
vn -0.564892 -0.673190 0.477193
vn -0.544498 -0.761697 0.351198
vn -0.530200 -0.358400 0.768400
vn -0.405182 0.069897 0.911560
vn -0.058002 -0.252209 0.965933
vn -0.348310 -0.290208 0.891325
vn 0.169597 -0.188696 0.967280
vn -0.081203 -0.094203 0.992236
vn -0.592699 -0.044400 0.804199
vn -0.769207 -0.301303 0.563505
vn -0.796212 -0.407606 0.447107
vn -0.584173 0.588273 0.559175
vn -0.443317 0.380215 0.811731
vn -0.285492 0.506385 0.813676
vn -0.376004 0.785709 0.491205
vn -0.743526 0.467416 0.478217
vn -0.539697 0.307998 0.783495
vn -0.216695 0.136297 0.966678
vn -0.158705 0.186105 0.969628
vn -0.287983 0.151691 0.945545
vn 0.605297 0.549297 0.576097
vn 0.537208 0.704611 0.463607
vn 0.117196 0.755075 0.645079
vn 0.142005 0.603223 0.784829
vn 0.257604 0.341705 0.903813
vn 0.813798 0.227899 0.534598
vn -0.307607 0.445610 0.840720
vn -0.426419 0.677830 0.598927
vn -0.356390 0.035199 0.933674
vn -0.005800 -0.056898 0.998363
vn -0.080298 -0.124397 0.988978
vn 0.131295 -0.372086 0.918865
vn 0.172197 -0.322194 0.930881
vn 0.274792 -0.610183 0.743079
vn 0.349103 -0.458404 0.817308
vn 0.324797 -0.163799 0.931492
vn 0.019900 0.123198 0.992183
vn 0.679288 -0.331194 0.654888
vn -0.123802 0.149903 0.980919
vn -0.345906 0.126402 0.929716
vn -0.322405 -0.354505 0.877713
vn -0.110198 -0.373693 0.920983
vn 0.189905 -0.257906 0.947323
vn 0.173797 0.415393 0.892885
vn 0.010900 -0.758123 0.652020
vn -0.320805 -0.781912 0.534508
vn 0.395418 -0.754835 0.523324
vn 0.236297 -0.354796 0.904590
vn 0.437015 -0.240408 0.866730
vn 0.337003 0.149802 0.929510
vn 0.334799 -0.112100 0.935598
vn 0.515911 -0.493210 0.700414
vn 0.341389 -0.559881 0.754975
vn 0.628508 0.027700 0.777310
vn 0.481692 0.418993 0.769687
vn 0.575985 -0.308092 0.757180
vn 0.085699 -0.021400 0.996091
vn 0.143305 0.040802 0.988837
vn 0.375993 -0.172197 0.910482
vn 0.454286 -0.195794 0.869074
vn 0.063399 -0.020500 0.997778
vn 0.071702 -0.000400 0.997426
vn -0.055100 -0.142200 0.988303
vn 0.171108 -0.193108 0.966142
vn 0.175795 -0.213594 0.960975
vn -0.027301 0.001600 0.999626
vn -0.063898 0.019699 0.997762
vn -0.045300 0.084499 0.995393
vn -0.039602 0.057802 0.997542
vn 0.079301 0.398103 0.913907
vn 0.049399 0.455287 0.888974
vn 0.290803 -0.011700 0.956711
vn 0.349505 -0.191703 0.917113
vn -0.108002 0.154203 0.982119
vn -0.184996 0.191096 0.963981
vn 0.168106 0.224208 0.959933
vn 0.211092 0.217491 0.952963
vn -0.037401 0.023800 0.999017
vn -0.044002 0.013501 0.998940
vn -0.158997 0.104998 0.981680
vn -0.176300 0.137400 0.974700
vn 0.180903 -0.279605 0.942918
vn 0.235603 -0.368905 0.899111
vn -0.929205 -0.194401 0.314302
vn -0.677730 -0.262312 0.686931
vn -0.634994 -0.195798 0.747293
vn -0.942585 -0.163697 0.291095
vn -0.383088 0.273891 0.882172
vn -0.375402 0.367702 0.850805
vn -0.461387 0.150296 0.874376
vn -0.382103 0.196402 0.903008
vn -0.548577 -0.032599 0.835465
vn -0.641104 -0.033900 0.766705
vn -0.360083 0.060497 0.930957
vn 0.347706 -0.218804 0.911716
vn 0.414109 -0.233305 0.879820
vn -0.013700 -0.243195 0.969881
vn -0.017200 -0.256404 0.966417
vn 0.061201 -0.271405 0.960518
vn 0.062301 -0.120002 0.990817
vn -0.040900 0.043700 0.998207
vn -0.059397 0.050498 0.996956
vn -0.172496 0.056699 0.983377
vn 0.304093 -0.125197 0.944380
vn 0.055800 -0.334602 0.940706
vn 0.208406 -0.242407 0.947526
vn 0.362199 -0.002000 0.932098
vn -0.065001 -0.198604 0.977922
vn -0.408692 -0.333693 0.849482
vn -0.668282 -0.079198 0.739680
vn -0.021500 -0.509693 0.860088
vn 0.235501 -0.472103 0.849505
f 1/1/1 2/2/2 3/3/3
f 1/1/1 3/3/3 4/4/4
f 5/5/5 2/2/2 1/1/1
f 5/5/5 6/6/6 2/2/2
f 2/2/2 6/6/6 7/7/7
f 2/2/2 7/7/7 8/8/8
f 3/3/3 2/2/2 8/8/8
f 3/3/3 8/8/8 9/9/9
f 10/10/10 11/11/11 12/12/12
f 10/10/10 12/12/12 13/13/13
f 14/14/14 10/10/10 13/13/13
f 14/14/14 13/13/13 15/15/15
f 16/16/16 15/15/15 13/13/13
f 16/16/16 13/13/13 17/17/17
f 17/17/17 13/13/13 12/12/12
f 17/17/17 12/12/12 18/18/18
f 19/19/19 20/20/20 21/21/21
f 19/19/19 21/21/21 22/22/22
f 23/23/23 19/19/19 22/22/22
f 23/23/23 24/24/24 19/19/19
f 25/25/25 22/22/22 21/21/21
f 23/23/23 22/22/22 25/25/25
f 25/25/25 21/21/21 26/26/26
f 23/23/23 25/25/25 27/27/27
f 28/28/28 29/29/29 30/30/30
f 28/28/28 30/30/30 31/31/31
f 32/32/32 28/28/28 31/31/31
f 32/32/32 33/33/33 28/28/28
f 34/34/34 31/31/31 30/30/30
f 32/32/32 31/31/31 34/34/34
f 34/34/34 30/30/30 35/35/35
f 32/32/32 34/34/34 36/36/36
f 37/37/37 38/38/38 39/39/39
f 37/37/37 39/39/39 40/40/40
f 37/37/37 40/40/40 41/41/41
f 37/37/37 41/41/41 42/42/42
f 43/43/43 37/37/37 42/42/42
f 43/43/43 44/44/44 37/37/37
f 44/44/44 38/38/38 37/37/37
f 44/44/44 45/45/45 38/38/38
f 46/46/46 47/47/47 48/48/48
f 46/46/46 48/48/48 49/49/49
f 50/50/50 47/47/47 46/46/46
f 50/50/50 51/51/51 47/47/47
f 48/48/48 47/47/47 52/52/52
f 51/51/51 52/52/52 47/47/47
f 48/48/48 52/52/52 53/53/53
f 51/51/51 54/54/54 52/52/52
f 55/55/55 56/56/56 57/57/57
f 58/58/58 59/59/59 55/55/55
f 58/58/58 55/55/55 60/60/60
f 55/55/55 57/57/57 60/60/60
f 61/61/61 58/58/58 60/60/60
f 61/61/61 60/60/60 62/62/62
f 62/62/62 60/60/60 57/57/57
f 62/62/62 57/57/57 63/63/63
f 64/64/64 65/65/65 66/66/66
f 64/64/64 66/66/66 67/67/67
f 68/68/68 64/64/64 67/67/67
f 68/68/68 69/69/69 64/64/64
f 70/70/70 67/67/67 66/66/66
f 68/68/68 67/67/67 70/70/70
f 70/70/70 66/66/66 71/71/71
f 68/68/68 70/70/70 72/72/72
f 73/73/73 74/74/74 75/75/75
f 73/73/73 75/75/75 76/76/76
f 74/74/74 77/77/77 75/75/75
f 74/74/74 78/78/78 77/77/77
f 75/75/75 77/77/77 79/79/79
f 75/75/75 79/79/79 80/80/80
f 76/76/76 75/75/75 80/80/80
f 76/76/76 80/80/80 81/81/81
f 82/82/82 83/83/83 84/84/84
f 82/82/82 84/84/84 85/85/85
f 86/86/86 82/82/82 85/85/85
f 86/86/86 87/87/87 82/82/82
f 88/88/88 85/85/85 84/84/84
f 86/86/86 85/85/85 88/88/88
f 88/88/88 84/84/84 89/89/89
f 86/86/86 88/88/88 90/90/90
f 91/91/91 92/92/92 93/93/93
f 91/91/91 93/93/93 94/94/94
f 95/95/95 91/91/91 94/94/94
f 95/95/95 96/96/96 91/91/91
f 97/97/97 94/94/94 93/93/93
f 95/95/95 94/94/94 97/97/97
f 97/97/97 93/93/93 98/98/98
f 95/95/95 97/97/97 99/99/99
f 100/100/100 101/101/101 102/102/102
f 100/100/100 102/102/102 103/103/103
f 104/104/104 100/100/100 103/103/103
f 104/104/104 105/105/105 100/100/100
f 106/106/106 103/103/103 102/102/102
f 104/104/104 103/103/103 106/106/106
f 106/106/106 102/102/102 107/107/107
f 104/104/104 106/106/106 108/108/108
f 109/109/109 110/110/110 111/111/111
f 109/109/109 111/111/111 112/112/112
f 113/113/113 109/109/109 112/112/112
f 113/113/113 114/114/114 109/109/109
f 115/115/115 112/112/112 111/111/111
f 113/113/113 112/112/112 115/115/115
f 115/115/115 111/111/111 116/116/116
f 113/113/113 115/115/115 117/117/117
f 118/118/118 119/119/119 120/120/120
f 121/121/121 122/122/122 118/118/118
f 121/121/121 118/118/118 123/123/123
f 118/118/118 120/120/120 123/123/123
f 124/124/124 121/121/121 123/123/123
f 124/124/124 123/123/123 125/125/125
f 125/125/125 123/123/123 120/120/120
f 125/125/125 120/120/120 126/126/126
f 127/127/127 128/128/128 129/129/129
f 127/127/127 129/129/129 130/130/130
f 127/127/127 131/131/131 128/128/128
f 127/127/127 132/132/132 131/131/131
f 129/129/129 128/128/128 133/133/133
f 131/131/131 133/133/133 128/128/128
f 129/129/129 133/133/133 134/134/134
f 131/131/131 135/135/135 133/133/133
f 136/136/136 137/137/137 138/138/138
f 136/136/136 138/138/138 139/139/139
f 140/140/140 136/136/136 139/139/139
f 140/140/140 141/141/141 136/136/136
f 142/142/142 139/139/139 138/138/138
f 140/140/140 139/139/139 142/142/142
f 142/142/142 138/138/138 143/143/143
f 140/140/140 142/142/142 144/144/144
f 145/145/145 146/146/146 147/147/147
f 145/145/145 147/147/147 148/148/148
f 145/145/145 149/149/149 146/146/146
f 145/145/145 150/150/150 149/149/149
f 147/147/147 146/146/146 151/151/151
f 149/149/149 151/151/151 146/146/146
f 147/147/147 151/151/151 152/152/152
f 149/149/149 153/153/153 151/151/151
f 154/154/154 155/155/155 156/156/156
f 154/154/154 156/156/156 157/157/157
f 158/158/158 154/154/154 157/157/157
f 158/158/158 159/159/159 154/154/154
f 160/160/160 157/157/157 156/156/156
f 158/158/158 157/157/157 160/160/160
f 160/160/160 156/156/156 161/161/161
f 158/158/158 160/160/160 162/162/162
f 163/163/163 164/164/164 165/165/165
f 163/163/163 165/165/165 166/166/166
f 164/164/164 167/167/167 165/165/165
f 164/164/164 168/168/168 167/167/167
f 164/164/164 169/169/169 168/168/168
f 164/164/164 170/170/170 169/169/169
f 163/163/163 170/170/170 164/164/164
f 163/163/163 171/171/171 170/170/170
f 172/172/172 173/173/173 174/174/174
f 172/172/172 174/174/174 175/175/175
f 176/176/176 172/172/172 175/175/175
f 176/176/176 177/177/177 172/172/172
f 178/178/178 175/175/175 174/174/174
f 176/176/176 175/175/175 178/178/178
f 178/178/178 174/174/174 179/179/179
f 176/176/176 178/178/178 180/180/180
f 181/181/181 182/182/182 183/183/183
f 181/181/181 183/183/183 184/184/184
f 185/185/185 181/181/181 184/184/184
f 185/185/185 186/186/186 181/181/181
f 187/187/187 184/184/184 183/183/183
f 185/185/185 184/184/184 187/187/187
f 187/187/187 183/183/183 188/188/188
f 185/185/185 187/187/187 189/189/189
f 190/190/190 191/191/191 192/192/192
f 190/190/190 192/192/192 193/193/193
f 194/194/194 190/190/190 193/193/193
f 194/194/194 195/195/195 190/190/190
f 196/196/196 193/193/193 192/192/192
f 194/194/194 193/193/193 196/196/196
f 196/196/196 192/192/192 197/197/197
f 194/194/194 196/196/196 198/198/198
f 199/199/199 200/200/200 201/201/201
f 199/199/199 201/201/201 202/202/202
f 203/203/203 200/200/200 199/199/199
f 203/203/203 204/204/204 200/200/200
f 201/201/201 200/200/200 205/205/205
f 204/204/204 205/205/205 200/200/200
f 201/201/201 205/205/205 206/206/206
f 204/204/204 207/207/207 205/205/205
f 208/208/208 209/209/209 210/210/210
f 208/208/208 210/210/210 211/211/211
f 212/212/212 208/208/208 211/211/211
f 212/212/212 213/213/213 208/208/208
f 214/214/214 211/211/211 210/210/210
f 212/212/212 211/211/211 214/214/214
f 214/214/214 210/210/210 215/215/215
f 212/212/212 214/214/214 216/216/216
f 217/217/217 218/218/218 219/219/219
f 217/217/217 219/219/219 220/220/220
f 218/218/218 221/221/221 219/219/219
f 218/218/218 222/222/222 221/221/221
f 219/219/219 221/221/221 223/223/223
f 219/219/219 223/223/223 224/224/224
f 220/220/220 219/219/219 224/224/224
f 220/220/220 224/224/224 225/225/225
f 226/226/226 227/227/227 228/228/228
f 226/226/226 228/228/228 229/229/229
f 230/230/230 227/227/227 226/226/226
f 230/230/230 231/231/231 227/227/227
f 227/227/227 231/231/231 232/232/232
f 227/227/227 232/232/232 233/233/233
f 228/228/228 227/227/227 233/233/233
f 228/228/228 233/233/233 234/234/234
f 235/235/235 236/236/236 237/237/237
f 235/235/235 237/237/237 238/238/238
f 235/235/235 239/239/239 236/236/236
f 235/235/235 240/240/240 239/239/239
f 236/236/236 239/239/239 241/241/241
f 236/236/236 241/241/241 242/242/242
f 237/237/237 236/236/236 242/242/242
f 237/237/237 242/242/242 243/243/243
f 244/244/244 245/245/245 246/246/246
f 244/244/244 246/246/246 247/247/247
f 244/244/244 247/247/247 248/248/248
f 244/244/244 248/248/248 249/249/249
f 250/250/250 244/244/244 249/249/249
f 250/250/250 251/251/251 244/244/244
f 251/251/251 245/245/245 244/244/244
f 251/251/251 252/252/252 245/245/245
f 253/253/253 254/254/254 255/255/255
f 253/253/253 255/255/255 256/256/256
f 253/253/253 257/257/257 254/254/254
f 253/253/253 258/258/258 257/257/257
f 255/255/255 254/254/254 259/259/259
f 257/257/257 259/259/259 254/254/254
f 255/255/255 259/259/259 260/260/260
f 257/257/257 261/261/261 259/259/259
f 262/262/262 263/263/263 264/264/264
f 262/262/262 264/264/264 265/265/265
f 265/265/265 264/264/264 266/266/266
f 265/265/265 266/266/266 267/267/267
f 268/268/268 262/262/262 265/265/265
f 268/268/268 265/265/265 267/267/267
f 268/268/268 269/269/269 262/262/262
f 268/268/268 267/267/267 270/270/270
f 271/271/271 272/272/272 273/273/273
f 271/271/271 273/273/273 274/274/274
f 275/275/275 271/271/271 274/274/274
f 275/275/275 276/276/276 271/271/271
f 277/277/277 274/274/274 273/273/273
f 275/275/275 274/274/274 277/277/277
f 277/277/277 273/273/273 278/278/278
f 275/275/275 277/277/277 279/279/279
f 280/280/280 281/281/281 282/282/282
f 280/280/280 282/282/282 283/283/283
f 284/284/284 280/280/280 283/283/283
f 284/284/284 283/283/283 285/285/285
f 286/286/286 285/285/285 283/283/283
f 286/286/286 283/283/283 287/287/287
f 287/287/287 283/283/283 282/282/282
f 287/287/287 282/282/282 288/288/288
f 289/289/289 290/290/290 291/291/291
f 289/289/289 291/291/291 292/292/292
f 293/293/293 289/289/289 292/292/292
f 293/293/293 294/294/294 289/289/289
f 295/295/295 292/292/292 291/291/291
f 293/293/293 292/292/292 295/295/295
f 295/295/295 291/291/291 296/296/296
f 293/293/293 295/295/295 297/297/297
f 298/298/298 299/299/299 300/300/300
f 298/298/298 300/300/300 301/301/301
f 298/298/298 301/301/301 302/302/302
f 298/298/298 302/302/302 303/303/303
f 304/304/304 298/298/298 303/303/303
f 304/304/304 305/305/305 298/298/298
f 305/305/305 299/299/299 298/298/298
f 305/305/305 306/306/306 299/299/299
f 307/307/307 308/308/308 309/309/309
f 307/307/307 309/309/309 310/310/310
f 311/311/311 308/308/308 307/307/307
f 311/311/311 312/312/312 308/308/308
f 308/308/308 312/312/312 313/313/313
f 308/308/308 313/313/313 314/314/314
f 309/309/309 308/308/308 314/314/314
f 309/309/309 314/314/314 315/315/315
f 316/316/316 317/317/317 318/318/318
f 316/316/316 318/318/318 319/319/319
f 320/320/320 317/317/317 316/316/316
f 320/320/320 321/321/321 317/317/317
f 318/318/318 317/317/317 322/322/322
f 321/321/321 322/322/322 317/317/317
f 318/318/318 322/322/322 323/323/323
f 321/321/321 324/324/324 322/322/322
f 325/325/325 326/326/326 327/327/327
f 325/325/325 327/327/327 328/328/328
f 329/329/329 325/325/325 328/328/328
f 329/329/329 330/330/330 325/325/325
f 331/331/331 328/328/328 327/327/327
f 329/329/329 328/328/328 331/331/331
f 331/331/331 327/327/327 332/332/332
f 329/329/329 331/331/331 333/333/333
f 334/334/334 335/335/335 336/336/336
f 334/334/334 336/336/336 337/337/337
f 338/338/338 334/334/334 337/337/337
f 338/338/338 339/339/339 334/334/334
f 340/340/340 337/337/337 336/336/336
f 338/338/338 337/337/337 340/340/340
f 340/340/340 336/336/336 341/341/341
f 338/338/338 340/340/340 342/342/342
f 343/343/343 344/344/344 345/345/345
f 343/343/343 345/345/345 346/346/346
f 347/347/347 343/343/343 346/346/346
f 347/347/347 348/348/348 343/343/343
f 349/349/349 346/346/346 345/345/345
f 347/347/347 346/346/346 349/349/349
f 349/349/349 345/345/345 350/350/350
f 347/347/347 349/349/349 351/351/351
f 352/352/352 353/353/353 354/354/354
f 352/352/352 354/354/354 355/355/355
f 356/356/356 352/352/352 355/355/355
f 356/356/356 357/357/357 352/352/352
f 358/358/358 355/355/355 354/354/354
f 356/356/356 355/355/355 358/358/358
f 358/358/358 354/354/354 359/359/359
f 356/356/356 358/358/358 360/360/360
f 361/361/361 362/362/362 363/363/363
f 361/361/361 363/363/363 364/364/364
f 365/365/365 361/361/361 364/364/364
f 365/365/365 366/366/366 361/361/361
f 367/367/367 364/364/364 363/363/363
f 365/365/365 364/364/364 367/367/367
f 367/367/367 363/363/363 368/368/368
f 365/365/365 367/367/367 369/369/369
f 370/370/370 371/371/371 372/372/372
f 370/370/370 372/372/372 373/373/373
f 374/374/374 370/370/370 373/373/373
f 374/374/374 375/375/375 370/370/370
f 376/376/376 373/373/373 372/372/372
f 374/374/374 373/373/373 376/376/376
f 376/376/376 372/372/372 377/377/377
f 374/374/374 376/376/376 378/378/378
f 379/379/379 380/380/380 381/381/381
f 379/379/379 381/381/381 382/382/382
f 382/382/382 381/381/381 383/383/383
f 382/382/382 383/383/383 384/384/384
f 385/385/385 382/382/382 384/384/384
f 385/385/385 386/386/386 382/382/382
f 386/386/386 379/379/379 382/382/382
f 386/386/386 387/387/387 379/379/379
f 388/388/388 389/389/389 390/390/390
f 388/388/388 390/390/390 391/391/391
f 391/391/391 390/390/390 392/392/392
f 391/391/391 392/392/392 393/393/393
f 391/391/391 393/393/393 394/394/394
f 391/391/391 394/394/394 395/395/395
f 388/388/388 391/391/391 395/395/395
f 388/388/388 395/395/395 396/396/396
f 397/397/397 398/398/398 399/399/399
f 397/397/397 399/399/399 400/400/400
f 400/400/400 399/399/399 401/401/401
f 400/400/400 401/401/401 402/402/402
f 400/400/400 402/402/402 403/403/403
f 400/400/400 403/403/403 404/404/404
f 397/397/397 400/400/400 404/404/404
f 397/397/397 404/404/404 405/405/405
f 406/406/406 407/407/407 408/408/408
f 406/406/406 408/408/408 409/409/409
f 409/409/409 408/408/408 410/410/410
f 409/409/409 410/410/410 411/411/411
f 409/409/409 411/411/411 412/412/412
f 409/409/409 412/412/412 413/413/413
f 406/406/406 409/409/409 413/413/413
f 406/406/406 413/413/413 414/414/414
f 415/415/415 416/416/416 417/417/417
f 415/415/415 417/417/417 418/418/418
f 418/418/418 417/417/417 419/419/419
f 418/418/418 419/419/419 420/420/420
f 418/418/418 420/420/420 421/421/421
f 418/418/418 421/421/421 422/422/422
f 415/415/415 418/418/418 422/422/422
f 415/415/415 422/422/422 423/423/423
f 424/424/424 425/425/425 426/426/426
f 424/424/424 426/426/426 427/427/427
f 427/427/427 426/426/426 428/428/428
f 427/427/427 428/428/428 429/429/429
f 427/427/427 429/429/429 430/430/430
f 427/427/427 430/430/430 431/431/431
f 424/424/424 427/427/427 431/431/431
f 424/424/424 431/431/431 432/432/432
f 433/433/433 434/434/434 435/435/435
f 433/433/433 435/435/435 436/436/436
f 437/437/437 434/434/434 433/433/433
f 437/437/437 438/438/438 434/434/434
f 435/435/435 434/434/434 439/439/439
f 438/438/438 439/439/439 434/434/434
f 435/435/435 439/439/439 440/440/440
f 438/438/438 441/441/441 439/439/439
f 442/442/442 443/443/443 444/444/444
f 442/442/442 444/444/444 445/445/445
f 446/446/446 442/442/442 445/445/445
f 446/446/446 447/447/447 442/442/442
f 448/448/448 445/445/445 444/444/444
f 446/446/446 445/445/445 448/448/448
f 448/448/448 444/444/444 449/449/449
f 446/446/446 448/448/448 450/450/450
f 451/451/451 452/452/452 453/453/453
f 451/451/451 453/453/453 454/454/454
f 454/454/454 453/453/453 455/455/455
f 454/454/454 455/455/455 456/456/456
f 457/457/457 451/451/451 454/454/454
f 457/457/457 454/454/454 456/456/456
f 457/457/457 458/458/458 451/451/451
f 457/457/457 456/456/456 459/459/459
f 460/460/460 461/461/461 462/462/462
f 460/460/460 462/462/462 463/463/463
f 464/464/464 460/460/460 463/463/463
f 464/464/464 465/465/465 460/460/460
f 466/466/466 463/463/463 462/462/462
f 464/464/464 463/463/463 466/466/466
f 466/466/466 462/462/462 467/467/467
f 464/464/464 466/466/466 468/468/468
f 469/469/469 470/470/470 471/471/471
f 469/469/469 471/471/471 472/472/472
f 469/469/469 473/473/473 470/470/470
f 469/469/469 474/474/474 473/473/473
f 471/471/471 470/470/470 475/475/475
f 473/473/473 475/475/475 470/470/470
f 471/471/471 475/475/475 476/476/476
f 473/473/473 477/477/477 475/475/475
f 478/478/478 479/479/479 480/480/480
f 478/478/478 480/480/480 481/481/481
f 479/479/479 478/478/478 482/482/482
f 479/479/479 482/482/482 483/483/483
f 482/482/482 484/484/484 483/483/483
f 485/485/485 486/486/486 487/487/487
f 485/485/485 487/487/487 488/488/488
f 489/489/489 488/488/488 487/487/487
f 489/489/489 490/490/490 488/488/488
f 489/489/489 491/491/491 490/490/490
f 489/489/489 492/492/492 491/491/491
f 493/493/493 491/491/491 492/492/492
f 493/493/493 494/494/494 491/491/491
f 495/495/495 496/496/496 497/497/497
f 495/495/495 497/497/497 498/498/498
f 499/499/499 496/496/496 495/495/495
f 499/499/499 500/500/500 496/496/496
f 501/501/501 500/500/500 499/499/499
f 501/501/501 502/502/502 500/500/500
f 501/501/501 503/503/503 502/502/502
f 501/501/501 504/504/504 503/503/503
f 505/505/505 506/506/506 507/507/507
f 505/505/505 507/507/507 508/508/508
f 506/506/506 509/509/509 507/507/507
f 506/506/506 510/510/510 509/509/509
f 509/509/509 510/510/510 511/511/511
f 509/509/509 511/511/511 512/512/512
f 511/511/511 513/513/513 512/512/512
f 511/511/511 514/514/514 513/513/513
f 515/515/515 513/513/513 514/514/514
f 516/516/516 517/517/517 518/518/518
f 516/516/516 518/518/518 519/519/519
f 519/519/519 518/518/518 520/520/520
f 519/519/519 520/520/520 521/521/521
f 522/522/522 521/521/521 520/520/520
f 522/522/522 523/523/523 521/521/521
f 523/523/523 522/522/522 524/524/524
f 525/525/525 526/526/526 527/527/527
f 527/527/527 528/528/528 525/525/525
f 526/526/526 529/529/529 527/527/527
f 526/526/526 530/530/530 529/529/529
f 530/530/530 531/531/531 529/529/529
f 526/526/526 532/532/532 530/530/530
f 526/526/526 533/533/533 532/532/532
