o Sponza_Mesh_046
v 1.036918 -4.592236 -0.020050
v 10.417525 -4.592238 -0.020050
v 10.417525 5.146894 -0.020050
v -2.034854 -4.592236 -0.020050
v -11.428159 -4.592235 -0.020050
v -0.506736 5.150692 -0.020050
v -11.428159 5.154491 -0.020050
vt 2.621700 5.952500
vt -1.890500 5.952500
vt -1.890500 1.267900
vt 4.099200 5.952500
vt 8.617500 5.952500
vt 3.364200 1.266100
vt 8.617500 1.264200
vn 0.000000 0.000000 1.000000
vn 0.000000 0.000000 1.000000
vn 0.000000 0.000000 1.000000
vn 0.000000 0.000000 1.000000
vn 0.000000 0.000000 1.000000
vn 0.000000 0.000000 1.000000
vn 0.000000 0.000000 1.000000
f 1/1/1 2/2/2 3/3/3
f 1/1/1 3/3/3 4/4/4
f 5/5/5 4/4/4 3/3/3
f 5/5/5 3/3/3 6/6/6
f 7/7/7 5/5/5 6/6/6
