o Sponza_Mesh_050
v -0.066103 -4.549267 2.053848
v -0.122566 -4.571975 2.084608
v -0.122566 -4.571975 2.717962
v -0.066104 -4.549267 2.785579
v -0.955258 -4.604042 2.053848
v -0.955258 -4.549267 2.053848
v -0.066103 -4.549267 2.053848
v -0.066103 -4.604042 2.053848
v -0.955258 -4.604042 2.785579
v -0.955258 -4.549267 2.785579
v -0.955258 -4.549267 2.053848
v -0.955258 -4.604042 2.053848
v -0.066104 -4.604042 2.785579
v -0.066104 -4.549267 2.785579
v -0.955258 -4.549267 2.785579
v -0.955258 -4.604042 2.785579
v -0.066103 -4.604042 2.053848
v -0.066103 -4.549267 2.053848
v -0.066104 -4.549267 2.785579
v -0.066104 -4.604042 2.785579
v -0.122566 -4.571975 2.717962
v -0.122566 -4.571975 2.084608
v -0.895181 -4.571975 2.084607
v -0.895181 -4.571975 2.717962
v -0.066104 -4.549267 2.785579
v -0.122566 -4.571975 2.717962
v -0.895181 -4.571975 2.717962
v -0.955258 -4.549267 2.785579
v -0.955258 -4.549267 2.053848
v -0.895181 -4.571975 2.084607
v -0.122566 -4.571975 2.084608
v -0.066103 -4.549267 2.053848
v -0.955258 -4.549267 2.053848
v -0.955258 -4.549267 2.785579
v -0.895181 -4.571975 2.717962
v -0.895181 -4.571975 2.084607
vt 0.068400 0.176300
vt 0.092900 0.208500
vt 0.092900 0.871400
vt 0.068400 0.903700
vt 0.937000 0.119000
vt 0.937000 0.176300
vt 0.068400 0.176300
vt 0.068400 0.119000
vt 0.994300 0.903700
vt 0.937000 0.903700
vt 0.937000 0.176300
vt 0.994300 0.176300
vt 0.068400 0.961000
vt 0.068400 0.903700
vt 0.937000 0.903700
vt 0.937000 0.961000
vt 0.011100 0.176300
vt 0.068400 0.176300
vt 0.068400 0.903700
vt 0.011100 0.903700
vt 0.092900 0.871400
vt 0.092900 0.208500
vt 0.901500 0.208500
vt 0.901500 0.871400
vt 0.068400 0.903700
vt 0.092900 0.871400
vt 0.901500 0.871400
vt 0.937000 0.903700
vt 0.937000 0.176300
vt 0.901500 0.208500
vt 0.092900 0.208500
vt 0.068400 0.176300
vt 0.937000 0.176300
vt 0.937000 0.903700
vt 0.901500 0.871400
vt 0.901500 0.208500
vn -0.373097 0.927792 -0.000000
vn -0.373097 0.927792 -0.000000
vn -0.373097 0.927792 -0.000000
vn -0.373097 0.927792 -0.000000
vn 0.000000 0.000000 -1.000000
vn 0.000000 0.000000 -1.000000
vn 0.000000 0.000000 -1.000000
vn 0.000000 0.000000 -1.000000
vn -1.000000 0.000000 0.000000
vn -1.000000 0.000000 0.000000
vn -1.000000 0.000000 0.000000
vn -1.000000 0.000000 0.000000
vn 0.000000 0.000000 1.000000
vn 0.000000 0.000000 1.000000
vn 0.000000 0.000000 1.000000
vn 0.000000 0.000000 1.000000
vn 1.000000 0.000000 0.000000
vn 1.000000 0.000000 0.000000
vn 1.000000 0.000000 0.000000
vn 1.000000 0.000000 0.000000
vn 0.000000 1.000000 0.000000
vn 0.000000 1.000000 0.000000
vn 0.000000 1.000000 0.000000
vn 0.000000 1.000000 0.000000
vn 0.000000 0.947991 -0.318297
vn 0.000000 0.947991 -0.318297
vn 0.000000 0.947991 -0.318297
vn 0.000000 0.947991 -0.318297
vn -0.000000 0.804525 0.593919
vn -0.000000 0.804525 0.593919
vn -0.000000 0.804525 0.593919
vn 0.000000 0.804525 0.593919
vn 0.353511 0.935430 0.000000
vn 0.353511 0.935430 0.000000
vn 0.353511 0.935430 0.000000
vn 0.353511 0.935430 0.000000
f 1/1/1 2/2/2 3/3/3
f 1/1/1 3/3/3 4/4/4
f 5/5/5 6/6/6 7/7/7
f 5/5/5 7/7/7 8/8/8
f 9/9/9 10/10/10 11/11/11
f 9/9/9 11/11/11 12/12/12
f 13/13/13 14/14/14 15/15/15
f 13/13/13 15/15/15 16/16/16
f 17/17/17 18/18/18 19/19/19
f 17/17/17 19/19/19 20/20/20
f 21/21/21 22/22/22 23/23/23
f 21/21/21 23/23/23 24/24/24
f 25/25/25 26/26/26 27/27/27
f 25/25/25 27/27/27 28/28/28
f 29/29/29 30/30/30 31/31/31
f 29/29/29 31/31/31 32/32/32
f 33/33/33 34/34/34 35/35/35
f 33/33/33 35/35/35 36/36/36
